G04 #@! TF.GenerationSoftware,KiCad,Pcbnew,7.0.8*
G04 #@! TF.CreationDate,2023-11-03T23:08:19-04:00*
G04 #@! TF.ProjectId,robot,726f626f-742e-46b6-9963-61645f706362,rev?*
G04 #@! TF.SameCoordinates,Original*
G04 #@! TF.FileFunction,Copper,L1,Top*
G04 #@! TF.FilePolarity,Positive*
%FSLAX46Y46*%
G04 Gerber Fmt 4.6, Leading zero omitted, Abs format (unit mm)*
G04 Created by KiCad (PCBNEW 7.0.8) date 2023-11-03 23:08:19*
%MOMM*%
%LPD*%
G01*
G04 APERTURE LIST*
G04 Aperture macros list*
%AMRoundRect*
0 Rectangle with rounded corners*
0 $1 Rounding radius*
0 $2 $3 $4 $5 $6 $7 $8 $9 X,Y pos of 4 corners*
0 Add a 4 corners polygon primitive as box body*
4,1,4,$2,$3,$4,$5,$6,$7,$8,$9,$2,$3,0*
0 Add four circle primitives for the rounded corners*
1,1,$1+$1,$2,$3*
1,1,$1+$1,$4,$5*
1,1,$1+$1,$6,$7*
1,1,$1+$1,$8,$9*
0 Add four rect primitives between the rounded corners*
20,1,$1+$1,$2,$3,$4,$5,0*
20,1,$1+$1,$4,$5,$6,$7,0*
20,1,$1+$1,$6,$7,$8,$9,0*
20,1,$1+$1,$8,$9,$2,$3,0*%
%AMFreePoly0*
4,1,13,0.900000,0.500000,2.600000,0.500000,2.600000,-0.500000,0.900000,-0.500000,0.400000,-1.000000,-0.400000,-1.000000,-0.900000,-0.500000,-2.600000,-0.500000,-2.600000,0.500000,-0.900000,0.500000,-0.400000,1.000000,0.400000,1.000000,0.900000,0.500000,0.900000,0.500000,$1*%
G04 Aperture macros list end*
G04 #@! TA.AperFunction,ComponentPad*
%ADD10O,3.556000X1.778000*%
G04 #@! TD*
G04 #@! TA.AperFunction,SMDPad,CuDef*
%ADD11RoundRect,0.250000X-0.350000X-0.450000X0.350000X-0.450000X0.350000X0.450000X-0.350000X0.450000X0*%
G04 #@! TD*
G04 #@! TA.AperFunction,SMDPad,CuDef*
%ADD12RoundRect,0.250000X0.350000X0.450000X-0.350000X0.450000X-0.350000X-0.450000X0.350000X-0.450000X0*%
G04 #@! TD*
G04 #@! TA.AperFunction,SMDPad,CuDef*
%ADD13RoundRect,0.250000X0.450000X-0.325000X0.450000X0.325000X-0.450000X0.325000X-0.450000X-0.325000X0*%
G04 #@! TD*
G04 #@! TA.AperFunction,ComponentPad*
%ADD14R,1.700000X1.700000*%
G04 #@! TD*
G04 #@! TA.AperFunction,ComponentPad*
%ADD15O,1.700000X1.700000*%
G04 #@! TD*
G04 #@! TA.AperFunction,SMDPad,CuDef*
%ADD16RoundRect,0.250000X-0.475000X0.337500X-0.475000X-0.337500X0.475000X-0.337500X0.475000X0.337500X0*%
G04 #@! TD*
G04 #@! TA.AperFunction,SMDPad,CuDef*
%ADD17RoundRect,0.250000X-0.325000X-0.450000X0.325000X-0.450000X0.325000X0.450000X-0.325000X0.450000X0*%
G04 #@! TD*
G04 #@! TA.AperFunction,SMDPad,CuDef*
%ADD18RoundRect,0.250000X0.475000X-0.337500X0.475000X0.337500X-0.475000X0.337500X-0.475000X-0.337500X0*%
G04 #@! TD*
G04 #@! TA.AperFunction,ComponentPad*
%ADD19R,1.650000X1.650000*%
G04 #@! TD*
G04 #@! TA.AperFunction,ComponentPad*
%ADD20C,1.650000*%
G04 #@! TD*
G04 #@! TA.AperFunction,SMDPad,CuDef*
%ADD21RoundRect,0.250000X0.450000X-0.350000X0.450000X0.350000X-0.450000X0.350000X-0.450000X-0.350000X0*%
G04 #@! TD*
G04 #@! TA.AperFunction,SMDPad,CuDef*
%ADD22C,2.000000*%
G04 #@! TD*
G04 #@! TA.AperFunction,ComponentPad*
%ADD23R,2.000000X2.000000*%
G04 #@! TD*
G04 #@! TA.AperFunction,ComponentPad*
%ADD24C,2.000000*%
G04 #@! TD*
G04 #@! TA.AperFunction,SMDPad,CuDef*
%ADD25RoundRect,0.250000X-0.450000X0.325000X-0.450000X-0.325000X0.450000X-0.325000X0.450000X0.325000X0*%
G04 #@! TD*
G04 #@! TA.AperFunction,ComponentPad*
%ADD26C,3.800000*%
G04 #@! TD*
G04 #@! TA.AperFunction,SMDPad,CuDef*
%ADD27RoundRect,0.100000X-0.637500X-0.100000X0.637500X-0.100000X0.637500X0.100000X-0.637500X0.100000X0*%
G04 #@! TD*
G04 #@! TA.AperFunction,SMDPad,CuDef*
%ADD28R,1.560000X0.650000*%
G04 #@! TD*
G04 #@! TA.AperFunction,SMDPad,CuDef*
%ADD29RoundRect,0.250000X-0.450000X0.350000X-0.450000X-0.350000X0.450000X-0.350000X0.450000X0.350000X0*%
G04 #@! TD*
G04 #@! TA.AperFunction,SMDPad,CuDef*
%ADD30RoundRect,0.250000X0.337500X0.475000X-0.337500X0.475000X-0.337500X-0.475000X0.337500X-0.475000X0*%
G04 #@! TD*
G04 #@! TA.AperFunction,SMDPad,CuDef*
%ADD31R,0.450000X1.500000*%
G04 #@! TD*
G04 #@! TA.AperFunction,SMDPad,CuDef*
%ADD32RoundRect,0.250000X-0.337500X-0.475000X0.337500X-0.475000X0.337500X0.475000X-0.337500X0.475000X0*%
G04 #@! TD*
G04 #@! TA.AperFunction,SMDPad,CuDef*
%ADD33R,1.500000X0.700000*%
G04 #@! TD*
G04 #@! TA.AperFunction,SMDPad,CuDef*
%ADD34FreePoly0,0.000000*%
G04 #@! TD*
G04 #@! TA.AperFunction,ComponentPad*
%ADD35RoundRect,0.250000X-0.600000X-0.750000X0.600000X-0.750000X0.600000X0.750000X-0.600000X0.750000X0*%
G04 #@! TD*
G04 #@! TA.AperFunction,ComponentPad*
%ADD36O,1.700000X2.000000*%
G04 #@! TD*
G04 #@! TA.AperFunction,ComponentPad*
%ADD37R,1.530000X1.530000*%
G04 #@! TD*
G04 #@! TA.AperFunction,ComponentPad*
%ADD38C,1.530000*%
G04 #@! TD*
G04 #@! TA.AperFunction,ViaPad*
%ADD39C,0.800000*%
G04 #@! TD*
G04 #@! TA.AperFunction,ViaPad*
%ADD40C,0.600000*%
G04 #@! TD*
G04 #@! TA.AperFunction,Conductor*
%ADD41C,0.400000*%
G04 #@! TD*
G04 #@! TA.AperFunction,Conductor*
%ADD42C,0.500000*%
G04 #@! TD*
G04 #@! TA.AperFunction,Conductor*
%ADD43C,0.200000*%
G04 #@! TD*
G04 APERTURE END LIST*
D10*
X207800000Y-81800000D03*
X207800000Y-69100000D03*
X207800000Y-84340000D03*
X207800000Y-71640000D03*
X207800000Y-74180000D03*
X207800000Y-66560000D03*
X207800000Y-79260000D03*
X207800000Y-76720000D03*
D11*
X214200000Y-81400000D03*
X216200000Y-81400000D03*
D12*
X213800000Y-83400000D03*
X211800000Y-83400000D03*
D13*
X206200000Y-59800000D03*
X206200000Y-57750000D03*
D14*
X213020000Y-110560000D03*
D15*
X215560000Y-110560000D03*
X218100000Y-110560000D03*
X220640000Y-110560000D03*
D16*
X190270000Y-77302500D03*
X190270000Y-79377500D03*
D12*
X200120000Y-99060000D03*
X198120000Y-99060000D03*
D17*
X159755000Y-79000000D03*
X161805000Y-79000000D03*
D12*
X198000000Y-66500000D03*
X196000000Y-66500000D03*
D14*
X160422500Y-91245000D03*
D15*
X160422500Y-88705000D03*
D18*
X191000000Y-72537500D03*
X191000000Y-70462500D03*
D12*
X200120000Y-105800000D03*
X198120000Y-105800000D03*
D19*
X211487500Y-95012500D03*
D20*
X211487500Y-92862500D03*
X211487500Y-90712500D03*
D21*
X182200000Y-88800000D03*
X182200000Y-86800000D03*
D22*
X174500000Y-83000000D03*
D23*
X165000000Y-73500000D03*
D24*
X170000000Y-73500000D03*
D25*
X211000000Y-60975000D03*
X211000000Y-63025000D03*
D22*
X174500000Y-100600000D03*
X174500000Y-74000000D03*
D14*
X160600000Y-60400000D03*
D15*
X160600000Y-62940000D03*
D26*
X190400000Y-109800000D03*
D14*
X160285000Y-104570000D03*
D15*
X160285000Y-102030000D03*
D27*
X164280000Y-103200000D03*
X164280000Y-103850000D03*
X164280000Y-104500000D03*
X164280000Y-105150000D03*
X164280000Y-105800000D03*
X164280000Y-106450000D03*
X164280000Y-107100000D03*
X164280000Y-107750000D03*
X170005000Y-107750000D03*
X170005000Y-107100000D03*
X170005000Y-106450000D03*
X170005000Y-105800000D03*
X170005000Y-105150000D03*
X170005000Y-104500000D03*
X170005000Y-103850000D03*
X170005000Y-103200000D03*
D28*
X195420000Y-68580000D03*
X195420000Y-69530000D03*
X195420000Y-70480000D03*
X198120000Y-70480000D03*
X198120000Y-68580000D03*
D19*
X211487500Y-102412500D03*
D20*
X211487500Y-100262500D03*
X211487500Y-98112500D03*
D14*
X160422500Y-95245000D03*
D15*
X160422500Y-97785000D03*
D22*
X174500000Y-93000000D03*
D14*
X160285000Y-108530000D03*
D15*
X160285000Y-111070000D03*
D25*
X159805000Y-74475000D03*
X159805000Y-76525000D03*
D29*
X184600000Y-86800000D03*
X184600000Y-88800000D03*
X200600000Y-83800000D03*
X200600000Y-85800000D03*
D28*
X190000000Y-61300000D03*
X190000000Y-60350000D03*
X190000000Y-59400000D03*
X187300000Y-59400000D03*
X187300000Y-61300000D03*
D14*
X202400000Y-59660000D03*
D15*
X202400000Y-62200000D03*
D22*
X174500000Y-88500000D03*
D26*
X215400000Y-67600000D03*
D29*
X180600000Y-72600000D03*
X180600000Y-74600000D03*
D30*
X168675000Y-101200000D03*
X166600000Y-101200000D03*
X166800000Y-99000000D03*
X164725000Y-99000000D03*
X174000000Y-104600000D03*
X171925000Y-104600000D03*
D22*
X174500000Y-78500000D03*
D16*
X174400000Y-106600000D03*
X174400000Y-108675000D03*
D31*
X212800000Y-85540000D03*
X211500000Y-85540000D03*
X212150000Y-88200000D03*
D30*
X170800000Y-99000000D03*
X168725000Y-99000000D03*
D32*
X187962500Y-82500000D03*
X190037500Y-82500000D03*
D16*
X198000000Y-72425000D03*
X198000000Y-74500000D03*
D26*
X165200000Y-111600000D03*
D31*
X217100000Y-88200000D03*
X218400000Y-88200000D03*
X217750000Y-85540000D03*
D22*
X174500000Y-97500000D03*
D14*
X160400000Y-84600000D03*
D15*
X160400000Y-82060000D03*
D33*
X184150000Y-77500000D03*
D34*
X186000000Y-79000000D03*
D33*
X184150000Y-80500000D03*
X187850000Y-80500000D03*
X187850000Y-77500000D03*
D29*
X180600000Y-68200000D03*
X180600000Y-70200000D03*
D23*
X165500000Y-62500000D03*
D24*
X170500000Y-62500000D03*
D11*
X189000000Y-68500000D03*
X191000000Y-68500000D03*
D22*
X174500000Y-69500000D03*
D17*
X159780000Y-67500000D03*
X161830000Y-67500000D03*
D27*
X164417500Y-92225000D03*
X164417500Y-92875000D03*
X164417500Y-93525000D03*
X164417500Y-94175000D03*
X164417500Y-94825000D03*
X164417500Y-95475000D03*
X164417500Y-96125000D03*
X164417500Y-96775000D03*
X170142500Y-96775000D03*
X170142500Y-96125000D03*
X170142500Y-95475000D03*
X170142500Y-94825000D03*
X170142500Y-94175000D03*
X170142500Y-93525000D03*
X170142500Y-92875000D03*
X170142500Y-92225000D03*
D23*
X165400000Y-85000000D03*
D24*
X170400000Y-85000000D03*
D21*
X207600000Y-95600000D03*
X207600000Y-93600000D03*
D22*
X206400000Y-62800000D03*
X207000000Y-87400000D03*
D12*
X200120000Y-88400000D03*
X198120000Y-88400000D03*
D25*
X174800000Y-62550000D03*
X174800000Y-64600000D03*
D14*
X178800000Y-62000000D03*
D15*
X178800000Y-59460000D03*
D22*
X207400000Y-102400000D03*
D35*
X215700000Y-60500000D03*
D36*
X218200000Y-60500000D03*
D16*
X185045000Y-61025000D03*
X185045000Y-63100000D03*
D13*
X174800000Y-59825000D03*
X174800000Y-57775000D03*
D12*
X200120000Y-102400000D03*
X198120000Y-102400000D03*
D31*
X215650000Y-85600000D03*
X214350000Y-85600000D03*
X215000000Y-88260000D03*
D18*
X172200000Y-108675000D03*
X172200000Y-106600000D03*
D12*
X200120000Y-95200000D03*
X198120000Y-95200000D03*
D13*
X159805000Y-72050000D03*
X159805000Y-70000000D03*
D14*
X212900000Y-106360000D03*
D15*
X215440000Y-106360000D03*
X217980000Y-106360000D03*
X220520000Y-106360000D03*
D37*
X177800000Y-65960000D03*
D38*
X177800000Y-68500000D03*
X177800000Y-71040000D03*
X177800000Y-73580000D03*
X177800000Y-76120000D03*
X177800000Y-78660000D03*
X177800000Y-81200000D03*
X177800000Y-83740000D03*
X177800000Y-86280000D03*
X177800000Y-88820000D03*
X177800000Y-91360000D03*
X177800000Y-93900000D03*
X177800000Y-96440000D03*
X177800000Y-98980000D03*
X177800000Y-101520000D03*
X177800000Y-104060000D03*
X177800000Y-106600000D03*
X177800000Y-109140000D03*
X177800000Y-111680000D03*
X203200000Y-111680000D03*
X203200000Y-109140000D03*
X203200000Y-106600000D03*
X203200000Y-104060000D03*
X203200000Y-101520000D03*
X203200000Y-98980000D03*
X203200000Y-96440000D03*
X203200000Y-93900000D03*
X203200000Y-91360000D03*
X203200000Y-88820000D03*
X203200000Y-86280000D03*
X203200000Y-83740000D03*
X203200000Y-81200000D03*
X203200000Y-78660000D03*
X203200000Y-76120000D03*
X203200000Y-73580000D03*
X203200000Y-71040000D03*
X203200000Y-68500000D03*
X203200000Y-65960000D03*
D12*
X200120000Y-91850000D03*
X198120000Y-91850000D03*
D32*
X185007500Y-65100000D03*
X187082500Y-65100000D03*
D26*
X190500000Y-89400000D03*
D22*
X207000000Y-90600000D03*
D14*
X207600000Y-108060000D03*
D15*
X207600000Y-110600000D03*
D39*
X217374312Y-95574312D03*
X185094287Y-70905713D03*
X217400000Y-99400000D03*
X189747907Y-70084031D03*
D40*
X198000000Y-100800000D03*
X195600000Y-100800000D03*
X209200000Y-86800000D03*
X211324500Y-86800000D03*
X173600000Y-90000000D03*
X175400000Y-90000000D03*
X167800000Y-85700500D03*
X167800000Y-89200000D03*
X171800000Y-89199500D03*
X171800000Y-88000000D03*
X167200000Y-90399500D03*
X168399500Y-85000000D03*
X200200000Y-112651000D03*
X173718533Y-112651000D03*
X205255227Y-63995273D03*
X195000000Y-101800000D03*
X201264511Y-113250500D03*
X172594622Y-112405378D03*
X170626161Y-108978339D03*
X179813911Y-84986089D03*
X171426411Y-102799500D03*
X179183137Y-85800000D03*
D39*
X171800000Y-94675500D03*
X220450000Y-83200000D03*
X172400000Y-99600000D03*
X218750500Y-83200000D03*
X211500000Y-84400000D03*
X162600000Y-104350500D03*
D40*
X199200000Y-104000000D03*
D39*
X176055000Y-105400000D03*
D40*
X181800000Y-83400000D03*
X179600000Y-64000000D03*
D39*
X218750500Y-85600000D03*
D40*
X199200000Y-100400000D03*
D39*
X162800000Y-93200000D03*
D40*
X185346767Y-81073383D03*
D39*
X162600000Y-106800000D03*
X185800000Y-59600000D03*
X184600000Y-90400000D03*
D40*
X181400000Y-65800000D03*
X181800000Y-85000000D03*
D39*
X200600000Y-87000000D03*
D40*
X189400000Y-72200000D03*
X168800000Y-88000000D03*
X166200000Y-88000000D03*
X213400000Y-96800000D03*
X187000000Y-69400000D03*
D39*
X168400000Y-103800000D03*
X172000000Y-91400000D03*
X162800000Y-95800000D03*
X183600000Y-63800000D03*
D40*
X219000000Y-98400000D03*
X182750487Y-78709467D03*
X184600000Y-85000000D03*
X213800000Y-99200000D03*
X181200000Y-81600000D03*
X218600000Y-96200000D03*
D39*
X209200000Y-63000000D03*
X201985000Y-65000000D03*
X215099647Y-98699647D03*
X182600000Y-62800000D03*
X214672469Y-95310469D03*
X181749562Y-78949562D03*
X185000497Y-82500000D03*
D40*
X183400000Y-86000000D03*
X190400000Y-86000000D03*
D41*
X170937108Y-93525000D02*
X170142500Y-93525000D01*
X169297892Y-91625000D02*
X170987108Y-91625000D01*
X171280000Y-91917892D02*
X171280000Y-93182108D01*
X170987108Y-91625000D02*
X171280000Y-91917892D01*
X171280000Y-93182108D02*
X170937108Y-93525000D01*
X168205000Y-97413481D02*
X168205000Y-92717892D01*
X168725000Y-97933481D02*
X168725000Y-99000000D01*
X168205000Y-92717892D02*
X169297892Y-91625000D01*
X168205000Y-97413481D02*
X168725000Y-97933481D01*
D42*
X165000000Y-73500000D02*
X163000000Y-75500000D01*
X159805000Y-63735000D02*
X160600000Y-62940000D01*
X159805000Y-67400000D02*
X159805000Y-63735000D01*
X159780000Y-67425000D02*
X159805000Y-67400000D01*
X163000000Y-75500000D02*
X159065050Y-75500000D01*
X159065050Y-75500000D02*
X158655000Y-75089950D01*
X159805000Y-70000000D02*
X159805000Y-67400000D01*
X158655000Y-75089950D02*
X158655000Y-71150000D01*
X159780000Y-67500000D02*
X159780000Y-67425000D01*
X158655000Y-71150000D02*
X159805000Y-70000000D01*
X159100100Y-76525000D02*
X157955000Y-75379899D01*
X159755000Y-79000000D02*
X165400000Y-84645000D01*
X166975000Y-76525000D02*
X159805000Y-76525000D01*
X170000000Y-63000000D02*
X170500000Y-62500000D01*
X157955000Y-63045000D02*
X160600000Y-60400000D01*
X165400000Y-84645000D02*
X165400000Y-85000000D01*
X159805000Y-76525000D02*
X159100100Y-76525000D01*
X170000000Y-73500000D02*
X170000000Y-63000000D01*
X159755000Y-79000000D02*
X159755000Y-76575000D01*
X170000000Y-73500000D02*
X166975000Y-76525000D01*
X159755000Y-76575000D02*
X159805000Y-76525000D01*
X157955000Y-75379899D02*
X157955000Y-63045000D01*
D41*
X172617894Y-95475000D02*
X172700000Y-95392894D01*
X172700000Y-91992894D02*
X173000000Y-91692894D01*
X172700000Y-95392894D02*
X172700000Y-91992894D01*
X173000000Y-91692894D02*
X173000000Y-90600000D01*
X167605000Y-92469364D02*
X167605000Y-98195000D01*
X173000000Y-90600000D02*
X169474364Y-90600000D01*
X169474364Y-90600000D02*
X167605000Y-92469364D01*
X170142500Y-95475000D02*
X172617894Y-95475000D01*
X167605000Y-98195000D02*
X166800000Y-99000000D01*
D42*
X191932500Y-69530000D02*
X191000000Y-70462500D01*
X205800000Y-101949390D02*
X206200000Y-101549390D01*
X217400000Y-99400000D02*
X217400000Y-103850000D01*
X206724695Y-103850000D02*
X205800000Y-102925305D01*
X195420000Y-69530000D02*
X191932500Y-69530000D01*
X219600000Y-88200000D02*
X218400000Y-88200000D01*
X190126376Y-70462500D02*
X191000000Y-70462500D01*
X205800000Y-102925305D02*
X205800000Y-101949390D01*
X218200000Y-61800000D02*
X218200000Y-60500000D01*
X196750000Y-68991396D02*
X196750000Y-67250000D01*
X217374312Y-95574312D02*
X219600000Y-93348624D01*
X219600000Y-65425000D02*
X217087500Y-62912500D01*
X215125000Y-64800000D02*
X217012500Y-62912500D01*
X179000000Y-64600000D02*
X174800000Y-64600000D01*
X202400000Y-62200000D02*
X205000000Y-64800000D01*
X185094287Y-70905713D02*
X185094287Y-70694287D01*
X217400000Y-103850000D02*
X206724695Y-103850000D01*
X219600000Y-88200000D02*
X219600000Y-87600000D01*
X189747907Y-70084031D02*
X190126376Y-70462500D01*
X196750000Y-67250000D02*
X196000000Y-66500000D01*
X217087500Y-62912500D02*
X218200000Y-61800000D01*
X196000000Y-66500000D02*
X200300000Y-62200000D01*
X219600000Y-87600000D02*
X219600000Y-65425000D01*
X219600000Y-93348624D02*
X219600000Y-88200000D01*
X206200000Y-101549390D02*
X206200000Y-95000000D01*
X195420000Y-69530000D02*
X196211396Y-69530000D01*
X217012500Y-62912500D02*
X217087500Y-62912500D01*
X200300000Y-62200000D02*
X202400000Y-62200000D01*
X206200000Y-95000000D02*
X207600000Y-93600000D01*
X205000000Y-64800000D02*
X215125000Y-64800000D01*
X185094287Y-70694287D02*
X179000000Y-64600000D01*
X196211396Y-69530000D02*
X196750000Y-68991396D01*
D43*
X170742500Y-106450000D02*
X170005000Y-106450000D01*
X171042500Y-107517500D02*
X171042500Y-106750000D01*
X171042500Y-106750000D02*
X170742500Y-106450000D01*
X172200000Y-108675000D02*
X171042500Y-107517500D01*
X171925000Y-104600000D02*
X171825000Y-104500000D01*
X171825000Y-104500000D02*
X170005000Y-104500000D01*
X198951471Y-104600000D02*
X199497818Y-104600000D01*
X207360000Y-106360000D02*
X212900000Y-106360000D01*
X198120000Y-102400000D02*
X198120000Y-103768529D01*
X201297818Y-102800000D02*
X203800000Y-102800000D01*
X198120000Y-103768529D02*
X198951471Y-104600000D01*
X199497818Y-104600000D02*
X201297818Y-102800000D01*
X203800000Y-102800000D02*
X207360000Y-106360000D01*
X214290000Y-107510000D02*
X211925736Y-107510000D01*
X211925736Y-107510000D02*
X211175736Y-106760000D01*
X201105685Y-106800000D02*
X199120000Y-106800000D01*
X205160000Y-106760000D02*
X203800000Y-105400000D01*
X202505685Y-105400000D02*
X201105685Y-106800000D01*
X211175736Y-106760000D02*
X205160000Y-106760000D01*
X215440000Y-106360000D02*
X214290000Y-107510000D01*
X199120000Y-106800000D02*
X198120000Y-105800000D01*
X203800000Y-105400000D02*
X202505685Y-105400000D01*
X222000000Y-107840000D02*
X222000000Y-111200000D01*
X219800000Y-113400000D02*
X202445126Y-113400000D01*
X222000000Y-111200000D02*
X219800000Y-113400000D01*
X202445126Y-113400000D02*
X195600000Y-106554874D01*
X220520000Y-106360000D02*
X222000000Y-107840000D01*
X198000000Y-99180000D02*
X198120000Y-99060000D01*
X195600000Y-106554874D02*
X195600000Y-100800000D01*
X198000000Y-100800000D02*
X198000000Y-99180000D01*
X211000000Y-60975000D02*
X196947182Y-60975000D01*
X196947182Y-60975000D02*
X189422182Y-68500000D01*
X189422182Y-68500000D02*
X189000000Y-68500000D01*
X211670000Y-109210000D02*
X205010000Y-109210000D01*
X203600000Y-107800000D02*
X198542182Y-107800000D01*
X213020000Y-110560000D02*
X211670000Y-109210000D01*
X197200000Y-106457818D02*
X197200000Y-98400000D01*
X199020000Y-92750000D02*
X198120000Y-91850000D01*
X197200000Y-98400000D02*
X199020000Y-96580000D01*
X198542182Y-107800000D02*
X197200000Y-106457818D01*
X199020000Y-96580000D02*
X199020000Y-92750000D01*
X205010000Y-109210000D02*
X203600000Y-107800000D01*
X200461497Y-110285000D02*
X196800000Y-106623503D01*
X206913650Y-112000000D02*
X205198650Y-110285000D01*
X205198650Y-110285000D02*
X200461497Y-110285000D01*
X196800000Y-106623503D02*
X196800000Y-96520000D01*
X215560000Y-110560000D02*
X214120000Y-112000000D01*
X196800000Y-96520000D02*
X198120000Y-95200000D01*
X214120000Y-112000000D02*
X206913650Y-112000000D01*
X206772964Y-112425000D02*
X206197964Y-113000000D01*
X218775000Y-112425000D02*
X206772964Y-112425000D01*
X206197964Y-113000000D02*
X202610812Y-113000000D01*
X202610812Y-113000000D02*
X196400000Y-106789188D01*
X196400000Y-90120000D02*
X198120000Y-88400000D01*
X196400000Y-106789188D02*
X196400000Y-90120000D01*
X220640000Y-110560000D02*
X218775000Y-112425000D01*
D41*
X162400000Y-105800000D02*
X164280000Y-105800000D01*
X160285000Y-108530000D02*
X160285000Y-107915000D01*
X160285000Y-107915000D02*
X162400000Y-105800000D01*
X163485392Y-107100000D02*
X164280000Y-107100000D01*
X160285000Y-111070000D02*
X163142500Y-108212500D01*
X163142500Y-108212500D02*
X163142500Y-107442892D01*
X163142500Y-107442892D02*
X163485392Y-107100000D01*
X160285000Y-104570000D02*
X160865000Y-105150000D01*
X160865000Y-105150000D02*
X164280000Y-105150000D01*
X160285000Y-102030000D02*
X161255000Y-103000000D01*
X163250000Y-103850000D02*
X164280000Y-103850000D01*
X162400000Y-103000000D02*
X163250000Y-103850000D01*
X161255000Y-103000000D02*
X162400000Y-103000000D01*
X160422500Y-95245000D02*
X160842500Y-94825000D01*
X160842500Y-94825000D02*
X164417500Y-94825000D01*
X163622892Y-96125000D02*
X164417500Y-96125000D01*
X163147892Y-96600000D02*
X163622892Y-96125000D01*
X161607500Y-96600000D02*
X163147892Y-96600000D01*
X160422500Y-97785000D02*
X161607500Y-96600000D01*
X160422500Y-91245000D02*
X160422500Y-92622500D01*
X160422500Y-92622500D02*
X161975000Y-94175000D01*
X161975000Y-94175000D02*
X164417500Y-94175000D01*
X163280000Y-92532108D02*
X163622892Y-92875000D01*
X163280000Y-91562500D02*
X163280000Y-92532108D01*
X160422500Y-88705000D02*
X163280000Y-91562500D01*
X163622892Y-92875000D02*
X164417500Y-92875000D01*
D43*
X212800000Y-84400000D02*
X212800000Y-85540000D01*
X209200000Y-86800000D02*
X208600000Y-87400000D01*
X203200000Y-87000000D02*
X203200000Y-86360000D01*
X207000000Y-87400000D02*
X204320000Y-87400000D01*
X212800000Y-85540000D02*
X212800000Y-86150736D01*
X204320000Y-87400000D02*
X203200000Y-86280000D01*
X212150736Y-86800000D02*
X211324500Y-86800000D01*
X208600000Y-87400000D02*
X207000000Y-87400000D01*
X207000000Y-87400000D02*
X207400000Y-87000000D01*
X212800000Y-86150736D02*
X212150736Y-86800000D01*
X213800000Y-83400000D02*
X212800000Y-84400000D01*
X191000000Y-68500000D02*
X195340000Y-68500000D01*
X195340000Y-68500000D02*
X195420000Y-68580000D01*
D42*
X198120000Y-66620000D02*
X198000000Y-66500000D01*
X198120000Y-68580000D02*
X198120000Y-66620000D01*
D43*
X201540000Y-105800000D02*
X203200000Y-104140000D01*
X200120000Y-105800000D02*
X201540000Y-105800000D01*
X201880000Y-95200000D02*
X203200000Y-96520000D01*
X200120000Y-95200000D02*
X201880000Y-95200000D01*
X200120000Y-91850000D02*
X201070000Y-91850000D01*
X201070000Y-91850000D02*
X203200000Y-93980000D01*
X200120000Y-88400000D02*
X200160000Y-88400000D01*
X200160000Y-88400000D02*
X203200000Y-91440000D01*
X172200000Y-88600000D02*
X166634314Y-88600000D01*
X179000000Y-90600000D02*
X179000000Y-100320000D01*
X175400000Y-90000000D02*
X178400000Y-90000000D01*
X164617500Y-92025000D02*
X164417500Y-92225000D01*
X178400000Y-90000000D02*
X179000000Y-90600000D01*
X164617500Y-90616814D02*
X164617500Y-92025000D01*
X179000000Y-100320000D02*
X177800000Y-101520000D01*
X166634314Y-88600000D02*
X164617500Y-90616814D01*
X173600000Y-90000000D02*
X172200000Y-88600000D01*
X174500000Y-69500000D02*
X174500000Y-71828427D01*
X167800000Y-89200000D02*
X166600000Y-89200000D01*
X166600000Y-89200000D02*
X165455000Y-90345000D01*
X180600000Y-70200000D02*
X178640000Y-70200000D01*
X175288427Y-71040000D02*
X174500000Y-71828427D01*
X178640000Y-70200000D02*
X177800000Y-71040000D01*
X177800000Y-71040000D02*
X175288427Y-71040000D01*
X167800000Y-78528427D02*
X174500000Y-71828427D01*
X167800000Y-85700500D02*
X167800000Y-78528427D01*
X165155000Y-96775000D02*
X164417500Y-96775000D01*
X165455000Y-96475000D02*
X165155000Y-96775000D01*
X165455000Y-90345000D02*
X165455000Y-96475000D01*
X174500000Y-93000000D02*
X176240000Y-93000000D01*
X176240000Y-93000000D02*
X177800000Y-91440000D01*
X172625000Y-96775000D02*
X174500000Y-94900000D01*
X170142500Y-96775000D02*
X172625000Y-96775000D01*
X174500000Y-94900000D02*
X174500000Y-93000000D01*
X173200000Y-95600000D02*
X173200000Y-92200000D01*
X174500000Y-90900000D02*
X174500000Y-88500000D01*
X177800000Y-88900000D02*
X174900000Y-88900000D01*
X173200000Y-92200000D02*
X174500000Y-90900000D01*
X174900000Y-88900000D02*
X174500000Y-88500000D01*
X170142500Y-96125000D02*
X172675000Y-96125000D01*
X172675000Y-96125000D02*
X173200000Y-95600000D01*
X169405000Y-92875000D02*
X169105000Y-93175000D01*
X169105000Y-93175000D02*
X169105000Y-97040688D01*
X170142500Y-92875000D02*
X169405000Y-92875000D01*
X169105000Y-97040688D02*
X169564312Y-97500000D01*
X174500000Y-97500000D02*
X177800000Y-94200000D01*
X177800000Y-94200000D02*
X177800000Y-93980000D01*
X169564312Y-97500000D02*
X174500000Y-97500000D01*
X174500000Y-99900000D02*
X174500000Y-100600000D01*
X170142500Y-92225000D02*
X169489312Y-92225000D01*
X168705000Y-97206374D02*
X169398627Y-97900000D01*
X169489312Y-92225000D02*
X168705000Y-93009312D01*
X177800000Y-97300000D02*
X177800000Y-96440000D01*
X174500000Y-100600000D02*
X177800000Y-97300000D01*
X168705000Y-93009312D02*
X168705000Y-97206374D01*
X169398627Y-97900000D02*
X172500000Y-97900000D01*
X172500000Y-97900000D02*
X174500000Y-99900000D01*
X165855000Y-96640686D02*
X165220688Y-97275000D01*
X166565686Y-89800000D02*
X165855000Y-90510686D01*
X163614312Y-97275000D02*
X162200000Y-98689312D01*
X165855000Y-90510686D02*
X165855000Y-96640686D01*
X173520000Y-86280000D02*
X177800000Y-86280000D01*
X165220688Y-97275000D02*
X163614312Y-97275000D01*
X162200000Y-101120000D02*
X164280000Y-103200000D01*
X162200000Y-98689312D02*
X162200000Y-101120000D01*
X171800000Y-89199500D02*
X171199500Y-89800000D01*
X171199500Y-89800000D02*
X166565686Y-89800000D01*
X171800000Y-88000000D02*
X173520000Y-86280000D01*
X165017500Y-107750000D02*
X164280000Y-107750000D01*
X177800000Y-73580000D02*
X174920000Y-73580000D01*
X166255000Y-96806371D02*
X165386373Y-97675000D01*
X164345686Y-102700000D02*
X165083188Y-102700000D01*
X162600000Y-98854998D02*
X162600000Y-100954314D01*
X165386373Y-97675000D02*
X163779998Y-97675000D01*
X162600000Y-100954314D02*
X164345686Y-102700000D01*
X166255000Y-91344500D02*
X166255000Y-96806371D01*
X167200000Y-90399500D02*
X166255000Y-91344500D01*
X165600000Y-107167500D02*
X165017500Y-107750000D01*
X168399500Y-80100500D02*
X174500000Y-74000000D01*
X163779998Y-97675000D02*
X162600000Y-98854998D01*
X180600000Y-74600000D02*
X178820000Y-74600000D01*
X168399500Y-85000000D02*
X168399500Y-80100500D01*
X174920000Y-73580000D02*
X174500000Y-74000000D01*
X178820000Y-74600000D02*
X177800000Y-73580000D01*
X165083188Y-102700000D02*
X165600000Y-103216812D01*
X165600000Y-103216812D02*
X165600000Y-107167500D01*
X200200000Y-112651000D02*
X200200000Y-112600000D01*
X194400000Y-106800000D02*
X194400000Y-86600000D01*
X202135000Y-72982768D02*
X202135000Y-69565000D01*
X190151471Y-86600000D02*
X189800000Y-86248529D01*
X173688773Y-112651000D02*
X172843151Y-111805378D01*
X206400000Y-62850500D02*
X205255227Y-63995273D01*
X206400000Y-62800000D02*
X206400000Y-62850500D01*
X200200000Y-112600000D02*
X194400000Y-106800000D01*
X172843151Y-111805378D02*
X172605378Y-111805378D01*
X194400000Y-86600000D02*
X190151471Y-86600000D01*
X172605378Y-111805378D02*
X170005000Y-109205000D01*
X170005000Y-109205000D02*
X170005000Y-107750000D01*
X173718533Y-112651000D02*
X173688773Y-112651000D01*
X189800000Y-85317768D02*
X202135000Y-72982768D01*
X189800000Y-86248529D02*
X189800000Y-85317768D01*
X202135000Y-69565000D02*
X203200000Y-68500000D01*
X172594622Y-112394622D02*
X169100000Y-108900000D01*
X169267500Y-107100000D02*
X170005000Y-107100000D01*
X205200000Y-100285000D02*
X205200000Y-92400000D01*
X169100000Y-108431029D02*
X168967500Y-108298529D01*
X201264511Y-113250500D02*
X201264511Y-112785071D01*
X168967500Y-107400000D02*
X169267500Y-107100000D01*
X172594622Y-112405378D02*
X172594622Y-112394622D01*
X168967500Y-108298529D02*
X168967500Y-107400000D01*
X203965000Y-101520000D02*
X205200000Y-100285000D01*
X169100000Y-108900000D02*
X169100000Y-108431029D01*
X201264511Y-112785071D02*
X195000000Y-106520559D01*
X195000000Y-106520559D02*
X195000000Y-101800000D01*
X205200000Y-92400000D02*
X207000000Y-90600000D01*
X203200000Y-101520000D02*
X203965000Y-101520000D01*
X171210322Y-109562500D02*
X175237500Y-109562500D01*
X176735000Y-105990000D02*
X177525000Y-105200000D01*
X177800000Y-81280000D02*
X175020000Y-78500000D01*
X175020000Y-78500000D02*
X174500000Y-78500000D01*
X178400000Y-105200000D02*
X180600000Y-103000000D01*
X171426411Y-103081777D02*
X170658188Y-103850000D01*
X170626161Y-108978339D02*
X171210322Y-109562500D01*
X171426411Y-102799500D02*
X171426411Y-103081777D01*
X180600000Y-85772178D02*
X179813911Y-84986089D01*
X176735000Y-108065000D02*
X176735000Y-105990000D01*
X175237500Y-109562500D02*
X176735000Y-108065000D01*
X170658188Y-103850000D02*
X170005000Y-103850000D01*
X177525000Y-105200000D02*
X178400000Y-105200000D01*
X180600000Y-103000000D02*
X180600000Y-85772178D01*
X175320000Y-83820000D02*
X174500000Y-83000000D01*
X174646522Y-102585000D02*
X173200000Y-101138478D01*
X172100000Y-98900000D02*
X171687500Y-99312500D01*
X179990250Y-86607113D02*
X179990250Y-101009750D01*
X171687500Y-99312500D02*
X171687500Y-101517500D01*
X179990250Y-101009750D02*
X178415000Y-102585000D01*
X179183137Y-85800000D02*
X179990250Y-86607113D01*
X173200000Y-99410050D02*
X172689950Y-98900000D01*
X178415000Y-102585000D02*
X174646522Y-102585000D01*
X173200000Y-101138478D02*
X173200000Y-99410050D01*
X171687500Y-101517500D02*
X170005000Y-103200000D01*
X172689950Y-98900000D02*
X172100000Y-98900000D01*
X177800000Y-83820000D02*
X175320000Y-83820000D01*
X200120000Y-99060000D02*
X201580000Y-97600000D01*
X204200000Y-97600000D02*
X204400000Y-97400000D01*
X204400000Y-90020000D02*
X203200000Y-88820000D01*
X201580000Y-97600000D02*
X204200000Y-97600000D01*
X204400000Y-97400000D02*
X204400000Y-90020000D01*
X207760000Y-74180000D02*
X203200000Y-78740000D01*
X207800000Y-74180000D02*
X207760000Y-74180000D01*
X207800000Y-71640000D02*
X203720000Y-71640000D01*
X203720000Y-71640000D02*
X203200000Y-71120000D01*
D41*
X172200000Y-99800000D02*
X172200000Y-102800000D01*
D42*
X173128583Y-114000000D02*
X168200000Y-109071417D01*
X218800000Y-57800000D02*
X206250000Y-57800000D01*
X219977818Y-114000000D02*
X185200000Y-114000000D01*
X192691396Y-59400000D02*
X190000000Y-59400000D01*
X185200000Y-114000000D02*
X182400000Y-114000000D01*
X192945698Y-59145698D02*
X192691396Y-59400000D01*
X215400000Y-83800000D02*
X215400000Y-83200000D01*
D41*
X171650500Y-94825000D02*
X171800000Y-94675500D01*
D42*
X190791396Y-61300000D02*
X192945698Y-59145698D01*
D41*
X172912500Y-105887500D02*
X172200000Y-106600000D01*
D42*
X214350000Y-84850000D02*
X215400000Y-83800000D01*
X220450000Y-59450000D02*
X218800000Y-57800000D01*
X214300353Y-97449647D02*
X218450353Y-97449647D01*
X206250000Y-57800000D02*
X206200000Y-57750000D01*
X166600000Y-100875000D02*
X164725000Y-99000000D01*
X214350000Y-85600000D02*
X214350000Y-84850000D01*
X190791396Y-61391104D02*
X190791396Y-61300000D01*
X182200000Y-113800000D02*
X182200000Y-88800000D01*
X220450000Y-83200000D02*
X220450000Y-59450000D01*
D41*
X172200000Y-102800000D02*
X172912500Y-103512500D01*
X171400000Y-105800000D02*
X172200000Y-106600000D01*
D42*
X168200000Y-109071417D02*
X168200000Y-105800000D01*
X218950000Y-96950000D02*
X220450000Y-95450000D01*
X222550000Y-100550000D02*
X222550000Y-111427818D01*
D41*
X168200000Y-105800000D02*
X166600000Y-104200000D01*
X166600000Y-104200000D02*
X166600000Y-101200000D01*
X170005000Y-105800000D02*
X171400000Y-105800000D01*
D42*
X218750500Y-82050500D02*
X218750500Y-83200000D01*
D41*
X170005000Y-105800000D02*
X168200000Y-105800000D01*
D42*
X214200000Y-81400000D02*
X215350000Y-80250000D01*
D41*
X170142500Y-94825000D02*
X171650500Y-94825000D01*
D42*
X218950000Y-96950000D02*
X222550000Y-100550000D01*
X166600000Y-101200000D02*
X166600000Y-100875000D01*
X216950000Y-80250000D02*
X218750500Y-82050500D01*
X182400000Y-114000000D02*
X173128583Y-114000000D01*
X220450000Y-95450000D02*
X220450000Y-83200000D01*
X215350000Y-80250000D02*
X216950000Y-80250000D01*
X218450353Y-97449647D02*
X218950000Y-96950000D01*
X187082500Y-65100000D02*
X190791396Y-61391104D01*
X182400000Y-114000000D02*
X182200000Y-113800000D01*
X174275000Y-108675000D02*
X172200000Y-106600000D01*
X190000000Y-61300000D02*
X190791396Y-61300000D01*
X215400000Y-82600000D02*
X214200000Y-81400000D01*
X211487500Y-100262500D02*
X214300353Y-97449647D01*
X174400000Y-108675000D02*
X174275000Y-108675000D01*
X222550000Y-111427818D02*
X219977818Y-114000000D01*
X215400000Y-83200000D02*
X215400000Y-82600000D01*
D41*
X172912500Y-103512500D02*
X172912500Y-105887500D01*
D42*
X194341396Y-57750000D02*
X192945698Y-59145698D01*
X206200000Y-57750000D02*
X194341396Y-57750000D01*
D41*
X172400000Y-99600000D02*
X172200000Y-99800000D01*
X164417500Y-95475000D02*
X163125000Y-95475000D01*
X172000000Y-91400000D02*
X172000000Y-93344129D01*
D42*
X168800000Y-88000000D02*
X166200000Y-88000000D01*
D41*
X168400000Y-104339608D02*
X169210392Y-105150000D01*
D42*
X186333604Y-60175000D02*
X187000000Y-60175000D01*
X200600000Y-85800000D02*
X200600000Y-87000000D01*
D41*
X172000000Y-93344129D02*
X171169129Y-94175000D01*
X164417500Y-93525000D02*
X163125000Y-93525000D01*
D42*
X185800000Y-59641396D02*
X186333604Y-60175000D01*
X184600000Y-88800000D02*
X184600000Y-90400000D01*
X206340000Y-69100000D02*
X207800000Y-69100000D01*
X168675000Y-101125000D02*
X170800000Y-99000000D01*
X185800000Y-59600000D02*
X185800000Y-59641396D01*
D43*
X199200000Y-100400000D02*
X199200000Y-104000000D01*
D42*
X168675000Y-101200000D02*
X168675000Y-103525000D01*
X218690500Y-85540000D02*
X218750500Y-85600000D01*
D43*
X218599647Y-97999647D02*
X219000000Y-98400000D01*
D42*
X203200000Y-65960000D02*
X206340000Y-69100000D01*
D41*
X163125000Y-95475000D02*
X162800000Y-95800000D01*
D42*
X185346767Y-81073383D02*
X184819711Y-81600439D01*
D43*
X213800000Y-99200000D02*
X213800000Y-99009344D01*
D42*
X168675000Y-103525000D02*
X168400000Y-103800000D01*
X217750000Y-85540000D02*
X218690500Y-85540000D01*
X187000000Y-69400000D02*
X187000000Y-69527450D01*
D41*
X162950000Y-106450000D02*
X162600000Y-106800000D01*
D42*
X185007500Y-63137500D02*
X185045000Y-63100000D01*
X168675000Y-101200000D02*
X168675000Y-101125000D01*
D43*
X214809697Y-97999647D02*
X218599647Y-97999647D01*
D42*
X174400000Y-105000000D02*
X174000000Y-104600000D01*
X184819711Y-81600439D02*
X184399207Y-81600439D01*
X183600000Y-63800000D02*
X184300000Y-63100000D01*
X185007500Y-65100000D02*
X185007500Y-63137500D01*
X186800000Y-60175000D02*
X189825000Y-60175000D01*
X181800000Y-85000000D02*
X184600000Y-85000000D01*
X174400000Y-106600000D02*
X174400000Y-105000000D01*
X182750487Y-80049513D02*
X181200000Y-81600000D01*
D43*
X213800000Y-99009344D02*
X214809697Y-97999647D01*
X218000000Y-96800000D02*
X218600000Y-96200000D01*
D42*
X174000000Y-104600000D02*
X175255000Y-104600000D01*
X189400000Y-71927450D02*
X189400000Y-72200000D01*
X211500000Y-83700000D02*
X211500000Y-85540000D01*
D41*
X168400000Y-103800000D02*
X168400000Y-104339608D01*
D43*
X213400000Y-96800000D02*
X218000000Y-96800000D01*
D42*
X184300000Y-63100000D02*
X185045000Y-63100000D01*
X184399207Y-81600439D02*
X182599646Y-83400000D01*
X187000000Y-69527450D02*
X189400000Y-71927450D01*
D41*
X171169129Y-94175000D02*
X170142500Y-94175000D01*
X164280000Y-106450000D02*
X162950000Y-106450000D01*
D42*
X181400000Y-65800000D02*
X179600000Y-64000000D01*
X189825000Y-60175000D02*
X190000000Y-60350000D01*
D41*
X162749500Y-104500000D02*
X164280000Y-104500000D01*
X162600000Y-104350500D02*
X162749500Y-104500000D01*
D42*
X175255000Y-104600000D02*
X176055000Y-105400000D01*
X182599646Y-83400000D02*
X181800000Y-83400000D01*
X182750487Y-78709467D02*
X182750487Y-80049513D01*
D41*
X169210392Y-105150000D02*
X170005000Y-105150000D01*
X163125000Y-93525000D02*
X162800000Y-93200000D01*
D42*
X211800000Y-83400000D02*
X211500000Y-83700000D01*
X189892500Y-79000000D02*
X186000000Y-79000000D01*
X185650000Y-79000000D02*
X184150000Y-80500000D01*
X176045610Y-82495000D02*
X174950610Y-81400000D01*
X182155000Y-82495000D02*
X176045610Y-82495000D01*
X171450000Y-74100610D02*
X166550610Y-79000000D01*
X174800000Y-62550000D02*
X171450000Y-65900000D01*
X177890000Y-59460000D02*
X174800000Y-62550000D01*
X167000000Y-86450000D02*
X166186396Y-86450000D01*
X166550610Y-79000000D02*
X161805000Y-79000000D01*
X161830000Y-63533604D02*
X166563604Y-58800000D01*
X198000000Y-74500000D02*
X195147500Y-74500000D01*
X190270000Y-79377500D02*
X189892500Y-79000000D01*
X176000000Y-61350000D02*
X174800000Y-62550000D01*
X178800000Y-59460000D02*
X177890000Y-59460000D01*
X162600000Y-79000000D02*
X167000000Y-83400000D01*
X161830000Y-67500000D02*
X161830000Y-63533604D01*
X176000000Y-59260050D02*
X176000000Y-61350000D01*
X175539950Y-58800000D02*
X176000000Y-59260050D01*
X186000000Y-79000000D02*
X185650000Y-79000000D01*
X163813604Y-86450000D02*
X161800000Y-84436396D01*
X174950610Y-81400000D02*
X173600000Y-81400000D01*
X195147500Y-74500000D02*
X190270000Y-79377500D01*
X171450000Y-65900000D02*
X171450000Y-74100610D01*
X170400000Y-85000000D02*
X168950000Y-86450000D01*
X166186396Y-86450000D02*
X163813604Y-86450000D01*
X184150000Y-80500000D02*
X182155000Y-82495000D01*
X168950000Y-86450000D02*
X166186396Y-86450000D01*
X166563604Y-58800000D02*
X175539950Y-58800000D01*
X190270000Y-82267500D02*
X190037500Y-82500000D01*
X190270000Y-79377500D02*
X190270000Y-82267500D01*
X161805000Y-79000000D02*
X162600000Y-79000000D01*
X170400000Y-84600000D02*
X170400000Y-85000000D01*
X161800000Y-83460000D02*
X160400000Y-82060000D01*
X161800000Y-84436396D02*
X161800000Y-83460000D01*
X173600000Y-81400000D02*
X170400000Y-84600000D01*
X167000000Y-83400000D02*
X167000000Y-86450000D01*
X165500000Y-62500000D02*
X165500000Y-66700000D01*
X165500000Y-62500000D02*
X168175000Y-59825000D01*
X168175000Y-59825000D02*
X174800000Y-59825000D01*
X165500000Y-66700000D02*
X159805000Y-72395000D01*
X159805000Y-72395000D02*
X159805000Y-74475000D01*
X196232550Y-72425000D02*
X191355050Y-77302500D01*
X190139950Y-84200000D02*
X199175000Y-75164950D01*
X171050000Y-87150000D02*
X173200000Y-85000000D01*
X198000000Y-72425000D02*
X196232550Y-72425000D01*
X190072500Y-77500000D02*
X190270000Y-77302500D01*
X209225000Y-63025000D02*
X209200000Y-63000000D01*
X178600000Y-85000000D02*
X179400000Y-84200000D01*
X179400000Y-84200000D02*
X190139950Y-84200000D01*
X200400000Y-66585000D02*
X200400000Y-69400000D01*
X199175000Y-75164950D02*
X199175000Y-73600000D01*
X160400000Y-84600000D02*
X162950000Y-87150000D01*
X198000000Y-72425000D02*
X198000000Y-70600000D01*
X200400000Y-69400000D02*
X199320000Y-70480000D01*
X173200000Y-85000000D02*
X178600000Y-85000000D01*
X191355050Y-77302500D02*
X190270000Y-77302500D01*
X199320000Y-70480000D02*
X198120000Y-70480000D01*
X198000000Y-70600000D02*
X198120000Y-70480000D01*
X211000000Y-63025000D02*
X209225000Y-63025000D01*
X162950000Y-87150000D02*
X171050000Y-87150000D01*
X201985000Y-65000000D02*
X200400000Y-66585000D01*
X187850000Y-77500000D02*
X190072500Y-77500000D01*
X199175000Y-73600000D02*
X198000000Y-72425000D01*
X186700000Y-70320100D02*
X185000000Y-68620100D01*
X183270000Y-62800000D02*
X185045000Y-61025000D01*
X207800000Y-66560000D02*
X206783532Y-65543532D01*
X199350000Y-65460050D02*
X199350000Y-69091396D01*
X187025000Y-61025000D02*
X187300000Y-61300000D01*
X185000000Y-66894950D02*
X182600000Y-64494950D01*
X210575000Y-67561870D02*
X210575000Y-86260050D01*
X182000000Y-69600000D02*
X182000000Y-71200000D01*
X218600000Y-105740000D02*
X217980000Y-106360000D01*
X185000000Y-68620100D02*
X185000000Y-66894950D01*
X215099647Y-98699647D02*
X215249294Y-98550000D01*
X196675000Y-70183604D02*
X196675000Y-70992600D01*
X186700000Y-70560661D02*
X186700000Y-70320100D01*
X210575000Y-86260050D02*
X210575000Y-89800000D01*
X217752082Y-98550000D02*
X218600000Y-99397918D01*
X218600000Y-99397918D02*
X218600000Y-105740000D01*
X199350000Y-69091396D02*
X198736396Y-69705000D01*
X189739339Y-73600000D02*
X186700000Y-70560661D01*
X212762500Y-91987500D02*
X212762500Y-93737500D01*
X180600000Y-68200000D02*
X182000000Y-69600000D01*
X209573130Y-66560000D02*
X210575000Y-67561870D01*
X210575000Y-89800000D02*
X211487500Y-90712500D01*
X216280000Y-108740000D02*
X216280000Y-108060000D01*
X206783532Y-65543532D02*
X204743532Y-65543532D01*
X212762500Y-93400500D02*
X212762500Y-91987500D01*
X198736396Y-69705000D02*
X197153604Y-69705000D01*
X207600000Y-108060000D02*
X216280000Y-108060000D01*
X182600000Y-62800000D02*
X183270000Y-62800000D01*
X218100000Y-110560000D02*
X216280000Y-108740000D01*
X204743532Y-65543532D02*
X203350000Y-64150000D01*
X200660050Y-64150000D02*
X199350000Y-65460050D01*
X203350000Y-64150000D02*
X200660050Y-64150000D01*
X197153604Y-69705000D02*
X196675000Y-70183604D01*
X177800000Y-66040000D02*
X179360000Y-66040000D01*
X215249294Y-98550000D02*
X217752082Y-98550000D01*
X216280000Y-108060000D02*
X217980000Y-106360000D01*
X196675000Y-70992600D02*
X194067600Y-73600000D01*
X180600000Y-67280000D02*
X180600000Y-68200000D01*
X211487500Y-90712500D02*
X212762500Y-91987500D01*
X212762500Y-93737500D02*
X211487500Y-95012500D01*
X185045000Y-61025000D02*
X187025000Y-61025000D01*
X214672469Y-95310469D02*
X212762500Y-93400500D01*
X179360000Y-66040000D02*
X180600000Y-67280000D01*
X182600000Y-64494950D02*
X182600000Y-62800000D01*
X182000000Y-71200000D02*
X180600000Y-72600000D01*
X194067600Y-73600000D02*
X189739339Y-73600000D01*
X207800000Y-66560000D02*
X209573130Y-66560000D01*
X211600000Y-59800000D02*
X206200000Y-59800000D01*
X215375000Y-62450000D02*
X215700000Y-62125000D01*
X191000000Y-72537500D02*
X193362500Y-72537500D01*
X187950000Y-69487500D02*
X191000000Y-72537500D01*
X196050050Y-59660000D02*
X187950000Y-67760050D01*
X202400000Y-59660000D02*
X206060000Y-59660000D01*
X206060000Y-59660000D02*
X206200000Y-59800000D01*
X202400000Y-59660000D02*
X196050050Y-59660000D01*
X187950000Y-67760050D02*
X187950000Y-69487500D01*
X215375000Y-62450000D02*
X214250000Y-62450000D01*
X214250000Y-62450000D02*
X211600000Y-59800000D01*
X215700000Y-62125000D02*
X215700000Y-60500000D01*
X193362500Y-72537500D02*
X195420000Y-70480000D01*
X187962500Y-80612500D02*
X187850000Y-80500000D01*
X187962500Y-82500000D02*
X187962500Y-80612500D01*
X179375000Y-57775000D02*
X174800000Y-57775000D01*
X184300000Y-67500000D02*
X178800000Y-62000000D01*
X182900000Y-77500000D02*
X184150000Y-77500000D01*
X178800000Y-62000000D02*
X180100000Y-60700000D01*
X180100000Y-58500000D02*
X179375000Y-57775000D01*
X184300000Y-68910050D02*
X184300000Y-67500000D01*
X186000000Y-75650000D02*
X186000000Y-70610050D01*
X181749562Y-78949562D02*
X181749562Y-78650438D01*
X186000000Y-70610050D02*
X184300000Y-68910050D01*
X184150000Y-77500000D02*
X186000000Y-75650000D01*
X181749562Y-78650438D02*
X182900000Y-77500000D01*
X180100000Y-60700000D02*
X180100000Y-58500000D01*
X185000497Y-82500000D02*
X187962500Y-82500000D01*
D43*
X203822843Y-87622843D02*
X204800000Y-88600000D01*
X202320000Y-100200000D02*
X200120000Y-102400000D01*
X204800000Y-88600000D02*
X204800000Y-99400000D01*
X204000000Y-100200000D02*
X202320000Y-100200000D01*
X204800000Y-99400000D02*
X204000000Y-100200000D01*
X202000000Y-87000000D02*
X202622843Y-87622843D01*
X202000000Y-84940000D02*
X202000000Y-87000000D01*
X202622843Y-87622843D02*
X203822843Y-87622843D01*
X203200000Y-83740000D02*
X202000000Y-84940000D01*
X183400000Y-86800000D02*
X184600000Y-86800000D01*
X182200000Y-86800000D02*
X183400000Y-86800000D01*
X183400000Y-86800000D02*
X183400000Y-86000000D01*
X200600000Y-82675000D02*
X200600000Y-83800000D01*
X203675000Y-82675000D02*
X200600000Y-82675000D01*
X200600000Y-82675000D02*
X193725000Y-82675000D01*
X209389000Y-82989000D02*
X203989000Y-82989000D01*
X210000000Y-85600000D02*
X210000000Y-83600000D01*
X211487500Y-92862500D02*
X209800000Y-91175000D01*
X193725000Y-82675000D02*
X190400000Y-86000000D01*
X203989000Y-82989000D02*
X203675000Y-82675000D01*
X209800000Y-85800000D02*
X210000000Y-85600000D01*
X210000000Y-83600000D02*
X209389000Y-82989000D01*
X209800000Y-91175000D02*
X209800000Y-85800000D01*
X216200000Y-85050000D02*
X216200000Y-81400000D01*
X215650000Y-85699264D02*
X215650000Y-85600000D01*
X215650000Y-85600000D02*
X216200000Y-85050000D01*
X212150000Y-88200000D02*
X213149264Y-88200000D01*
X213149264Y-88200000D02*
X215650000Y-85699264D01*
X207400000Y-102400000D02*
X207400000Y-95800000D01*
X215600000Y-95372888D02*
X215600000Y-88860000D01*
X214772888Y-96200000D02*
X215600000Y-95372888D01*
X211475000Y-102400000D02*
X211487500Y-102412500D01*
X207600000Y-95600000D02*
X208200000Y-96200000D01*
X216440000Y-88860000D02*
X217100000Y-88200000D01*
X208200000Y-96200000D02*
X214772888Y-96200000D01*
X207400000Y-95800000D02*
X207600000Y-95600000D01*
X215600000Y-88860000D02*
X215000000Y-88260000D01*
X211487500Y-102412500D02*
X207412500Y-102412500D01*
X207412500Y-102412500D02*
X207400000Y-102400000D01*
X208975000Y-95600000D02*
X211487500Y-98112500D01*
X207600000Y-95600000D02*
X208975000Y-95600000D01*
X215600000Y-88860000D02*
X216440000Y-88860000D01*
G04 #@! TA.AperFunction,Conductor*
G36*
X173342979Y-107432694D02*
G01*
X173387327Y-107461195D01*
X173456344Y-107530212D01*
X173458700Y-107531665D01*
X173459653Y-107532253D01*
X173461445Y-107534246D01*
X173462011Y-107534693D01*
X173461934Y-107534789D01*
X173506379Y-107584199D01*
X173517603Y-107653161D01*
X173489761Y-107717244D01*
X173459665Y-107743326D01*
X173456660Y-107745179D01*
X173388034Y-107813805D01*
X173326710Y-107847289D01*
X173257019Y-107842304D01*
X173212672Y-107813804D01*
X173143657Y-107744789D01*
X173143656Y-107744788D01*
X173140342Y-107742743D01*
X173138546Y-107740748D01*
X173137989Y-107740307D01*
X173138064Y-107740211D01*
X173093618Y-107690797D01*
X173082397Y-107621834D01*
X173110240Y-107557752D01*
X173140348Y-107531665D01*
X173143340Y-107529819D01*
X173211964Y-107461195D01*
X173273287Y-107427710D01*
X173342979Y-107432694D01*
G37*
G04 #@! TD.AperFunction*
G04 #@! TA.AperFunction,Conductor*
G36*
X172493203Y-99552934D02*
G01*
X172499681Y-99558966D01*
X172563181Y-99622466D01*
X172596666Y-99683789D01*
X172599500Y-99710147D01*
X172599500Y-101095049D01*
X172598969Y-101103151D01*
X172594318Y-101138477D01*
X172594318Y-101138478D01*
X172605778Y-101225525D01*
X172614955Y-101295238D01*
X172614956Y-101295240D01*
X172623806Y-101316607D01*
X172675464Y-101441319D01*
X172771718Y-101566760D01*
X172799995Y-101588458D01*
X172806085Y-101593798D01*
X173507929Y-102295642D01*
X174191191Y-102978904D01*
X174196542Y-102985005D01*
X174218240Y-103013282D01*
X174320306Y-103091600D01*
X174343681Y-103109536D01*
X174386111Y-103127111D01*
X174407423Y-103135939D01*
X174461826Y-103179780D01*
X174483891Y-103246075D01*
X174466612Y-103313774D01*
X174415474Y-103361384D01*
X174359970Y-103374500D01*
X173612498Y-103374500D01*
X173612480Y-103374501D01*
X173509703Y-103385000D01*
X173509700Y-103385001D01*
X173343168Y-103440185D01*
X173343163Y-103440187D01*
X173193842Y-103532289D01*
X173069785Y-103656346D01*
X173068037Y-103659182D01*
X173066329Y-103660717D01*
X173065307Y-103662011D01*
X173065085Y-103661836D01*
X173016089Y-103705905D01*
X172947126Y-103717126D01*
X172883044Y-103689282D01*
X172856963Y-103659182D01*
X172855214Y-103656346D01*
X172731157Y-103532289D01*
X172731156Y-103532288D01*
X172581834Y-103440186D01*
X172415297Y-103385001D01*
X172415295Y-103385000D01*
X172312516Y-103374500D01*
X172312509Y-103374500D01*
X172234884Y-103374500D01*
X172167845Y-103354815D01*
X172122090Y-103302011D01*
X172112146Y-103232853D01*
X172129891Y-103184527D01*
X172152199Y-103149024D01*
X172156778Y-103135939D01*
X172211779Y-102978755D01*
X172212146Y-102975500D01*
X172231976Y-102799503D01*
X172231976Y-102799496D01*
X172211780Y-102620250D01*
X172211779Y-102620245D01*
X172152199Y-102449976D01*
X172089596Y-102350345D01*
X172056227Y-102297238D01*
X171994292Y-102235303D01*
X171960807Y-102173980D01*
X171965791Y-102104288D01*
X171994290Y-102059943D01*
X172081422Y-101972811D01*
X172087499Y-101967483D01*
X172115782Y-101945782D01*
X172212036Y-101820341D01*
X172272544Y-101674262D01*
X172286697Y-101566760D01*
X172290192Y-101540209D01*
X172293182Y-101517501D01*
X172293182Y-101517499D01*
X172288531Y-101482173D01*
X172288000Y-101474071D01*
X172288000Y-99646647D01*
X172307685Y-99579608D01*
X172360489Y-99533853D01*
X172429647Y-99523909D01*
X172493203Y-99552934D01*
G37*
G04 #@! TD.AperFunction*
G04 #@! TA.AperFunction,Conductor*
G36*
X212891955Y-97425901D02*
G01*
X212892295Y-97425475D01*
X212895282Y-97427857D01*
X212896489Y-97428567D01*
X212897738Y-97429816D01*
X212969823Y-97475110D01*
X213009425Y-97499994D01*
X213050478Y-97525789D01*
X213174817Y-97569297D01*
X213220745Y-97585368D01*
X213220750Y-97585369D01*
X213399996Y-97605565D01*
X213400000Y-97605565D01*
X213400004Y-97605565D01*
X213579249Y-97585369D01*
X213579252Y-97585368D01*
X213579255Y-97585368D01*
X213749522Y-97525789D01*
X213902262Y-97429816D01*
X213902267Y-97429810D01*
X213905097Y-97427555D01*
X213907275Y-97426665D01*
X213908158Y-97426111D01*
X213908255Y-97426265D01*
X213969783Y-97401145D01*
X213982412Y-97400500D01*
X214260246Y-97400500D01*
X214327285Y-97420185D01*
X214373040Y-97472989D01*
X214382984Y-97542147D01*
X214353959Y-97605703D01*
X214347927Y-97612181D01*
X213524975Y-98435132D01*
X213478252Y-98464491D01*
X213450486Y-98474207D01*
X213450478Y-98474211D01*
X213297737Y-98570184D01*
X213170184Y-98697737D01*
X213074211Y-98850476D01*
X213014631Y-99020745D01*
X213014630Y-99020750D01*
X212994435Y-99199996D01*
X212994435Y-99200003D01*
X213014630Y-99379249D01*
X213014631Y-99379254D01*
X213074211Y-99549523D01*
X213153346Y-99675464D01*
X213170184Y-99702262D01*
X213297738Y-99829816D01*
X213450478Y-99925789D01*
X213528617Y-99953131D01*
X213620745Y-99985368D01*
X213620750Y-99985369D01*
X213799996Y-100005565D01*
X213800000Y-100005565D01*
X213800004Y-100005565D01*
X213979249Y-99985369D01*
X213979252Y-99985368D01*
X213979255Y-99985368D01*
X214149522Y-99925789D01*
X214302262Y-99829816D01*
X214429816Y-99702262D01*
X214525789Y-99549522D01*
X214525790Y-99549518D01*
X214527332Y-99547065D01*
X214579667Y-99500774D01*
X214648720Y-99490125D01*
X214682762Y-99499758D01*
X214819839Y-99560789D01*
X214819844Y-99560791D01*
X215005001Y-99600147D01*
X215005002Y-99600147D01*
X215194291Y-99600147D01*
X215194293Y-99600147D01*
X215379450Y-99560791D01*
X215552377Y-99483798D01*
X215705511Y-99372539D01*
X215705513Y-99372539D01*
X215705513Y-99372537D01*
X215705518Y-99372535D01*
X215733439Y-99341525D01*
X215792924Y-99304879D01*
X215825587Y-99300500D01*
X216372432Y-99300500D01*
X216439471Y-99320185D01*
X216485226Y-99372989D01*
X216495752Y-99411535D01*
X216514326Y-99588256D01*
X216514327Y-99588259D01*
X216572818Y-99768277D01*
X216572821Y-99768284D01*
X216608346Y-99829816D01*
X216632887Y-99872321D01*
X216649500Y-99934321D01*
X216649500Y-102975500D01*
X216629815Y-103042539D01*
X216577011Y-103088294D01*
X216525500Y-103099500D01*
X212937000Y-103099500D01*
X212869961Y-103079815D01*
X212824206Y-103027011D01*
X212813000Y-102975500D01*
X212812999Y-101539629D01*
X212812998Y-101539623D01*
X212812997Y-101539616D01*
X212806591Y-101480017D01*
X212805890Y-101478138D01*
X212756297Y-101345171D01*
X212756293Y-101345164D01*
X212694599Y-101262753D01*
X212670046Y-101229954D01*
X212607147Y-101182868D01*
X212565278Y-101126936D01*
X212560294Y-101057244D01*
X212579885Y-101012479D01*
X212639367Y-100927530D01*
X212737347Y-100717409D01*
X212737351Y-100717400D01*
X212797352Y-100493468D01*
X212797354Y-100493458D01*
X212817561Y-100262500D01*
X212817561Y-100262499D01*
X212797354Y-100031541D01*
X212797352Y-100031531D01*
X212737351Y-99807599D01*
X212737347Y-99807590D01*
X212639368Y-99597472D01*
X212584474Y-99519076D01*
X212013428Y-100090121D01*
X212010616Y-100076585D01*
X211941058Y-99942344D01*
X211837862Y-99831848D01*
X211708681Y-99753291D01*
X211657497Y-99738949D01*
X212097716Y-99298729D01*
X212132991Y-99274029D01*
X212152782Y-99264801D01*
X212342769Y-99131770D01*
X212506770Y-98967769D01*
X212639801Y-98777782D01*
X212737820Y-98567579D01*
X212797849Y-98343550D01*
X212818063Y-98112500D01*
X212817965Y-98111384D01*
X212812238Y-98045920D01*
X212797849Y-97881450D01*
X212737820Y-97657421D01*
X212696425Y-97568650D01*
X212685934Y-97499576D01*
X212714453Y-97435792D01*
X212772930Y-97397552D01*
X212842797Y-97396997D01*
X212891955Y-97425901D01*
G37*
G04 #@! TD.AperFunction*
G04 #@! TA.AperFunction,Conductor*
G36*
X208200000Y-96805682D02*
G01*
X208235329Y-96801030D01*
X208243428Y-96800500D01*
X209274903Y-96800500D01*
X209341942Y-96820185D01*
X209362584Y-96836819D01*
X210175146Y-97649381D01*
X210208631Y-97710704D01*
X210207240Y-97769155D01*
X210177152Y-97881444D01*
X210177150Y-97881455D01*
X210156937Y-98112498D01*
X210156937Y-98112501D01*
X210177150Y-98343544D01*
X210177151Y-98343551D01*
X210237178Y-98567574D01*
X210237179Y-98567576D01*
X210237180Y-98567579D01*
X210335199Y-98777782D01*
X210468230Y-98967769D01*
X210632231Y-99131770D01*
X210822218Y-99264801D01*
X210842006Y-99274028D01*
X210877281Y-99298728D01*
X211315931Y-99737378D01*
X211199042Y-99788151D01*
X211081761Y-99883566D01*
X210994572Y-100007085D01*
X210964145Y-100092697D01*
X210390524Y-99519076D01*
X210390524Y-99519077D01*
X210335633Y-99597469D01*
X210335632Y-99597471D01*
X210237652Y-99807590D01*
X210237648Y-99807599D01*
X210177647Y-100031531D01*
X210177645Y-100031541D01*
X210157439Y-100262499D01*
X210157439Y-100262500D01*
X210177645Y-100493458D01*
X210177647Y-100493468D01*
X210237648Y-100717400D01*
X210237652Y-100717409D01*
X210335633Y-100927531D01*
X210335637Y-100927537D01*
X210395114Y-101012478D01*
X210417442Y-101078684D01*
X210400432Y-101146451D01*
X210367852Y-101182868D01*
X210304952Y-101229955D01*
X210218706Y-101345164D01*
X210218702Y-101345171D01*
X210168408Y-101480017D01*
X210162425Y-101535673D01*
X210162001Y-101539623D01*
X210162000Y-101539635D01*
X210162000Y-101688000D01*
X210142315Y-101755039D01*
X210089511Y-101800794D01*
X210038000Y-101812000D01*
X208861599Y-101812000D01*
X208794560Y-101792315D01*
X208748805Y-101739511D01*
X208748043Y-101737811D01*
X208724172Y-101683391D01*
X208588166Y-101475217D01*
X208557466Y-101441868D01*
X208419744Y-101292262D01*
X208223509Y-101139526D01*
X208223507Y-101139525D01*
X208223506Y-101139524D01*
X208065482Y-101054006D01*
X208015892Y-101004786D01*
X208000500Y-100944951D01*
X208000500Y-96920812D01*
X208020185Y-96853773D01*
X208072989Y-96808018D01*
X208140685Y-96797873D01*
X208200000Y-96805682D01*
G37*
G04 #@! TD.AperFunction*
G04 #@! TA.AperFunction,Conductor*
G36*
X217093333Y-63995547D02*
G01*
X217137680Y-64024048D01*
X218813181Y-65699548D01*
X218846666Y-65760871D01*
X218849500Y-65787229D01*
X218849500Y-84575500D01*
X218829815Y-84642539D01*
X218777011Y-84688294D01*
X218725500Y-84699500D01*
X218655854Y-84699500D01*
X218618292Y-84707484D01*
X218593271Y-84712802D01*
X218523604Y-84707484D01*
X218467871Y-84665346D01*
X218451310Y-84634843D01*
X218418798Y-84547673D01*
X218418793Y-84547664D01*
X218332547Y-84432455D01*
X218332544Y-84432452D01*
X218217335Y-84346206D01*
X218217328Y-84346202D01*
X218082486Y-84295910D01*
X218082485Y-84295909D01*
X218082483Y-84295909D01*
X218022873Y-84289500D01*
X218022863Y-84289500D01*
X217477129Y-84289500D01*
X217477123Y-84289501D01*
X217417516Y-84295908D01*
X217282671Y-84346202D01*
X217282664Y-84346206D01*
X217167455Y-84432452D01*
X217167452Y-84432455D01*
X217081206Y-84547664D01*
X217081202Y-84547671D01*
X217040682Y-84656313D01*
X216998811Y-84712247D01*
X216933347Y-84736664D01*
X216865074Y-84721812D01*
X216815668Y-84672407D01*
X216800500Y-84612980D01*
X216800500Y-82645908D01*
X216820185Y-82578869D01*
X216864271Y-82540363D01*
X216863187Y-82538605D01*
X216869332Y-82534814D01*
X216869334Y-82534814D01*
X217018656Y-82442712D01*
X217142712Y-82318656D01*
X217234814Y-82169334D01*
X217289999Y-82002797D01*
X217300500Y-81900009D01*
X217300499Y-80899992D01*
X217300282Y-80897872D01*
X217289999Y-80797203D01*
X217289998Y-80797200D01*
X217288998Y-80794183D01*
X217234814Y-80630666D01*
X217142712Y-80481344D01*
X217018656Y-80357288D01*
X216905537Y-80287516D01*
X216869336Y-80265187D01*
X216869331Y-80265185D01*
X216849130Y-80258491D01*
X216702797Y-80210001D01*
X216702795Y-80210000D01*
X216600010Y-80199500D01*
X215799998Y-80199500D01*
X215799980Y-80199501D01*
X215697203Y-80210000D01*
X215697200Y-80210001D01*
X215530668Y-80265185D01*
X215530663Y-80265187D01*
X215381345Y-80357287D01*
X215287327Y-80451305D01*
X215226003Y-80484789D01*
X215156312Y-80479805D01*
X215111965Y-80451304D01*
X215018345Y-80357684D01*
X214869124Y-80265643D01*
X214869119Y-80265641D01*
X214702697Y-80210494D01*
X214702690Y-80210493D01*
X214599986Y-80200000D01*
X214450000Y-80200000D01*
X214450000Y-81526000D01*
X214430315Y-81593039D01*
X214377511Y-81638794D01*
X214326000Y-81650000D01*
X213100001Y-81650000D01*
X213100001Y-81899986D01*
X213110494Y-82002697D01*
X213155296Y-82137900D01*
X213157698Y-82207728D01*
X213121966Y-82267770D01*
X213102687Y-82282442D01*
X212981347Y-82357285D01*
X212981343Y-82357288D01*
X212887681Y-82450951D01*
X212826358Y-82484436D01*
X212756666Y-82479452D01*
X212712319Y-82450951D01*
X212618657Y-82357289D01*
X212618656Y-82357288D01*
X212485229Y-82274990D01*
X212469336Y-82265187D01*
X212469331Y-82265185D01*
X212400214Y-82242282D01*
X212302797Y-82210001D01*
X212302795Y-82210000D01*
X212200016Y-82199500D01*
X211449500Y-82199500D01*
X211382461Y-82179815D01*
X211336706Y-82127011D01*
X211325500Y-82075500D01*
X211325500Y-81150000D01*
X213100000Y-81150000D01*
X213950000Y-81150000D01*
X213950000Y-80200000D01*
X213800027Y-80200000D01*
X213800012Y-80200001D01*
X213697302Y-80210494D01*
X213530880Y-80265641D01*
X213530875Y-80265643D01*
X213381654Y-80357684D01*
X213257684Y-80481654D01*
X213165643Y-80630875D01*
X213165641Y-80630880D01*
X213110494Y-80797302D01*
X213110493Y-80797309D01*
X213100000Y-80900013D01*
X213100000Y-81150000D01*
X211325500Y-81150000D01*
X211325500Y-67625575D01*
X211326809Y-67607605D01*
X211330289Y-67583844D01*
X211325736Y-67531809D01*
X211325500Y-67526402D01*
X211325500Y-67518166D01*
X211325500Y-67518161D01*
X211321691Y-67485575D01*
X211314998Y-67409073D01*
X211314995Y-67409064D01*
X211313538Y-67402005D01*
X211313598Y-67401992D01*
X211311966Y-67394634D01*
X211311908Y-67394648D01*
X211310241Y-67387617D01*
X211310241Y-67387615D01*
X211283969Y-67315433D01*
X211274219Y-67286009D01*
X211259815Y-67242538D01*
X211256762Y-67235991D01*
X211256815Y-67235965D01*
X211253531Y-67229181D01*
X211253479Y-67229208D01*
X211250236Y-67222752D01*
X211244165Y-67213522D01*
X211208034Y-67158586D01*
X211167712Y-67093214D01*
X211167710Y-67093212D01*
X211163234Y-67087551D01*
X211163280Y-67087513D01*
X211158519Y-67081669D01*
X211158474Y-67081708D01*
X211153834Y-67076178D01*
X211097982Y-67023483D01*
X210148859Y-66074361D01*
X210137079Y-66060730D01*
X210124370Y-66043659D01*
X210122742Y-66041472D01*
X210118682Y-66038065D01*
X210082717Y-66007886D01*
X210078742Y-66004244D01*
X210074481Y-65999983D01*
X210072910Y-65998411D01*
X210047170Y-65978059D01*
X209988339Y-65928694D01*
X209982310Y-65924729D01*
X209982342Y-65924680D01*
X209975983Y-65920628D01*
X209975952Y-65920679D01*
X209969811Y-65916891D01*
X209969807Y-65916889D01*
X209940351Y-65903153D01*
X209887913Y-65856981D01*
X209887239Y-65855901D01*
X209815577Y-65739514D01*
X209797190Y-65672107D01*
X209818165Y-65605460D01*
X209871842Y-65560733D01*
X209921167Y-65550500D01*
X213762609Y-65550500D01*
X213829648Y-65570185D01*
X213875403Y-65622989D01*
X213885347Y-65692147D01*
X213856322Y-65755703D01*
X213847493Y-65764892D01*
X213646652Y-65953494D01*
X213454111Y-66186236D01*
X213292268Y-66441261D01*
X213292265Y-66441267D01*
X213163661Y-66714563D01*
X213163659Y-66714568D01*
X213070320Y-67001835D01*
X213013719Y-67298546D01*
X213013718Y-67298553D01*
X212994754Y-67599994D01*
X212994754Y-67600005D01*
X213013718Y-67901446D01*
X213013719Y-67901453D01*
X213021571Y-67942615D01*
X213048587Y-68084239D01*
X213070320Y-68198164D01*
X213163659Y-68485431D01*
X213163661Y-68485436D01*
X213292265Y-68758732D01*
X213292268Y-68758738D01*
X213454111Y-69013763D01*
X213454114Y-69013767D01*
X213454115Y-69013768D01*
X213646651Y-69246504D01*
X213790238Y-69381342D01*
X213866836Y-69453272D01*
X213866846Y-69453280D01*
X214111193Y-69630808D01*
X214111198Y-69630810D01*
X214111205Y-69630816D01*
X214375896Y-69776332D01*
X214375901Y-69776334D01*
X214375903Y-69776335D01*
X214375904Y-69776336D01*
X214656734Y-69887524D01*
X214656737Y-69887525D01*
X214734591Y-69907514D01*
X214949302Y-69962642D01*
X215096039Y-69981179D01*
X215248963Y-70000499D01*
X215248969Y-70000499D01*
X215248973Y-70000500D01*
X215248975Y-70000500D01*
X215551025Y-70000500D01*
X215551027Y-70000500D01*
X215551032Y-70000499D01*
X215551036Y-70000499D01*
X215642999Y-69988881D01*
X215850698Y-69962642D01*
X216143262Y-69887525D01*
X216156252Y-69882382D01*
X216424095Y-69776336D01*
X216424096Y-69776335D01*
X216424094Y-69776335D01*
X216424104Y-69776332D01*
X216688795Y-69630816D01*
X216933162Y-69453274D01*
X217153349Y-69246504D01*
X217345885Y-69013768D01*
X217507733Y-68758736D01*
X217636341Y-68485430D01*
X217729681Y-68198160D01*
X217786280Y-67901457D01*
X217791751Y-67814504D01*
X217805246Y-67600005D01*
X217805246Y-67599994D01*
X217786281Y-67298553D01*
X217786280Y-67298546D01*
X217786280Y-67298543D01*
X217729681Y-67001840D01*
X217636341Y-66714570D01*
X217602251Y-66642126D01*
X217538060Y-66505713D01*
X217507733Y-66441264D01*
X217433949Y-66324999D01*
X217345888Y-66186236D01*
X217330235Y-66167315D01*
X217153349Y-65953496D01*
X217090124Y-65894124D01*
X216948225Y-65760871D01*
X216933162Y-65746726D01*
X216933159Y-65746724D01*
X216933153Y-65746719D01*
X216688806Y-65569191D01*
X216688799Y-65569186D01*
X216688795Y-65569184D01*
X216424104Y-65423668D01*
X216424101Y-65423666D01*
X216424096Y-65423664D01*
X216424095Y-65423663D01*
X216143265Y-65312475D01*
X216143262Y-65312474D01*
X215980349Y-65270646D01*
X215920311Y-65234908D01*
X215889125Y-65172384D01*
X215896693Y-65102926D01*
X215923503Y-65062863D01*
X216962318Y-64024047D01*
X217023641Y-63990563D01*
X217093333Y-63995547D01*
G37*
G04 #@! TD.AperFunction*
G04 #@! TA.AperFunction,Conductor*
G36*
X215242979Y-82320194D02*
G01*
X215287327Y-82348695D01*
X215381344Y-82442712D01*
X215530666Y-82534814D01*
X215530667Y-82534814D01*
X215536813Y-82538605D01*
X215535706Y-82540399D01*
X215580337Y-82579687D01*
X215599500Y-82645908D01*
X215599500Y-84225500D01*
X215579815Y-84292539D01*
X215527011Y-84338294D01*
X215475501Y-84349500D01*
X215377130Y-84349500D01*
X215377123Y-84349501D01*
X215317516Y-84355908D01*
X215182671Y-84406202D01*
X215182669Y-84406204D01*
X215073894Y-84487633D01*
X215008430Y-84512050D01*
X214940157Y-84497199D01*
X214925272Y-84487632D01*
X214819796Y-84408672D01*
X214777925Y-84352738D01*
X214772941Y-84283047D01*
X214788569Y-84244309D01*
X214800171Y-84225500D01*
X214834814Y-84169334D01*
X214889999Y-84002797D01*
X214900500Y-83900009D01*
X214900499Y-82899992D01*
X214889999Y-82797203D01*
X214844977Y-82661338D01*
X214842576Y-82591515D01*
X214878307Y-82531472D01*
X214897588Y-82516799D01*
X215018341Y-82442318D01*
X215111964Y-82348695D01*
X215173287Y-82315210D01*
X215242979Y-82320194D01*
G37*
G04 #@! TD.AperFunction*
G04 #@! TA.AperFunction,Conductor*
G36*
X223642539Y-56120185D02*
G01*
X223688294Y-56172989D01*
X223699500Y-56224500D01*
X223699500Y-115175500D01*
X223679815Y-115242539D01*
X223627011Y-115288294D01*
X223575500Y-115299500D01*
X156824500Y-115299500D01*
X156757461Y-115279815D01*
X156711706Y-115227011D01*
X156700500Y-115175500D01*
X156700500Y-75357924D01*
X157199710Y-75357924D01*
X157204264Y-75409963D01*
X157204500Y-75415369D01*
X157204500Y-75423608D01*
X157208306Y-75456173D01*
X157215000Y-75532690D01*
X157216461Y-75539766D01*
X157216403Y-75539777D01*
X157218034Y-75547136D01*
X157218092Y-75547123D01*
X157219757Y-75554149D01*
X157246025Y-75626323D01*
X157270185Y-75699230D01*
X157273239Y-75705780D01*
X157273184Y-75705805D01*
X157276468Y-75712586D01*
X157276520Y-75712560D01*
X157279761Y-75719012D01*
X157279762Y-75719013D01*
X157279763Y-75719016D01*
X157321971Y-75783190D01*
X157362285Y-75848550D01*
X157366766Y-75854217D01*
X157366719Y-75854254D01*
X157371487Y-75860106D01*
X157371533Y-75860068D01*
X157376174Y-75865600D01*
X157432033Y-75918299D01*
X158524370Y-77010638D01*
X158536151Y-77024270D01*
X158550488Y-77043528D01*
X158590509Y-77077111D01*
X158594497Y-77080766D01*
X158600317Y-77086586D01*
X158626063Y-77106944D01*
X158631612Y-77111600D01*
X158666541Y-77163062D01*
X158667133Y-77162787D01*
X158668842Y-77166451D01*
X158669599Y-77167567D01*
X158670181Y-77169323D01*
X158670185Y-77169331D01*
X158670186Y-77169334D01*
X158762288Y-77318656D01*
X158886344Y-77442712D01*
X158945596Y-77479258D01*
X158992321Y-77531204D01*
X159004500Y-77584797D01*
X159004500Y-77863132D01*
X158984815Y-77930171D01*
X158965616Y-77951346D01*
X158966451Y-77952181D01*
X158837289Y-78081342D01*
X158745187Y-78230663D01*
X158745185Y-78230668D01*
X158737714Y-78253215D01*
X158690001Y-78397203D01*
X158690001Y-78397204D01*
X158690000Y-78397204D01*
X158679500Y-78499983D01*
X158679500Y-79500001D01*
X158679501Y-79500019D01*
X158690000Y-79602796D01*
X158690001Y-79602799D01*
X158745185Y-79769331D01*
X158745187Y-79769336D01*
X158756715Y-79788026D01*
X158837288Y-79918656D01*
X158961344Y-80042712D01*
X159110666Y-80134814D01*
X159277203Y-80189999D01*
X159379991Y-80200500D01*
X159842769Y-80200499D01*
X159909808Y-80220183D01*
X159930450Y-80236818D01*
X160213029Y-80519397D01*
X160246514Y-80580720D01*
X160241530Y-80650412D01*
X160199658Y-80706345D01*
X160157441Y-80726853D01*
X159936344Y-80786094D01*
X159936335Y-80786098D01*
X159722171Y-80885964D01*
X159722169Y-80885965D01*
X159528597Y-81021505D01*
X159361505Y-81188597D01*
X159225965Y-81382169D01*
X159225964Y-81382171D01*
X159126098Y-81596335D01*
X159126094Y-81596344D01*
X159064938Y-81824586D01*
X159064936Y-81824596D01*
X159044341Y-82059999D01*
X159044341Y-82060000D01*
X159064936Y-82295403D01*
X159064938Y-82295413D01*
X159126094Y-82523655D01*
X159126096Y-82523659D01*
X159126097Y-82523663D01*
X159225965Y-82737830D01*
X159225967Y-82737834D01*
X159361501Y-82931395D01*
X159361506Y-82931402D01*
X159483430Y-83053326D01*
X159516915Y-83114649D01*
X159511931Y-83184341D01*
X159470059Y-83240274D01*
X159439083Y-83257189D01*
X159307669Y-83306203D01*
X159307664Y-83306206D01*
X159192455Y-83392452D01*
X159192452Y-83392455D01*
X159106206Y-83507664D01*
X159106202Y-83507671D01*
X159055908Y-83642517D01*
X159049501Y-83702116D01*
X159049500Y-83702135D01*
X159049500Y-85497870D01*
X159049501Y-85497876D01*
X159055908Y-85557483D01*
X159106202Y-85692328D01*
X159106206Y-85692335D01*
X159192452Y-85807544D01*
X159192455Y-85807547D01*
X159307664Y-85893793D01*
X159307671Y-85893797D01*
X159442517Y-85944091D01*
X159442516Y-85944091D01*
X159449444Y-85944835D01*
X159502127Y-85950500D01*
X160637769Y-85950499D01*
X160704808Y-85970184D01*
X160725450Y-85986818D01*
X162374267Y-87635634D01*
X162386048Y-87649266D01*
X162386397Y-87649735D01*
X162400390Y-87668530D01*
X162440420Y-87702119D01*
X162444392Y-87705759D01*
X162449106Y-87710473D01*
X162450224Y-87711591D01*
X162450227Y-87711594D01*
X162475947Y-87731931D01*
X162534788Y-87781304D01*
X162540818Y-87785270D01*
X162540785Y-87785319D01*
X162547143Y-87789369D01*
X162547175Y-87789319D01*
X162553320Y-87793109D01*
X162553323Y-87793111D01*
X162622936Y-87825572D01*
X162691567Y-87860040D01*
X162691572Y-87860041D01*
X162698361Y-87862513D01*
X162698340Y-87862570D01*
X162705455Y-87865043D01*
X162705475Y-87864986D01*
X162712330Y-87867258D01*
X162787558Y-87882790D01*
X162862279Y-87900500D01*
X162862289Y-87900500D01*
X162869452Y-87901338D01*
X162869444Y-87901397D01*
X162876945Y-87902164D01*
X162876951Y-87902105D01*
X162884140Y-87902734D01*
X162884144Y-87902733D01*
X162884145Y-87902734D01*
X162960918Y-87900500D01*
X165272411Y-87900500D01*
X165339450Y-87920185D01*
X165385205Y-87972989D01*
X165395631Y-88010617D01*
X165414630Y-88179249D01*
X165414631Y-88179254D01*
X165474211Y-88349523D01*
X165505923Y-88399992D01*
X165570184Y-88502262D01*
X165617120Y-88549198D01*
X165638819Y-88570897D01*
X165672303Y-88632221D01*
X165667318Y-88701912D01*
X165638818Y-88746259D01*
X164223596Y-90161482D01*
X164217494Y-90166833D01*
X164189220Y-90188529D01*
X164189218Y-90188532D01*
X164140172Y-90252450D01*
X164136361Y-90257417D01*
X164092964Y-90313972D01*
X164032456Y-90460051D01*
X164032455Y-90460053D01*
X164012428Y-90612181D01*
X164011818Y-90616814D01*
X164016121Y-90649501D01*
X164016469Y-90652140D01*
X164017000Y-90660242D01*
X164017000Y-91004050D01*
X163997315Y-91071089D01*
X163944511Y-91116844D01*
X163875353Y-91126788D01*
X163811797Y-91097763D01*
X163810773Y-91096866D01*
X163808183Y-91094572D01*
X163808183Y-91094571D01*
X163761750Y-91053435D01*
X163759056Y-91050899D01*
X161785151Y-89076994D01*
X161751666Y-89015671D01*
X161753058Y-88957217D01*
X161757563Y-88940408D01*
X161778159Y-88705000D01*
X161757563Y-88469592D01*
X161696403Y-88241337D01*
X161596535Y-88027171D01*
X161594947Y-88024902D01*
X161460994Y-87833597D01*
X161293902Y-87666506D01*
X161293895Y-87666501D01*
X161287278Y-87661868D01*
X161225564Y-87618655D01*
X161100334Y-87530967D01*
X161100330Y-87530965D01*
X161008260Y-87488032D01*
X160886163Y-87431097D01*
X160886159Y-87431096D01*
X160886155Y-87431094D01*
X160657913Y-87369938D01*
X160657903Y-87369936D01*
X160422501Y-87349341D01*
X160422499Y-87349341D01*
X160187096Y-87369936D01*
X160187086Y-87369938D01*
X159958844Y-87431094D01*
X159958835Y-87431098D01*
X159744671Y-87530964D01*
X159744669Y-87530965D01*
X159551097Y-87666505D01*
X159384005Y-87833597D01*
X159248465Y-88027169D01*
X159248464Y-88027171D01*
X159165032Y-88206093D01*
X159148633Y-88241261D01*
X159148598Y-88241335D01*
X159148594Y-88241344D01*
X159087438Y-88469586D01*
X159087436Y-88469596D01*
X159066841Y-88704999D01*
X159066841Y-88705000D01*
X159087436Y-88940403D01*
X159087438Y-88940413D01*
X159148594Y-89168655D01*
X159148596Y-89168659D01*
X159148597Y-89168663D01*
X159213360Y-89307547D01*
X159248465Y-89382830D01*
X159248467Y-89382834D01*
X159384001Y-89576395D01*
X159384006Y-89576402D01*
X159505930Y-89698326D01*
X159539415Y-89759649D01*
X159534431Y-89829341D01*
X159492559Y-89885274D01*
X159461583Y-89902189D01*
X159330169Y-89951203D01*
X159330164Y-89951206D01*
X159214955Y-90037452D01*
X159214952Y-90037455D01*
X159128706Y-90152664D01*
X159128702Y-90152671D01*
X159078408Y-90287517D01*
X159072001Y-90347115D01*
X159072000Y-90347135D01*
X159072000Y-92142870D01*
X159072001Y-92142876D01*
X159078408Y-92202483D01*
X159128702Y-92337328D01*
X159128706Y-92337335D01*
X159214952Y-92452544D01*
X159214955Y-92452547D01*
X159330164Y-92538793D01*
X159330171Y-92538797D01*
X159370190Y-92553723D01*
X159465017Y-92589091D01*
X159524627Y-92595500D01*
X159602044Y-92595499D01*
X159669082Y-92615183D01*
X159714838Y-92667986D01*
X159724013Y-92697148D01*
X159729320Y-92726111D01*
X159729884Y-92729813D01*
X159737359Y-92791370D01*
X159737360Y-92791374D01*
X159740951Y-92800843D01*
X159746974Y-92822446D01*
X159748804Y-92832430D01*
X159774259Y-92888990D01*
X159775689Y-92892441D01*
X159797682Y-92950430D01*
X159797683Y-92950431D01*
X159803436Y-92958766D01*
X159814461Y-92978313D01*
X159818620Y-92987555D01*
X159818624Y-92987560D01*
X159856871Y-93036378D01*
X159859088Y-93039392D01*
X159859507Y-93039999D01*
X159894312Y-93090424D01*
X159894316Y-93090428D01*
X159894317Y-93090429D01*
X159940750Y-93131564D01*
X159943441Y-93134098D01*
X160223823Y-93414480D01*
X160492162Y-93682819D01*
X160525647Y-93744142D01*
X160520663Y-93813834D01*
X160478791Y-93869767D01*
X160413327Y-93894184D01*
X160404481Y-93894500D01*
X159524629Y-93894500D01*
X159524623Y-93894501D01*
X159465016Y-93900908D01*
X159330171Y-93951202D01*
X159330164Y-93951206D01*
X159214955Y-94037452D01*
X159214952Y-94037455D01*
X159128706Y-94152664D01*
X159128702Y-94152671D01*
X159078408Y-94287517D01*
X159072001Y-94347116D01*
X159072000Y-94347135D01*
X159072000Y-96142870D01*
X159072001Y-96142876D01*
X159078408Y-96202483D01*
X159128702Y-96337328D01*
X159128706Y-96337335D01*
X159214952Y-96452544D01*
X159214955Y-96452547D01*
X159330164Y-96538793D01*
X159330171Y-96538797D01*
X159461581Y-96587810D01*
X159517515Y-96629681D01*
X159541932Y-96695145D01*
X159527080Y-96763418D01*
X159505930Y-96791673D01*
X159384003Y-96913600D01*
X159248465Y-97107169D01*
X159248464Y-97107171D01*
X159148598Y-97321335D01*
X159148594Y-97321344D01*
X159087438Y-97549586D01*
X159087436Y-97549596D01*
X159066841Y-97784999D01*
X159066841Y-97785000D01*
X159087436Y-98020403D01*
X159087438Y-98020413D01*
X159148594Y-98248655D01*
X159148596Y-98248659D01*
X159148597Y-98248663D01*
X159192841Y-98343544D01*
X159248465Y-98462830D01*
X159248467Y-98462834D01*
X159329986Y-98579254D01*
X159384005Y-98656401D01*
X159551099Y-98823495D01*
X159589632Y-98850476D01*
X159744665Y-98959032D01*
X159744667Y-98959033D01*
X159744670Y-98959035D01*
X159958837Y-99058903D01*
X160187092Y-99120063D01*
X160375418Y-99136539D01*
X160422499Y-99140659D01*
X160422500Y-99140659D01*
X160422501Y-99140659D01*
X160461734Y-99137226D01*
X160657908Y-99120063D01*
X160886163Y-99058903D01*
X161100330Y-98959035D01*
X161293901Y-98823495D01*
X161387819Y-98729577D01*
X161449142Y-98696092D01*
X161518834Y-98701076D01*
X161574767Y-98742948D01*
X161599184Y-98808412D01*
X161599500Y-98817258D01*
X161599500Y-101076571D01*
X161598969Y-101084669D01*
X161598662Y-101087001D01*
X161594318Y-101119999D01*
X161594318Y-101120003D01*
X161597143Y-101141463D01*
X161586377Y-101210498D01*
X161539997Y-101262753D01*
X161472727Y-101281638D01*
X161405927Y-101261157D01*
X161372629Y-101228770D01*
X161352134Y-101199500D01*
X161323495Y-101158599D01*
X161156401Y-100991505D01*
X161089915Y-100944951D01*
X160962834Y-100855967D01*
X160962830Y-100855965D01*
X160869619Y-100812500D01*
X160748663Y-100756097D01*
X160748659Y-100756096D01*
X160748655Y-100756094D01*
X160520413Y-100694938D01*
X160520403Y-100694936D01*
X160285001Y-100674341D01*
X160284999Y-100674341D01*
X160049596Y-100694936D01*
X160049586Y-100694938D01*
X159821344Y-100756094D01*
X159821335Y-100756098D01*
X159607171Y-100855964D01*
X159607169Y-100855965D01*
X159413597Y-100991505D01*
X159246505Y-101158597D01*
X159110965Y-101352169D01*
X159110964Y-101352171D01*
X159011098Y-101566335D01*
X159011094Y-101566344D01*
X158949938Y-101794586D01*
X158949936Y-101794596D01*
X158929341Y-102029999D01*
X158929341Y-102030000D01*
X158949936Y-102265403D01*
X158949938Y-102265413D01*
X159011094Y-102493655D01*
X159011096Y-102493659D01*
X159011097Y-102493663D01*
X159070126Y-102620250D01*
X159110965Y-102707830D01*
X159110967Y-102707834D01*
X159246501Y-102901395D01*
X159246506Y-102901402D01*
X159368430Y-103023326D01*
X159401915Y-103084649D01*
X159396931Y-103154341D01*
X159355059Y-103210274D01*
X159324083Y-103227189D01*
X159192669Y-103276203D01*
X159192664Y-103276206D01*
X159077455Y-103362452D01*
X159077452Y-103362455D01*
X158991206Y-103477664D01*
X158991202Y-103477671D01*
X158940908Y-103612517D01*
X158934501Y-103672116D01*
X158934500Y-103672135D01*
X158934500Y-105467870D01*
X158934501Y-105467876D01*
X158940908Y-105527483D01*
X158991202Y-105662328D01*
X158991206Y-105662335D01*
X159077452Y-105777544D01*
X159077455Y-105777547D01*
X159192664Y-105863793D01*
X159192671Y-105863797D01*
X159327517Y-105914091D01*
X159327516Y-105914091D01*
X159334444Y-105914835D01*
X159387127Y-105920500D01*
X160989480Y-105920499D01*
X161056519Y-105940184D01*
X161102274Y-105992987D01*
X161112218Y-106062146D01*
X161083193Y-106125702D01*
X161077161Y-106132180D01*
X160066160Y-107143181D01*
X160004837Y-107176666D01*
X159978479Y-107179500D01*
X159387129Y-107179500D01*
X159387123Y-107179501D01*
X159327516Y-107185908D01*
X159192671Y-107236202D01*
X159192664Y-107236206D01*
X159077455Y-107322452D01*
X159077452Y-107322455D01*
X158991206Y-107437664D01*
X158991202Y-107437671D01*
X158940908Y-107572517D01*
X158934501Y-107632116D01*
X158934500Y-107632135D01*
X158934500Y-109427870D01*
X158934501Y-109427876D01*
X158940908Y-109487483D01*
X158991202Y-109622328D01*
X158991206Y-109622335D01*
X159077452Y-109737544D01*
X159077455Y-109737547D01*
X159192664Y-109823793D01*
X159192671Y-109823797D01*
X159324081Y-109872810D01*
X159380015Y-109914681D01*
X159404432Y-109980145D01*
X159389580Y-110048418D01*
X159368430Y-110076673D01*
X159246503Y-110198600D01*
X159110965Y-110392169D01*
X159110964Y-110392171D01*
X159067082Y-110486277D01*
X159014053Y-110599999D01*
X159011098Y-110606335D01*
X159011094Y-110606344D01*
X158949938Y-110834586D01*
X158949936Y-110834596D01*
X158929341Y-111069999D01*
X158929341Y-111070000D01*
X158949936Y-111305403D01*
X158949938Y-111305413D01*
X159011094Y-111533655D01*
X159011096Y-111533659D01*
X159011097Y-111533663D01*
X159066977Y-111653497D01*
X159110965Y-111747830D01*
X159110967Y-111747834D01*
X159217930Y-111900592D01*
X159246505Y-111941401D01*
X159413599Y-112108495D01*
X159471072Y-112148738D01*
X159607165Y-112244032D01*
X159607167Y-112244033D01*
X159607170Y-112244035D01*
X159821337Y-112343903D01*
X160049592Y-112405063D01*
X160237918Y-112421539D01*
X160284999Y-112425659D01*
X160285000Y-112425659D01*
X160285001Y-112425659D01*
X160324234Y-112422226D01*
X160520408Y-112405063D01*
X160748663Y-112343903D01*
X160962830Y-112244035D01*
X161156401Y-112108495D01*
X161323495Y-111941401D01*
X161459035Y-111747830D01*
X161527967Y-111600005D01*
X162794754Y-111600005D01*
X162813718Y-111901446D01*
X162813719Y-111901453D01*
X162821340Y-111941401D01*
X162854356Y-112114481D01*
X162870320Y-112198164D01*
X162963659Y-112485431D01*
X162963661Y-112485436D01*
X163092265Y-112758732D01*
X163092268Y-112758738D01*
X163254111Y-113013763D01*
X163254114Y-113013767D01*
X163254115Y-113013768D01*
X163417232Y-113210943D01*
X163446652Y-113246505D01*
X163666836Y-113453272D01*
X163666846Y-113453280D01*
X163911193Y-113630808D01*
X163911198Y-113630810D01*
X163911205Y-113630816D01*
X164175896Y-113776332D01*
X164175901Y-113776334D01*
X164175903Y-113776335D01*
X164175904Y-113776336D01*
X164456734Y-113887524D01*
X164456737Y-113887525D01*
X164554259Y-113912564D01*
X164749302Y-113962642D01*
X164896039Y-113981179D01*
X165048963Y-114000499D01*
X165048969Y-114000499D01*
X165048973Y-114000500D01*
X165048975Y-114000500D01*
X165351025Y-114000500D01*
X165351027Y-114000500D01*
X165351032Y-114000499D01*
X165351036Y-114000499D01*
X165473379Y-113985043D01*
X165650698Y-113962642D01*
X165943262Y-113887525D01*
X165943265Y-113887524D01*
X166224095Y-113776336D01*
X166224096Y-113776335D01*
X166224094Y-113776335D01*
X166224104Y-113776332D01*
X166488795Y-113630816D01*
X166733162Y-113453274D01*
X166953349Y-113246504D01*
X167145885Y-113013768D01*
X167307733Y-112758736D01*
X167436341Y-112485430D01*
X167529681Y-112198160D01*
X167586280Y-111901457D01*
X167586281Y-111901446D01*
X167605246Y-111600005D01*
X167605246Y-111599994D01*
X167586281Y-111298553D01*
X167586280Y-111298546D01*
X167586280Y-111298543D01*
X167529681Y-111001840D01*
X167436341Y-110714570D01*
X167385409Y-110606335D01*
X167345904Y-110522382D01*
X167307733Y-110441264D01*
X167231496Y-110321134D01*
X167145888Y-110186236D01*
X167145885Y-110186232D01*
X166953349Y-109953496D01*
X166951912Y-109952147D01*
X166733163Y-109746727D01*
X166733153Y-109746719D01*
X166488806Y-109569191D01*
X166488799Y-109569186D01*
X166488795Y-109569184D01*
X166224104Y-109423668D01*
X166224101Y-109423666D01*
X166224096Y-109423664D01*
X166224095Y-109423663D01*
X165943265Y-109312475D01*
X165943262Y-109312474D01*
X165650695Y-109237357D01*
X165351036Y-109199500D01*
X165351027Y-109199500D01*
X165048973Y-109199500D01*
X165048963Y-109199500D01*
X164749304Y-109237357D01*
X164456737Y-109312474D01*
X164456734Y-109312475D01*
X164175904Y-109423663D01*
X164175903Y-109423664D01*
X163911205Y-109569184D01*
X163911193Y-109569191D01*
X163666846Y-109746719D01*
X163666836Y-109746727D01*
X163446652Y-109953494D01*
X163254111Y-110186236D01*
X163092268Y-110441261D01*
X163092265Y-110441267D01*
X162963661Y-110714563D01*
X162963659Y-110714568D01*
X162870320Y-111001835D01*
X162813719Y-111298546D01*
X162813718Y-111298553D01*
X162794754Y-111599994D01*
X162794754Y-111600005D01*
X161527967Y-111600005D01*
X161558903Y-111533663D01*
X161620063Y-111305408D01*
X161640659Y-111070000D01*
X161620063Y-110834592D01*
X161615558Y-110817779D01*
X161617219Y-110747932D01*
X161647649Y-110698006D01*
X163621556Y-108724099D01*
X163624248Y-108721565D01*
X163670683Y-108680429D01*
X163674397Y-108675049D01*
X163679389Y-108667814D01*
X163705927Y-108629366D01*
X163708117Y-108626390D01*
X163746377Y-108577557D01*
X163750529Y-108568328D01*
X163761562Y-108548768D01*
X163763705Y-108545663D01*
X163767318Y-108540430D01*
X163771072Y-108530528D01*
X163813249Y-108474827D01*
X163878846Y-108450768D01*
X163887015Y-108450499D01*
X164956863Y-108450499D01*
X165074253Y-108435046D01*
X165074257Y-108435044D01*
X165074262Y-108435044D01*
X165220341Y-108374536D01*
X165345782Y-108278282D01*
X165379260Y-108234652D01*
X165402147Y-108211763D01*
X165445782Y-108178282D01*
X165467483Y-108149999D01*
X165472811Y-108143922D01*
X165993922Y-107622811D01*
X165999999Y-107617483D01*
X166028282Y-107595782D01*
X166124536Y-107470341D01*
X166185044Y-107324262D01*
X166191468Y-107275464D01*
X166205682Y-107167500D01*
X166201030Y-107132169D01*
X166200500Y-107124071D01*
X166200500Y-103260246D01*
X166201031Y-103252145D01*
X166202177Y-103243445D01*
X166205683Y-103216812D01*
X166201630Y-103186031D01*
X166185044Y-103060050D01*
X166155021Y-102987568D01*
X166124536Y-102913971D01*
X166104486Y-102887841D01*
X166028282Y-102788530D01*
X166000005Y-102766832D01*
X165993904Y-102761481D01*
X165775987Y-102543564D01*
X165742502Y-102482241D01*
X165747486Y-102412549D01*
X165789358Y-102356616D01*
X165854822Y-102332199D01*
X165923095Y-102347051D01*
X165928765Y-102350345D01*
X165943369Y-102359353D01*
X165943380Y-102359358D01*
X166109802Y-102414505D01*
X166109809Y-102414506D01*
X166212519Y-102424999D01*
X166349999Y-102424999D01*
X166350000Y-102424998D01*
X166350000Y-101450000D01*
X165512501Y-101450000D01*
X165512501Y-101724986D01*
X165522994Y-101827697D01*
X165578141Y-101994119D01*
X165578145Y-101994128D01*
X165609031Y-102044202D01*
X165627471Y-102111594D01*
X165606548Y-102178258D01*
X165552906Y-102223027D01*
X165483575Y-102231688D01*
X165428007Y-102207674D01*
X165386029Y-102175464D01*
X165382446Y-102173980D01*
X165239950Y-102114956D01*
X165239948Y-102114955D01*
X165122549Y-102099500D01*
X165083188Y-102094318D01*
X165047858Y-102098969D01*
X165039760Y-102099500D01*
X164645783Y-102099500D01*
X164578744Y-102079815D01*
X164558102Y-102063181D01*
X163236819Y-100741898D01*
X163203334Y-100680575D01*
X163200500Y-100654217D01*
X163200500Y-99250000D01*
X163637501Y-99250000D01*
X163637501Y-99524986D01*
X163647994Y-99627697D01*
X163703141Y-99794119D01*
X163703143Y-99794124D01*
X163795184Y-99943345D01*
X163919154Y-100067315D01*
X164068375Y-100159356D01*
X164068380Y-100159358D01*
X164234802Y-100214505D01*
X164234809Y-100214506D01*
X164337519Y-100224999D01*
X164474999Y-100224999D01*
X164475000Y-100224998D01*
X164475000Y-99250000D01*
X163637501Y-99250000D01*
X163200500Y-99250000D01*
X163200500Y-99155094D01*
X163220185Y-99088055D01*
X163236814Y-99067418D01*
X163517915Y-98786317D01*
X163579236Y-98752834D01*
X163605594Y-98750000D01*
X164851000Y-98750000D01*
X164918039Y-98769685D01*
X164963794Y-98822489D01*
X164975000Y-98874000D01*
X164975000Y-100224999D01*
X165112472Y-100224999D01*
X165112486Y-100224998D01*
X165215197Y-100214505D01*
X165381619Y-100159358D01*
X165381630Y-100159353D01*
X165498949Y-100086990D01*
X165566341Y-100068549D01*
X165633005Y-100089471D01*
X165677774Y-100143113D01*
X165686436Y-100212444D01*
X165669585Y-100257624D01*
X165578145Y-100405871D01*
X165578141Y-100405880D01*
X165522994Y-100572302D01*
X165522993Y-100572309D01*
X165512500Y-100675013D01*
X165512500Y-100950000D01*
X166726000Y-100950000D01*
X166793039Y-100969685D01*
X166838794Y-101022489D01*
X166850000Y-101074000D01*
X166850000Y-102424999D01*
X166987472Y-102424999D01*
X166987486Y-102424998D01*
X167090197Y-102414505D01*
X167256619Y-102359358D01*
X167256624Y-102359356D01*
X167405845Y-102267315D01*
X167529818Y-102143342D01*
X167531665Y-102140348D01*
X167533469Y-102138724D01*
X167534298Y-102137677D01*
X167534476Y-102137818D01*
X167583610Y-102093621D01*
X167652573Y-102082396D01*
X167716656Y-102110236D01*
X167742743Y-102140341D01*
X167744788Y-102143656D01*
X167744789Y-102143657D01*
X167868845Y-102267713D01*
X167874513Y-102272195D01*
X167873070Y-102274019D01*
X167912320Y-102317654D01*
X167924500Y-102371248D01*
X167924500Y-102969211D01*
X167904815Y-103036250D01*
X167873385Y-103069529D01*
X167794129Y-103127111D01*
X167667466Y-103267785D01*
X167572821Y-103431715D01*
X167572818Y-103431722D01*
X167525646Y-103576905D01*
X167514326Y-103611744D01*
X167494540Y-103800000D01*
X167514326Y-103988256D01*
X167514327Y-103988259D01*
X167572818Y-104168277D01*
X167572821Y-104168284D01*
X167667465Y-104332214D01*
X167667470Y-104332221D01*
X167667846Y-104332638D01*
X167667997Y-104332946D01*
X167671289Y-104337477D01*
X167670506Y-104338045D01*
X167697666Y-104393261D01*
X167706821Y-104443220D01*
X167707384Y-104446921D01*
X167714859Y-104508478D01*
X167714860Y-104508482D01*
X167718451Y-104517951D01*
X167724474Y-104539554D01*
X167726304Y-104549538D01*
X167751759Y-104606098D01*
X167753189Y-104609549D01*
X167775182Y-104667538D01*
X167775183Y-104667539D01*
X167780936Y-104675874D01*
X167791961Y-104695421D01*
X167796120Y-104704663D01*
X167796124Y-104704668D01*
X167834371Y-104753486D01*
X167836591Y-104756504D01*
X167871812Y-104807532D01*
X167871816Y-104807536D01*
X167871817Y-104807537D01*
X167918250Y-104848672D01*
X167920941Y-104851206D01*
X168698791Y-105629056D01*
X168701327Y-105631750D01*
X168742463Y-105678183D01*
X168748241Y-105682171D01*
X168793502Y-105713413D01*
X168796519Y-105715633D01*
X168845330Y-105753874D01*
X168845335Y-105753877D01*
X168854566Y-105758031D01*
X168874115Y-105769056D01*
X168881208Y-105773952D01*
X168925196Y-105828235D01*
X168932854Y-105897684D01*
X168901750Y-105960248D01*
X168841759Y-105996064D01*
X168810765Y-106000000D01*
X168775490Y-106000000D01*
X168775488Y-106000001D01*
X168782941Y-106056622D01*
X168782945Y-106056634D01*
X168791337Y-106076895D01*
X168798804Y-106146364D01*
X168791338Y-106171794D01*
X168782456Y-106193238D01*
X168782455Y-106193239D01*
X168767000Y-106310638D01*
X168767000Y-106589363D01*
X168777853Y-106671804D01*
X168767086Y-106740839D01*
X168742595Y-106775668D01*
X168573596Y-106944668D01*
X168567494Y-106950019D01*
X168539220Y-106971715D01*
X168539218Y-106971718D01*
X168467674Y-107064956D01*
X168455319Y-107081057D01*
X168442964Y-107097158D01*
X168382456Y-107243237D01*
X168382455Y-107243239D01*
X168361818Y-107399998D01*
X168361818Y-107400000D01*
X168366469Y-107435326D01*
X168367000Y-107443427D01*
X168367000Y-108255100D01*
X168366469Y-108263202D01*
X168361818Y-108298528D01*
X168361818Y-108298529D01*
X168367000Y-108337889D01*
X168382455Y-108455289D01*
X168382457Y-108455294D01*
X168442961Y-108601365D01*
X168442961Y-108601366D01*
X168442963Y-108601369D01*
X168442964Y-108601370D01*
X168473876Y-108641656D01*
X168499070Y-108706823D01*
X168499500Y-108717141D01*
X168499500Y-108856571D01*
X168498969Y-108864669D01*
X168496126Y-108886266D01*
X168494318Y-108899999D01*
X168494318Y-108900000D01*
X168505398Y-108984159D01*
X168514955Y-109056760D01*
X168514956Y-109056762D01*
X168549433Y-109139998D01*
X168575464Y-109202841D01*
X168671718Y-109328282D01*
X168699995Y-109349980D01*
X168706085Y-109355320D01*
X170236265Y-110885500D01*
X171762554Y-112411789D01*
X171796039Y-112473112D01*
X171798093Y-112485586D01*
X171809252Y-112584627D01*
X171868832Y-112754899D01*
X171943495Y-112873724D01*
X171964806Y-112907640D01*
X172092360Y-113035194D01*
X172151403Y-113072293D01*
X172241875Y-113129141D01*
X172245100Y-113131167D01*
X172415367Y-113190746D01*
X172415372Y-113190747D01*
X172594618Y-113210943D01*
X172594622Y-113210943D01*
X172594626Y-113210943D01*
X172773871Y-113190747D01*
X172773874Y-113190746D01*
X172773877Y-113190746D01*
X172944144Y-113131167D01*
X172944146Y-113131166D01*
X172947526Y-113129538D01*
X172949933Y-113129141D01*
X172950717Y-113128867D01*
X172950764Y-113129004D01*
X173016465Y-113118176D01*
X173080604Y-113145889D01*
X173089024Y-113153569D01*
X173216271Y-113280816D01*
X173369011Y-113376789D01*
X173520379Y-113429755D01*
X173539278Y-113436368D01*
X173539283Y-113436369D01*
X173718529Y-113456565D01*
X173718533Y-113456565D01*
X173718537Y-113456565D01*
X173897782Y-113436369D01*
X173897785Y-113436368D01*
X173897788Y-113436368D01*
X174068055Y-113376789D01*
X174220795Y-113280816D01*
X174348349Y-113153262D01*
X174444322Y-113000522D01*
X174503901Y-112830255D01*
X174503902Y-112830249D01*
X174524098Y-112651003D01*
X174524098Y-112650996D01*
X174503902Y-112471750D01*
X174503901Y-112471745D01*
X174449111Y-112315165D01*
X174444322Y-112301478D01*
X174348349Y-112148738D01*
X174220795Y-112021184D01*
X174149420Y-111976336D01*
X174068054Y-111925210D01*
X173897782Y-111865630D01*
X173777324Y-111852058D01*
X173712910Y-111824991D01*
X173703527Y-111816519D01*
X173298479Y-111411471D01*
X173293125Y-111405366D01*
X173271437Y-111377100D01*
X173271434Y-111377098D01*
X173271433Y-111377096D01*
X173145992Y-111280842D01*
X173138720Y-111277830D01*
X173090492Y-111257853D01*
X172999913Y-111220334D01*
X172950001Y-111213763D01*
X172891538Y-111206066D01*
X172827642Y-111177799D01*
X172820043Y-111170808D01*
X172023916Y-110374681D01*
X171990431Y-110313358D01*
X171995415Y-110243666D01*
X172037287Y-110187733D01*
X172102751Y-110163316D01*
X172111597Y-110163000D01*
X175194072Y-110163000D01*
X175202170Y-110163530D01*
X175237500Y-110168182D01*
X175237501Y-110168182D01*
X175289754Y-110161302D01*
X175394262Y-110147544D01*
X175540341Y-110087036D01*
X175543091Y-110084926D01*
X175665782Y-109990782D01*
X175687483Y-109962499D01*
X175692811Y-109956422D01*
X176342086Y-109307147D01*
X176403407Y-109273664D01*
X176473099Y-109278648D01*
X176529032Y-109320520D01*
X176549540Y-109362736D01*
X176606275Y-109574475D01*
X176606279Y-109574486D01*
X176686596Y-109746726D01*
X176699858Y-109775167D01*
X176826868Y-109956555D01*
X176983445Y-110113132D01*
X177164833Y-110240142D01*
X177219315Y-110265547D01*
X177288091Y-110297618D01*
X177340531Y-110343790D01*
X177359683Y-110410983D01*
X177339467Y-110477865D01*
X177288091Y-110522382D01*
X177164836Y-110579856D01*
X177164834Y-110579857D01*
X176983444Y-110706868D01*
X176826868Y-110863444D01*
X176699857Y-111044834D01*
X176699856Y-111044836D01*
X176606279Y-111245513D01*
X176606275Y-111245524D01*
X176548965Y-111459407D01*
X176548964Y-111459414D01*
X176529666Y-111679998D01*
X176529666Y-111680001D01*
X176548964Y-111900585D01*
X176548965Y-111900592D01*
X176606275Y-112114475D01*
X176606279Y-112114486D01*
X176666688Y-112244034D01*
X176699858Y-112315167D01*
X176826868Y-112496555D01*
X176983445Y-112653132D01*
X177164833Y-112780142D01*
X177206347Y-112799500D01*
X177365513Y-112873720D01*
X177365515Y-112873720D01*
X177365520Y-112873723D01*
X177579409Y-112931035D01*
X177736974Y-112944820D01*
X177799998Y-112950334D01*
X177800000Y-112950334D01*
X177800002Y-112950334D01*
X177855147Y-112945509D01*
X178020591Y-112931035D01*
X178234480Y-112873723D01*
X178435167Y-112780142D01*
X178616555Y-112653132D01*
X178773132Y-112496555D01*
X178900142Y-112315167D01*
X178993723Y-112114480D01*
X179051035Y-111900591D01*
X179070334Y-111680000D01*
X179051035Y-111459409D01*
X178993723Y-111245520D01*
X178984875Y-111226546D01*
X178908922Y-111063663D01*
X178900142Y-111044833D01*
X178773132Y-110863445D01*
X178616555Y-110706868D01*
X178435167Y-110579858D01*
X178311907Y-110522381D01*
X178259468Y-110476210D01*
X178240316Y-110409017D01*
X178260531Y-110342136D01*
X178311908Y-110297618D01*
X178435167Y-110240142D01*
X178616555Y-110113132D01*
X178773132Y-109956555D01*
X178882750Y-109800005D01*
X187994754Y-109800005D01*
X188013718Y-110101446D01*
X188013719Y-110101453D01*
X188025460Y-110163000D01*
X188063916Y-110364596D01*
X188070320Y-110398164D01*
X188163659Y-110685431D01*
X188163661Y-110685436D01*
X188292265Y-110958732D01*
X188292268Y-110958738D01*
X188454111Y-111213763D01*
X188454114Y-111213767D01*
X188454115Y-111213768D01*
X188646651Y-111446504D01*
X188810112Y-111600005D01*
X188866836Y-111653272D01*
X188866846Y-111653280D01*
X189111193Y-111830808D01*
X189111198Y-111830810D01*
X189111205Y-111830816D01*
X189375896Y-111976332D01*
X189375901Y-111976334D01*
X189375903Y-111976335D01*
X189375904Y-111976336D01*
X189656734Y-112087524D01*
X189656737Y-112087525D01*
X189738404Y-112108493D01*
X189949302Y-112162642D01*
X190096039Y-112181179D01*
X190248963Y-112200499D01*
X190248969Y-112200499D01*
X190248973Y-112200500D01*
X190248975Y-112200500D01*
X190551025Y-112200500D01*
X190551027Y-112200500D01*
X190551032Y-112200499D01*
X190551036Y-112200499D01*
X190669833Y-112185491D01*
X190850698Y-112162642D01*
X191143262Y-112087525D01*
X191143265Y-112087524D01*
X191424095Y-111976336D01*
X191424096Y-111976335D01*
X191424094Y-111976335D01*
X191424104Y-111976332D01*
X191688795Y-111830816D01*
X191933162Y-111653274D01*
X192153349Y-111446504D01*
X192345885Y-111213768D01*
X192507733Y-110958736D01*
X192636341Y-110685430D01*
X192729681Y-110398160D01*
X192786280Y-110101457D01*
X192787129Y-110087967D01*
X192805246Y-109800005D01*
X192805246Y-109799994D01*
X192786281Y-109498553D01*
X192786280Y-109498546D01*
X192786280Y-109498543D01*
X192729681Y-109201840D01*
X192636341Y-108914570D01*
X192636190Y-108914250D01*
X192582765Y-108800716D01*
X192507733Y-108641264D01*
X192454921Y-108558046D01*
X192345888Y-108386236D01*
X192336209Y-108374536D01*
X192153349Y-108153496D01*
X192146200Y-108146783D01*
X191933163Y-107946727D01*
X191933153Y-107946719D01*
X191688806Y-107769191D01*
X191688799Y-107769186D01*
X191688795Y-107769184D01*
X191424104Y-107623668D01*
X191424101Y-107623666D01*
X191424096Y-107623664D01*
X191424095Y-107623663D01*
X191143265Y-107512475D01*
X191143262Y-107512474D01*
X190850695Y-107437357D01*
X190551036Y-107399500D01*
X190551027Y-107399500D01*
X190248973Y-107399500D01*
X190248963Y-107399500D01*
X189949304Y-107437357D01*
X189656737Y-107512474D01*
X189656734Y-107512475D01*
X189375904Y-107623663D01*
X189375903Y-107623664D01*
X189111205Y-107769184D01*
X189111193Y-107769191D01*
X188866846Y-107946719D01*
X188866836Y-107946727D01*
X188646652Y-108153494D01*
X188454111Y-108386236D01*
X188292268Y-108641261D01*
X188292265Y-108641267D01*
X188163661Y-108914563D01*
X188163659Y-108914568D01*
X188070320Y-109201835D01*
X188013719Y-109498546D01*
X188013718Y-109498553D01*
X187994754Y-109799994D01*
X187994754Y-109800005D01*
X178882750Y-109800005D01*
X178900142Y-109775167D01*
X178993723Y-109574480D01*
X179051035Y-109360591D01*
X179070334Y-109140000D01*
X179051035Y-108919409D01*
X178993723Y-108705520D01*
X178982023Y-108680430D01*
X178948949Y-108609500D01*
X178900142Y-108504833D01*
X178773132Y-108323445D01*
X178616555Y-108166868D01*
X178435167Y-108039858D01*
X178311907Y-107982381D01*
X178259468Y-107936210D01*
X178240316Y-107869017D01*
X178260531Y-107802136D01*
X178311908Y-107757618D01*
X178338575Y-107745183D01*
X178435167Y-107700142D01*
X178616555Y-107573132D01*
X178773132Y-107416555D01*
X178900142Y-107235167D01*
X178993723Y-107034480D01*
X179051035Y-106820591D01*
X179070334Y-106600000D01*
X179069742Y-106593238D01*
X179056962Y-106447159D01*
X179051035Y-106379409D01*
X178993723Y-106165520D01*
X178984790Y-106146364D01*
X178942949Y-106056634D01*
X178900142Y-105964833D01*
X178789818Y-105807275D01*
X178767492Y-105741071D01*
X178784502Y-105673303D01*
X178815909Y-105637776D01*
X178827295Y-105629039D01*
X178828282Y-105628282D01*
X178849983Y-105599999D01*
X178855311Y-105593922D01*
X180993922Y-103455311D01*
X180999999Y-103449983D01*
X181028282Y-103428282D01*
X181124536Y-103302841D01*
X181185044Y-103156762D01*
X181195400Y-103078102D01*
X181203933Y-103013283D01*
X181205682Y-103000001D01*
X181205682Y-102999999D01*
X181202884Y-102978749D01*
X181201030Y-102964669D01*
X181200500Y-102956571D01*
X181200500Y-89914434D01*
X181220185Y-89847395D01*
X181272989Y-89801640D01*
X181342147Y-89791696D01*
X181389597Y-89808896D01*
X181430869Y-89834353D01*
X181430880Y-89834358D01*
X181597302Y-89889505D01*
X181597309Y-89889506D01*
X181700019Y-89899999D01*
X181949999Y-89899999D01*
X181950000Y-89899998D01*
X181950000Y-88674000D01*
X181969685Y-88606961D01*
X182022489Y-88561206D01*
X182074000Y-88550000D01*
X182326000Y-88550000D01*
X182393039Y-88569685D01*
X182438794Y-88622489D01*
X182450000Y-88674000D01*
X182450000Y-89899999D01*
X182699972Y-89899999D01*
X182699986Y-89899998D01*
X182802697Y-89889505D01*
X182969119Y-89834358D01*
X182969124Y-89834356D01*
X183118345Y-89742315D01*
X183242317Y-89618343D01*
X183294167Y-89534281D01*
X183346115Y-89487556D01*
X183415077Y-89476333D01*
X183479159Y-89504176D01*
X183505244Y-89534279D01*
X183557288Y-89618656D01*
X183681344Y-89742712D01*
X183769326Y-89796979D01*
X183816050Y-89848927D01*
X183827273Y-89917890D01*
X183811617Y-89964517D01*
X183772820Y-90031715D01*
X183721869Y-90188529D01*
X183714326Y-90211744D01*
X183694540Y-90400000D01*
X183714326Y-90588256D01*
X183714327Y-90588259D01*
X183772818Y-90768277D01*
X183772821Y-90768284D01*
X183867467Y-90932216D01*
X183970059Y-91046156D01*
X183994129Y-91072888D01*
X184147265Y-91184148D01*
X184147270Y-91184151D01*
X184320192Y-91261142D01*
X184320197Y-91261144D01*
X184505354Y-91300500D01*
X184505355Y-91300500D01*
X184694644Y-91300500D01*
X184694646Y-91300500D01*
X184879803Y-91261144D01*
X185052730Y-91184151D01*
X185205871Y-91072888D01*
X185332533Y-90932216D01*
X185427179Y-90768284D01*
X185485674Y-90588256D01*
X185505460Y-90400000D01*
X185485674Y-90211744D01*
X185427179Y-90031716D01*
X185423303Y-90025002D01*
X185388383Y-89964518D01*
X185371910Y-89896618D01*
X185394763Y-89830591D01*
X185430672Y-89796980D01*
X185518656Y-89742712D01*
X185642712Y-89618656D01*
X185734814Y-89469334D01*
X185789999Y-89302797D01*
X185800500Y-89200009D01*
X185800499Y-88399992D01*
X185799037Y-88385683D01*
X185789999Y-88297203D01*
X185789998Y-88297200D01*
X185784237Y-88279815D01*
X185734814Y-88130666D01*
X185642712Y-87981344D01*
X185549049Y-87887681D01*
X185515564Y-87826358D01*
X185520548Y-87756666D01*
X185549049Y-87712319D01*
X185594867Y-87666501D01*
X185642712Y-87618656D01*
X185734814Y-87469334D01*
X185789999Y-87302797D01*
X185800500Y-87200009D01*
X185800499Y-86399992D01*
X185794153Y-86337873D01*
X185789999Y-86297203D01*
X185789998Y-86297200D01*
X185773870Y-86248529D01*
X185734814Y-86130666D01*
X185642712Y-85981344D01*
X185518656Y-85857288D01*
X185406028Y-85787819D01*
X185369336Y-85765187D01*
X185369331Y-85765185D01*
X185348523Y-85758290D01*
X185257883Y-85728254D01*
X185200440Y-85688484D01*
X185173617Y-85623968D01*
X185185932Y-85555192D01*
X185209203Y-85522874D01*
X185229816Y-85502262D01*
X185325789Y-85349522D01*
X185385368Y-85179255D01*
X185386498Y-85169229D01*
X185398736Y-85060616D01*
X185425803Y-84996202D01*
X185483397Y-84956647D01*
X185521956Y-84950500D01*
X189116571Y-84950500D01*
X189183610Y-84970185D01*
X189229365Y-85022989D01*
X189239309Y-85092147D01*
X189231133Y-85121951D01*
X189214956Y-85161006D01*
X189214955Y-85161007D01*
X189202969Y-85252053D01*
X189194318Y-85317768D01*
X189198935Y-85352841D01*
X189198969Y-85353094D01*
X189199500Y-85361196D01*
X189199500Y-86205100D01*
X189198969Y-86213202D01*
X189194318Y-86248528D01*
X189194318Y-86248530D01*
X189200720Y-86297159D01*
X189210536Y-86371718D01*
X189214259Y-86399992D01*
X189214956Y-86405290D01*
X189214956Y-86405291D01*
X189272501Y-86544218D01*
X189275464Y-86551370D01*
X189371718Y-86676811D01*
X189399995Y-86698509D01*
X189406085Y-86703849D01*
X189540178Y-86837942D01*
X189664786Y-86962550D01*
X189698271Y-87023873D01*
X189693287Y-87093565D01*
X189651415Y-87149498D01*
X189622752Y-87165523D01*
X189475904Y-87223663D01*
X189475903Y-87223664D01*
X189211205Y-87369184D01*
X189211193Y-87369191D01*
X188966846Y-87546719D01*
X188966836Y-87546727D01*
X188746652Y-87753494D01*
X188554111Y-87986236D01*
X188392268Y-88241261D01*
X188392265Y-88241267D01*
X188263661Y-88514563D01*
X188263659Y-88514568D01*
X188170320Y-88801835D01*
X188113719Y-89098546D01*
X188113718Y-89098553D01*
X188094754Y-89399994D01*
X188094754Y-89400005D01*
X188113718Y-89701446D01*
X188113719Y-89701453D01*
X188113720Y-89701457D01*
X188163901Y-89964518D01*
X188170320Y-89998164D01*
X188263659Y-90285431D01*
X188263661Y-90285436D01*
X188392265Y-90558732D01*
X188392268Y-90558738D01*
X188554111Y-90813763D01*
X188554114Y-90813767D01*
X188554115Y-90813768D01*
X188673178Y-90957691D01*
X188746652Y-91046505D01*
X188783030Y-91080666D01*
X188913132Y-91202841D01*
X188966836Y-91253272D01*
X188966846Y-91253280D01*
X189211193Y-91430808D01*
X189211198Y-91430810D01*
X189211205Y-91430816D01*
X189475896Y-91576332D01*
X189475901Y-91576334D01*
X189475903Y-91576335D01*
X189475904Y-91576336D01*
X189756734Y-91687524D01*
X189756737Y-91687525D01*
X189835463Y-91707738D01*
X190049302Y-91762642D01*
X190196039Y-91781179D01*
X190348963Y-91800499D01*
X190348969Y-91800499D01*
X190348973Y-91800500D01*
X190348975Y-91800500D01*
X190651025Y-91800500D01*
X190651027Y-91800500D01*
X190651032Y-91800499D01*
X190651036Y-91800499D01*
X190730591Y-91790448D01*
X190950698Y-91762642D01*
X191243262Y-91687525D01*
X191243265Y-91687524D01*
X191524095Y-91576336D01*
X191524096Y-91576335D01*
X191524094Y-91576335D01*
X191524104Y-91576332D01*
X191788795Y-91430816D01*
X192033162Y-91253274D01*
X192253349Y-91046504D01*
X192445885Y-90813768D01*
X192607733Y-90558736D01*
X192736341Y-90285430D01*
X192829681Y-89998160D01*
X192886280Y-89701457D01*
X192886893Y-89691718D01*
X192905246Y-89400005D01*
X192905246Y-89399994D01*
X192886281Y-89098553D01*
X192886280Y-89098546D01*
X192886280Y-89098543D01*
X192829681Y-88801840D01*
X192736341Y-88514570D01*
X192730549Y-88502262D01*
X192647035Y-88324785D01*
X192607733Y-88241264D01*
X192571923Y-88184836D01*
X192445888Y-87986236D01*
X192444901Y-87985043D01*
X192253349Y-87753496D01*
X192167510Y-87672888D01*
X192033163Y-87546727D01*
X192033153Y-87546719D01*
X191865370Y-87424818D01*
X191822704Y-87369489D01*
X191816725Y-87299875D01*
X191849330Y-87238080D01*
X191910169Y-87203723D01*
X191938255Y-87200500D01*
X193675500Y-87200500D01*
X193742539Y-87220185D01*
X193788294Y-87272989D01*
X193799500Y-87324500D01*
X193799500Y-106756571D01*
X193798969Y-106764673D01*
X193794318Y-106799999D01*
X193794318Y-106800001D01*
X193804253Y-106875464D01*
X193814955Y-106956760D01*
X193814956Y-106956762D01*
X193848535Y-107037830D01*
X193875464Y-107102841D01*
X193971718Y-107228282D01*
X193999995Y-107249980D01*
X194006085Y-107255320D01*
X196702912Y-109952147D01*
X199362822Y-112612057D01*
X199396307Y-112673380D01*
X199398361Y-112685854D01*
X199414630Y-112830250D01*
X199414631Y-112830254D01*
X199474211Y-113000523D01*
X199554942Y-113129004D01*
X199570184Y-113153262D01*
X199697738Y-113280816D01*
X199850478Y-113376789D01*
X200001846Y-113429755D01*
X200020745Y-113436368D01*
X200020750Y-113436369D01*
X200199996Y-113456565D01*
X200200000Y-113456565D01*
X200200003Y-113456565D01*
X200287795Y-113446672D01*
X200379255Y-113436368D01*
X200379256Y-113436367D01*
X200379314Y-113436361D01*
X200448136Y-113448415D01*
X200499516Y-113495764D01*
X200510239Y-113518626D01*
X200538720Y-113600019D01*
X200558071Y-113630816D01*
X200634695Y-113752762D01*
X200762249Y-113880316D01*
X200914989Y-113976289D01*
X201085256Y-114035868D01*
X201085261Y-114035869D01*
X201264507Y-114056065D01*
X201264511Y-114056065D01*
X201264515Y-114056065D01*
X201443760Y-114035869D01*
X201443763Y-114035868D01*
X201443766Y-114035868D01*
X201614033Y-113976289D01*
X201766773Y-113880316D01*
X201830883Y-113816205D01*
X201892202Y-113782723D01*
X201961894Y-113787707D01*
X202010206Y-113823425D01*
X202011097Y-113822535D01*
X202016839Y-113828277D01*
X202016841Y-113828279D01*
X202016844Y-113828282D01*
X202094051Y-113887525D01*
X202142285Y-113924536D01*
X202288364Y-113985044D01*
X202366745Y-113995363D01*
X202445125Y-114005682D01*
X202445126Y-114005682D01*
X202480455Y-114001030D01*
X202488554Y-114000500D01*
X219756572Y-114000500D01*
X219764670Y-114001030D01*
X219800000Y-114005682D01*
X219800001Y-114005682D01*
X219852254Y-113998802D01*
X219956762Y-113985044D01*
X220102841Y-113924536D01*
X220151075Y-113887525D01*
X220228282Y-113828282D01*
X220249983Y-113799999D01*
X220255311Y-113793922D01*
X222393922Y-111655311D01*
X222399999Y-111649983D01*
X222428282Y-111628282D01*
X222524536Y-111502841D01*
X222585044Y-111356762D01*
X222600500Y-111239361D01*
X222605682Y-111200000D01*
X222601030Y-111164669D01*
X222600500Y-111156571D01*
X222600500Y-107883428D01*
X222601031Y-107875326D01*
X222601885Y-107868844D01*
X222605682Y-107840000D01*
X222602233Y-107813805D01*
X222589312Y-107715659D01*
X222585044Y-107683238D01*
X222549531Y-107597501D01*
X222524538Y-107537163D01*
X222524537Y-107537162D01*
X222524536Y-107537159D01*
X222481026Y-107480456D01*
X222428282Y-107411718D01*
X222421033Y-107406156D01*
X222400007Y-107390022D01*
X222393904Y-107384669D01*
X221852766Y-106843531D01*
X221819281Y-106782208D01*
X221820672Y-106723757D01*
X221825226Y-106706762D01*
X221855063Y-106595408D01*
X221875659Y-106360000D01*
X221855063Y-106124592D01*
X221793903Y-105896337D01*
X221694035Y-105682171D01*
X221688425Y-105674158D01*
X221558494Y-105488597D01*
X221391402Y-105321506D01*
X221391395Y-105321501D01*
X221197834Y-105185967D01*
X221197830Y-105185965D01*
X221197828Y-105185964D01*
X220983663Y-105086097D01*
X220983659Y-105086096D01*
X220983655Y-105086094D01*
X220755413Y-105024938D01*
X220755403Y-105024936D01*
X220520001Y-105004341D01*
X220519999Y-105004341D01*
X220284596Y-105024936D01*
X220284586Y-105024938D01*
X220056344Y-105086094D01*
X220056335Y-105086098D01*
X219842171Y-105185964D01*
X219842169Y-105185965D01*
X219648597Y-105321505D01*
X219562181Y-105407922D01*
X219500858Y-105441407D01*
X219431166Y-105436423D01*
X219375233Y-105394551D01*
X219350816Y-105329087D01*
X219350500Y-105320241D01*
X219350500Y-99461623D01*
X219351809Y-99443653D01*
X219355289Y-99419892D01*
X219350736Y-99367857D01*
X219350500Y-99362450D01*
X219350500Y-99354214D01*
X219350500Y-99354209D01*
X219346691Y-99321623D01*
X219339998Y-99245121D01*
X219339995Y-99245112D01*
X219338538Y-99238053D01*
X219338597Y-99238040D01*
X219335052Y-99222054D01*
X219334647Y-99218589D01*
X219346416Y-99149717D01*
X219391835Y-99099201D01*
X219502262Y-99029816D01*
X219629816Y-98902262D01*
X219725789Y-98749522D01*
X219785368Y-98579255D01*
X219786390Y-98570184D01*
X219805565Y-98400003D01*
X219805565Y-98399996D01*
X219785369Y-98220750D01*
X219785368Y-98220745D01*
X219777947Y-98199536D01*
X219725789Y-98050478D01*
X219629816Y-97897738D01*
X219502262Y-97770184D01*
X219466657Y-97747812D01*
X219349521Y-97674210D01*
X219179249Y-97614630D01*
X219100588Y-97605767D01*
X219036175Y-97578700D01*
X219028750Y-97571996D01*
X219027930Y-97571367D01*
X219027929Y-97571365D01*
X218902488Y-97475111D01*
X218874763Y-97463627D01*
X218756409Y-97414603D01*
X218756407Y-97414602D01*
X218688647Y-97405682D01*
X218599648Y-97393965D01*
X218599647Y-97393965D01*
X218564317Y-97398616D01*
X218556219Y-97399147D01*
X218549449Y-97399147D01*
X218482410Y-97379462D01*
X218436655Y-97326658D01*
X218426711Y-97257500D01*
X218455736Y-97193944D01*
X218461753Y-97187480D01*
X218618536Y-97030697D01*
X218679856Y-96997215D01*
X218692311Y-96995163D01*
X218779255Y-96985368D01*
X218949522Y-96925789D01*
X219102262Y-96829816D01*
X219229816Y-96702262D01*
X219325789Y-96549522D01*
X219385368Y-96379255D01*
X219385369Y-96379249D01*
X219405565Y-96200003D01*
X219405565Y-96199996D01*
X219385369Y-96020750D01*
X219385368Y-96020745D01*
X219367379Y-95969336D01*
X219325789Y-95850478D01*
X219317206Y-95836819D01*
X219229815Y-95697737D01*
X219102262Y-95570184D01*
X218949521Y-95474210D01*
X218877879Y-95449142D01*
X218829295Y-95432141D01*
X218772521Y-95391421D01*
X218746773Y-95326469D01*
X218760229Y-95257907D01*
X218782567Y-95227423D01*
X220085638Y-93924351D01*
X220099267Y-93912574D01*
X220118530Y-93898234D01*
X220118532Y-93898230D01*
X220118534Y-93898230D01*
X220142416Y-93869767D01*
X220152113Y-93858209D01*
X220155767Y-93854223D01*
X220161589Y-93848402D01*
X220181928Y-93822678D01*
X220189349Y-93813834D01*
X220231302Y-93763838D01*
X220231304Y-93763833D01*
X220235272Y-93757803D01*
X220235323Y-93757836D01*
X220239369Y-93751484D01*
X220239317Y-93751452D01*
X220243109Y-93745303D01*
X220243111Y-93745301D01*
X220275569Y-93675693D01*
X220310040Y-93607057D01*
X220310043Y-93607041D01*
X220312510Y-93600268D01*
X220312568Y-93600289D01*
X220315043Y-93593170D01*
X220314985Y-93593151D01*
X220317256Y-93586296D01*
X220329337Y-93527788D01*
X220332784Y-93511091D01*
X220350500Y-93436345D01*
X220350500Y-93436344D01*
X220351339Y-93429172D01*
X220351397Y-93429178D01*
X220352164Y-93421680D01*
X220352104Y-93421675D01*
X220352733Y-93414484D01*
X220350500Y-93337727D01*
X220350500Y-88223640D01*
X220350605Y-88220034D01*
X220354331Y-88156065D01*
X220352384Y-88145021D01*
X220350500Y-88123490D01*
X220350500Y-65488705D01*
X220351809Y-65470735D01*
X220352129Y-65468547D01*
X220355289Y-65446977D01*
X220353249Y-65423663D01*
X220350736Y-65394934D01*
X220350500Y-65389528D01*
X220350500Y-65381297D01*
X220350500Y-65381291D01*
X220346693Y-65348724D01*
X220343306Y-65310001D01*
X220339999Y-65272201D01*
X220338539Y-65265129D01*
X220338597Y-65265116D01*
X220336965Y-65257757D01*
X220336906Y-65257772D01*
X220335242Y-65250753D01*
X220335241Y-65250745D01*
X220308974Y-65178576D01*
X220284814Y-65105666D01*
X220284809Y-65105659D01*
X220281760Y-65099118D01*
X220281815Y-65099091D01*
X220278533Y-65092313D01*
X220278480Y-65092340D01*
X220275235Y-65085880D01*
X220233028Y-65021708D01*
X220209039Y-64982815D01*
X220192712Y-64956345D01*
X220192711Y-64956344D01*
X220192710Y-64956342D01*
X220188234Y-64950682D01*
X220188281Y-64950644D01*
X220183519Y-64944799D01*
X220183474Y-64944838D01*
X220178834Y-64939308D01*
X220122964Y-64886596D01*
X218236548Y-63000180D01*
X218203063Y-62938857D01*
X218208047Y-62869165D01*
X218236548Y-62824818D01*
X218419219Y-62642147D01*
X218685642Y-62375724D01*
X218699257Y-62363958D01*
X218718530Y-62349610D01*
X218752123Y-62309574D01*
X218755757Y-62305608D01*
X218761591Y-62299776D01*
X218781930Y-62274052D01*
X218831302Y-62215214D01*
X218831306Y-62215205D01*
X218835274Y-62209175D01*
X218835325Y-62209208D01*
X218839369Y-62202860D01*
X218839317Y-62202828D01*
X218843104Y-62196685D01*
X218843111Y-62196677D01*
X218875572Y-62127063D01*
X218910040Y-62058433D01*
X218910041Y-62058427D01*
X218912508Y-62051650D01*
X218912566Y-62051671D01*
X218915043Y-62044544D01*
X218914986Y-62044526D01*
X218917255Y-62037679D01*
X218917256Y-62037674D01*
X218917257Y-62037672D01*
X218932790Y-61962441D01*
X218950500Y-61887721D01*
X218950500Y-61887719D01*
X218951339Y-61880548D01*
X218951398Y-61880554D01*
X218952164Y-61873054D01*
X218952105Y-61873049D01*
X218952733Y-61865860D01*
X218952732Y-61865859D01*
X218952734Y-61865855D01*
X218951990Y-61840299D01*
X218969716Y-61772717D01*
X219004813Y-61735119D01*
X219071401Y-61688495D01*
X219238495Y-61521401D01*
X219374035Y-61327829D01*
X219473903Y-61113663D01*
X219535063Y-60885408D01*
X219550500Y-60708966D01*
X219550500Y-60291034D01*
X219535063Y-60114592D01*
X219473903Y-59886337D01*
X219374035Y-59672171D01*
X219370733Y-59667454D01*
X219238494Y-59478597D01*
X219071402Y-59311506D01*
X219071395Y-59311501D01*
X219065922Y-59307669D01*
X219029302Y-59282027D01*
X218877834Y-59175967D01*
X218877830Y-59175965D01*
X218836926Y-59156891D01*
X218663663Y-59076097D01*
X218663659Y-59076096D01*
X218663655Y-59076094D01*
X218435413Y-59014938D01*
X218435403Y-59014936D01*
X218200001Y-58994341D01*
X218199999Y-58994341D01*
X217964596Y-59014936D01*
X217964586Y-59014938D01*
X217736344Y-59076094D01*
X217736335Y-59076098D01*
X217522171Y-59175964D01*
X217522169Y-59175965D01*
X217328597Y-59311505D01*
X217181398Y-59458705D01*
X217120075Y-59492190D01*
X217050383Y-59487206D01*
X216994450Y-59445334D01*
X216988178Y-59436120D01*
X216892712Y-59281344D01*
X216768657Y-59157289D01*
X216768656Y-59157288D01*
X216647797Y-59082742D01*
X216619336Y-59065187D01*
X216619331Y-59065185D01*
X216591335Y-59055908D01*
X216452797Y-59010001D01*
X216452795Y-59010000D01*
X216350010Y-58999500D01*
X215049998Y-58999500D01*
X215049981Y-58999501D01*
X214947203Y-59010000D01*
X214947200Y-59010001D01*
X214780668Y-59065185D01*
X214780663Y-59065187D01*
X214631342Y-59157289D01*
X214507289Y-59281342D01*
X214415187Y-59430663D01*
X214415185Y-59430668D01*
X214396450Y-59487206D01*
X214360001Y-59597203D01*
X214360001Y-59597204D01*
X214360000Y-59597204D01*
X214349500Y-59699983D01*
X214349500Y-61188771D01*
X214329815Y-61255810D01*
X214277011Y-61301565D01*
X214207853Y-61311509D01*
X214144297Y-61282484D01*
X214137819Y-61276452D01*
X213271867Y-60410500D01*
X212175729Y-59314361D01*
X212163949Y-59300730D01*
X212150025Y-59282027D01*
X212149612Y-59281472D01*
X212149610Y-59281470D01*
X212109587Y-59247886D01*
X212105612Y-59244244D01*
X212102690Y-59241322D01*
X212099780Y-59238411D01*
X212074040Y-59218059D01*
X212015209Y-59168694D01*
X212009180Y-59164729D01*
X212009212Y-59164680D01*
X212002853Y-59160628D01*
X212002822Y-59160679D01*
X211996680Y-59156891D01*
X211996678Y-59156890D01*
X211996677Y-59156889D01*
X211954101Y-59137035D01*
X211927058Y-59124424D01*
X211890774Y-59106202D01*
X211858433Y-59089960D01*
X211858431Y-59089959D01*
X211858430Y-59089959D01*
X211851645Y-59087489D01*
X211851665Y-59087433D01*
X211844549Y-59084959D01*
X211844531Y-59085015D01*
X211837671Y-59082742D01*
X211805487Y-59076097D01*
X211762434Y-59067207D01*
X211713472Y-59055603D01*
X211687719Y-59049499D01*
X211680547Y-59048661D01*
X211680553Y-59048601D01*
X211673055Y-59047835D01*
X211673050Y-59047895D01*
X211665860Y-59047265D01*
X211589083Y-59049500D01*
X207336868Y-59049500D01*
X207269829Y-59029815D01*
X207248653Y-59010616D01*
X207247819Y-59011451D01*
X207118657Y-58882289D01*
X207118656Y-58882288D01*
X207115342Y-58880243D01*
X207113546Y-58878248D01*
X207112989Y-58877807D01*
X207113064Y-58877711D01*
X207068618Y-58828297D01*
X207057397Y-58759334D01*
X207085240Y-58695252D01*
X207115348Y-58669165D01*
X207118342Y-58667318D01*
X207242315Y-58543345D01*
X207334356Y-58394124D01*
X207334358Y-58394119D01*
X207389505Y-58227697D01*
X207389506Y-58227690D01*
X207399999Y-58124986D01*
X207400000Y-58124973D01*
X207400000Y-58000000D01*
X205000001Y-58000000D01*
X205000001Y-58124986D01*
X205010494Y-58227697D01*
X205065641Y-58394119D01*
X205065643Y-58394124D01*
X205157684Y-58543345D01*
X205281655Y-58667316D01*
X205281659Y-58667319D01*
X205284656Y-58669168D01*
X205286279Y-58670972D01*
X205287323Y-58671798D01*
X205287181Y-58671976D01*
X205331381Y-58721116D01*
X205342602Y-58790079D01*
X205314759Y-58854161D01*
X205284661Y-58880241D01*
X205281347Y-58882285D01*
X205280743Y-58882763D01*
X205280250Y-58882961D01*
X205275202Y-58886076D01*
X205274669Y-58885213D01*
X205215949Y-58908906D01*
X205203829Y-58909500D01*
X203874499Y-58909500D01*
X203807460Y-58889815D01*
X203761705Y-58837011D01*
X203750499Y-58785500D01*
X203750499Y-58762129D01*
X203750498Y-58762123D01*
X203750497Y-58762116D01*
X203744091Y-58702517D01*
X203741381Y-58695252D01*
X203693797Y-58567671D01*
X203693793Y-58567664D01*
X203607547Y-58452455D01*
X203607544Y-58452452D01*
X203492335Y-58366206D01*
X203492328Y-58366202D01*
X203357482Y-58315908D01*
X203357483Y-58315908D01*
X203297883Y-58309501D01*
X203297881Y-58309500D01*
X203297873Y-58309500D01*
X203297864Y-58309500D01*
X201502129Y-58309500D01*
X201502123Y-58309501D01*
X201442516Y-58315908D01*
X201307671Y-58366202D01*
X201307664Y-58366206D01*
X201192455Y-58452452D01*
X201192452Y-58452455D01*
X201106206Y-58567664D01*
X201106202Y-58567671D01*
X201055908Y-58702517D01*
X201049800Y-58759334D01*
X201049501Y-58762123D01*
X201049500Y-58762135D01*
X201049500Y-58785500D01*
X201029815Y-58852539D01*
X200977011Y-58898294D01*
X200925500Y-58909500D01*
X196113755Y-58909500D01*
X196095785Y-58908191D01*
X196072022Y-58904710D01*
X196026583Y-58908686D01*
X196019981Y-58909264D01*
X196014580Y-58909500D01*
X196006339Y-58909500D01*
X195984629Y-58912037D01*
X195973774Y-58913306D01*
X195958469Y-58914645D01*
X195897249Y-58920001D01*
X195890182Y-58921460D01*
X195890170Y-58921404D01*
X195882813Y-58923035D01*
X195882827Y-58923092D01*
X195875793Y-58924759D01*
X195803625Y-58951025D01*
X195730725Y-58975181D01*
X195724176Y-58978236D01*
X195724151Y-58978183D01*
X195717358Y-58981471D01*
X195717384Y-58981523D01*
X195710930Y-58984764D01*
X195646758Y-59026971D01*
X195581397Y-59067285D01*
X195575733Y-59071765D01*
X195575697Y-59071719D01*
X195569848Y-59076484D01*
X195569885Y-59076528D01*
X195564360Y-59081164D01*
X195564354Y-59081169D01*
X195564354Y-59081170D01*
X195523545Y-59124424D01*
X195511647Y-59137035D01*
X187464358Y-67184322D01*
X187450729Y-67196101D01*
X187431468Y-67210440D01*
X187397898Y-67250447D01*
X187394253Y-67254426D01*
X187388409Y-67260272D01*
X187368059Y-67286009D01*
X187318695Y-67344839D01*
X187314729Y-67350869D01*
X187314682Y-67350838D01*
X187310630Y-67357197D01*
X187310679Y-67357227D01*
X187306889Y-67363371D01*
X187274424Y-67432991D01*
X187239960Y-67501616D01*
X187237488Y-67508407D01*
X187237432Y-67508386D01*
X187234960Y-67515500D01*
X187235015Y-67515519D01*
X187232742Y-67522377D01*
X187224975Y-67559996D01*
X187217207Y-67597615D01*
X187208391Y-67634814D01*
X187199498Y-67672336D01*
X187198661Y-67679504D01*
X187198601Y-67679497D01*
X187197835Y-67686995D01*
X187197895Y-67687001D01*
X187197265Y-67694190D01*
X187199500Y-67770966D01*
X187199500Y-68478156D01*
X187179815Y-68545195D01*
X187127011Y-68590950D01*
X187061618Y-68601377D01*
X187021815Y-68596892D01*
X187000000Y-68594435D01*
X186999998Y-68594435D01*
X186999997Y-68594435D01*
X186999996Y-68594435D01*
X186820750Y-68614630D01*
X186820745Y-68614631D01*
X186650476Y-68674211D01*
X186497737Y-68770184D01*
X186442276Y-68825646D01*
X186380953Y-68859131D01*
X186311261Y-68854147D01*
X186266914Y-68825646D01*
X185786819Y-68345551D01*
X185753334Y-68284228D01*
X185750500Y-68257870D01*
X185750500Y-66958655D01*
X185751809Y-66940686D01*
X185752915Y-66933132D01*
X185755289Y-66916927D01*
X185753563Y-66897203D01*
X185750736Y-66864884D01*
X185750500Y-66859478D01*
X185750500Y-66851247D01*
X185750500Y-66851241D01*
X185746693Y-66818674D01*
X185743019Y-66776670D01*
X185739999Y-66742151D01*
X185738539Y-66735079D01*
X185738597Y-66735066D01*
X185736965Y-66727707D01*
X185736906Y-66727722D01*
X185735242Y-66720703D01*
X185735241Y-66720695D01*
X185708974Y-66648526D01*
X185684814Y-66575616D01*
X185684809Y-66575609D01*
X185681760Y-66569068D01*
X185681815Y-66569041D01*
X185678533Y-66562263D01*
X185678480Y-66562290D01*
X185675235Y-66555830D01*
X185633029Y-66491658D01*
X185601934Y-66441246D01*
X185583493Y-66373854D01*
X185604415Y-66307190D01*
X185658057Y-66262421D01*
X185661839Y-66260976D01*
X185664326Y-66259816D01*
X185664334Y-66259814D01*
X185813656Y-66167712D01*
X185937712Y-66043656D01*
X185939752Y-66040347D01*
X185941745Y-66038555D01*
X185942193Y-66037989D01*
X185942289Y-66038065D01*
X185991694Y-65993623D01*
X186060656Y-65982395D01*
X186124740Y-66010234D01*
X186150829Y-66040339D01*
X186152681Y-66043341D01*
X186152683Y-66043344D01*
X186276654Y-66167315D01*
X186425875Y-66259356D01*
X186425880Y-66259358D01*
X186592302Y-66314505D01*
X186592309Y-66314506D01*
X186695019Y-66324999D01*
X186832499Y-66324999D01*
X186832500Y-66324998D01*
X186832500Y-65350000D01*
X187332500Y-65350000D01*
X187332500Y-66324999D01*
X187469972Y-66324999D01*
X187469986Y-66324998D01*
X187572697Y-66314505D01*
X187739119Y-66259358D01*
X187739124Y-66259356D01*
X187888345Y-66167315D01*
X188012315Y-66043345D01*
X188104356Y-65894124D01*
X188104358Y-65894119D01*
X188159505Y-65727697D01*
X188159506Y-65727690D01*
X188169999Y-65624986D01*
X188170000Y-65624973D01*
X188170000Y-65350000D01*
X187332500Y-65350000D01*
X186832500Y-65350000D01*
X186832500Y-63875000D01*
X187332500Y-63875000D01*
X187332500Y-64850000D01*
X188169999Y-64850000D01*
X188169999Y-64575028D01*
X188169998Y-64575013D01*
X188159505Y-64472302D01*
X188104358Y-64305880D01*
X188104356Y-64305875D01*
X188012315Y-64156654D01*
X187888345Y-64032684D01*
X187739124Y-63940643D01*
X187739119Y-63940641D01*
X187572697Y-63885494D01*
X187572690Y-63885493D01*
X187469986Y-63875000D01*
X187332500Y-63875000D01*
X186832500Y-63875000D01*
X186695027Y-63875000D01*
X186695012Y-63875001D01*
X186592302Y-63885494D01*
X186425880Y-63940641D01*
X186425875Y-63940643D01*
X186331369Y-63998936D01*
X186263976Y-64017376D01*
X186197313Y-63996453D01*
X186152543Y-63942811D01*
X186143882Y-63873481D01*
X186160731Y-63828302D01*
X186204814Y-63756834D01*
X186259999Y-63590297D01*
X186270500Y-63487509D01*
X186270499Y-62712492D01*
X186262050Y-62629786D01*
X186259999Y-62609703D01*
X186259998Y-62609700D01*
X186240936Y-62552175D01*
X186204814Y-62443166D01*
X186112712Y-62293844D01*
X185988656Y-62169788D01*
X185985819Y-62168038D01*
X185984283Y-62166330D01*
X185982989Y-62165307D01*
X185983163Y-62165085D01*
X185939096Y-62116094D01*
X185927872Y-62047132D01*
X185955713Y-61983049D01*
X185985817Y-61956962D01*
X185988656Y-61955212D01*
X185988658Y-61955209D01*
X185994806Y-61951418D01*
X185996137Y-61953576D01*
X186049861Y-61931885D01*
X186118507Y-61944905D01*
X186155961Y-61976490D01*
X186156180Y-61976272D01*
X186158757Y-61978848D01*
X186161277Y-61980974D01*
X186162451Y-61982543D01*
X186162453Y-61982544D01*
X186162454Y-61982546D01*
X186182271Y-61997381D01*
X186277664Y-62068793D01*
X186277671Y-62068797D01*
X186412517Y-62119091D01*
X186412516Y-62119091D01*
X186419444Y-62119835D01*
X186472127Y-62125500D01*
X188127872Y-62125499D01*
X188187483Y-62119091D01*
X188322331Y-62068796D01*
X188437546Y-61982546D01*
X188523796Y-61867331D01*
X188534083Y-61839747D01*
X188575953Y-61783814D01*
X188641416Y-61759395D01*
X188709690Y-61774245D01*
X188759097Y-61823649D01*
X188766448Y-61839745D01*
X188776646Y-61867088D01*
X188776649Y-61867093D01*
X188862809Y-61982187D01*
X188862812Y-61982190D01*
X188977906Y-62068350D01*
X188977913Y-62068354D01*
X189112620Y-62118596D01*
X189112627Y-62118598D01*
X189172155Y-62124999D01*
X189172172Y-62125000D01*
X189750000Y-62125000D01*
X189750000Y-61550000D01*
X190250000Y-61550000D01*
X190250000Y-62125000D01*
X190827828Y-62125000D01*
X190827844Y-62124999D01*
X190887372Y-62118598D01*
X190887379Y-62118596D01*
X191022086Y-62068354D01*
X191022093Y-62068350D01*
X191137187Y-61982190D01*
X191137190Y-61982187D01*
X191223350Y-61867093D01*
X191223354Y-61867086D01*
X191273596Y-61732379D01*
X191273598Y-61732372D01*
X191279999Y-61672844D01*
X191280000Y-61672827D01*
X191280000Y-61550000D01*
X190250000Y-61550000D01*
X189750000Y-61550000D01*
X189750000Y-61299499D01*
X189769685Y-61232460D01*
X189822489Y-61186705D01*
X189873997Y-61175499D01*
X190827872Y-61175499D01*
X190887483Y-61169091D01*
X191022331Y-61118796D01*
X191081191Y-61074733D01*
X191146653Y-61050316D01*
X191155501Y-61050000D01*
X191280000Y-61050000D01*
X191280000Y-60927172D01*
X191279999Y-60927155D01*
X191273598Y-60867627D01*
X191271814Y-60860076D01*
X191273459Y-60859687D01*
X191269143Y-60799361D01*
X191274058Y-60782619D01*
X191274089Y-60782489D01*
X191274089Y-60782488D01*
X191274091Y-60782483D01*
X191280500Y-60722873D01*
X191280499Y-59977128D01*
X191274091Y-59917517D01*
X191274091Y-59917516D01*
X191272307Y-59909966D01*
X191273559Y-59909669D01*
X191269145Y-59847924D01*
X191273132Y-59834346D01*
X191273598Y-59832375D01*
X191279999Y-59772844D01*
X191280000Y-59772827D01*
X191280000Y-59650000D01*
X191155501Y-59650000D01*
X191088462Y-59630315D01*
X191081205Y-59625277D01*
X191022331Y-59581204D01*
X191022328Y-59581202D01*
X190887482Y-59530908D01*
X190887483Y-59530908D01*
X190827883Y-59524501D01*
X190827881Y-59524500D01*
X190827873Y-59524500D01*
X190827865Y-59524500D01*
X190233322Y-59524500D01*
X190180918Y-59512882D01*
X190152057Y-59499424D01*
X190110587Y-59478597D01*
X190083430Y-59464958D01*
X190076645Y-59462489D01*
X190076665Y-59462433D01*
X190069549Y-59459959D01*
X190069531Y-59460015D01*
X190062671Y-59457742D01*
X190034841Y-59451996D01*
X189987434Y-59442207D01*
X189938472Y-59430603D01*
X189912719Y-59424499D01*
X189905547Y-59423661D01*
X189905553Y-59423601D01*
X189898055Y-59422835D01*
X189898050Y-59422895D01*
X189890857Y-59422265D01*
X189877603Y-59422651D01*
X189810020Y-59404922D01*
X189762750Y-59353470D01*
X189750000Y-59298703D01*
X189750000Y-58575000D01*
X190250000Y-58575000D01*
X190250000Y-59150000D01*
X191280000Y-59150000D01*
X191280000Y-59027172D01*
X191279999Y-59027155D01*
X191273598Y-58967627D01*
X191273596Y-58967620D01*
X191223354Y-58832913D01*
X191223350Y-58832906D01*
X191137190Y-58717812D01*
X191137187Y-58717809D01*
X191022093Y-58631649D01*
X191022086Y-58631645D01*
X190887379Y-58581403D01*
X190887372Y-58581401D01*
X190827844Y-58575000D01*
X190250000Y-58575000D01*
X189750000Y-58575000D01*
X189172155Y-58575000D01*
X189112627Y-58581401D01*
X189112620Y-58581403D01*
X188977913Y-58631645D01*
X188977906Y-58631649D01*
X188862812Y-58717809D01*
X188862809Y-58717812D01*
X188776649Y-58832906D01*
X188776644Y-58832916D01*
X188766447Y-58860255D01*
X188724575Y-58916188D01*
X188659111Y-58940604D01*
X188590838Y-58925751D01*
X188541433Y-58876346D01*
X188534083Y-58860251D01*
X188532780Y-58856758D01*
X188523796Y-58832669D01*
X188523793Y-58832664D01*
X188437547Y-58717455D01*
X188437544Y-58717452D01*
X188322335Y-58631206D01*
X188322328Y-58631202D01*
X188187482Y-58580908D01*
X188187483Y-58580908D01*
X188127883Y-58574501D01*
X188127881Y-58574500D01*
X188127873Y-58574500D01*
X188127864Y-58574500D01*
X186472129Y-58574500D01*
X186472123Y-58574501D01*
X186412516Y-58580908D01*
X186277671Y-58631202D01*
X186277669Y-58631204D01*
X186166957Y-58714083D01*
X186101493Y-58738500D01*
X186066865Y-58736106D01*
X186012267Y-58724501D01*
X185894646Y-58699500D01*
X185705354Y-58699500D01*
X185672897Y-58706398D01*
X185520197Y-58738855D01*
X185520192Y-58738857D01*
X185347270Y-58815848D01*
X185347265Y-58815851D01*
X185194129Y-58927111D01*
X185067466Y-59067785D01*
X184972821Y-59231715D01*
X184972818Y-59231722D01*
X184914327Y-59411740D01*
X184914326Y-59411744D01*
X184894540Y-59600000D01*
X184914326Y-59788256D01*
X184914327Y-59788259D01*
X184915006Y-59794719D01*
X184913525Y-59794874D01*
X184908783Y-59856903D01*
X184866638Y-59912630D01*
X184801054Y-59936726D01*
X184792815Y-59937000D01*
X184519999Y-59937000D01*
X184519980Y-59937001D01*
X184417203Y-59947500D01*
X184417200Y-59947501D01*
X184250668Y-60002685D01*
X184250663Y-60002687D01*
X184101342Y-60094789D01*
X183977289Y-60218842D01*
X183885187Y-60368163D01*
X183885186Y-60368166D01*
X183830001Y-60534703D01*
X183830001Y-60534704D01*
X183830000Y-60534704D01*
X183819500Y-60637483D01*
X183819500Y-61137769D01*
X183799815Y-61204808D01*
X183783181Y-61225450D01*
X183071512Y-61937118D01*
X183010189Y-61970603D01*
X182940497Y-61965619D01*
X182933396Y-61962717D01*
X182879802Y-61938855D01*
X182723641Y-61905663D01*
X182694646Y-61899500D01*
X182505354Y-61899500D01*
X182476359Y-61905663D01*
X182320197Y-61938855D01*
X182320192Y-61938857D01*
X182147270Y-62015848D01*
X182147265Y-62015851D01*
X181994129Y-62127111D01*
X181867466Y-62267785D01*
X181772821Y-62431715D01*
X181772818Y-62431722D01*
X181715331Y-62608650D01*
X181714326Y-62611744D01*
X181694540Y-62800000D01*
X181714326Y-62988256D01*
X181714327Y-62988259D01*
X181772818Y-63168277D01*
X181772821Y-63168284D01*
X181819504Y-63249142D01*
X181832887Y-63272321D01*
X181849500Y-63334321D01*
X181849500Y-63688770D01*
X181829815Y-63755809D01*
X181777011Y-63801564D01*
X181707853Y-63811508D01*
X181644297Y-63782483D01*
X181637819Y-63776451D01*
X180186818Y-62325450D01*
X180153333Y-62264127D01*
X180150499Y-62237769D01*
X180150499Y-61762229D01*
X180170184Y-61695190D01*
X180186814Y-61674552D01*
X180585638Y-61275727D01*
X180599267Y-61263950D01*
X180618530Y-61249610D01*
X180618532Y-61249606D01*
X180618534Y-61249606D01*
X180638802Y-61225450D01*
X180652113Y-61209585D01*
X180655767Y-61205599D01*
X180656558Y-61204808D01*
X180661591Y-61199776D01*
X180681930Y-61174052D01*
X180731302Y-61115214D01*
X180731306Y-61115205D01*
X180735274Y-61109175D01*
X180735325Y-61109208D01*
X180739369Y-61102860D01*
X180739317Y-61102828D01*
X180743104Y-61096685D01*
X180743111Y-61096677D01*
X180775572Y-61027063D01*
X180810040Y-60958433D01*
X180810041Y-60958427D01*
X180812508Y-60951650D01*
X180812566Y-60951671D01*
X180815043Y-60944544D01*
X180814986Y-60944526D01*
X180817255Y-60937679D01*
X180817256Y-60937674D01*
X180817257Y-60937672D01*
X180832790Y-60862441D01*
X180850500Y-60787721D01*
X180850500Y-60787719D01*
X180851339Y-60780548D01*
X180851398Y-60780554D01*
X180852164Y-60773054D01*
X180852105Y-60773049D01*
X180852734Y-60765859D01*
X180852060Y-60742712D01*
X180850500Y-60689082D01*
X180850500Y-58563705D01*
X180851809Y-58545735D01*
X180854681Y-58526125D01*
X180855289Y-58521977D01*
X180850735Y-58469931D01*
X180850500Y-58464528D01*
X180850500Y-58456297D01*
X180850500Y-58456291D01*
X180846693Y-58423724D01*
X180839999Y-58347203D01*
X180839999Y-58347201D01*
X180838539Y-58340129D01*
X180838597Y-58340116D01*
X180836965Y-58332757D01*
X180836906Y-58332772D01*
X180835242Y-58325753D01*
X180835241Y-58325745D01*
X180808974Y-58253576D01*
X180784814Y-58180666D01*
X180784809Y-58180659D01*
X180781760Y-58174118D01*
X180781815Y-58174091D01*
X180778533Y-58167313D01*
X180778480Y-58167340D01*
X180775235Y-58160880D01*
X180733028Y-58096708D01*
X180710387Y-58060001D01*
X180692712Y-58031345D01*
X180692711Y-58031344D01*
X180692710Y-58031342D01*
X180688234Y-58025682D01*
X180688281Y-58025644D01*
X180683519Y-58019799D01*
X180683474Y-58019838D01*
X180678834Y-58014309D01*
X180678832Y-58014307D01*
X180678830Y-58014304D01*
X180648061Y-57985275D01*
X180622965Y-57961597D01*
X180161368Y-57500000D01*
X205000000Y-57500000D01*
X205950000Y-57500000D01*
X205950000Y-56675000D01*
X206450000Y-56675000D01*
X206450000Y-57500000D01*
X207399999Y-57500000D01*
X207399999Y-57375028D01*
X207399998Y-57375013D01*
X207389505Y-57272302D01*
X207334358Y-57105880D01*
X207334356Y-57105875D01*
X207242315Y-56956654D01*
X207118345Y-56832684D01*
X206969124Y-56740643D01*
X206969119Y-56740641D01*
X206802697Y-56685494D01*
X206802690Y-56685493D01*
X206699986Y-56675000D01*
X206450000Y-56675000D01*
X205950000Y-56675000D01*
X205700029Y-56675000D01*
X205700012Y-56675001D01*
X205597302Y-56685494D01*
X205430880Y-56740641D01*
X205430875Y-56740643D01*
X205281654Y-56832684D01*
X205157684Y-56956654D01*
X205065643Y-57105875D01*
X205065641Y-57105880D01*
X205010494Y-57272302D01*
X205010493Y-57272309D01*
X205000000Y-57375013D01*
X205000000Y-57500000D01*
X180161368Y-57500000D01*
X179950729Y-57289361D01*
X179938949Y-57275730D01*
X179931482Y-57265701D01*
X179924612Y-57256472D01*
X179924610Y-57256470D01*
X179884587Y-57222886D01*
X179880612Y-57219244D01*
X179877690Y-57216322D01*
X179874780Y-57213411D01*
X179849040Y-57193059D01*
X179790209Y-57143694D01*
X179784180Y-57139729D01*
X179784212Y-57139680D01*
X179777853Y-57135628D01*
X179777822Y-57135679D01*
X179771680Y-57131891D01*
X179771678Y-57131890D01*
X179771677Y-57131889D01*
X179715891Y-57105875D01*
X179702058Y-57099424D01*
X179667894Y-57082267D01*
X179633433Y-57064960D01*
X179633431Y-57064959D01*
X179633430Y-57064959D01*
X179626645Y-57062489D01*
X179626665Y-57062433D01*
X179619549Y-57059959D01*
X179619531Y-57060015D01*
X179612671Y-57057742D01*
X179584841Y-57051996D01*
X179537434Y-57042207D01*
X179488472Y-57030603D01*
X179462719Y-57024499D01*
X179455547Y-57023661D01*
X179455553Y-57023601D01*
X179448055Y-57022835D01*
X179448050Y-57022895D01*
X179440860Y-57022265D01*
X179364083Y-57024500D01*
X175936868Y-57024500D01*
X175869829Y-57004815D01*
X175848653Y-56985616D01*
X175847819Y-56986451D01*
X175718657Y-56857289D01*
X175718656Y-56857288D01*
X175569334Y-56765186D01*
X175402797Y-56710001D01*
X175402795Y-56710000D01*
X175300010Y-56699500D01*
X174299998Y-56699500D01*
X174299980Y-56699501D01*
X174197203Y-56710000D01*
X174197200Y-56710001D01*
X174030668Y-56765185D01*
X174030663Y-56765187D01*
X173881342Y-56857289D01*
X173757289Y-56981342D01*
X173665187Y-57130663D01*
X173665185Y-57130668D01*
X173644511Y-57193059D01*
X173610001Y-57297203D01*
X173610001Y-57297204D01*
X173610000Y-57297204D01*
X173599500Y-57399983D01*
X173599500Y-57399996D01*
X173599501Y-57925500D01*
X173579817Y-57992539D01*
X173527013Y-58038294D01*
X173475501Y-58049500D01*
X166627309Y-58049500D01*
X166609339Y-58048191D01*
X166585576Y-58044710D01*
X166540137Y-58048686D01*
X166533535Y-58049264D01*
X166528134Y-58049500D01*
X166519893Y-58049500D01*
X166498183Y-58052037D01*
X166487328Y-58053306D01*
X166472023Y-58054645D01*
X166410803Y-58060001D01*
X166403736Y-58061460D01*
X166403724Y-58061404D01*
X166396367Y-58063035D01*
X166396381Y-58063092D01*
X166389347Y-58064759D01*
X166317179Y-58091025D01*
X166244269Y-58115185D01*
X166237730Y-58118235D01*
X166237705Y-58118183D01*
X166230912Y-58121471D01*
X166230938Y-58121522D01*
X166224488Y-58124761D01*
X166160320Y-58166964D01*
X166094951Y-58207285D01*
X166089281Y-58211769D01*
X166089245Y-58211723D01*
X166083402Y-58216484D01*
X166083439Y-58216528D01*
X166077914Y-58221164D01*
X166025218Y-58277017D01*
X161983857Y-62318377D01*
X161922534Y-62351862D01*
X161852842Y-62346878D01*
X161796909Y-62305006D01*
X161783796Y-62283105D01*
X161774035Y-62262171D01*
X161671751Y-62116094D01*
X161638496Y-62068600D01*
X161581014Y-62011118D01*
X161516567Y-61946671D01*
X161483084Y-61885351D01*
X161488068Y-61815659D01*
X161529939Y-61759725D01*
X161560915Y-61742810D01*
X161692331Y-61693796D01*
X161807546Y-61607546D01*
X161893796Y-61492331D01*
X161944091Y-61357483D01*
X161950500Y-61297873D01*
X161950499Y-59502128D01*
X161944091Y-59442517D01*
X161943975Y-59442207D01*
X161893797Y-59307671D01*
X161893793Y-59307664D01*
X161807547Y-59192455D01*
X161807544Y-59192452D01*
X161692335Y-59106206D01*
X161692328Y-59106202D01*
X161557482Y-59055908D01*
X161557483Y-59055908D01*
X161497883Y-59049501D01*
X161497881Y-59049500D01*
X161497873Y-59049500D01*
X161497864Y-59049500D01*
X159702129Y-59049500D01*
X159702123Y-59049501D01*
X159642516Y-59055908D01*
X159507671Y-59106202D01*
X159507664Y-59106206D01*
X159392455Y-59192452D01*
X159392452Y-59192455D01*
X159306206Y-59307664D01*
X159306202Y-59307671D01*
X159255908Y-59442517D01*
X159249501Y-59502116D01*
X159249501Y-59502123D01*
X159249500Y-59502135D01*
X159249500Y-60637769D01*
X159229815Y-60704808D01*
X159213181Y-60725450D01*
X157469358Y-62469272D01*
X157455729Y-62481051D01*
X157436468Y-62495390D01*
X157402898Y-62535397D01*
X157399253Y-62539376D01*
X157393409Y-62545222D01*
X157373059Y-62570959D01*
X157323695Y-62629789D01*
X157319729Y-62635819D01*
X157319682Y-62635788D01*
X157315630Y-62642147D01*
X157315679Y-62642177D01*
X157311889Y-62648321D01*
X157279424Y-62717941D01*
X157244960Y-62786566D01*
X157242488Y-62793357D01*
X157242432Y-62793336D01*
X157239960Y-62800450D01*
X157240015Y-62800469D01*
X157237742Y-62807327D01*
X157234131Y-62824818D01*
X157222207Y-62882565D01*
X157215113Y-62912499D01*
X157204498Y-62957286D01*
X157203661Y-62964454D01*
X157203601Y-62964447D01*
X157202835Y-62971945D01*
X157202895Y-62971951D01*
X157202265Y-62979140D01*
X157204500Y-63055916D01*
X157204500Y-75316193D01*
X157203191Y-75334162D01*
X157199710Y-75357924D01*
X156700500Y-75357924D01*
X156700500Y-56224500D01*
X156720185Y-56157461D01*
X156772989Y-56111706D01*
X156824500Y-56100500D01*
X223575500Y-56100500D01*
X223642539Y-56120185D01*
G37*
G04 #@! TD.AperFunction*
M02*
