M48
; DRILL file {KiCad 7.0.8} date Fri Nov  3 23:09:19 2023
; FORMAT={-:-/ absolute / metric / decimal}
; #@! TF.CreationDate,2023-11-03T23:09:19-04:00
; #@! TF.GenerationSoftware,Kicad,Pcbnew,7.0.8
; #@! TF.FileFunction,Plated,1,2,PTH
FMAT,2
METRIC
; #@! TA.AperFunction,Plated,PTH,ViaDrill
T1C0.300
; #@! TA.AperFunction,Plated,PTH,ViaDrill
T2C0.500
; #@! TA.AperFunction,Plated,PTH,ComponentDrill
T3C0.800
; #@! TA.AperFunction,Plated,PTH,ComponentDrill
T4C1.000
; #@! TA.AperFunction,Plated,PTH,ComponentDrill
T5C1.020
; #@! TA.AperFunction,Plated,PTH,ComponentDrill
T6C1.100
; #@! TA.AperFunction,Plated,PTH,ComponentDrill
T7C2.200
%
G90
G05
T1
X166.2Y-88.0
X167.2Y-90.399
X167.8Y-85.7
X167.8Y-89.2
X168.399Y-85.0
X168.8Y-88.0
X170.626Y-108.978
X171.426Y-102.799
X171.8Y-88.0
X171.8Y-89.2
X172.595Y-112.405
X173.6Y-90.0
X173.719Y-112.651
X175.4Y-90.0
X179.183Y-85.8
X179.6Y-64.0
X179.814Y-84.986
X181.2Y-81.6
X181.4Y-65.8
X181.8Y-83.4
X181.8Y-85.0
X182.75Y-78.709
X183.4Y-86.0
X184.6Y-85.0
X185.347Y-81.073
X187.0Y-69.4
X189.4Y-72.2
X190.4Y-86.0
X195.0Y-101.8
X195.6Y-100.8
X198.0Y-100.8
X199.2Y-100.4
X199.2Y-104.0
X200.2Y-112.651
X201.265Y-113.25
X205.255Y-63.995
X209.2Y-86.8
X211.325Y-86.8
X213.4Y-96.8
X213.8Y-99.2
X218.6Y-96.2
X219.0Y-98.4
T2
X162.6Y-104.35
X162.6Y-106.8
X162.8Y-93.2
X162.8Y-95.8
X168.4Y-103.8
X171.8Y-94.675
X172.0Y-91.4
X172.4Y-99.6
X176.055Y-105.4
X181.75Y-78.95
X182.6Y-62.8
X183.6Y-63.8
X184.6Y-90.4
X185.0Y-82.5
X185.094Y-70.906
X185.8Y-59.6
X189.748Y-70.084
X200.6Y-87.0
X201.985Y-65.0
X209.2Y-63.0
X211.5Y-84.4
X214.672Y-95.31
X215.1Y-98.7
X217.374Y-95.574
X217.4Y-99.4
X218.75Y-83.2
X218.75Y-85.6
X220.45Y-83.2
T3
X207.8Y-66.56
X207.8Y-69.1
X207.8Y-71.64
X207.8Y-74.18
X207.8Y-76.72
X207.8Y-79.26
X207.8Y-81.8
X207.8Y-84.34
T4
X160.285Y-102.03
X160.285Y-104.57
X160.285Y-108.53
X160.285Y-111.07
X160.4Y-82.06
X160.4Y-84.6
X160.422Y-88.705
X160.422Y-91.245
X160.422Y-95.245
X160.422Y-97.785
X160.6Y-60.4
X160.6Y-62.94
X165.0Y-73.5
X165.4Y-85.0
X165.5Y-62.5
X170.0Y-73.5
X170.4Y-85.0
X170.5Y-62.5
X178.8Y-59.46
X178.8Y-62.0
X202.4Y-59.66
X202.4Y-62.2
X207.6Y-108.06
X207.6Y-110.6
X212.9Y-106.36
X213.02Y-110.56
X215.44Y-106.36
X215.56Y-110.56
X215.7Y-60.5
X217.98Y-106.36
X218.1Y-110.56
X218.2Y-60.5
X220.52Y-106.36
X220.64Y-110.56
T5
X177.8Y-65.96
X177.8Y-68.5
X177.8Y-71.04
X177.8Y-73.58
X177.8Y-76.12
X177.8Y-78.66
X177.8Y-81.2
X177.8Y-83.74
X177.8Y-86.28
X177.8Y-88.82
X177.8Y-91.36
X177.8Y-93.9
X177.8Y-96.44
X177.8Y-98.98
X177.8Y-101.52
X177.8Y-104.06
X177.8Y-106.6
X177.8Y-109.14
X177.8Y-111.68
X203.2Y-65.96
X203.2Y-68.5
X203.2Y-71.04
X203.2Y-73.58
X203.2Y-76.12
X203.2Y-78.66
X203.2Y-81.2
X203.2Y-83.74
X203.2Y-86.28
X203.2Y-88.82
X203.2Y-91.36
X203.2Y-93.9
X203.2Y-96.44
X203.2Y-98.98
X203.2Y-101.52
X203.2Y-104.06
X203.2Y-106.6
X203.2Y-109.14
X203.2Y-111.68
T6
X211.487Y-90.712
X211.487Y-92.862
X211.487Y-95.012
X211.487Y-98.112
X211.487Y-100.262
X211.487Y-102.412
T7
X165.2Y-111.6
X190.4Y-109.8
X190.5Y-89.4
X215.4Y-67.6
T0
M30
