%TF.GenerationSoftware,KiCad,Pcbnew,7.0.8*%
%TF.CreationDate,2023-11-03T23:11:06-04:00*%
%TF.ProjectId,robot,726f626f-742e-46b6-9963-61645f706362,rev?*%
%TF.SameCoordinates,Original*%
%TF.FileFunction,Drillmap*%
%TF.FilePolarity,Positive*%
%FSLAX45Y45*%
G04 Gerber Fmt 4.5, Leading zero omitted, Abs format (unit mm)*
G04 Created by KiCad (PCBNEW 7.0.8) date 2023-11-03 23:11:06*
%MOMM*%
%LPD*%
G01*
G04 APERTURE LIST*
%ADD10C,0.050000*%
%ADD11C,0.200000*%
G04 APERTURE END LIST*
D10*
X15640000Y-5580000D02*
X22400000Y-5580000D01*
X22400000Y-11560000D01*
X15640000Y-11560000D01*
X15640000Y-5580000D01*
D11*
X15898277Y-11873984D02*
X15898277Y-11673984D01*
X15898277Y-11673984D02*
X15945896Y-11673984D01*
X15945896Y-11673984D02*
X15974467Y-11683508D01*
X15974467Y-11683508D02*
X15993515Y-11702555D01*
X15993515Y-11702555D02*
X16003039Y-11721603D01*
X16003039Y-11721603D02*
X16012562Y-11759698D01*
X16012562Y-11759698D02*
X16012562Y-11788269D01*
X16012562Y-11788269D02*
X16003039Y-11826365D01*
X16003039Y-11826365D02*
X15993515Y-11845412D01*
X15993515Y-11845412D02*
X15974467Y-11864460D01*
X15974467Y-11864460D02*
X15945896Y-11873984D01*
X15945896Y-11873984D02*
X15898277Y-11873984D01*
X16098277Y-11873984D02*
X16098277Y-11740650D01*
X16098277Y-11778746D02*
X16107801Y-11759698D01*
X16107801Y-11759698D02*
X16117324Y-11750174D01*
X16117324Y-11750174D02*
X16136372Y-11740650D01*
X16136372Y-11740650D02*
X16155420Y-11740650D01*
X16222086Y-11873984D02*
X16222086Y-11740650D01*
X16222086Y-11673984D02*
X16212562Y-11683508D01*
X16212562Y-11683508D02*
X16222086Y-11693031D01*
X16222086Y-11693031D02*
X16231610Y-11683508D01*
X16231610Y-11683508D02*
X16222086Y-11673984D01*
X16222086Y-11673984D02*
X16222086Y-11693031D01*
X16345896Y-11873984D02*
X16326848Y-11864460D01*
X16326848Y-11864460D02*
X16317324Y-11845412D01*
X16317324Y-11845412D02*
X16317324Y-11673984D01*
X16450658Y-11873984D02*
X16431610Y-11864460D01*
X16431610Y-11864460D02*
X16422086Y-11845412D01*
X16422086Y-11845412D02*
X16422086Y-11673984D01*
X16679229Y-11873984D02*
X16679229Y-11673984D01*
X16679229Y-11673984D02*
X16745896Y-11816841D01*
X16745896Y-11816841D02*
X16812563Y-11673984D01*
X16812563Y-11673984D02*
X16812563Y-11873984D01*
X16993515Y-11873984D02*
X16993515Y-11769222D01*
X16993515Y-11769222D02*
X16983991Y-11750174D01*
X16983991Y-11750174D02*
X16964944Y-11740650D01*
X16964944Y-11740650D02*
X16926848Y-11740650D01*
X16926848Y-11740650D02*
X16907801Y-11750174D01*
X16993515Y-11864460D02*
X16974467Y-11873984D01*
X16974467Y-11873984D02*
X16926848Y-11873984D01*
X16926848Y-11873984D02*
X16907801Y-11864460D01*
X16907801Y-11864460D02*
X16898277Y-11845412D01*
X16898277Y-11845412D02*
X16898277Y-11826365D01*
X16898277Y-11826365D02*
X16907801Y-11807317D01*
X16907801Y-11807317D02*
X16926848Y-11797793D01*
X16926848Y-11797793D02*
X16974467Y-11797793D01*
X16974467Y-11797793D02*
X16993515Y-11788269D01*
X17088753Y-11740650D02*
X17088753Y-11940650D01*
X17088753Y-11750174D02*
X17107801Y-11740650D01*
X17107801Y-11740650D02*
X17145896Y-11740650D01*
X17145896Y-11740650D02*
X17164944Y-11750174D01*
X17164944Y-11750174D02*
X17174467Y-11759698D01*
X17174467Y-11759698D02*
X17183991Y-11778746D01*
X17183991Y-11778746D02*
X17183991Y-11835888D01*
X17183991Y-11835888D02*
X17174467Y-11854936D01*
X17174467Y-11854936D02*
X17164944Y-11864460D01*
X17164944Y-11864460D02*
X17145896Y-11873984D01*
X17145896Y-11873984D02*
X17107801Y-11873984D01*
X17107801Y-11873984D02*
X17088753Y-11864460D01*
X17269705Y-11854936D02*
X17279229Y-11864460D01*
X17279229Y-11864460D02*
X17269705Y-11873984D01*
X17269705Y-11873984D02*
X17260182Y-11864460D01*
X17260182Y-11864460D02*
X17269705Y-11854936D01*
X17269705Y-11854936D02*
X17269705Y-11873984D01*
X17269705Y-11750174D02*
X17279229Y-11759698D01*
X17279229Y-11759698D02*
X17269705Y-11769222D01*
X17269705Y-11769222D02*
X17260182Y-11759698D01*
X17260182Y-11759698D02*
X17269705Y-11750174D01*
X17269705Y-11750174D02*
X17269705Y-11769222D01*
M02*
