G04 #@! TF.GenerationSoftware,KiCad,Pcbnew,7.0.8*
G04 #@! TF.CreationDate,2023-11-03T23:08:19-04:00*
G04 #@! TF.ProjectId,robot,726f626f-742e-46b6-9963-61645f706362,rev?*
G04 #@! TF.SameCoordinates,Original*
G04 #@! TF.FileFunction,Legend,Top*
G04 #@! TF.FilePolarity,Positive*
%FSLAX46Y46*%
G04 Gerber Fmt 4.6, Leading zero omitted, Abs format (unit mm)*
G04 Created by KiCad (PCBNEW 7.0.8) date 2023-11-03 23:08:19*
%MOMM*%
%LPD*%
G01*
G04 APERTURE LIST*
G04 Aperture macros list*
%AMRoundRect*
0 Rectangle with rounded corners*
0 $1 Rounding radius*
0 $2 $3 $4 $5 $6 $7 $8 $9 X,Y pos of 4 corners*
0 Add a 4 corners polygon primitive as box body*
4,1,4,$2,$3,$4,$5,$6,$7,$8,$9,$2,$3,0*
0 Add four circle primitives for the rounded corners*
1,1,$1+$1,$2,$3*
1,1,$1+$1,$4,$5*
1,1,$1+$1,$6,$7*
1,1,$1+$1,$8,$9*
0 Add four rect primitives between the rounded corners*
20,1,$1+$1,$2,$3,$4,$5,0*
20,1,$1+$1,$4,$5,$6,$7,0*
20,1,$1+$1,$6,$7,$8,$9,0*
20,1,$1+$1,$8,$9,$2,$3,0*%
%AMFreePoly0*
4,1,13,0.900000,0.500000,2.600000,0.500000,2.600000,-0.500000,0.900000,-0.500000,0.400000,-1.000000,-0.400000,-1.000000,-0.900000,-0.500000,-2.600000,-0.500000,-2.600000,0.500000,-0.900000,0.500000,-0.400000,1.000000,0.400000,1.000000,0.900000,0.500000,0.900000,0.500000,$1*%
G04 Aperture macros list end*
%ADD10C,0.150000*%
%ADD11C,0.127000*%
%ADD12C,0.120000*%
%ADD13C,0.200000*%
%ADD14O,3.760000X1.982000*%
%ADD15RoundRect,0.250000X-0.350000X-0.450000X0.350000X-0.450000X0.350000X0.450000X-0.350000X0.450000X0*%
%ADD16RoundRect,0.250000X0.350000X0.450000X-0.350000X0.450000X-0.350000X-0.450000X0.350000X-0.450000X0*%
%ADD17RoundRect,0.250000X0.450000X-0.325000X0.450000X0.325000X-0.450000X0.325000X-0.450000X-0.325000X0*%
%ADD18R,1.700000X1.700000*%
%ADD19O,1.700000X1.700000*%
%ADD20RoundRect,0.250000X-0.475000X0.337500X-0.475000X-0.337500X0.475000X-0.337500X0.475000X0.337500X0*%
%ADD21RoundRect,0.250000X-0.325000X-0.450000X0.325000X-0.450000X0.325000X0.450000X-0.325000X0.450000X0*%
%ADD22RoundRect,0.250000X0.475000X-0.337500X0.475000X0.337500X-0.475000X0.337500X-0.475000X-0.337500X0*%
%ADD23RoundRect,0.102000X0.825000X-0.825000X0.825000X0.825000X-0.825000X0.825000X-0.825000X-0.825000X0*%
%ADD24C,1.854000*%
%ADD25RoundRect,0.250000X0.450000X-0.350000X0.450000X0.350000X-0.450000X0.350000X-0.450000X-0.350000X0*%
%ADD26C,2.000000*%
%ADD27R,2.000000X2.000000*%
%ADD28RoundRect,0.250000X-0.450000X0.325000X-0.450000X-0.325000X0.450000X-0.325000X0.450000X0.325000X0*%
%ADD29C,3.800000*%
%ADD30RoundRect,0.100000X-0.637500X-0.100000X0.637500X-0.100000X0.637500X0.100000X-0.637500X0.100000X0*%
%ADD31R,1.560000X0.650000*%
%ADD32RoundRect,0.250000X-0.450000X0.350000X-0.450000X-0.350000X0.450000X-0.350000X0.450000X0.350000X0*%
%ADD33RoundRect,0.250000X0.337500X0.475000X-0.337500X0.475000X-0.337500X-0.475000X0.337500X-0.475000X0*%
%ADD34R,0.450000X1.500000*%
%ADD35RoundRect,0.250000X-0.337500X-0.475000X0.337500X-0.475000X0.337500X0.475000X-0.337500X0.475000X0*%
%ADD36R,1.500000X0.700000*%
%ADD37FreePoly0,0.000000*%
%ADD38RoundRect,0.250000X-0.600000X-0.750000X0.600000X-0.750000X0.600000X0.750000X-0.600000X0.750000X0*%
%ADD39O,1.700000X2.000000*%
%ADD40RoundRect,0.102000X-0.765000X-0.765000X0.765000X-0.765000X0.765000X0.765000X-0.765000X0.765000X0*%
%ADD41C,1.734000*%
G04 APERTURE END LIST*
D10*
X214025121Y-74969065D02*
X214025121Y-75606486D01*
X214025121Y-75606486D02*
X214062617Y-75681476D01*
X214062617Y-75681476D02*
X214100112Y-75718972D01*
X214100112Y-75718972D02*
X214175103Y-75756467D01*
X214175103Y-75756467D02*
X214325084Y-75756467D01*
X214325084Y-75756467D02*
X214400075Y-75718972D01*
X214400075Y-75718972D02*
X214437570Y-75681476D01*
X214437570Y-75681476D02*
X214475065Y-75606486D01*
X214475065Y-75606486D02*
X214475065Y-74969065D01*
X215262467Y-75756467D02*
X214812523Y-75756467D01*
X215037495Y-75756467D02*
X215037495Y-74969065D01*
X215037495Y-74969065D02*
X214962504Y-75081551D01*
X214962504Y-75081551D02*
X214887514Y-75156542D01*
X214887514Y-75156542D02*
X214812523Y-75194037D01*
X215749907Y-74969065D02*
X215824897Y-74969065D01*
X215824897Y-74969065D02*
X215899888Y-75006560D01*
X215899888Y-75006560D02*
X215937383Y-75044056D01*
X215937383Y-75044056D02*
X215974879Y-75119046D01*
X215974879Y-75119046D02*
X216012374Y-75269028D01*
X216012374Y-75269028D02*
X216012374Y-75456504D01*
X216012374Y-75456504D02*
X215974879Y-75606486D01*
X215974879Y-75606486D02*
X215937383Y-75681476D01*
X215937383Y-75681476D02*
X215899888Y-75718972D01*
X215899888Y-75718972D02*
X215824897Y-75756467D01*
X215824897Y-75756467D02*
X215749907Y-75756467D01*
X215749907Y-75756467D02*
X215674916Y-75718972D01*
X215674916Y-75718972D02*
X215637421Y-75681476D01*
X215637421Y-75681476D02*
X215599925Y-75606486D01*
X215599925Y-75606486D02*
X215562430Y-75456504D01*
X215562430Y-75456504D02*
X215562430Y-75269028D01*
X215562430Y-75269028D02*
X215599925Y-75119046D01*
X215599925Y-75119046D02*
X215637421Y-75044056D01*
X215637421Y-75044056D02*
X215674916Y-75006560D01*
X215674916Y-75006560D02*
X215749907Y-74969065D01*
X215181905Y-70158152D02*
X215420000Y-70824819D01*
X215658095Y-70158152D02*
X215420000Y-70824819D01*
X215420000Y-70824819D02*
X215324762Y-71062914D01*
X215324762Y-71062914D02*
X215277143Y-71110533D01*
X215277143Y-71110533D02*
X215181905Y-71158152D01*
X212197500Y-77587319D02*
X212197500Y-76587319D01*
X212530833Y-76587319D02*
X213102261Y-76587319D01*
X212816547Y-77587319D02*
X212816547Y-76587319D01*
X213959404Y-76634938D02*
X213864166Y-76587319D01*
X213864166Y-76587319D02*
X213721309Y-76587319D01*
X213721309Y-76587319D02*
X213578452Y-76634938D01*
X213578452Y-76634938D02*
X213483214Y-76730176D01*
X213483214Y-76730176D02*
X213435595Y-76825414D01*
X213435595Y-76825414D02*
X213387976Y-77015890D01*
X213387976Y-77015890D02*
X213387976Y-77158747D01*
X213387976Y-77158747D02*
X213435595Y-77349223D01*
X213435595Y-77349223D02*
X213483214Y-77444461D01*
X213483214Y-77444461D02*
X213578452Y-77539700D01*
X213578452Y-77539700D02*
X213721309Y-77587319D01*
X213721309Y-77587319D02*
X213816547Y-77587319D01*
X213816547Y-77587319D02*
X213959404Y-77539700D01*
X213959404Y-77539700D02*
X214007023Y-77492080D01*
X214007023Y-77492080D02*
X214007023Y-77158747D01*
X214007023Y-77158747D02*
X213816547Y-77158747D01*
X215149880Y-76539700D02*
X214292738Y-77825414D01*
X215483214Y-77587319D02*
X215483214Y-76587319D01*
X215483214Y-76587319D02*
X215816547Y-77301604D01*
X215816547Y-77301604D02*
X216149880Y-76587319D01*
X216149880Y-76587319D02*
X216149880Y-77587319D01*
X216626071Y-77587319D02*
X216626071Y-76587319D01*
X216626071Y-76587319D02*
X217007023Y-76587319D01*
X217007023Y-76587319D02*
X217102261Y-76634938D01*
X217102261Y-76634938D02*
X217149880Y-76682557D01*
X217149880Y-76682557D02*
X217197499Y-76777795D01*
X217197499Y-76777795D02*
X217197499Y-76920652D01*
X217197499Y-76920652D02*
X217149880Y-77015890D01*
X217149880Y-77015890D02*
X217102261Y-77063509D01*
X217102261Y-77063509D02*
X217007023Y-77111128D01*
X217007023Y-77111128D02*
X216626071Y-77111128D01*
X217626071Y-76587319D02*
X217626071Y-77396842D01*
X217626071Y-77396842D02*
X217673690Y-77492080D01*
X217673690Y-77492080D02*
X217721309Y-77539700D01*
X217721309Y-77539700D02*
X217816547Y-77587319D01*
X217816547Y-77587319D02*
X218007023Y-77587319D01*
X218007023Y-77587319D02*
X218102261Y-77539700D01*
X218102261Y-77539700D02*
X218149880Y-77492080D01*
X218149880Y-77492080D02*
X218197499Y-77396842D01*
X218197499Y-77396842D02*
X218197499Y-76587319D01*
X218333095Y-74634819D02*
X218856904Y-73968152D01*
X218333095Y-73968152D02*
X218856904Y-74634819D01*
X214557142Y-80204819D02*
X214223809Y-79728628D01*
X213985714Y-80204819D02*
X213985714Y-79204819D01*
X213985714Y-79204819D02*
X214366666Y-79204819D01*
X214366666Y-79204819D02*
X214461904Y-79252438D01*
X214461904Y-79252438D02*
X214509523Y-79300057D01*
X214509523Y-79300057D02*
X214557142Y-79395295D01*
X214557142Y-79395295D02*
X214557142Y-79538152D01*
X214557142Y-79538152D02*
X214509523Y-79633390D01*
X214509523Y-79633390D02*
X214461904Y-79681009D01*
X214461904Y-79681009D02*
X214366666Y-79728628D01*
X214366666Y-79728628D02*
X213985714Y-79728628D01*
X215509523Y-80204819D02*
X214938095Y-80204819D01*
X215223809Y-80204819D02*
X215223809Y-79204819D01*
X215223809Y-79204819D02*
X215128571Y-79347676D01*
X215128571Y-79347676D02*
X215033333Y-79442914D01*
X215033333Y-79442914D02*
X214938095Y-79490533D01*
X216414285Y-79204819D02*
X215938095Y-79204819D01*
X215938095Y-79204819D02*
X215890476Y-79681009D01*
X215890476Y-79681009D02*
X215938095Y-79633390D01*
X215938095Y-79633390D02*
X216033333Y-79585771D01*
X216033333Y-79585771D02*
X216271428Y-79585771D01*
X216271428Y-79585771D02*
X216366666Y-79633390D01*
X216366666Y-79633390D02*
X216414285Y-79681009D01*
X216414285Y-79681009D02*
X216461904Y-79776247D01*
X216461904Y-79776247D02*
X216461904Y-80014342D01*
X216461904Y-80014342D02*
X216414285Y-80109580D01*
X216414285Y-80109580D02*
X216366666Y-80157200D01*
X216366666Y-80157200D02*
X216271428Y-80204819D01*
X216271428Y-80204819D02*
X216033333Y-80204819D01*
X216033333Y-80204819D02*
X215938095Y-80157200D01*
X215938095Y-80157200D02*
X215890476Y-80109580D01*
X211157142Y-82254819D02*
X210823809Y-81778628D01*
X210585714Y-82254819D02*
X210585714Y-81254819D01*
X210585714Y-81254819D02*
X210966666Y-81254819D01*
X210966666Y-81254819D02*
X211061904Y-81302438D01*
X211061904Y-81302438D02*
X211109523Y-81350057D01*
X211109523Y-81350057D02*
X211157142Y-81445295D01*
X211157142Y-81445295D02*
X211157142Y-81588152D01*
X211157142Y-81588152D02*
X211109523Y-81683390D01*
X211109523Y-81683390D02*
X211061904Y-81731009D01*
X211061904Y-81731009D02*
X210966666Y-81778628D01*
X210966666Y-81778628D02*
X210585714Y-81778628D01*
X212109523Y-82254819D02*
X211538095Y-82254819D01*
X211823809Y-82254819D02*
X211823809Y-81254819D01*
X211823809Y-81254819D02*
X211728571Y-81397676D01*
X211728571Y-81397676D02*
X211633333Y-81492914D01*
X211633333Y-81492914D02*
X211538095Y-81540533D01*
X212966666Y-81254819D02*
X212776190Y-81254819D01*
X212776190Y-81254819D02*
X212680952Y-81302438D01*
X212680952Y-81302438D02*
X212633333Y-81350057D01*
X212633333Y-81350057D02*
X212538095Y-81492914D01*
X212538095Y-81492914D02*
X212490476Y-81683390D01*
X212490476Y-81683390D02*
X212490476Y-82064342D01*
X212490476Y-82064342D02*
X212538095Y-82159580D01*
X212538095Y-82159580D02*
X212585714Y-82207200D01*
X212585714Y-82207200D02*
X212680952Y-82254819D01*
X212680952Y-82254819D02*
X212871428Y-82254819D01*
X212871428Y-82254819D02*
X212966666Y-82207200D01*
X212966666Y-82207200D02*
X213014285Y-82159580D01*
X213014285Y-82159580D02*
X213061904Y-82064342D01*
X213061904Y-82064342D02*
X213061904Y-81826247D01*
X213061904Y-81826247D02*
X213014285Y-81731009D01*
X213014285Y-81731009D02*
X212966666Y-81683390D01*
X212966666Y-81683390D02*
X212871428Y-81635771D01*
X212871428Y-81635771D02*
X212680952Y-81635771D01*
X212680952Y-81635771D02*
X212585714Y-81683390D01*
X212585714Y-81683390D02*
X212538095Y-81731009D01*
X212538095Y-81731009D02*
X212490476Y-81826247D01*
X204481009Y-59108333D02*
X204481009Y-59441666D01*
X205004819Y-59441666D02*
X204004819Y-59441666D01*
X204004819Y-59441666D02*
X204004819Y-58965476D01*
X204100057Y-58632142D02*
X204052438Y-58584523D01*
X204052438Y-58584523D02*
X204004819Y-58489285D01*
X204004819Y-58489285D02*
X204004819Y-58251190D01*
X204004819Y-58251190D02*
X204052438Y-58155952D01*
X204052438Y-58155952D02*
X204100057Y-58108333D01*
X204100057Y-58108333D02*
X204195295Y-58060714D01*
X204195295Y-58060714D02*
X204290533Y-58060714D01*
X204290533Y-58060714D02*
X204433390Y-58108333D01*
X204433390Y-58108333D02*
X205004819Y-58679761D01*
X205004819Y-58679761D02*
X205004819Y-58060714D01*
X210704819Y-111774285D02*
X209704819Y-111774285D01*
X209704819Y-111774285D02*
X209704819Y-111536190D01*
X209704819Y-111536190D02*
X209752438Y-111393333D01*
X209752438Y-111393333D02*
X209847676Y-111298095D01*
X209847676Y-111298095D02*
X209942914Y-111250476D01*
X209942914Y-111250476D02*
X210133390Y-111202857D01*
X210133390Y-111202857D02*
X210276247Y-111202857D01*
X210276247Y-111202857D02*
X210466723Y-111250476D01*
X210466723Y-111250476D02*
X210561961Y-111298095D01*
X210561961Y-111298095D02*
X210657200Y-111393333D01*
X210657200Y-111393333D02*
X210704819Y-111536190D01*
X210704819Y-111536190D02*
X210704819Y-111774285D01*
X210704819Y-110250476D02*
X210704819Y-110821904D01*
X210704819Y-110536190D02*
X209704819Y-110536190D01*
X209704819Y-110536190D02*
X209847676Y-110631428D01*
X209847676Y-110631428D02*
X209942914Y-110726666D01*
X209942914Y-110726666D02*
X209990533Y-110821904D01*
X210038152Y-109393333D02*
X210704819Y-109393333D01*
X209657200Y-109631428D02*
X210371485Y-109869523D01*
X210371485Y-109869523D02*
X210371485Y-109250476D01*
X192309580Y-78982857D02*
X192357200Y-79030476D01*
X192357200Y-79030476D02*
X192404819Y-79173333D01*
X192404819Y-79173333D02*
X192404819Y-79268571D01*
X192404819Y-79268571D02*
X192357200Y-79411428D01*
X192357200Y-79411428D02*
X192261961Y-79506666D01*
X192261961Y-79506666D02*
X192166723Y-79554285D01*
X192166723Y-79554285D02*
X191976247Y-79601904D01*
X191976247Y-79601904D02*
X191833390Y-79601904D01*
X191833390Y-79601904D02*
X191642914Y-79554285D01*
X191642914Y-79554285D02*
X191547676Y-79506666D01*
X191547676Y-79506666D02*
X191452438Y-79411428D01*
X191452438Y-79411428D02*
X191404819Y-79268571D01*
X191404819Y-79268571D02*
X191404819Y-79173333D01*
X191404819Y-79173333D02*
X191452438Y-79030476D01*
X191452438Y-79030476D02*
X191500057Y-78982857D01*
X192404819Y-78030476D02*
X192404819Y-78601904D01*
X192404819Y-78316190D02*
X191404819Y-78316190D01*
X191404819Y-78316190D02*
X191547676Y-78411428D01*
X191547676Y-78411428D02*
X191642914Y-78506666D01*
X191642914Y-78506666D02*
X191690533Y-78601904D01*
X192404819Y-77554285D02*
X192404819Y-77363809D01*
X192404819Y-77363809D02*
X192357200Y-77268571D01*
X192357200Y-77268571D02*
X192309580Y-77220952D01*
X192309580Y-77220952D02*
X192166723Y-77125714D01*
X192166723Y-77125714D02*
X191976247Y-77078095D01*
X191976247Y-77078095D02*
X191595295Y-77078095D01*
X191595295Y-77078095D02*
X191500057Y-77125714D01*
X191500057Y-77125714D02*
X191452438Y-77173333D01*
X191452438Y-77173333D02*
X191404819Y-77268571D01*
X191404819Y-77268571D02*
X191404819Y-77459047D01*
X191404819Y-77459047D02*
X191452438Y-77554285D01*
X191452438Y-77554285D02*
X191500057Y-77601904D01*
X191500057Y-77601904D02*
X191595295Y-77649523D01*
X191595295Y-77649523D02*
X191833390Y-77649523D01*
X191833390Y-77649523D02*
X191928628Y-77601904D01*
X191928628Y-77601904D02*
X191976247Y-77554285D01*
X191976247Y-77554285D02*
X192023866Y-77459047D01*
X192023866Y-77459047D02*
X192023866Y-77268571D01*
X192023866Y-77268571D02*
X191976247Y-77173333D01*
X191976247Y-77173333D02*
X191928628Y-77125714D01*
X191928628Y-77125714D02*
X191833390Y-77078095D01*
X198953333Y-101164819D02*
X198620000Y-100688628D01*
X198381905Y-101164819D02*
X198381905Y-100164819D01*
X198381905Y-100164819D02*
X198762857Y-100164819D01*
X198762857Y-100164819D02*
X198858095Y-100212438D01*
X198858095Y-100212438D02*
X198905714Y-100260057D01*
X198905714Y-100260057D02*
X198953333Y-100355295D01*
X198953333Y-100355295D02*
X198953333Y-100498152D01*
X198953333Y-100498152D02*
X198905714Y-100593390D01*
X198905714Y-100593390D02*
X198858095Y-100641009D01*
X198858095Y-100641009D02*
X198762857Y-100688628D01*
X198762857Y-100688628D02*
X198381905Y-100688628D01*
X199810476Y-100164819D02*
X199620000Y-100164819D01*
X199620000Y-100164819D02*
X199524762Y-100212438D01*
X199524762Y-100212438D02*
X199477143Y-100260057D01*
X199477143Y-100260057D02*
X199381905Y-100402914D01*
X199381905Y-100402914D02*
X199334286Y-100593390D01*
X199334286Y-100593390D02*
X199334286Y-100974342D01*
X199334286Y-100974342D02*
X199381905Y-101069580D01*
X199381905Y-101069580D02*
X199429524Y-101117200D01*
X199429524Y-101117200D02*
X199524762Y-101164819D01*
X199524762Y-101164819D02*
X199715238Y-101164819D01*
X199715238Y-101164819D02*
X199810476Y-101117200D01*
X199810476Y-101117200D02*
X199858095Y-101069580D01*
X199858095Y-101069580D02*
X199905714Y-100974342D01*
X199905714Y-100974342D02*
X199905714Y-100736247D01*
X199905714Y-100736247D02*
X199858095Y-100641009D01*
X199858095Y-100641009D02*
X199810476Y-100593390D01*
X199810476Y-100593390D02*
X199715238Y-100545771D01*
X199715238Y-100545771D02*
X199524762Y-100545771D01*
X199524762Y-100545771D02*
X199429524Y-100593390D01*
X199429524Y-100593390D02*
X199381905Y-100641009D01*
X199381905Y-100641009D02*
X199334286Y-100736247D01*
X163185714Y-79454819D02*
X163185714Y-78454819D01*
X163185714Y-78454819D02*
X163423809Y-78454819D01*
X163423809Y-78454819D02*
X163566666Y-78502438D01*
X163566666Y-78502438D02*
X163661904Y-78597676D01*
X163661904Y-78597676D02*
X163709523Y-78692914D01*
X163709523Y-78692914D02*
X163757142Y-78883390D01*
X163757142Y-78883390D02*
X163757142Y-79026247D01*
X163757142Y-79026247D02*
X163709523Y-79216723D01*
X163709523Y-79216723D02*
X163661904Y-79311961D01*
X163661904Y-79311961D02*
X163566666Y-79407200D01*
X163566666Y-79407200D02*
X163423809Y-79454819D01*
X163423809Y-79454819D02*
X163185714Y-79454819D01*
X164709523Y-79454819D02*
X164138095Y-79454819D01*
X164423809Y-79454819D02*
X164423809Y-78454819D01*
X164423809Y-78454819D02*
X164328571Y-78597676D01*
X164328571Y-78597676D02*
X164233333Y-78692914D01*
X164233333Y-78692914D02*
X164138095Y-78740533D01*
X165090476Y-78550057D02*
X165138095Y-78502438D01*
X165138095Y-78502438D02*
X165233333Y-78454819D01*
X165233333Y-78454819D02*
X165471428Y-78454819D01*
X165471428Y-78454819D02*
X165566666Y-78502438D01*
X165566666Y-78502438D02*
X165614285Y-78550057D01*
X165614285Y-78550057D02*
X165661904Y-78645295D01*
X165661904Y-78645295D02*
X165661904Y-78740533D01*
X165661904Y-78740533D02*
X165614285Y-78883390D01*
X165614285Y-78883390D02*
X165042857Y-79454819D01*
X165042857Y-79454819D02*
X165661904Y-79454819D01*
X196833333Y-65454819D02*
X196500000Y-64978628D01*
X196261905Y-65454819D02*
X196261905Y-64454819D01*
X196261905Y-64454819D02*
X196642857Y-64454819D01*
X196642857Y-64454819D02*
X196738095Y-64502438D01*
X196738095Y-64502438D02*
X196785714Y-64550057D01*
X196785714Y-64550057D02*
X196833333Y-64645295D01*
X196833333Y-64645295D02*
X196833333Y-64788152D01*
X196833333Y-64788152D02*
X196785714Y-64883390D01*
X196785714Y-64883390D02*
X196738095Y-64931009D01*
X196738095Y-64931009D02*
X196642857Y-64978628D01*
X196642857Y-64978628D02*
X196261905Y-64978628D01*
X197166667Y-64454819D02*
X197785714Y-64454819D01*
X197785714Y-64454819D02*
X197452381Y-64835771D01*
X197452381Y-64835771D02*
X197595238Y-64835771D01*
X197595238Y-64835771D02*
X197690476Y-64883390D01*
X197690476Y-64883390D02*
X197738095Y-64931009D01*
X197738095Y-64931009D02*
X197785714Y-65026247D01*
X197785714Y-65026247D02*
X197785714Y-65264342D01*
X197785714Y-65264342D02*
X197738095Y-65359580D01*
X197738095Y-65359580D02*
X197690476Y-65407200D01*
X197690476Y-65407200D02*
X197595238Y-65454819D01*
X197595238Y-65454819D02*
X197309524Y-65454819D01*
X197309524Y-65454819D02*
X197214286Y-65407200D01*
X197214286Y-65407200D02*
X197166667Y-65359580D01*
X162970476Y-90954819D02*
X162970476Y-89954819D01*
X162970476Y-89954819D02*
X163303809Y-90669104D01*
X163303809Y-90669104D02*
X163637142Y-89954819D01*
X163637142Y-89954819D02*
X163637142Y-90954819D01*
X164256190Y-90383390D02*
X164160952Y-90335771D01*
X164160952Y-90335771D02*
X164113333Y-90288152D01*
X164113333Y-90288152D02*
X164065714Y-90192914D01*
X164065714Y-90192914D02*
X164065714Y-90145295D01*
X164065714Y-90145295D02*
X164113333Y-90050057D01*
X164113333Y-90050057D02*
X164160952Y-90002438D01*
X164160952Y-90002438D02*
X164256190Y-89954819D01*
X164256190Y-89954819D02*
X164446666Y-89954819D01*
X164446666Y-89954819D02*
X164541904Y-90002438D01*
X164541904Y-90002438D02*
X164589523Y-90050057D01*
X164589523Y-90050057D02*
X164637142Y-90145295D01*
X164637142Y-90145295D02*
X164637142Y-90192914D01*
X164637142Y-90192914D02*
X164589523Y-90288152D01*
X164589523Y-90288152D02*
X164541904Y-90335771D01*
X164541904Y-90335771D02*
X164446666Y-90383390D01*
X164446666Y-90383390D02*
X164256190Y-90383390D01*
X164256190Y-90383390D02*
X164160952Y-90431009D01*
X164160952Y-90431009D02*
X164113333Y-90478628D01*
X164113333Y-90478628D02*
X164065714Y-90573866D01*
X164065714Y-90573866D02*
X164065714Y-90764342D01*
X164065714Y-90764342D02*
X164113333Y-90859580D01*
X164113333Y-90859580D02*
X164160952Y-90907200D01*
X164160952Y-90907200D02*
X164256190Y-90954819D01*
X164256190Y-90954819D02*
X164446666Y-90954819D01*
X164446666Y-90954819D02*
X164541904Y-90907200D01*
X164541904Y-90907200D02*
X164589523Y-90859580D01*
X164589523Y-90859580D02*
X164637142Y-90764342D01*
X164637142Y-90764342D02*
X164637142Y-90573866D01*
X164637142Y-90573866D02*
X164589523Y-90478628D01*
X164589523Y-90478628D02*
X164541904Y-90431009D01*
X164541904Y-90431009D02*
X164446666Y-90383390D01*
X189679580Y-72142857D02*
X189727200Y-72190476D01*
X189727200Y-72190476D02*
X189774819Y-72333333D01*
X189774819Y-72333333D02*
X189774819Y-72428571D01*
X189774819Y-72428571D02*
X189727200Y-72571428D01*
X189727200Y-72571428D02*
X189631961Y-72666666D01*
X189631961Y-72666666D02*
X189536723Y-72714285D01*
X189536723Y-72714285D02*
X189346247Y-72761904D01*
X189346247Y-72761904D02*
X189203390Y-72761904D01*
X189203390Y-72761904D02*
X189012914Y-72714285D01*
X189012914Y-72714285D02*
X188917676Y-72666666D01*
X188917676Y-72666666D02*
X188822438Y-72571428D01*
X188822438Y-72571428D02*
X188774819Y-72428571D01*
X188774819Y-72428571D02*
X188774819Y-72333333D01*
X188774819Y-72333333D02*
X188822438Y-72190476D01*
X188822438Y-72190476D02*
X188870057Y-72142857D01*
X189774819Y-71190476D02*
X189774819Y-71761904D01*
X189774819Y-71476190D02*
X188774819Y-71476190D01*
X188774819Y-71476190D02*
X188917676Y-71571428D01*
X188917676Y-71571428D02*
X189012914Y-71666666D01*
X189012914Y-71666666D02*
X189060533Y-71761904D01*
X188774819Y-70571428D02*
X188774819Y-70476190D01*
X188774819Y-70476190D02*
X188822438Y-70380952D01*
X188822438Y-70380952D02*
X188870057Y-70333333D01*
X188870057Y-70333333D02*
X188965295Y-70285714D01*
X188965295Y-70285714D02*
X189155771Y-70238095D01*
X189155771Y-70238095D02*
X189393866Y-70238095D01*
X189393866Y-70238095D02*
X189584342Y-70285714D01*
X189584342Y-70285714D02*
X189679580Y-70333333D01*
X189679580Y-70333333D02*
X189727200Y-70380952D01*
X189727200Y-70380952D02*
X189774819Y-70476190D01*
X189774819Y-70476190D02*
X189774819Y-70571428D01*
X189774819Y-70571428D02*
X189727200Y-70666666D01*
X189727200Y-70666666D02*
X189679580Y-70714285D01*
X189679580Y-70714285D02*
X189584342Y-70761904D01*
X189584342Y-70761904D02*
X189393866Y-70809523D01*
X189393866Y-70809523D02*
X189155771Y-70809523D01*
X189155771Y-70809523D02*
X188965295Y-70761904D01*
X188965295Y-70761904D02*
X188870057Y-70714285D01*
X188870057Y-70714285D02*
X188822438Y-70666666D01*
X188822438Y-70666666D02*
X188774819Y-70571428D01*
X198953333Y-107904819D02*
X198620000Y-107428628D01*
X198381905Y-107904819D02*
X198381905Y-106904819D01*
X198381905Y-106904819D02*
X198762857Y-106904819D01*
X198762857Y-106904819D02*
X198858095Y-106952438D01*
X198858095Y-106952438D02*
X198905714Y-107000057D01*
X198905714Y-107000057D02*
X198953333Y-107095295D01*
X198953333Y-107095295D02*
X198953333Y-107238152D01*
X198953333Y-107238152D02*
X198905714Y-107333390D01*
X198905714Y-107333390D02*
X198858095Y-107381009D01*
X198858095Y-107381009D02*
X198762857Y-107428628D01*
X198762857Y-107428628D02*
X198381905Y-107428628D01*
X199810476Y-107238152D02*
X199810476Y-107904819D01*
X199572381Y-106857200D02*
X199334286Y-107571485D01*
X199334286Y-107571485D02*
X199953333Y-107571485D01*
X209807200Y-96161904D02*
X209854819Y-96019047D01*
X209854819Y-96019047D02*
X209854819Y-95780952D01*
X209854819Y-95780952D02*
X209807200Y-95685714D01*
X209807200Y-95685714D02*
X209759580Y-95638095D01*
X209759580Y-95638095D02*
X209664342Y-95590476D01*
X209664342Y-95590476D02*
X209569104Y-95590476D01*
X209569104Y-95590476D02*
X209473866Y-95638095D01*
X209473866Y-95638095D02*
X209426247Y-95685714D01*
X209426247Y-95685714D02*
X209378628Y-95780952D01*
X209378628Y-95780952D02*
X209331009Y-95971428D01*
X209331009Y-95971428D02*
X209283390Y-96066666D01*
X209283390Y-96066666D02*
X209235771Y-96114285D01*
X209235771Y-96114285D02*
X209140533Y-96161904D01*
X209140533Y-96161904D02*
X209045295Y-96161904D01*
X209045295Y-96161904D02*
X208950057Y-96114285D01*
X208950057Y-96114285D02*
X208902438Y-96066666D01*
X208902438Y-96066666D02*
X208854819Y-95971428D01*
X208854819Y-95971428D02*
X208854819Y-95733333D01*
X208854819Y-95733333D02*
X208902438Y-95590476D01*
X209854819Y-94638095D02*
X209854819Y-95209523D01*
X209854819Y-94923809D02*
X208854819Y-94923809D01*
X208854819Y-94923809D02*
X208997676Y-95019047D01*
X208997676Y-95019047D02*
X209092914Y-95114285D01*
X209092914Y-95114285D02*
X209140533Y-95209523D01*
X181004819Y-88442857D02*
X180528628Y-88776190D01*
X181004819Y-89014285D02*
X180004819Y-89014285D01*
X180004819Y-89014285D02*
X180004819Y-88633333D01*
X180004819Y-88633333D02*
X180052438Y-88538095D01*
X180052438Y-88538095D02*
X180100057Y-88490476D01*
X180100057Y-88490476D02*
X180195295Y-88442857D01*
X180195295Y-88442857D02*
X180338152Y-88442857D01*
X180338152Y-88442857D02*
X180433390Y-88490476D01*
X180433390Y-88490476D02*
X180481009Y-88538095D01*
X180481009Y-88538095D02*
X180528628Y-88633333D01*
X180528628Y-88633333D02*
X180528628Y-89014285D01*
X181004819Y-87490476D02*
X181004819Y-88061904D01*
X181004819Y-87776190D02*
X180004819Y-87776190D01*
X180004819Y-87776190D02*
X180147676Y-87871428D01*
X180147676Y-87871428D02*
X180242914Y-87966666D01*
X180242914Y-87966666D02*
X180290533Y-88061904D01*
X180100057Y-87109523D02*
X180052438Y-87061904D01*
X180052438Y-87061904D02*
X180004819Y-86966666D01*
X180004819Y-86966666D02*
X180004819Y-86728571D01*
X180004819Y-86728571D02*
X180052438Y-86633333D01*
X180052438Y-86633333D02*
X180100057Y-86585714D01*
X180100057Y-86585714D02*
X180195295Y-86538095D01*
X180195295Y-86538095D02*
X180290533Y-86538095D01*
X180290533Y-86538095D02*
X180433390Y-86585714D01*
X180433390Y-86585714D02*
X181004819Y-87157142D01*
X181004819Y-87157142D02*
X181004819Y-86538095D01*
X173238095Y-80456819D02*
X173809523Y-80456819D01*
X173523809Y-81456819D02*
X173523809Y-80456819D01*
X174142857Y-81456819D02*
X174142857Y-80456819D01*
X174142857Y-80456819D02*
X174523809Y-80456819D01*
X174523809Y-80456819D02*
X174619047Y-80504438D01*
X174619047Y-80504438D02*
X174666666Y-80552057D01*
X174666666Y-80552057D02*
X174714285Y-80647295D01*
X174714285Y-80647295D02*
X174714285Y-80790152D01*
X174714285Y-80790152D02*
X174666666Y-80885390D01*
X174666666Y-80885390D02*
X174619047Y-80933009D01*
X174619047Y-80933009D02*
X174523809Y-80980628D01*
X174523809Y-80980628D02*
X174142857Y-80980628D01*
X175619047Y-80456819D02*
X175142857Y-80456819D01*
X175142857Y-80456819D02*
X175095238Y-80933009D01*
X175095238Y-80933009D02*
X175142857Y-80885390D01*
X175142857Y-80885390D02*
X175238095Y-80837771D01*
X175238095Y-80837771D02*
X175476190Y-80837771D01*
X175476190Y-80837771D02*
X175571428Y-80885390D01*
X175571428Y-80885390D02*
X175619047Y-80933009D01*
X175619047Y-80933009D02*
X175666666Y-81028247D01*
X175666666Y-81028247D02*
X175666666Y-81266342D01*
X175666666Y-81266342D02*
X175619047Y-81361580D01*
X175619047Y-81361580D02*
X175571428Y-81409200D01*
X175571428Y-81409200D02*
X175476190Y-81456819D01*
X175476190Y-81456819D02*
X175238095Y-81456819D01*
X175238095Y-81456819D02*
X175142857Y-81409200D01*
X175142857Y-81409200D02*
X175095238Y-81361580D01*
X165613333Y-71359580D02*
X165565714Y-71407200D01*
X165565714Y-71407200D02*
X165422857Y-71454819D01*
X165422857Y-71454819D02*
X165327619Y-71454819D01*
X165327619Y-71454819D02*
X165184762Y-71407200D01*
X165184762Y-71407200D02*
X165089524Y-71311961D01*
X165089524Y-71311961D02*
X165041905Y-71216723D01*
X165041905Y-71216723D02*
X164994286Y-71026247D01*
X164994286Y-71026247D02*
X164994286Y-70883390D01*
X164994286Y-70883390D02*
X165041905Y-70692914D01*
X165041905Y-70692914D02*
X165089524Y-70597676D01*
X165089524Y-70597676D02*
X165184762Y-70502438D01*
X165184762Y-70502438D02*
X165327619Y-70454819D01*
X165327619Y-70454819D02*
X165422857Y-70454819D01*
X165422857Y-70454819D02*
X165565714Y-70502438D01*
X165565714Y-70502438D02*
X165613333Y-70550057D01*
X166518095Y-70454819D02*
X166041905Y-70454819D01*
X166041905Y-70454819D02*
X165994286Y-70931009D01*
X165994286Y-70931009D02*
X166041905Y-70883390D01*
X166041905Y-70883390D02*
X166137143Y-70835771D01*
X166137143Y-70835771D02*
X166375238Y-70835771D01*
X166375238Y-70835771D02*
X166470476Y-70883390D01*
X166470476Y-70883390D02*
X166518095Y-70931009D01*
X166518095Y-70931009D02*
X166565714Y-71026247D01*
X166565714Y-71026247D02*
X166565714Y-71264342D01*
X166565714Y-71264342D02*
X166518095Y-71359580D01*
X166518095Y-71359580D02*
X166470476Y-71407200D01*
X166470476Y-71407200D02*
X166375238Y-71454819D01*
X166375238Y-71454819D02*
X166137143Y-71454819D01*
X166137143Y-71454819D02*
X166041905Y-71407200D01*
X166041905Y-71407200D02*
X165994286Y-71359580D01*
X209785714Y-59979819D02*
X209785714Y-58979819D01*
X209785714Y-58979819D02*
X210023809Y-58979819D01*
X210023809Y-58979819D02*
X210166666Y-59027438D01*
X210166666Y-59027438D02*
X210261904Y-59122676D01*
X210261904Y-59122676D02*
X210309523Y-59217914D01*
X210309523Y-59217914D02*
X210357142Y-59408390D01*
X210357142Y-59408390D02*
X210357142Y-59551247D01*
X210357142Y-59551247D02*
X210309523Y-59741723D01*
X210309523Y-59741723D02*
X210261904Y-59836961D01*
X210261904Y-59836961D02*
X210166666Y-59932200D01*
X210166666Y-59932200D02*
X210023809Y-59979819D01*
X210023809Y-59979819D02*
X209785714Y-59979819D01*
X211309523Y-59979819D02*
X210738095Y-59979819D01*
X211023809Y-59979819D02*
X211023809Y-58979819D01*
X211023809Y-58979819D02*
X210928571Y-59122676D01*
X210928571Y-59122676D02*
X210833333Y-59217914D01*
X210833333Y-59217914D02*
X210738095Y-59265533D01*
X211642857Y-58979819D02*
X212261904Y-58979819D01*
X212261904Y-58979819D02*
X211928571Y-59360771D01*
X211928571Y-59360771D02*
X212071428Y-59360771D01*
X212071428Y-59360771D02*
X212166666Y-59408390D01*
X212166666Y-59408390D02*
X212214285Y-59456009D01*
X212214285Y-59456009D02*
X212261904Y-59551247D01*
X212261904Y-59551247D02*
X212261904Y-59789342D01*
X212261904Y-59789342D02*
X212214285Y-59884580D01*
X212214285Y-59884580D02*
X212166666Y-59932200D01*
X212166666Y-59932200D02*
X212071428Y-59979819D01*
X212071428Y-59979819D02*
X211785714Y-59979819D01*
X211785714Y-59979819D02*
X211690476Y-59932200D01*
X211690476Y-59932200D02*
X211642857Y-59884580D01*
X173338095Y-102254819D02*
X173909523Y-102254819D01*
X173623809Y-103254819D02*
X173623809Y-102254819D01*
X174242857Y-103254819D02*
X174242857Y-102254819D01*
X174242857Y-102254819D02*
X174623809Y-102254819D01*
X174623809Y-102254819D02*
X174719047Y-102302438D01*
X174719047Y-102302438D02*
X174766666Y-102350057D01*
X174766666Y-102350057D02*
X174814285Y-102445295D01*
X174814285Y-102445295D02*
X174814285Y-102588152D01*
X174814285Y-102588152D02*
X174766666Y-102683390D01*
X174766666Y-102683390D02*
X174719047Y-102731009D01*
X174719047Y-102731009D02*
X174623809Y-102778628D01*
X174623809Y-102778628D02*
X174242857Y-102778628D01*
X175766666Y-103254819D02*
X175195238Y-103254819D01*
X175480952Y-103254819D02*
X175480952Y-102254819D01*
X175480952Y-102254819D02*
X175385714Y-102397676D01*
X175385714Y-102397676D02*
X175290476Y-102492914D01*
X175290476Y-102492914D02*
X175195238Y-102540533D01*
X172761905Y-71456819D02*
X173333333Y-71456819D01*
X173047619Y-72456819D02*
X173047619Y-71456819D01*
X173666667Y-72456819D02*
X173666667Y-71456819D01*
X173666667Y-71456819D02*
X174047619Y-71456819D01*
X174047619Y-71456819D02*
X174142857Y-71504438D01*
X174142857Y-71504438D02*
X174190476Y-71552057D01*
X174190476Y-71552057D02*
X174238095Y-71647295D01*
X174238095Y-71647295D02*
X174238095Y-71790152D01*
X174238095Y-71790152D02*
X174190476Y-71885390D01*
X174190476Y-71885390D02*
X174142857Y-71933009D01*
X174142857Y-71933009D02*
X174047619Y-71980628D01*
X174047619Y-71980628D02*
X173666667Y-71980628D01*
X175190476Y-72456819D02*
X174619048Y-72456819D01*
X174904762Y-72456819D02*
X174904762Y-71456819D01*
X174904762Y-71456819D02*
X174809524Y-71599676D01*
X174809524Y-71599676D02*
X174714286Y-71694914D01*
X174714286Y-71694914D02*
X174619048Y-71742533D01*
X175809524Y-71456819D02*
X175904762Y-71456819D01*
X175904762Y-71456819D02*
X176000000Y-71504438D01*
X176000000Y-71504438D02*
X176047619Y-71552057D01*
X176047619Y-71552057D02*
X176095238Y-71647295D01*
X176095238Y-71647295D02*
X176142857Y-71837771D01*
X176142857Y-71837771D02*
X176142857Y-72075866D01*
X176142857Y-72075866D02*
X176095238Y-72266342D01*
X176095238Y-72266342D02*
X176047619Y-72361580D01*
X176047619Y-72361580D02*
X176000000Y-72409200D01*
X176000000Y-72409200D02*
X175904762Y-72456819D01*
X175904762Y-72456819D02*
X175809524Y-72456819D01*
X175809524Y-72456819D02*
X175714286Y-72409200D01*
X175714286Y-72409200D02*
X175666667Y-72361580D01*
X175666667Y-72361580D02*
X175619048Y-72266342D01*
X175619048Y-72266342D02*
X175571429Y-72075866D01*
X175571429Y-72075866D02*
X175571429Y-71837771D01*
X175571429Y-71837771D02*
X175619048Y-71647295D01*
X175619048Y-71647295D02*
X175666667Y-71552057D01*
X175666667Y-71552057D02*
X175714286Y-71504438D01*
X175714286Y-71504438D02*
X175809524Y-71456819D01*
X160433333Y-58084819D02*
X159957143Y-58084819D01*
X159957143Y-58084819D02*
X159957143Y-57084819D01*
X160719048Y-57180057D02*
X160766667Y-57132438D01*
X160766667Y-57132438D02*
X160861905Y-57084819D01*
X160861905Y-57084819D02*
X161100000Y-57084819D01*
X161100000Y-57084819D02*
X161195238Y-57132438D01*
X161195238Y-57132438D02*
X161242857Y-57180057D01*
X161242857Y-57180057D02*
X161290476Y-57275295D01*
X161290476Y-57275295D02*
X161290476Y-57370533D01*
X161290476Y-57370533D02*
X161242857Y-57513390D01*
X161242857Y-57513390D02*
X160671429Y-58084819D01*
X160671429Y-58084819D02*
X161290476Y-58084819D01*
X193552380Y-111654819D02*
X193219047Y-111178628D01*
X192980952Y-111654819D02*
X192980952Y-110654819D01*
X192980952Y-110654819D02*
X193361904Y-110654819D01*
X193361904Y-110654819D02*
X193457142Y-110702438D01*
X193457142Y-110702438D02*
X193504761Y-110750057D01*
X193504761Y-110750057D02*
X193552380Y-110845295D01*
X193552380Y-110845295D02*
X193552380Y-110988152D01*
X193552380Y-110988152D02*
X193504761Y-111083390D01*
X193504761Y-111083390D02*
X193457142Y-111131009D01*
X193457142Y-111131009D02*
X193361904Y-111178628D01*
X193361904Y-111178628D02*
X192980952Y-111178628D01*
X193980952Y-111131009D02*
X194314285Y-111131009D01*
X194457142Y-111654819D02*
X193980952Y-111654819D01*
X193980952Y-111654819D02*
X193980952Y-110654819D01*
X193980952Y-110654819D02*
X194457142Y-110654819D01*
X195219047Y-111131009D02*
X194885714Y-111131009D01*
X194885714Y-111654819D02*
X194885714Y-110654819D01*
X194885714Y-110654819D02*
X195361904Y-110654819D01*
X195695238Y-110750057D02*
X195742857Y-110702438D01*
X195742857Y-110702438D02*
X195838095Y-110654819D01*
X195838095Y-110654819D02*
X196076190Y-110654819D01*
X196076190Y-110654819D02*
X196171428Y-110702438D01*
X196171428Y-110702438D02*
X196219047Y-110750057D01*
X196219047Y-110750057D02*
X196266666Y-110845295D01*
X196266666Y-110845295D02*
X196266666Y-110940533D01*
X196266666Y-110940533D02*
X196219047Y-111083390D01*
X196219047Y-111083390D02*
X195647619Y-111654819D01*
X195647619Y-111654819D02*
X196266666Y-111654819D01*
X158454819Y-103209523D02*
X157454819Y-103209523D01*
X157454819Y-103209523D02*
X158169104Y-102876190D01*
X158169104Y-102876190D02*
X157454819Y-102542857D01*
X157454819Y-102542857D02*
X158454819Y-102542857D01*
X157454819Y-101638095D02*
X157454819Y-101828571D01*
X157454819Y-101828571D02*
X157502438Y-101923809D01*
X157502438Y-101923809D02*
X157550057Y-101971428D01*
X157550057Y-101971428D02*
X157692914Y-102066666D01*
X157692914Y-102066666D02*
X157883390Y-102114285D01*
X157883390Y-102114285D02*
X158264342Y-102114285D01*
X158264342Y-102114285D02*
X158359580Y-102066666D01*
X158359580Y-102066666D02*
X158407200Y-102019047D01*
X158407200Y-102019047D02*
X158454819Y-101923809D01*
X158454819Y-101923809D02*
X158454819Y-101733333D01*
X158454819Y-101733333D02*
X158407200Y-101638095D01*
X158407200Y-101638095D02*
X158359580Y-101590476D01*
X158359580Y-101590476D02*
X158264342Y-101542857D01*
X158264342Y-101542857D02*
X158026247Y-101542857D01*
X158026247Y-101542857D02*
X157931009Y-101590476D01*
X157931009Y-101590476D02*
X157883390Y-101638095D01*
X157883390Y-101638095D02*
X157835771Y-101733333D01*
X157835771Y-101733333D02*
X157835771Y-101923809D01*
X157835771Y-101923809D02*
X157883390Y-102019047D01*
X157883390Y-102019047D02*
X157931009Y-102066666D01*
X157931009Y-102066666D02*
X158026247Y-102114285D01*
X169961905Y-101454819D02*
X169961905Y-102264342D01*
X169961905Y-102264342D02*
X170009524Y-102359580D01*
X170009524Y-102359580D02*
X170057143Y-102407200D01*
X170057143Y-102407200D02*
X170152381Y-102454819D01*
X170152381Y-102454819D02*
X170342857Y-102454819D01*
X170342857Y-102454819D02*
X170438095Y-102407200D01*
X170438095Y-102407200D02*
X170485714Y-102359580D01*
X170485714Y-102359580D02*
X170533333Y-102264342D01*
X170533333Y-102264342D02*
X170533333Y-101454819D01*
X171533333Y-102454819D02*
X170961905Y-102454819D01*
X171247619Y-102454819D02*
X171247619Y-101454819D01*
X171247619Y-101454819D02*
X171152381Y-101597676D01*
X171152381Y-101597676D02*
X171057143Y-101692914D01*
X171057143Y-101692914D02*
X170961905Y-101740533D01*
X171866667Y-101454819D02*
X172485714Y-101454819D01*
X172485714Y-101454819D02*
X172152381Y-101835771D01*
X172152381Y-101835771D02*
X172295238Y-101835771D01*
X172295238Y-101835771D02*
X172390476Y-101883390D01*
X172390476Y-101883390D02*
X172438095Y-101931009D01*
X172438095Y-101931009D02*
X172485714Y-102026247D01*
X172485714Y-102026247D02*
X172485714Y-102264342D01*
X172485714Y-102264342D02*
X172438095Y-102359580D01*
X172438095Y-102359580D02*
X172390476Y-102407200D01*
X172390476Y-102407200D02*
X172295238Y-102454819D01*
X172295238Y-102454819D02*
X172009524Y-102454819D01*
X172009524Y-102454819D02*
X171914286Y-102407200D01*
X171914286Y-102407200D02*
X171866667Y-102359580D01*
X199738095Y-68954819D02*
X199738095Y-69764342D01*
X199738095Y-69764342D02*
X199785714Y-69859580D01*
X199785714Y-69859580D02*
X199833333Y-69907200D01*
X199833333Y-69907200D02*
X199928571Y-69954819D01*
X199928571Y-69954819D02*
X200119047Y-69954819D01*
X200119047Y-69954819D02*
X200214285Y-69907200D01*
X200214285Y-69907200D02*
X200261904Y-69859580D01*
X200261904Y-69859580D02*
X200309523Y-69764342D01*
X200309523Y-69764342D02*
X200309523Y-68954819D01*
X200833333Y-69954819D02*
X201023809Y-69954819D01*
X201023809Y-69954819D02*
X201119047Y-69907200D01*
X201119047Y-69907200D02*
X201166666Y-69859580D01*
X201166666Y-69859580D02*
X201261904Y-69716723D01*
X201261904Y-69716723D02*
X201309523Y-69526247D01*
X201309523Y-69526247D02*
X201309523Y-69145295D01*
X201309523Y-69145295D02*
X201261904Y-69050057D01*
X201261904Y-69050057D02*
X201214285Y-69002438D01*
X201214285Y-69002438D02*
X201119047Y-68954819D01*
X201119047Y-68954819D02*
X200928571Y-68954819D01*
X200928571Y-68954819D02*
X200833333Y-69002438D01*
X200833333Y-69002438D02*
X200785714Y-69050057D01*
X200785714Y-69050057D02*
X200738095Y-69145295D01*
X200738095Y-69145295D02*
X200738095Y-69383390D01*
X200738095Y-69383390D02*
X200785714Y-69478628D01*
X200785714Y-69478628D02*
X200833333Y-69526247D01*
X200833333Y-69526247D02*
X200928571Y-69573866D01*
X200928571Y-69573866D02*
X201119047Y-69573866D01*
X201119047Y-69573866D02*
X201214285Y-69526247D01*
X201214285Y-69526247D02*
X201261904Y-69478628D01*
X201261904Y-69478628D02*
X201309523Y-69383390D01*
X210007200Y-102761904D02*
X210054819Y-102619047D01*
X210054819Y-102619047D02*
X210054819Y-102380952D01*
X210054819Y-102380952D02*
X210007200Y-102285714D01*
X210007200Y-102285714D02*
X209959580Y-102238095D01*
X209959580Y-102238095D02*
X209864342Y-102190476D01*
X209864342Y-102190476D02*
X209769104Y-102190476D01*
X209769104Y-102190476D02*
X209673866Y-102238095D01*
X209673866Y-102238095D02*
X209626247Y-102285714D01*
X209626247Y-102285714D02*
X209578628Y-102380952D01*
X209578628Y-102380952D02*
X209531009Y-102571428D01*
X209531009Y-102571428D02*
X209483390Y-102666666D01*
X209483390Y-102666666D02*
X209435771Y-102714285D01*
X209435771Y-102714285D02*
X209340533Y-102761904D01*
X209340533Y-102761904D02*
X209245295Y-102761904D01*
X209245295Y-102761904D02*
X209150057Y-102714285D01*
X209150057Y-102714285D02*
X209102438Y-102666666D01*
X209102438Y-102666666D02*
X209054819Y-102571428D01*
X209054819Y-102571428D02*
X209054819Y-102333333D01*
X209054819Y-102333333D02*
X209102438Y-102190476D01*
X209150057Y-101809523D02*
X209102438Y-101761904D01*
X209102438Y-101761904D02*
X209054819Y-101666666D01*
X209054819Y-101666666D02*
X209054819Y-101428571D01*
X209054819Y-101428571D02*
X209102438Y-101333333D01*
X209102438Y-101333333D02*
X209150057Y-101285714D01*
X209150057Y-101285714D02*
X209245295Y-101238095D01*
X209245295Y-101238095D02*
X209340533Y-101238095D01*
X209340533Y-101238095D02*
X209483390Y-101285714D01*
X209483390Y-101285714D02*
X210054819Y-101857142D01*
X210054819Y-101857142D02*
X210054819Y-101238095D01*
X158454819Y-96009523D02*
X157454819Y-96009523D01*
X157454819Y-96009523D02*
X158169104Y-95676190D01*
X158169104Y-95676190D02*
X157454819Y-95342857D01*
X157454819Y-95342857D02*
X158454819Y-95342857D01*
X157454819Y-94961904D02*
X157454819Y-94295238D01*
X157454819Y-94295238D02*
X158454819Y-94723809D01*
X173238095Y-90456819D02*
X173809523Y-90456819D01*
X173523809Y-91456819D02*
X173523809Y-90456819D01*
X174142857Y-91456819D02*
X174142857Y-90456819D01*
X174142857Y-90456819D02*
X174523809Y-90456819D01*
X174523809Y-90456819D02*
X174619047Y-90504438D01*
X174619047Y-90504438D02*
X174666666Y-90552057D01*
X174666666Y-90552057D02*
X174714285Y-90647295D01*
X174714285Y-90647295D02*
X174714285Y-90790152D01*
X174714285Y-90790152D02*
X174666666Y-90885390D01*
X174666666Y-90885390D02*
X174619047Y-90933009D01*
X174619047Y-90933009D02*
X174523809Y-90980628D01*
X174523809Y-90980628D02*
X174142857Y-90980628D01*
X175047619Y-90456819D02*
X175666666Y-90456819D01*
X175666666Y-90456819D02*
X175333333Y-90837771D01*
X175333333Y-90837771D02*
X175476190Y-90837771D01*
X175476190Y-90837771D02*
X175571428Y-90885390D01*
X175571428Y-90885390D02*
X175619047Y-90933009D01*
X175619047Y-90933009D02*
X175666666Y-91028247D01*
X175666666Y-91028247D02*
X175666666Y-91266342D01*
X175666666Y-91266342D02*
X175619047Y-91361580D01*
X175619047Y-91361580D02*
X175571428Y-91409200D01*
X175571428Y-91409200D02*
X175476190Y-91456819D01*
X175476190Y-91456819D02*
X175190476Y-91456819D01*
X175190476Y-91456819D02*
X175095238Y-91409200D01*
X175095238Y-91409200D02*
X175047619Y-91361580D01*
X159390476Y-114054819D02*
X159390476Y-113054819D01*
X159390476Y-113054819D02*
X159723809Y-113769104D01*
X159723809Y-113769104D02*
X160057142Y-113054819D01*
X160057142Y-113054819D02*
X160057142Y-114054819D01*
X161009523Y-113054819D02*
X160533333Y-113054819D01*
X160533333Y-113054819D02*
X160485714Y-113531009D01*
X160485714Y-113531009D02*
X160533333Y-113483390D01*
X160533333Y-113483390D02*
X160628571Y-113435771D01*
X160628571Y-113435771D02*
X160866666Y-113435771D01*
X160866666Y-113435771D02*
X160961904Y-113483390D01*
X160961904Y-113483390D02*
X161009523Y-113531009D01*
X161009523Y-113531009D02*
X161057142Y-113626247D01*
X161057142Y-113626247D02*
X161057142Y-113864342D01*
X161057142Y-113864342D02*
X161009523Y-113959580D01*
X161009523Y-113959580D02*
X160961904Y-114007200D01*
X160961904Y-114007200D02*
X160866666Y-114054819D01*
X160866666Y-114054819D02*
X160628571Y-114054819D01*
X160628571Y-114054819D02*
X160533333Y-114007200D01*
X160533333Y-114007200D02*
X160485714Y-113959580D01*
X161909819Y-76714285D02*
X160909819Y-76714285D01*
X160909819Y-76714285D02*
X160909819Y-76476190D01*
X160909819Y-76476190D02*
X160957438Y-76333333D01*
X160957438Y-76333333D02*
X161052676Y-76238095D01*
X161052676Y-76238095D02*
X161147914Y-76190476D01*
X161147914Y-76190476D02*
X161338390Y-76142857D01*
X161338390Y-76142857D02*
X161481247Y-76142857D01*
X161481247Y-76142857D02*
X161671723Y-76190476D01*
X161671723Y-76190476D02*
X161766961Y-76238095D01*
X161766961Y-76238095D02*
X161862200Y-76333333D01*
X161862200Y-76333333D02*
X161909819Y-76476190D01*
X161909819Y-76476190D02*
X161909819Y-76714285D01*
X161909819Y-75190476D02*
X161909819Y-75761904D01*
X161909819Y-75476190D02*
X160909819Y-75476190D01*
X160909819Y-75476190D02*
X161052676Y-75571428D01*
X161052676Y-75571428D02*
X161147914Y-75666666D01*
X161147914Y-75666666D02*
X161195533Y-75761904D01*
X161909819Y-74238095D02*
X161909819Y-74809523D01*
X161909819Y-74523809D02*
X160909819Y-74523809D01*
X160909819Y-74523809D02*
X161052676Y-74619047D01*
X161052676Y-74619047D02*
X161147914Y-74714285D01*
X161147914Y-74714285D02*
X161195533Y-74809523D01*
X186704819Y-88442857D02*
X186228628Y-88776190D01*
X186704819Y-89014285D02*
X185704819Y-89014285D01*
X185704819Y-89014285D02*
X185704819Y-88633333D01*
X185704819Y-88633333D02*
X185752438Y-88538095D01*
X185752438Y-88538095D02*
X185800057Y-88490476D01*
X185800057Y-88490476D02*
X185895295Y-88442857D01*
X185895295Y-88442857D02*
X186038152Y-88442857D01*
X186038152Y-88442857D02*
X186133390Y-88490476D01*
X186133390Y-88490476D02*
X186181009Y-88538095D01*
X186181009Y-88538095D02*
X186228628Y-88633333D01*
X186228628Y-88633333D02*
X186228628Y-89014285D01*
X186704819Y-87490476D02*
X186704819Y-88061904D01*
X186704819Y-87776190D02*
X185704819Y-87776190D01*
X185704819Y-87776190D02*
X185847676Y-87871428D01*
X185847676Y-87871428D02*
X185942914Y-87966666D01*
X185942914Y-87966666D02*
X185990533Y-88061904D01*
X185704819Y-87157142D02*
X185704819Y-86538095D01*
X185704819Y-86538095D02*
X186085771Y-86871428D01*
X186085771Y-86871428D02*
X186085771Y-86728571D01*
X186085771Y-86728571D02*
X186133390Y-86633333D01*
X186133390Y-86633333D02*
X186181009Y-86585714D01*
X186181009Y-86585714D02*
X186276247Y-86538095D01*
X186276247Y-86538095D02*
X186514342Y-86538095D01*
X186514342Y-86538095D02*
X186609580Y-86585714D01*
X186609580Y-86585714D02*
X186657200Y-86633333D01*
X186657200Y-86633333D02*
X186704819Y-86728571D01*
X186704819Y-86728571D02*
X186704819Y-87014285D01*
X186704819Y-87014285D02*
X186657200Y-87109523D01*
X186657200Y-87109523D02*
X186609580Y-87157142D01*
X199454819Y-85442857D02*
X198978628Y-85776190D01*
X199454819Y-86014285D02*
X198454819Y-86014285D01*
X198454819Y-86014285D02*
X198454819Y-85633333D01*
X198454819Y-85633333D02*
X198502438Y-85538095D01*
X198502438Y-85538095D02*
X198550057Y-85490476D01*
X198550057Y-85490476D02*
X198645295Y-85442857D01*
X198645295Y-85442857D02*
X198788152Y-85442857D01*
X198788152Y-85442857D02*
X198883390Y-85490476D01*
X198883390Y-85490476D02*
X198931009Y-85538095D01*
X198931009Y-85538095D02*
X198978628Y-85633333D01*
X198978628Y-85633333D02*
X198978628Y-86014285D01*
X199454819Y-84490476D02*
X199454819Y-85061904D01*
X199454819Y-84776190D02*
X198454819Y-84776190D01*
X198454819Y-84776190D02*
X198597676Y-84871428D01*
X198597676Y-84871428D02*
X198692914Y-84966666D01*
X198692914Y-84966666D02*
X198740533Y-85061904D01*
X198788152Y-83633333D02*
X199454819Y-83633333D01*
X198407200Y-83871428D02*
X199121485Y-84109523D01*
X199121485Y-84109523D02*
X199121485Y-83490476D01*
X183161905Y-57769104D02*
X183638095Y-57769104D01*
X183066667Y-58054819D02*
X183400000Y-57054819D01*
X183400000Y-57054819D02*
X183733333Y-58054819D01*
X184066667Y-58054819D02*
X184066667Y-57054819D01*
X184066667Y-57054819D02*
X184447619Y-57054819D01*
X184447619Y-57054819D02*
X184542857Y-57102438D01*
X184542857Y-57102438D02*
X184590476Y-57150057D01*
X184590476Y-57150057D02*
X184638095Y-57245295D01*
X184638095Y-57245295D02*
X184638095Y-57388152D01*
X184638095Y-57388152D02*
X184590476Y-57483390D01*
X184590476Y-57483390D02*
X184542857Y-57531009D01*
X184542857Y-57531009D02*
X184447619Y-57578628D01*
X184447619Y-57578628D02*
X184066667Y-57578628D01*
X184971429Y-57054819D02*
X185638095Y-57054819D01*
X185638095Y-57054819D02*
X185209524Y-58054819D01*
X185923810Y-57054819D02*
X186542857Y-57054819D01*
X186542857Y-57054819D02*
X186209524Y-57435771D01*
X186209524Y-57435771D02*
X186352381Y-57435771D01*
X186352381Y-57435771D02*
X186447619Y-57483390D01*
X186447619Y-57483390D02*
X186495238Y-57531009D01*
X186495238Y-57531009D02*
X186542857Y-57626247D01*
X186542857Y-57626247D02*
X186542857Y-57864342D01*
X186542857Y-57864342D02*
X186495238Y-57959580D01*
X186495238Y-57959580D02*
X186447619Y-58007200D01*
X186447619Y-58007200D02*
X186352381Y-58054819D01*
X186352381Y-58054819D02*
X186066667Y-58054819D01*
X186066667Y-58054819D02*
X185971429Y-58007200D01*
X185971429Y-58007200D02*
X185923810Y-57959580D01*
X187400000Y-57054819D02*
X187209524Y-57054819D01*
X187209524Y-57054819D02*
X187114286Y-57102438D01*
X187114286Y-57102438D02*
X187066667Y-57150057D01*
X187066667Y-57150057D02*
X186971429Y-57292914D01*
X186971429Y-57292914D02*
X186923810Y-57483390D01*
X186923810Y-57483390D02*
X186923810Y-57864342D01*
X186923810Y-57864342D02*
X186971429Y-57959580D01*
X186971429Y-57959580D02*
X187019048Y-58007200D01*
X187019048Y-58007200D02*
X187114286Y-58054819D01*
X187114286Y-58054819D02*
X187304762Y-58054819D01*
X187304762Y-58054819D02*
X187400000Y-58007200D01*
X187400000Y-58007200D02*
X187447619Y-57959580D01*
X187447619Y-57959580D02*
X187495238Y-57864342D01*
X187495238Y-57864342D02*
X187495238Y-57626247D01*
X187495238Y-57626247D02*
X187447619Y-57531009D01*
X187447619Y-57531009D02*
X187400000Y-57483390D01*
X187400000Y-57483390D02*
X187304762Y-57435771D01*
X187304762Y-57435771D02*
X187114286Y-57435771D01*
X187114286Y-57435771D02*
X187019048Y-57483390D01*
X187019048Y-57483390D02*
X186971429Y-57531009D01*
X186971429Y-57531009D02*
X186923810Y-57626247D01*
X188352381Y-57054819D02*
X188161905Y-57054819D01*
X188161905Y-57054819D02*
X188066667Y-57102438D01*
X188066667Y-57102438D02*
X188019048Y-57150057D01*
X188019048Y-57150057D02*
X187923810Y-57292914D01*
X187923810Y-57292914D02*
X187876191Y-57483390D01*
X187876191Y-57483390D02*
X187876191Y-57864342D01*
X187876191Y-57864342D02*
X187923810Y-57959580D01*
X187923810Y-57959580D02*
X187971429Y-58007200D01*
X187971429Y-58007200D02*
X188066667Y-58054819D01*
X188066667Y-58054819D02*
X188257143Y-58054819D01*
X188257143Y-58054819D02*
X188352381Y-58007200D01*
X188352381Y-58007200D02*
X188400000Y-57959580D01*
X188400000Y-57959580D02*
X188447619Y-57864342D01*
X188447619Y-57864342D02*
X188447619Y-57626247D01*
X188447619Y-57626247D02*
X188400000Y-57531009D01*
X188400000Y-57531009D02*
X188352381Y-57483390D01*
X188352381Y-57483390D02*
X188257143Y-57435771D01*
X188257143Y-57435771D02*
X188066667Y-57435771D01*
X188066667Y-57435771D02*
X187971429Y-57483390D01*
X187971429Y-57483390D02*
X187923810Y-57531009D01*
X187923810Y-57531009D02*
X187876191Y-57626247D01*
X188876191Y-57531009D02*
X189209524Y-57531009D01*
X189352381Y-58054819D02*
X188876191Y-58054819D01*
X188876191Y-58054819D02*
X188876191Y-57054819D01*
X188876191Y-57054819D02*
X189352381Y-57054819D01*
X189733334Y-57769104D02*
X190209524Y-57769104D01*
X189638096Y-58054819D02*
X189971429Y-57054819D01*
X189971429Y-57054819D02*
X190304762Y-58054819D01*
X190638096Y-57673866D02*
X191400001Y-57673866D01*
X191780953Y-57054819D02*
X192400000Y-57054819D01*
X192400000Y-57054819D02*
X192066667Y-57435771D01*
X192066667Y-57435771D02*
X192209524Y-57435771D01*
X192209524Y-57435771D02*
X192304762Y-57483390D01*
X192304762Y-57483390D02*
X192352381Y-57531009D01*
X192352381Y-57531009D02*
X192400000Y-57626247D01*
X192400000Y-57626247D02*
X192400000Y-57864342D01*
X192400000Y-57864342D02*
X192352381Y-57959580D01*
X192352381Y-57959580D02*
X192304762Y-58007200D01*
X192304762Y-58007200D02*
X192209524Y-58054819D01*
X192209524Y-58054819D02*
X191923810Y-58054819D01*
X191923810Y-58054819D02*
X191828572Y-58007200D01*
X191828572Y-58007200D02*
X191780953Y-57959580D01*
X192733334Y-57054819D02*
X193352381Y-57054819D01*
X193352381Y-57054819D02*
X193019048Y-57435771D01*
X193019048Y-57435771D02*
X193161905Y-57435771D01*
X193161905Y-57435771D02*
X193257143Y-57483390D01*
X193257143Y-57483390D02*
X193304762Y-57531009D01*
X193304762Y-57531009D02*
X193352381Y-57626247D01*
X193352381Y-57626247D02*
X193352381Y-57864342D01*
X193352381Y-57864342D02*
X193304762Y-57959580D01*
X193304762Y-57959580D02*
X193257143Y-58007200D01*
X193257143Y-58007200D02*
X193161905Y-58054819D01*
X193161905Y-58054819D02*
X192876191Y-58054819D01*
X192876191Y-58054819D02*
X192780953Y-58007200D01*
X192780953Y-58007200D02*
X192733334Y-57959580D01*
X193685715Y-57054819D02*
X193923810Y-58054819D01*
X193923810Y-58054819D02*
X194114286Y-57340533D01*
X194114286Y-57340533D02*
X194304762Y-58054819D01*
X194304762Y-58054819D02*
X194542858Y-57054819D01*
X195400000Y-57054819D02*
X194923810Y-57054819D01*
X194923810Y-57054819D02*
X194876191Y-57531009D01*
X194876191Y-57531009D02*
X194923810Y-57483390D01*
X194923810Y-57483390D02*
X195019048Y-57435771D01*
X195019048Y-57435771D02*
X195257143Y-57435771D01*
X195257143Y-57435771D02*
X195352381Y-57483390D01*
X195352381Y-57483390D02*
X195400000Y-57531009D01*
X195400000Y-57531009D02*
X195447619Y-57626247D01*
X195447619Y-57626247D02*
X195447619Y-57864342D01*
X195447619Y-57864342D02*
X195400000Y-57959580D01*
X195400000Y-57959580D02*
X195352381Y-58007200D01*
X195352381Y-58007200D02*
X195257143Y-58054819D01*
X195257143Y-58054819D02*
X195019048Y-58054819D01*
X195019048Y-58054819D02*
X194923810Y-58007200D01*
X194923810Y-58007200D02*
X194876191Y-57959580D01*
X195876191Y-57673866D02*
X196638096Y-57673866D01*
X197019048Y-57054819D02*
X197685714Y-57054819D01*
X197685714Y-57054819D02*
X197257143Y-58054819D01*
X199466666Y-57054819D02*
X199466666Y-57769104D01*
X199466666Y-57769104D02*
X199419047Y-57911961D01*
X199419047Y-57911961D02*
X199323809Y-58007200D01*
X199323809Y-58007200D02*
X199180952Y-58054819D01*
X199180952Y-58054819D02*
X199085714Y-58054819D01*
X200466666Y-58054819D02*
X199895238Y-58054819D01*
X200180952Y-58054819D02*
X200180952Y-57054819D01*
X200180952Y-57054819D02*
X200085714Y-57197676D01*
X200085714Y-57197676D02*
X199990476Y-57292914D01*
X199990476Y-57292914D02*
X199895238Y-57340533D01*
X173238095Y-85956819D02*
X173809523Y-85956819D01*
X173523809Y-86956819D02*
X173523809Y-85956819D01*
X174142857Y-86956819D02*
X174142857Y-85956819D01*
X174142857Y-85956819D02*
X174523809Y-85956819D01*
X174523809Y-85956819D02*
X174619047Y-86004438D01*
X174619047Y-86004438D02*
X174666666Y-86052057D01*
X174666666Y-86052057D02*
X174714285Y-86147295D01*
X174714285Y-86147295D02*
X174714285Y-86290152D01*
X174714285Y-86290152D02*
X174666666Y-86385390D01*
X174666666Y-86385390D02*
X174619047Y-86433009D01*
X174619047Y-86433009D02*
X174523809Y-86480628D01*
X174523809Y-86480628D02*
X174142857Y-86480628D01*
X175571428Y-86290152D02*
X175571428Y-86956819D01*
X175333333Y-85909200D02*
X175095238Y-86623485D01*
X175095238Y-86623485D02*
X175714285Y-86623485D01*
X217752380Y-71054819D02*
X217419047Y-70578628D01*
X217180952Y-71054819D02*
X217180952Y-70054819D01*
X217180952Y-70054819D02*
X217561904Y-70054819D01*
X217561904Y-70054819D02*
X217657142Y-70102438D01*
X217657142Y-70102438D02*
X217704761Y-70150057D01*
X217704761Y-70150057D02*
X217752380Y-70245295D01*
X217752380Y-70245295D02*
X217752380Y-70388152D01*
X217752380Y-70388152D02*
X217704761Y-70483390D01*
X217704761Y-70483390D02*
X217657142Y-70531009D01*
X217657142Y-70531009D02*
X217561904Y-70578628D01*
X217561904Y-70578628D02*
X217180952Y-70578628D01*
X218180952Y-70531009D02*
X218514285Y-70531009D01*
X218657142Y-71054819D02*
X218180952Y-71054819D01*
X218180952Y-71054819D02*
X218180952Y-70054819D01*
X218180952Y-70054819D02*
X218657142Y-70054819D01*
X219419047Y-70531009D02*
X219085714Y-70531009D01*
X219085714Y-71054819D02*
X219085714Y-70054819D01*
X219085714Y-70054819D02*
X219561904Y-70054819D01*
X220371428Y-70388152D02*
X220371428Y-71054819D01*
X220133333Y-70007200D02*
X219895238Y-70721485D01*
X219895238Y-70721485D02*
X220514285Y-70721485D01*
X182704819Y-74242857D02*
X182228628Y-74576190D01*
X182704819Y-74814285D02*
X181704819Y-74814285D01*
X181704819Y-74814285D02*
X181704819Y-74433333D01*
X181704819Y-74433333D02*
X181752438Y-74338095D01*
X181752438Y-74338095D02*
X181800057Y-74290476D01*
X181800057Y-74290476D02*
X181895295Y-74242857D01*
X181895295Y-74242857D02*
X182038152Y-74242857D01*
X182038152Y-74242857D02*
X182133390Y-74290476D01*
X182133390Y-74290476D02*
X182181009Y-74338095D01*
X182181009Y-74338095D02*
X182228628Y-74433333D01*
X182228628Y-74433333D02*
X182228628Y-74814285D01*
X182704819Y-73290476D02*
X182704819Y-73861904D01*
X182704819Y-73576190D02*
X181704819Y-73576190D01*
X181704819Y-73576190D02*
X181847676Y-73671428D01*
X181847676Y-73671428D02*
X181942914Y-73766666D01*
X181942914Y-73766666D02*
X181990533Y-73861904D01*
X182704819Y-72338095D02*
X182704819Y-72909523D01*
X182704819Y-72623809D02*
X181704819Y-72623809D01*
X181704819Y-72623809D02*
X181847676Y-72719047D01*
X181847676Y-72719047D02*
X181942914Y-72814285D01*
X181942914Y-72814285D02*
X181990533Y-72909523D01*
X163757142Y-101559580D02*
X163709523Y-101607200D01*
X163709523Y-101607200D02*
X163566666Y-101654819D01*
X163566666Y-101654819D02*
X163471428Y-101654819D01*
X163471428Y-101654819D02*
X163328571Y-101607200D01*
X163328571Y-101607200D02*
X163233333Y-101511961D01*
X163233333Y-101511961D02*
X163185714Y-101416723D01*
X163185714Y-101416723D02*
X163138095Y-101226247D01*
X163138095Y-101226247D02*
X163138095Y-101083390D01*
X163138095Y-101083390D02*
X163185714Y-100892914D01*
X163185714Y-100892914D02*
X163233333Y-100797676D01*
X163233333Y-100797676D02*
X163328571Y-100702438D01*
X163328571Y-100702438D02*
X163471428Y-100654819D01*
X163471428Y-100654819D02*
X163566666Y-100654819D01*
X163566666Y-100654819D02*
X163709523Y-100702438D01*
X163709523Y-100702438D02*
X163757142Y-100750057D01*
X164709523Y-101654819D02*
X164138095Y-101654819D01*
X164423809Y-101654819D02*
X164423809Y-100654819D01*
X164423809Y-100654819D02*
X164328571Y-100797676D01*
X164328571Y-100797676D02*
X164233333Y-100892914D01*
X164233333Y-100892914D02*
X164138095Y-100940533D01*
X165566666Y-100654819D02*
X165376190Y-100654819D01*
X165376190Y-100654819D02*
X165280952Y-100702438D01*
X165280952Y-100702438D02*
X165233333Y-100750057D01*
X165233333Y-100750057D02*
X165138095Y-100892914D01*
X165138095Y-100892914D02*
X165090476Y-101083390D01*
X165090476Y-101083390D02*
X165090476Y-101464342D01*
X165090476Y-101464342D02*
X165138095Y-101559580D01*
X165138095Y-101559580D02*
X165185714Y-101607200D01*
X165185714Y-101607200D02*
X165280952Y-101654819D01*
X165280952Y-101654819D02*
X165471428Y-101654819D01*
X165471428Y-101654819D02*
X165566666Y-101607200D01*
X165566666Y-101607200D02*
X165614285Y-101559580D01*
X165614285Y-101559580D02*
X165661904Y-101464342D01*
X165661904Y-101464342D02*
X165661904Y-101226247D01*
X165661904Y-101226247D02*
X165614285Y-101131009D01*
X165614285Y-101131009D02*
X165566666Y-101083390D01*
X165566666Y-101083390D02*
X165471428Y-101035771D01*
X165471428Y-101035771D02*
X165280952Y-101035771D01*
X165280952Y-101035771D02*
X165185714Y-101083390D01*
X165185714Y-101083390D02*
X165138095Y-101131009D01*
X165138095Y-101131009D02*
X165090476Y-101226247D01*
X162958333Y-99359580D02*
X162910714Y-99407200D01*
X162910714Y-99407200D02*
X162767857Y-99454819D01*
X162767857Y-99454819D02*
X162672619Y-99454819D01*
X162672619Y-99454819D02*
X162529762Y-99407200D01*
X162529762Y-99407200D02*
X162434524Y-99311961D01*
X162434524Y-99311961D02*
X162386905Y-99216723D01*
X162386905Y-99216723D02*
X162339286Y-99026247D01*
X162339286Y-99026247D02*
X162339286Y-98883390D01*
X162339286Y-98883390D02*
X162386905Y-98692914D01*
X162386905Y-98692914D02*
X162434524Y-98597676D01*
X162434524Y-98597676D02*
X162529762Y-98502438D01*
X162529762Y-98502438D02*
X162672619Y-98454819D01*
X162672619Y-98454819D02*
X162767857Y-98454819D01*
X162767857Y-98454819D02*
X162910714Y-98502438D01*
X162910714Y-98502438D02*
X162958333Y-98550057D01*
X163529762Y-98883390D02*
X163434524Y-98835771D01*
X163434524Y-98835771D02*
X163386905Y-98788152D01*
X163386905Y-98788152D02*
X163339286Y-98692914D01*
X163339286Y-98692914D02*
X163339286Y-98645295D01*
X163339286Y-98645295D02*
X163386905Y-98550057D01*
X163386905Y-98550057D02*
X163434524Y-98502438D01*
X163434524Y-98502438D02*
X163529762Y-98454819D01*
X163529762Y-98454819D02*
X163720238Y-98454819D01*
X163720238Y-98454819D02*
X163815476Y-98502438D01*
X163815476Y-98502438D02*
X163863095Y-98550057D01*
X163863095Y-98550057D02*
X163910714Y-98645295D01*
X163910714Y-98645295D02*
X163910714Y-98692914D01*
X163910714Y-98692914D02*
X163863095Y-98788152D01*
X163863095Y-98788152D02*
X163815476Y-98835771D01*
X163815476Y-98835771D02*
X163720238Y-98883390D01*
X163720238Y-98883390D02*
X163529762Y-98883390D01*
X163529762Y-98883390D02*
X163434524Y-98931009D01*
X163434524Y-98931009D02*
X163386905Y-98978628D01*
X163386905Y-98978628D02*
X163339286Y-99073866D01*
X163339286Y-99073866D02*
X163339286Y-99264342D01*
X163339286Y-99264342D02*
X163386905Y-99359580D01*
X163386905Y-99359580D02*
X163434524Y-99407200D01*
X163434524Y-99407200D02*
X163529762Y-99454819D01*
X163529762Y-99454819D02*
X163720238Y-99454819D01*
X163720238Y-99454819D02*
X163815476Y-99407200D01*
X163815476Y-99407200D02*
X163863095Y-99359580D01*
X163863095Y-99359580D02*
X163910714Y-99264342D01*
X163910714Y-99264342D02*
X163910714Y-99073866D01*
X163910714Y-99073866D02*
X163863095Y-98978628D01*
X163863095Y-98978628D02*
X163815476Y-98931009D01*
X163815476Y-98931009D02*
X163720238Y-98883390D01*
X175959580Y-105442857D02*
X176007200Y-105490476D01*
X176007200Y-105490476D02*
X176054819Y-105633333D01*
X176054819Y-105633333D02*
X176054819Y-105728571D01*
X176054819Y-105728571D02*
X176007200Y-105871428D01*
X176007200Y-105871428D02*
X175911961Y-105966666D01*
X175911961Y-105966666D02*
X175816723Y-106014285D01*
X175816723Y-106014285D02*
X175626247Y-106061904D01*
X175626247Y-106061904D02*
X175483390Y-106061904D01*
X175483390Y-106061904D02*
X175292914Y-106014285D01*
X175292914Y-106014285D02*
X175197676Y-105966666D01*
X175197676Y-105966666D02*
X175102438Y-105871428D01*
X175102438Y-105871428D02*
X175054819Y-105728571D01*
X175054819Y-105728571D02*
X175054819Y-105633333D01*
X175054819Y-105633333D02*
X175102438Y-105490476D01*
X175102438Y-105490476D02*
X175150057Y-105442857D01*
X176054819Y-104490476D02*
X176054819Y-105061904D01*
X176054819Y-104776190D02*
X175054819Y-104776190D01*
X175054819Y-104776190D02*
X175197676Y-104871428D01*
X175197676Y-104871428D02*
X175292914Y-104966666D01*
X175292914Y-104966666D02*
X175340533Y-105061904D01*
X175054819Y-103585714D02*
X175054819Y-104061904D01*
X175054819Y-104061904D02*
X175531009Y-104109523D01*
X175531009Y-104109523D02*
X175483390Y-104061904D01*
X175483390Y-104061904D02*
X175435771Y-103966666D01*
X175435771Y-103966666D02*
X175435771Y-103728571D01*
X175435771Y-103728571D02*
X175483390Y-103633333D01*
X175483390Y-103633333D02*
X175531009Y-103585714D01*
X175531009Y-103585714D02*
X175626247Y-103538095D01*
X175626247Y-103538095D02*
X175864342Y-103538095D01*
X175864342Y-103538095D02*
X175959580Y-103585714D01*
X175959580Y-103585714D02*
X176007200Y-103633333D01*
X176007200Y-103633333D02*
X176054819Y-103728571D01*
X176054819Y-103728571D02*
X176054819Y-103966666D01*
X176054819Y-103966666D02*
X176007200Y-104061904D01*
X176007200Y-104061904D02*
X175959580Y-104109523D01*
X173238095Y-75956819D02*
X173809523Y-75956819D01*
X173523809Y-76956819D02*
X173523809Y-75956819D01*
X174142857Y-76956819D02*
X174142857Y-75956819D01*
X174142857Y-75956819D02*
X174523809Y-75956819D01*
X174523809Y-75956819D02*
X174619047Y-76004438D01*
X174619047Y-76004438D02*
X174666666Y-76052057D01*
X174666666Y-76052057D02*
X174714285Y-76147295D01*
X174714285Y-76147295D02*
X174714285Y-76290152D01*
X174714285Y-76290152D02*
X174666666Y-76385390D01*
X174666666Y-76385390D02*
X174619047Y-76433009D01*
X174619047Y-76433009D02*
X174523809Y-76480628D01*
X174523809Y-76480628D02*
X174142857Y-76480628D01*
X175571428Y-75956819D02*
X175380952Y-75956819D01*
X175380952Y-75956819D02*
X175285714Y-76004438D01*
X175285714Y-76004438D02*
X175238095Y-76052057D01*
X175238095Y-76052057D02*
X175142857Y-76194914D01*
X175142857Y-76194914D02*
X175095238Y-76385390D01*
X175095238Y-76385390D02*
X175095238Y-76766342D01*
X175095238Y-76766342D02*
X175142857Y-76861580D01*
X175142857Y-76861580D02*
X175190476Y-76909200D01*
X175190476Y-76909200D02*
X175285714Y-76956819D01*
X175285714Y-76956819D02*
X175476190Y-76956819D01*
X175476190Y-76956819D02*
X175571428Y-76909200D01*
X175571428Y-76909200D02*
X175619047Y-76861580D01*
X175619047Y-76861580D02*
X175666666Y-76766342D01*
X175666666Y-76766342D02*
X175666666Y-76528247D01*
X175666666Y-76528247D02*
X175619047Y-76433009D01*
X175619047Y-76433009D02*
X175571428Y-76385390D01*
X175571428Y-76385390D02*
X175476190Y-76337771D01*
X175476190Y-76337771D02*
X175285714Y-76337771D01*
X175285714Y-76337771D02*
X175190476Y-76385390D01*
X175190476Y-76385390D02*
X175142857Y-76433009D01*
X175142857Y-76433009D02*
X175095238Y-76528247D01*
X174157142Y-110759580D02*
X174109523Y-110807200D01*
X174109523Y-110807200D02*
X173966666Y-110854819D01*
X173966666Y-110854819D02*
X173871428Y-110854819D01*
X173871428Y-110854819D02*
X173728571Y-110807200D01*
X173728571Y-110807200D02*
X173633333Y-110711961D01*
X173633333Y-110711961D02*
X173585714Y-110616723D01*
X173585714Y-110616723D02*
X173538095Y-110426247D01*
X173538095Y-110426247D02*
X173538095Y-110283390D01*
X173538095Y-110283390D02*
X173585714Y-110092914D01*
X173585714Y-110092914D02*
X173633333Y-109997676D01*
X173633333Y-109997676D02*
X173728571Y-109902438D01*
X173728571Y-109902438D02*
X173871428Y-109854819D01*
X173871428Y-109854819D02*
X173966666Y-109854819D01*
X173966666Y-109854819D02*
X174109523Y-109902438D01*
X174109523Y-109902438D02*
X174157142Y-109950057D01*
X175109523Y-110854819D02*
X174538095Y-110854819D01*
X174823809Y-110854819D02*
X174823809Y-109854819D01*
X174823809Y-109854819D02*
X174728571Y-109997676D01*
X174728571Y-109997676D02*
X174633333Y-110092914D01*
X174633333Y-110092914D02*
X174538095Y-110140533D01*
X175442857Y-109854819D02*
X176061904Y-109854819D01*
X176061904Y-109854819D02*
X175728571Y-110235771D01*
X175728571Y-110235771D02*
X175871428Y-110235771D01*
X175871428Y-110235771D02*
X175966666Y-110283390D01*
X175966666Y-110283390D02*
X176014285Y-110331009D01*
X176014285Y-110331009D02*
X176061904Y-110426247D01*
X176061904Y-110426247D02*
X176061904Y-110664342D01*
X176061904Y-110664342D02*
X176014285Y-110759580D01*
X176014285Y-110759580D02*
X175966666Y-110807200D01*
X175966666Y-110807200D02*
X175871428Y-110854819D01*
X175871428Y-110854819D02*
X175585714Y-110854819D01*
X175585714Y-110854819D02*
X175490476Y-110807200D01*
X175490476Y-110807200D02*
X175442857Y-110759580D01*
X210550057Y-87095238D02*
X210502438Y-87190476D01*
X210502438Y-87190476D02*
X210407200Y-87285714D01*
X210407200Y-87285714D02*
X210264342Y-87428571D01*
X210264342Y-87428571D02*
X210216723Y-87523809D01*
X210216723Y-87523809D02*
X210216723Y-87619047D01*
X210454819Y-87571428D02*
X210407200Y-87666666D01*
X210407200Y-87666666D02*
X210311961Y-87761904D01*
X210311961Y-87761904D02*
X210121485Y-87809523D01*
X210121485Y-87809523D02*
X209788152Y-87809523D01*
X209788152Y-87809523D02*
X209597676Y-87761904D01*
X209597676Y-87761904D02*
X209502438Y-87666666D01*
X209502438Y-87666666D02*
X209454819Y-87571428D01*
X209454819Y-87571428D02*
X209454819Y-87380952D01*
X209454819Y-87380952D02*
X209502438Y-87285714D01*
X209502438Y-87285714D02*
X209597676Y-87190476D01*
X209597676Y-87190476D02*
X209788152Y-87142857D01*
X209788152Y-87142857D02*
X210121485Y-87142857D01*
X210121485Y-87142857D02*
X210311961Y-87190476D01*
X210311961Y-87190476D02*
X210407200Y-87285714D01*
X210407200Y-87285714D02*
X210454819Y-87380952D01*
X210454819Y-87380952D02*
X210454819Y-87571428D01*
X210454819Y-86190476D02*
X210454819Y-86761904D01*
X210454819Y-86476190D02*
X209454819Y-86476190D01*
X209454819Y-86476190D02*
X209597676Y-86571428D01*
X209597676Y-86571428D02*
X209692914Y-86666666D01*
X209692914Y-86666666D02*
X209740533Y-86761904D01*
X170633333Y-101159580D02*
X170585714Y-101207200D01*
X170585714Y-101207200D02*
X170442857Y-101254819D01*
X170442857Y-101254819D02*
X170347619Y-101254819D01*
X170347619Y-101254819D02*
X170204762Y-101207200D01*
X170204762Y-101207200D02*
X170109524Y-101111961D01*
X170109524Y-101111961D02*
X170061905Y-101016723D01*
X170061905Y-101016723D02*
X170014286Y-100826247D01*
X170014286Y-100826247D02*
X170014286Y-100683390D01*
X170014286Y-100683390D02*
X170061905Y-100492914D01*
X170061905Y-100492914D02*
X170109524Y-100397676D01*
X170109524Y-100397676D02*
X170204762Y-100302438D01*
X170204762Y-100302438D02*
X170347619Y-100254819D01*
X170347619Y-100254819D02*
X170442857Y-100254819D01*
X170442857Y-100254819D02*
X170585714Y-100302438D01*
X170585714Y-100302438D02*
X170633333Y-100350057D01*
X171490476Y-100588152D02*
X171490476Y-101254819D01*
X171252381Y-100207200D02*
X171014286Y-100921485D01*
X171014286Y-100921485D02*
X171633333Y-100921485D01*
X188357142Y-84359580D02*
X188309523Y-84407200D01*
X188309523Y-84407200D02*
X188166666Y-84454819D01*
X188166666Y-84454819D02*
X188071428Y-84454819D01*
X188071428Y-84454819D02*
X187928571Y-84407200D01*
X187928571Y-84407200D02*
X187833333Y-84311961D01*
X187833333Y-84311961D02*
X187785714Y-84216723D01*
X187785714Y-84216723D02*
X187738095Y-84026247D01*
X187738095Y-84026247D02*
X187738095Y-83883390D01*
X187738095Y-83883390D02*
X187785714Y-83692914D01*
X187785714Y-83692914D02*
X187833333Y-83597676D01*
X187833333Y-83597676D02*
X187928571Y-83502438D01*
X187928571Y-83502438D02*
X188071428Y-83454819D01*
X188071428Y-83454819D02*
X188166666Y-83454819D01*
X188166666Y-83454819D02*
X188309523Y-83502438D01*
X188309523Y-83502438D02*
X188357142Y-83550057D01*
X188738095Y-83550057D02*
X188785714Y-83502438D01*
X188785714Y-83502438D02*
X188880952Y-83454819D01*
X188880952Y-83454819D02*
X189119047Y-83454819D01*
X189119047Y-83454819D02*
X189214285Y-83502438D01*
X189214285Y-83502438D02*
X189261904Y-83550057D01*
X189261904Y-83550057D02*
X189309523Y-83645295D01*
X189309523Y-83645295D02*
X189309523Y-83740533D01*
X189309523Y-83740533D02*
X189261904Y-83883390D01*
X189261904Y-83883390D02*
X188690476Y-84454819D01*
X188690476Y-84454819D02*
X189309523Y-84454819D01*
X189928571Y-83454819D02*
X190023809Y-83454819D01*
X190023809Y-83454819D02*
X190119047Y-83502438D01*
X190119047Y-83502438D02*
X190166666Y-83550057D01*
X190166666Y-83550057D02*
X190214285Y-83645295D01*
X190214285Y-83645295D02*
X190261904Y-83835771D01*
X190261904Y-83835771D02*
X190261904Y-84073866D01*
X190261904Y-84073866D02*
X190214285Y-84264342D01*
X190214285Y-84264342D02*
X190166666Y-84359580D01*
X190166666Y-84359580D02*
X190119047Y-84407200D01*
X190119047Y-84407200D02*
X190023809Y-84454819D01*
X190023809Y-84454819D02*
X189928571Y-84454819D01*
X189928571Y-84454819D02*
X189833333Y-84407200D01*
X189833333Y-84407200D02*
X189785714Y-84359580D01*
X189785714Y-84359580D02*
X189738095Y-84264342D01*
X189738095Y-84264342D02*
X189690476Y-84073866D01*
X189690476Y-84073866D02*
X189690476Y-83835771D01*
X189690476Y-83835771D02*
X189738095Y-83645295D01*
X189738095Y-83645295D02*
X189785714Y-83550057D01*
X189785714Y-83550057D02*
X189833333Y-83502438D01*
X189833333Y-83502438D02*
X189928571Y-83454819D01*
X200039580Y-73629166D02*
X200087200Y-73676785D01*
X200087200Y-73676785D02*
X200134819Y-73819642D01*
X200134819Y-73819642D02*
X200134819Y-73914880D01*
X200134819Y-73914880D02*
X200087200Y-74057737D01*
X200087200Y-74057737D02*
X199991961Y-74152975D01*
X199991961Y-74152975D02*
X199896723Y-74200594D01*
X199896723Y-74200594D02*
X199706247Y-74248213D01*
X199706247Y-74248213D02*
X199563390Y-74248213D01*
X199563390Y-74248213D02*
X199372914Y-74200594D01*
X199372914Y-74200594D02*
X199277676Y-74152975D01*
X199277676Y-74152975D02*
X199182438Y-74057737D01*
X199182438Y-74057737D02*
X199134819Y-73914880D01*
X199134819Y-73914880D02*
X199134819Y-73819642D01*
X199134819Y-73819642D02*
X199182438Y-73676785D01*
X199182438Y-73676785D02*
X199230057Y-73629166D01*
X200134819Y-73152975D02*
X200134819Y-72962499D01*
X200134819Y-72962499D02*
X200087200Y-72867261D01*
X200087200Y-72867261D02*
X200039580Y-72819642D01*
X200039580Y-72819642D02*
X199896723Y-72724404D01*
X199896723Y-72724404D02*
X199706247Y-72676785D01*
X199706247Y-72676785D02*
X199325295Y-72676785D01*
X199325295Y-72676785D02*
X199230057Y-72724404D01*
X199230057Y-72724404D02*
X199182438Y-72772023D01*
X199182438Y-72772023D02*
X199134819Y-72867261D01*
X199134819Y-72867261D02*
X199134819Y-73057737D01*
X199134819Y-73057737D02*
X199182438Y-73152975D01*
X199182438Y-73152975D02*
X199230057Y-73200594D01*
X199230057Y-73200594D02*
X199325295Y-73248213D01*
X199325295Y-73248213D02*
X199563390Y-73248213D01*
X199563390Y-73248213D02*
X199658628Y-73200594D01*
X199658628Y-73200594D02*
X199706247Y-73152975D01*
X199706247Y-73152975D02*
X199753866Y-73057737D01*
X199753866Y-73057737D02*
X199753866Y-72867261D01*
X199753866Y-72867261D02*
X199706247Y-72772023D01*
X199706247Y-72772023D02*
X199658628Y-72724404D01*
X199658628Y-72724404D02*
X199563390Y-72676785D01*
X168352380Y-113454819D02*
X168019047Y-112978628D01*
X167780952Y-113454819D02*
X167780952Y-112454819D01*
X167780952Y-112454819D02*
X168161904Y-112454819D01*
X168161904Y-112454819D02*
X168257142Y-112502438D01*
X168257142Y-112502438D02*
X168304761Y-112550057D01*
X168304761Y-112550057D02*
X168352380Y-112645295D01*
X168352380Y-112645295D02*
X168352380Y-112788152D01*
X168352380Y-112788152D02*
X168304761Y-112883390D01*
X168304761Y-112883390D02*
X168257142Y-112931009D01*
X168257142Y-112931009D02*
X168161904Y-112978628D01*
X168161904Y-112978628D02*
X167780952Y-112978628D01*
X168780952Y-112931009D02*
X169114285Y-112931009D01*
X169257142Y-113454819D02*
X168780952Y-113454819D01*
X168780952Y-113454819D02*
X168780952Y-112454819D01*
X168780952Y-112454819D02*
X169257142Y-112454819D01*
X170019047Y-112931009D02*
X169685714Y-112931009D01*
X169685714Y-113454819D02*
X169685714Y-112454819D01*
X169685714Y-112454819D02*
X170161904Y-112454819D01*
X170447619Y-112454819D02*
X171066666Y-112454819D01*
X171066666Y-112454819D02*
X170733333Y-112835771D01*
X170733333Y-112835771D02*
X170876190Y-112835771D01*
X170876190Y-112835771D02*
X170971428Y-112883390D01*
X170971428Y-112883390D02*
X171019047Y-112931009D01*
X171019047Y-112931009D02*
X171066666Y-113026247D01*
X171066666Y-113026247D02*
X171066666Y-113264342D01*
X171066666Y-113264342D02*
X171019047Y-113359580D01*
X171019047Y-113359580D02*
X170971428Y-113407200D01*
X170971428Y-113407200D02*
X170876190Y-113454819D01*
X170876190Y-113454819D02*
X170590476Y-113454819D01*
X170590476Y-113454819D02*
X170495238Y-113407200D01*
X170495238Y-113407200D02*
X170447619Y-113359580D01*
X218750057Y-82695238D02*
X218702438Y-82790476D01*
X218702438Y-82790476D02*
X218607200Y-82885714D01*
X218607200Y-82885714D02*
X218464342Y-83028571D01*
X218464342Y-83028571D02*
X218416723Y-83123809D01*
X218416723Y-83123809D02*
X218416723Y-83219047D01*
X218654819Y-83171428D02*
X218607200Y-83266666D01*
X218607200Y-83266666D02*
X218511961Y-83361904D01*
X218511961Y-83361904D02*
X218321485Y-83409523D01*
X218321485Y-83409523D02*
X217988152Y-83409523D01*
X217988152Y-83409523D02*
X217797676Y-83361904D01*
X217797676Y-83361904D02*
X217702438Y-83266666D01*
X217702438Y-83266666D02*
X217654819Y-83171428D01*
X217654819Y-83171428D02*
X217654819Y-82980952D01*
X217654819Y-82980952D02*
X217702438Y-82885714D01*
X217702438Y-82885714D02*
X217797676Y-82790476D01*
X217797676Y-82790476D02*
X217988152Y-82742857D01*
X217988152Y-82742857D02*
X218321485Y-82742857D01*
X218321485Y-82742857D02*
X218511961Y-82790476D01*
X218511961Y-82790476D02*
X218607200Y-82885714D01*
X218607200Y-82885714D02*
X218654819Y-82980952D01*
X218654819Y-82980952D02*
X218654819Y-83171428D01*
X217750057Y-82361904D02*
X217702438Y-82314285D01*
X217702438Y-82314285D02*
X217654819Y-82219047D01*
X217654819Y-82219047D02*
X217654819Y-81980952D01*
X217654819Y-81980952D02*
X217702438Y-81885714D01*
X217702438Y-81885714D02*
X217750057Y-81838095D01*
X217750057Y-81838095D02*
X217845295Y-81790476D01*
X217845295Y-81790476D02*
X217940533Y-81790476D01*
X217940533Y-81790476D02*
X218083390Y-81838095D01*
X218083390Y-81838095D02*
X218654819Y-82409523D01*
X218654819Y-82409523D02*
X218654819Y-81790476D01*
X173238095Y-94956819D02*
X173809523Y-94956819D01*
X173523809Y-95956819D02*
X173523809Y-94956819D01*
X174142857Y-95956819D02*
X174142857Y-94956819D01*
X174142857Y-94956819D02*
X174523809Y-94956819D01*
X174523809Y-94956819D02*
X174619047Y-95004438D01*
X174619047Y-95004438D02*
X174666666Y-95052057D01*
X174666666Y-95052057D02*
X174714285Y-95147295D01*
X174714285Y-95147295D02*
X174714285Y-95290152D01*
X174714285Y-95290152D02*
X174666666Y-95385390D01*
X174666666Y-95385390D02*
X174619047Y-95433009D01*
X174619047Y-95433009D02*
X174523809Y-95480628D01*
X174523809Y-95480628D02*
X174142857Y-95480628D01*
X175095238Y-95052057D02*
X175142857Y-95004438D01*
X175142857Y-95004438D02*
X175238095Y-94956819D01*
X175238095Y-94956819D02*
X175476190Y-94956819D01*
X175476190Y-94956819D02*
X175571428Y-95004438D01*
X175571428Y-95004438D02*
X175619047Y-95052057D01*
X175619047Y-95052057D02*
X175666666Y-95147295D01*
X175666666Y-95147295D02*
X175666666Y-95242533D01*
X175666666Y-95242533D02*
X175619047Y-95385390D01*
X175619047Y-95385390D02*
X175047619Y-95956819D01*
X175047619Y-95956819D02*
X175666666Y-95956819D01*
X162866666Y-80054819D02*
X162866666Y-80769104D01*
X162866666Y-80769104D02*
X162819047Y-80911961D01*
X162819047Y-80911961D02*
X162723809Y-81007200D01*
X162723809Y-81007200D02*
X162580952Y-81054819D01*
X162580952Y-81054819D02*
X162485714Y-81054819D01*
X163247619Y-80054819D02*
X163866666Y-80054819D01*
X163866666Y-80054819D02*
X163533333Y-80435771D01*
X163533333Y-80435771D02*
X163676190Y-80435771D01*
X163676190Y-80435771D02*
X163771428Y-80483390D01*
X163771428Y-80483390D02*
X163819047Y-80531009D01*
X163819047Y-80531009D02*
X163866666Y-80626247D01*
X163866666Y-80626247D02*
X163866666Y-80864342D01*
X163866666Y-80864342D02*
X163819047Y-80959580D01*
X163819047Y-80959580D02*
X163771428Y-81007200D01*
X163771428Y-81007200D02*
X163676190Y-81054819D01*
X163676190Y-81054819D02*
X163390476Y-81054819D01*
X163390476Y-81054819D02*
X163295238Y-81007200D01*
X163295238Y-81007200D02*
X163247619Y-80959580D01*
X183676190Y-76054819D02*
X183342857Y-75578628D01*
X183104762Y-76054819D02*
X183104762Y-75054819D01*
X183104762Y-75054819D02*
X183485714Y-75054819D01*
X183485714Y-75054819D02*
X183580952Y-75102438D01*
X183580952Y-75102438D02*
X183628571Y-75150057D01*
X183628571Y-75150057D02*
X183676190Y-75245295D01*
X183676190Y-75245295D02*
X183676190Y-75388152D01*
X183676190Y-75388152D02*
X183628571Y-75483390D01*
X183628571Y-75483390D02*
X183580952Y-75531009D01*
X183580952Y-75531009D02*
X183485714Y-75578628D01*
X183485714Y-75578628D02*
X183104762Y-75578628D01*
X184628571Y-76054819D02*
X184057143Y-76054819D01*
X184342857Y-76054819D02*
X184342857Y-75054819D01*
X184342857Y-75054819D02*
X184247619Y-75197676D01*
X184247619Y-75197676D02*
X184152381Y-75292914D01*
X184152381Y-75292914D02*
X184057143Y-75340533D01*
X185533333Y-75054819D02*
X185057143Y-75054819D01*
X185057143Y-75054819D02*
X185009524Y-75531009D01*
X185009524Y-75531009D02*
X185057143Y-75483390D01*
X185057143Y-75483390D02*
X185152381Y-75435771D01*
X185152381Y-75435771D02*
X185390476Y-75435771D01*
X185390476Y-75435771D02*
X185485714Y-75483390D01*
X185485714Y-75483390D02*
X185533333Y-75531009D01*
X185533333Y-75531009D02*
X185580952Y-75626247D01*
X185580952Y-75626247D02*
X185580952Y-75864342D01*
X185580952Y-75864342D02*
X185533333Y-75959580D01*
X185533333Y-75959580D02*
X185485714Y-76007200D01*
X185485714Y-76007200D02*
X185390476Y-76054819D01*
X185390476Y-76054819D02*
X185152381Y-76054819D01*
X185152381Y-76054819D02*
X185057143Y-76007200D01*
X185057143Y-76007200D02*
X185009524Y-75959580D01*
X186200000Y-75054819D02*
X186295238Y-75054819D01*
X186295238Y-75054819D02*
X186390476Y-75102438D01*
X186390476Y-75102438D02*
X186438095Y-75150057D01*
X186438095Y-75150057D02*
X186485714Y-75245295D01*
X186485714Y-75245295D02*
X186533333Y-75435771D01*
X186533333Y-75435771D02*
X186533333Y-75673866D01*
X186533333Y-75673866D02*
X186485714Y-75864342D01*
X186485714Y-75864342D02*
X186438095Y-75959580D01*
X186438095Y-75959580D02*
X186390476Y-76007200D01*
X186390476Y-76007200D02*
X186295238Y-76054819D01*
X186295238Y-76054819D02*
X186200000Y-76054819D01*
X186200000Y-76054819D02*
X186104762Y-76007200D01*
X186104762Y-76007200D02*
X186057143Y-75959580D01*
X186057143Y-75959580D02*
X186009524Y-75864342D01*
X186009524Y-75864342D02*
X185961905Y-75673866D01*
X185961905Y-75673866D02*
X185961905Y-75435771D01*
X185961905Y-75435771D02*
X186009524Y-75245295D01*
X186009524Y-75245295D02*
X186057143Y-75150057D01*
X186057143Y-75150057D02*
X186104762Y-75102438D01*
X186104762Y-75102438D02*
X186200000Y-75054819D01*
X187152381Y-75054819D02*
X187247619Y-75054819D01*
X187247619Y-75054819D02*
X187342857Y-75102438D01*
X187342857Y-75102438D02*
X187390476Y-75150057D01*
X187390476Y-75150057D02*
X187438095Y-75245295D01*
X187438095Y-75245295D02*
X187485714Y-75435771D01*
X187485714Y-75435771D02*
X187485714Y-75673866D01*
X187485714Y-75673866D02*
X187438095Y-75864342D01*
X187438095Y-75864342D02*
X187390476Y-75959580D01*
X187390476Y-75959580D02*
X187342857Y-76007200D01*
X187342857Y-76007200D02*
X187247619Y-76054819D01*
X187247619Y-76054819D02*
X187152381Y-76054819D01*
X187152381Y-76054819D02*
X187057143Y-76007200D01*
X187057143Y-76007200D02*
X187009524Y-75959580D01*
X187009524Y-75959580D02*
X186961905Y-75864342D01*
X186961905Y-75864342D02*
X186914286Y-75673866D01*
X186914286Y-75673866D02*
X186914286Y-75435771D01*
X186914286Y-75435771D02*
X186961905Y-75245295D01*
X186961905Y-75245295D02*
X187009524Y-75150057D01*
X187009524Y-75150057D02*
X187057143Y-75102438D01*
X187057143Y-75102438D02*
X187152381Y-75054819D01*
X187914286Y-76054819D02*
X187914286Y-75054819D01*
X187914286Y-75531009D02*
X188485714Y-75531009D01*
X188485714Y-76054819D02*
X188485714Y-75054819D01*
X189152381Y-75054819D02*
X189247619Y-75054819D01*
X189247619Y-75054819D02*
X189342857Y-75102438D01*
X189342857Y-75102438D02*
X189390476Y-75150057D01*
X189390476Y-75150057D02*
X189438095Y-75245295D01*
X189438095Y-75245295D02*
X189485714Y-75435771D01*
X189485714Y-75435771D02*
X189485714Y-75673866D01*
X189485714Y-75673866D02*
X189438095Y-75864342D01*
X189438095Y-75864342D02*
X189390476Y-75959580D01*
X189390476Y-75959580D02*
X189342857Y-76007200D01*
X189342857Y-76007200D02*
X189247619Y-76054819D01*
X189247619Y-76054819D02*
X189152381Y-76054819D01*
X189152381Y-76054819D02*
X189057143Y-76007200D01*
X189057143Y-76007200D02*
X189009524Y-75959580D01*
X189009524Y-75959580D02*
X188961905Y-75864342D01*
X188961905Y-75864342D02*
X188914286Y-75673866D01*
X188914286Y-75673866D02*
X188914286Y-75435771D01*
X188914286Y-75435771D02*
X188961905Y-75245295D01*
X188961905Y-75245295D02*
X189009524Y-75150057D01*
X189009524Y-75150057D02*
X189057143Y-75102438D01*
X189057143Y-75102438D02*
X189152381Y-75054819D01*
X190390476Y-75054819D02*
X189914286Y-75054819D01*
X189914286Y-75054819D02*
X189866667Y-75531009D01*
X189866667Y-75531009D02*
X189914286Y-75483390D01*
X189914286Y-75483390D02*
X190009524Y-75435771D01*
X190009524Y-75435771D02*
X190247619Y-75435771D01*
X190247619Y-75435771D02*
X190342857Y-75483390D01*
X190342857Y-75483390D02*
X190390476Y-75531009D01*
X190390476Y-75531009D02*
X190438095Y-75626247D01*
X190438095Y-75626247D02*
X190438095Y-75864342D01*
X190438095Y-75864342D02*
X190390476Y-75959580D01*
X190390476Y-75959580D02*
X190342857Y-76007200D01*
X190342857Y-76007200D02*
X190247619Y-76054819D01*
X190247619Y-76054819D02*
X190009524Y-76054819D01*
X190009524Y-76054819D02*
X189914286Y-76007200D01*
X189914286Y-76007200D02*
X189866667Y-75959580D01*
X191057143Y-75054819D02*
X191152381Y-75054819D01*
X191152381Y-75054819D02*
X191247619Y-75102438D01*
X191247619Y-75102438D02*
X191295238Y-75150057D01*
X191295238Y-75150057D02*
X191342857Y-75245295D01*
X191342857Y-75245295D02*
X191390476Y-75435771D01*
X191390476Y-75435771D02*
X191390476Y-75673866D01*
X191390476Y-75673866D02*
X191342857Y-75864342D01*
X191342857Y-75864342D02*
X191295238Y-75959580D01*
X191295238Y-75959580D02*
X191247619Y-76007200D01*
X191247619Y-76007200D02*
X191152381Y-76054819D01*
X191152381Y-76054819D02*
X191057143Y-76054819D01*
X191057143Y-76054819D02*
X190961905Y-76007200D01*
X190961905Y-76007200D02*
X190914286Y-75959580D01*
X190914286Y-75959580D02*
X190866667Y-75864342D01*
X190866667Y-75864342D02*
X190819048Y-75673866D01*
X190819048Y-75673866D02*
X190819048Y-75435771D01*
X190819048Y-75435771D02*
X190866667Y-75245295D01*
X190866667Y-75245295D02*
X190914286Y-75150057D01*
X190914286Y-75150057D02*
X190961905Y-75102438D01*
X190961905Y-75102438D02*
X191057143Y-75054819D01*
X192152381Y-75531009D02*
X192295238Y-75578628D01*
X192295238Y-75578628D02*
X192342857Y-75626247D01*
X192342857Y-75626247D02*
X192390476Y-75721485D01*
X192390476Y-75721485D02*
X192390476Y-75864342D01*
X192390476Y-75864342D02*
X192342857Y-75959580D01*
X192342857Y-75959580D02*
X192295238Y-76007200D01*
X192295238Y-76007200D02*
X192200000Y-76054819D01*
X192200000Y-76054819D02*
X191819048Y-76054819D01*
X191819048Y-76054819D02*
X191819048Y-75054819D01*
X191819048Y-75054819D02*
X192152381Y-75054819D01*
X192152381Y-75054819D02*
X192247619Y-75102438D01*
X192247619Y-75102438D02*
X192295238Y-75150057D01*
X192295238Y-75150057D02*
X192342857Y-75245295D01*
X192342857Y-75245295D02*
X192342857Y-75340533D01*
X192342857Y-75340533D02*
X192295238Y-75435771D01*
X192295238Y-75435771D02*
X192247619Y-75483390D01*
X192247619Y-75483390D02*
X192152381Y-75531009D01*
X192152381Y-75531009D02*
X191819048Y-75531009D01*
X193342857Y-76054819D02*
X192771429Y-76054819D01*
X193057143Y-76054819D02*
X193057143Y-75054819D01*
X193057143Y-75054819D02*
X192961905Y-75197676D01*
X192961905Y-75197676D02*
X192866667Y-75292914D01*
X192866667Y-75292914D02*
X192771429Y-75340533D01*
X182704819Y-69842857D02*
X182228628Y-70176190D01*
X182704819Y-70414285D02*
X181704819Y-70414285D01*
X181704819Y-70414285D02*
X181704819Y-70033333D01*
X181704819Y-70033333D02*
X181752438Y-69938095D01*
X181752438Y-69938095D02*
X181800057Y-69890476D01*
X181800057Y-69890476D02*
X181895295Y-69842857D01*
X181895295Y-69842857D02*
X182038152Y-69842857D01*
X182038152Y-69842857D02*
X182133390Y-69890476D01*
X182133390Y-69890476D02*
X182181009Y-69938095D01*
X182181009Y-69938095D02*
X182228628Y-70033333D01*
X182228628Y-70033333D02*
X182228628Y-70414285D01*
X182704819Y-68890476D02*
X182704819Y-69461904D01*
X182704819Y-69176190D02*
X181704819Y-69176190D01*
X181704819Y-69176190D02*
X181847676Y-69271428D01*
X181847676Y-69271428D02*
X181942914Y-69366666D01*
X181942914Y-69366666D02*
X181990533Y-69461904D01*
X181704819Y-68271428D02*
X181704819Y-68176190D01*
X181704819Y-68176190D02*
X181752438Y-68080952D01*
X181752438Y-68080952D02*
X181800057Y-68033333D01*
X181800057Y-68033333D02*
X181895295Y-67985714D01*
X181895295Y-67985714D02*
X182085771Y-67938095D01*
X182085771Y-67938095D02*
X182323866Y-67938095D01*
X182323866Y-67938095D02*
X182514342Y-67985714D01*
X182514342Y-67985714D02*
X182609580Y-68033333D01*
X182609580Y-68033333D02*
X182657200Y-68080952D01*
X182657200Y-68080952D02*
X182704819Y-68176190D01*
X182704819Y-68176190D02*
X182704819Y-68271428D01*
X182704819Y-68271428D02*
X182657200Y-68366666D01*
X182657200Y-68366666D02*
X182609580Y-68414285D01*
X182609580Y-68414285D02*
X182514342Y-68461904D01*
X182514342Y-68461904D02*
X182323866Y-68509523D01*
X182323866Y-68509523D02*
X182085771Y-68509523D01*
X182085771Y-68509523D02*
X181895295Y-68461904D01*
X181895295Y-68461904D02*
X181800057Y-68414285D01*
X181800057Y-68414285D02*
X181752438Y-68366666D01*
X181752438Y-68366666D02*
X181704819Y-68271428D01*
X166333333Y-60359580D02*
X166285714Y-60407200D01*
X166285714Y-60407200D02*
X166142857Y-60454819D01*
X166142857Y-60454819D02*
X166047619Y-60454819D01*
X166047619Y-60454819D02*
X165904762Y-60407200D01*
X165904762Y-60407200D02*
X165809524Y-60311961D01*
X165809524Y-60311961D02*
X165761905Y-60216723D01*
X165761905Y-60216723D02*
X165714286Y-60026247D01*
X165714286Y-60026247D02*
X165714286Y-59883390D01*
X165714286Y-59883390D02*
X165761905Y-59692914D01*
X165761905Y-59692914D02*
X165809524Y-59597676D01*
X165809524Y-59597676D02*
X165904762Y-59502438D01*
X165904762Y-59502438D02*
X166047619Y-59454819D01*
X166047619Y-59454819D02*
X166142857Y-59454819D01*
X166142857Y-59454819D02*
X166285714Y-59502438D01*
X166285714Y-59502438D02*
X166333333Y-59550057D01*
X166666667Y-59454819D02*
X167333333Y-59454819D01*
X167333333Y-59454819D02*
X166904762Y-60454819D01*
X189833333Y-67304819D02*
X189500000Y-66828628D01*
X189261905Y-67304819D02*
X189261905Y-66304819D01*
X189261905Y-66304819D02*
X189642857Y-66304819D01*
X189642857Y-66304819D02*
X189738095Y-66352438D01*
X189738095Y-66352438D02*
X189785714Y-66400057D01*
X189785714Y-66400057D02*
X189833333Y-66495295D01*
X189833333Y-66495295D02*
X189833333Y-66638152D01*
X189833333Y-66638152D02*
X189785714Y-66733390D01*
X189785714Y-66733390D02*
X189738095Y-66781009D01*
X189738095Y-66781009D02*
X189642857Y-66828628D01*
X189642857Y-66828628D02*
X189261905Y-66828628D01*
X190214286Y-66400057D02*
X190261905Y-66352438D01*
X190261905Y-66352438D02*
X190357143Y-66304819D01*
X190357143Y-66304819D02*
X190595238Y-66304819D01*
X190595238Y-66304819D02*
X190690476Y-66352438D01*
X190690476Y-66352438D02*
X190738095Y-66400057D01*
X190738095Y-66400057D02*
X190785714Y-66495295D01*
X190785714Y-66495295D02*
X190785714Y-66590533D01*
X190785714Y-66590533D02*
X190738095Y-66733390D01*
X190738095Y-66733390D02*
X190166667Y-67304819D01*
X190166667Y-67304819D02*
X190785714Y-67304819D01*
X173238095Y-66956819D02*
X173809523Y-66956819D01*
X173523809Y-67956819D02*
X173523809Y-66956819D01*
X174142857Y-67956819D02*
X174142857Y-66956819D01*
X174142857Y-66956819D02*
X174523809Y-66956819D01*
X174523809Y-66956819D02*
X174619047Y-67004438D01*
X174619047Y-67004438D02*
X174666666Y-67052057D01*
X174666666Y-67052057D02*
X174714285Y-67147295D01*
X174714285Y-67147295D02*
X174714285Y-67290152D01*
X174714285Y-67290152D02*
X174666666Y-67385390D01*
X174666666Y-67385390D02*
X174619047Y-67433009D01*
X174619047Y-67433009D02*
X174523809Y-67480628D01*
X174523809Y-67480628D02*
X174142857Y-67480628D01*
X175190476Y-67956819D02*
X175380952Y-67956819D01*
X175380952Y-67956819D02*
X175476190Y-67909200D01*
X175476190Y-67909200D02*
X175523809Y-67861580D01*
X175523809Y-67861580D02*
X175619047Y-67718723D01*
X175619047Y-67718723D02*
X175666666Y-67528247D01*
X175666666Y-67528247D02*
X175666666Y-67147295D01*
X175666666Y-67147295D02*
X175619047Y-67052057D01*
X175619047Y-67052057D02*
X175571428Y-67004438D01*
X175571428Y-67004438D02*
X175476190Y-66956819D01*
X175476190Y-66956819D02*
X175285714Y-66956819D01*
X175285714Y-66956819D02*
X175190476Y-67004438D01*
X175190476Y-67004438D02*
X175142857Y-67052057D01*
X175142857Y-67052057D02*
X175095238Y-67147295D01*
X175095238Y-67147295D02*
X175095238Y-67385390D01*
X175095238Y-67385390D02*
X175142857Y-67480628D01*
X175142857Y-67480628D02*
X175190476Y-67528247D01*
X175190476Y-67528247D02*
X175285714Y-67575866D01*
X175285714Y-67575866D02*
X175476190Y-67575866D01*
X175476190Y-67575866D02*
X175571428Y-67528247D01*
X175571428Y-67528247D02*
X175619047Y-67480628D01*
X175619047Y-67480628D02*
X175666666Y-67385390D01*
X160066905Y-66304819D02*
X160066905Y-65304819D01*
X160066905Y-65304819D02*
X160305000Y-65304819D01*
X160305000Y-65304819D02*
X160447857Y-65352438D01*
X160447857Y-65352438D02*
X160543095Y-65447676D01*
X160543095Y-65447676D02*
X160590714Y-65542914D01*
X160590714Y-65542914D02*
X160638333Y-65733390D01*
X160638333Y-65733390D02*
X160638333Y-65876247D01*
X160638333Y-65876247D02*
X160590714Y-66066723D01*
X160590714Y-66066723D02*
X160543095Y-66161961D01*
X160543095Y-66161961D02*
X160447857Y-66257200D01*
X160447857Y-66257200D02*
X160305000Y-66304819D01*
X160305000Y-66304819D02*
X160066905Y-66304819D01*
X161114524Y-66304819D02*
X161305000Y-66304819D01*
X161305000Y-66304819D02*
X161400238Y-66257200D01*
X161400238Y-66257200D02*
X161447857Y-66209580D01*
X161447857Y-66209580D02*
X161543095Y-66066723D01*
X161543095Y-66066723D02*
X161590714Y-65876247D01*
X161590714Y-65876247D02*
X161590714Y-65495295D01*
X161590714Y-65495295D02*
X161543095Y-65400057D01*
X161543095Y-65400057D02*
X161495476Y-65352438D01*
X161495476Y-65352438D02*
X161400238Y-65304819D01*
X161400238Y-65304819D02*
X161209762Y-65304819D01*
X161209762Y-65304819D02*
X161114524Y-65352438D01*
X161114524Y-65352438D02*
X161066905Y-65400057D01*
X161066905Y-65400057D02*
X161019286Y-65495295D01*
X161019286Y-65495295D02*
X161019286Y-65733390D01*
X161019286Y-65733390D02*
X161066905Y-65828628D01*
X161066905Y-65828628D02*
X161114524Y-65876247D01*
X161114524Y-65876247D02*
X161209762Y-65923866D01*
X161209762Y-65923866D02*
X161400238Y-65923866D01*
X161400238Y-65923866D02*
X161495476Y-65876247D01*
X161495476Y-65876247D02*
X161543095Y-65828628D01*
X161543095Y-65828628D02*
X161590714Y-65733390D01*
X166518095Y-90504819D02*
X166518095Y-91314342D01*
X166518095Y-91314342D02*
X166565714Y-91409580D01*
X166565714Y-91409580D02*
X166613333Y-91457200D01*
X166613333Y-91457200D02*
X166708571Y-91504819D01*
X166708571Y-91504819D02*
X166899047Y-91504819D01*
X166899047Y-91504819D02*
X166994285Y-91457200D01*
X166994285Y-91457200D02*
X167041904Y-91409580D01*
X167041904Y-91409580D02*
X167089523Y-91314342D01*
X167089523Y-91314342D02*
X167089523Y-90504819D01*
X167994285Y-90504819D02*
X167803809Y-90504819D01*
X167803809Y-90504819D02*
X167708571Y-90552438D01*
X167708571Y-90552438D02*
X167660952Y-90600057D01*
X167660952Y-90600057D02*
X167565714Y-90742914D01*
X167565714Y-90742914D02*
X167518095Y-90933390D01*
X167518095Y-90933390D02*
X167518095Y-91314342D01*
X167518095Y-91314342D02*
X167565714Y-91409580D01*
X167565714Y-91409580D02*
X167613333Y-91457200D01*
X167613333Y-91457200D02*
X167708571Y-91504819D01*
X167708571Y-91504819D02*
X167899047Y-91504819D01*
X167899047Y-91504819D02*
X167994285Y-91457200D01*
X167994285Y-91457200D02*
X168041904Y-91409580D01*
X168041904Y-91409580D02*
X168089523Y-91314342D01*
X168089523Y-91314342D02*
X168089523Y-91076247D01*
X168089523Y-91076247D02*
X168041904Y-90981009D01*
X168041904Y-90981009D02*
X167994285Y-90933390D01*
X167994285Y-90933390D02*
X167899047Y-90885771D01*
X167899047Y-90885771D02*
X167708571Y-90885771D01*
X167708571Y-90885771D02*
X167613333Y-90933390D01*
X167613333Y-90933390D02*
X167565714Y-90981009D01*
X167565714Y-90981009D02*
X167518095Y-91076247D01*
X166013333Y-82659580D02*
X165965714Y-82707200D01*
X165965714Y-82707200D02*
X165822857Y-82754819D01*
X165822857Y-82754819D02*
X165727619Y-82754819D01*
X165727619Y-82754819D02*
X165584762Y-82707200D01*
X165584762Y-82707200D02*
X165489524Y-82611961D01*
X165489524Y-82611961D02*
X165441905Y-82516723D01*
X165441905Y-82516723D02*
X165394286Y-82326247D01*
X165394286Y-82326247D02*
X165394286Y-82183390D01*
X165394286Y-82183390D02*
X165441905Y-81992914D01*
X165441905Y-81992914D02*
X165489524Y-81897676D01*
X165489524Y-81897676D02*
X165584762Y-81802438D01*
X165584762Y-81802438D02*
X165727619Y-81754819D01*
X165727619Y-81754819D02*
X165822857Y-81754819D01*
X165822857Y-81754819D02*
X165965714Y-81802438D01*
X165965714Y-81802438D02*
X166013333Y-81850057D01*
X166870476Y-81754819D02*
X166680000Y-81754819D01*
X166680000Y-81754819D02*
X166584762Y-81802438D01*
X166584762Y-81802438D02*
X166537143Y-81850057D01*
X166537143Y-81850057D02*
X166441905Y-81992914D01*
X166441905Y-81992914D02*
X166394286Y-82183390D01*
X166394286Y-82183390D02*
X166394286Y-82564342D01*
X166394286Y-82564342D02*
X166441905Y-82659580D01*
X166441905Y-82659580D02*
X166489524Y-82707200D01*
X166489524Y-82707200D02*
X166584762Y-82754819D01*
X166584762Y-82754819D02*
X166775238Y-82754819D01*
X166775238Y-82754819D02*
X166870476Y-82707200D01*
X166870476Y-82707200D02*
X166918095Y-82659580D01*
X166918095Y-82659580D02*
X166965714Y-82564342D01*
X166965714Y-82564342D02*
X166965714Y-82326247D01*
X166965714Y-82326247D02*
X166918095Y-82231009D01*
X166918095Y-82231009D02*
X166870476Y-82183390D01*
X166870476Y-82183390D02*
X166775238Y-82135771D01*
X166775238Y-82135771D02*
X166584762Y-82135771D01*
X166584762Y-82135771D02*
X166489524Y-82183390D01*
X166489524Y-82183390D02*
X166441905Y-82231009D01*
X166441905Y-82231009D02*
X166394286Y-82326247D01*
X207633333Y-97654819D02*
X207300000Y-97178628D01*
X207061905Y-97654819D02*
X207061905Y-96654819D01*
X207061905Y-96654819D02*
X207442857Y-96654819D01*
X207442857Y-96654819D02*
X207538095Y-96702438D01*
X207538095Y-96702438D02*
X207585714Y-96750057D01*
X207585714Y-96750057D02*
X207633333Y-96845295D01*
X207633333Y-96845295D02*
X207633333Y-96988152D01*
X207633333Y-96988152D02*
X207585714Y-97083390D01*
X207585714Y-97083390D02*
X207538095Y-97131009D01*
X207538095Y-97131009D02*
X207442857Y-97178628D01*
X207442857Y-97178628D02*
X207061905Y-97178628D01*
X208585714Y-97654819D02*
X208014286Y-97654819D01*
X208300000Y-97654819D02*
X208300000Y-96654819D01*
X208300000Y-96654819D02*
X208204762Y-96797676D01*
X208204762Y-96797676D02*
X208109524Y-96892914D01*
X208109524Y-96892914D02*
X208014286Y-96940533D01*
X208254819Y-64061904D02*
X208254819Y-63490476D01*
X209254819Y-63776190D02*
X208254819Y-63776190D01*
X209254819Y-63157142D02*
X208254819Y-63157142D01*
X208254819Y-63157142D02*
X208254819Y-62776190D01*
X208254819Y-62776190D02*
X208302438Y-62680952D01*
X208302438Y-62680952D02*
X208350057Y-62633333D01*
X208350057Y-62633333D02*
X208445295Y-62585714D01*
X208445295Y-62585714D02*
X208588152Y-62585714D01*
X208588152Y-62585714D02*
X208683390Y-62633333D01*
X208683390Y-62633333D02*
X208731009Y-62680952D01*
X208731009Y-62680952D02*
X208778628Y-62776190D01*
X208778628Y-62776190D02*
X208778628Y-63157142D01*
X208254819Y-62252380D02*
X208254819Y-61585714D01*
X208254819Y-61585714D02*
X209254819Y-62014285D01*
X208261905Y-88254819D02*
X208833333Y-88254819D01*
X208547619Y-89254819D02*
X208547619Y-88254819D01*
X209166667Y-89254819D02*
X209166667Y-88254819D01*
X209166667Y-88254819D02*
X209547619Y-88254819D01*
X209547619Y-88254819D02*
X209642857Y-88302438D01*
X209642857Y-88302438D02*
X209690476Y-88350057D01*
X209690476Y-88350057D02*
X209738095Y-88445295D01*
X209738095Y-88445295D02*
X209738095Y-88588152D01*
X209738095Y-88588152D02*
X209690476Y-88683390D01*
X209690476Y-88683390D02*
X209642857Y-88731009D01*
X209642857Y-88731009D02*
X209547619Y-88778628D01*
X209547619Y-88778628D02*
X209166667Y-88778628D01*
X210690476Y-89254819D02*
X210119048Y-89254819D01*
X210404762Y-89254819D02*
X210404762Y-88254819D01*
X210404762Y-88254819D02*
X210309524Y-88397676D01*
X210309524Y-88397676D02*
X210214286Y-88492914D01*
X210214286Y-88492914D02*
X210119048Y-88540533D01*
X211642857Y-89254819D02*
X211071429Y-89254819D01*
X211357143Y-89254819D02*
X211357143Y-88254819D01*
X211357143Y-88254819D02*
X211261905Y-88397676D01*
X211261905Y-88397676D02*
X211166667Y-88492914D01*
X211166667Y-88492914D02*
X211071429Y-88540533D01*
X198953333Y-90504819D02*
X198620000Y-90028628D01*
X198381905Y-90504819D02*
X198381905Y-89504819D01*
X198381905Y-89504819D02*
X198762857Y-89504819D01*
X198762857Y-89504819D02*
X198858095Y-89552438D01*
X198858095Y-89552438D02*
X198905714Y-89600057D01*
X198905714Y-89600057D02*
X198953333Y-89695295D01*
X198953333Y-89695295D02*
X198953333Y-89838152D01*
X198953333Y-89838152D02*
X198905714Y-89933390D01*
X198905714Y-89933390D02*
X198858095Y-89981009D01*
X198858095Y-89981009D02*
X198762857Y-90028628D01*
X198762857Y-90028628D02*
X198381905Y-90028628D01*
X199429524Y-90504819D02*
X199620000Y-90504819D01*
X199620000Y-90504819D02*
X199715238Y-90457200D01*
X199715238Y-90457200D02*
X199762857Y-90409580D01*
X199762857Y-90409580D02*
X199858095Y-90266723D01*
X199858095Y-90266723D02*
X199905714Y-90076247D01*
X199905714Y-90076247D02*
X199905714Y-89695295D01*
X199905714Y-89695295D02*
X199858095Y-89600057D01*
X199858095Y-89600057D02*
X199810476Y-89552438D01*
X199810476Y-89552438D02*
X199715238Y-89504819D01*
X199715238Y-89504819D02*
X199524762Y-89504819D01*
X199524762Y-89504819D02*
X199429524Y-89552438D01*
X199429524Y-89552438D02*
X199381905Y-89600057D01*
X199381905Y-89600057D02*
X199334286Y-89695295D01*
X199334286Y-89695295D02*
X199334286Y-89933390D01*
X199334286Y-89933390D02*
X199381905Y-90028628D01*
X199381905Y-90028628D02*
X199429524Y-90076247D01*
X199429524Y-90076247D02*
X199524762Y-90123866D01*
X199524762Y-90123866D02*
X199715238Y-90123866D01*
X199715238Y-90123866D02*
X199810476Y-90076247D01*
X199810476Y-90076247D02*
X199858095Y-90028628D01*
X199858095Y-90028628D02*
X199905714Y-89933390D01*
X175904819Y-63233333D02*
X176619104Y-63233333D01*
X176619104Y-63233333D02*
X176761961Y-63280952D01*
X176761961Y-63280952D02*
X176857200Y-63376190D01*
X176857200Y-63376190D02*
X176904819Y-63519047D01*
X176904819Y-63519047D02*
X176904819Y-63614285D01*
X176904819Y-62757142D02*
X175904819Y-62757142D01*
X175904819Y-62757142D02*
X175904819Y-62376190D01*
X175904819Y-62376190D02*
X175952438Y-62280952D01*
X175952438Y-62280952D02*
X176000057Y-62233333D01*
X176000057Y-62233333D02*
X176095295Y-62185714D01*
X176095295Y-62185714D02*
X176238152Y-62185714D01*
X176238152Y-62185714D02*
X176333390Y-62233333D01*
X176333390Y-62233333D02*
X176381009Y-62280952D01*
X176381009Y-62280952D02*
X176428628Y-62376190D01*
X176428628Y-62376190D02*
X176428628Y-62757142D01*
X176904819Y-61233333D02*
X176904819Y-61804761D01*
X176904819Y-61519047D02*
X175904819Y-61519047D01*
X175904819Y-61519047D02*
X176047676Y-61614285D01*
X176047676Y-61614285D02*
X176142914Y-61709523D01*
X176142914Y-61709523D02*
X176190533Y-61804761D01*
X181066666Y-57054819D02*
X181066666Y-57769104D01*
X181066666Y-57769104D02*
X181019047Y-57911961D01*
X181019047Y-57911961D02*
X180923809Y-58007200D01*
X180923809Y-58007200D02*
X180780952Y-58054819D01*
X180780952Y-58054819D02*
X180685714Y-58054819D01*
X181495238Y-57150057D02*
X181542857Y-57102438D01*
X181542857Y-57102438D02*
X181638095Y-57054819D01*
X181638095Y-57054819D02*
X181876190Y-57054819D01*
X181876190Y-57054819D02*
X181971428Y-57102438D01*
X181971428Y-57102438D02*
X182019047Y-57150057D01*
X182019047Y-57150057D02*
X182066666Y-57245295D01*
X182066666Y-57245295D02*
X182066666Y-57340533D01*
X182066666Y-57340533D02*
X182019047Y-57483390D01*
X182019047Y-57483390D02*
X181447619Y-58054819D01*
X181447619Y-58054819D02*
X182066666Y-58054819D01*
X205661905Y-99856819D02*
X206233333Y-99856819D01*
X205947619Y-100856819D02*
X205947619Y-99856819D01*
X206566667Y-100856819D02*
X206566667Y-99856819D01*
X206566667Y-99856819D02*
X206947619Y-99856819D01*
X206947619Y-99856819D02*
X207042857Y-99904438D01*
X207042857Y-99904438D02*
X207090476Y-99952057D01*
X207090476Y-99952057D02*
X207138095Y-100047295D01*
X207138095Y-100047295D02*
X207138095Y-100190152D01*
X207138095Y-100190152D02*
X207090476Y-100285390D01*
X207090476Y-100285390D02*
X207042857Y-100333009D01*
X207042857Y-100333009D02*
X206947619Y-100380628D01*
X206947619Y-100380628D02*
X206566667Y-100380628D01*
X208090476Y-100856819D02*
X207519048Y-100856819D01*
X207804762Y-100856819D02*
X207804762Y-99856819D01*
X207804762Y-99856819D02*
X207709524Y-99999676D01*
X207709524Y-99999676D02*
X207614286Y-100094914D01*
X207614286Y-100094914D02*
X207519048Y-100142533D01*
X208471429Y-99952057D02*
X208519048Y-99904438D01*
X208519048Y-99904438D02*
X208614286Y-99856819D01*
X208614286Y-99856819D02*
X208852381Y-99856819D01*
X208852381Y-99856819D02*
X208947619Y-99904438D01*
X208947619Y-99904438D02*
X208995238Y-99952057D01*
X208995238Y-99952057D02*
X209042857Y-100047295D01*
X209042857Y-100047295D02*
X209042857Y-100142533D01*
X209042857Y-100142533D02*
X208995238Y-100285390D01*
X208995238Y-100285390D02*
X208423810Y-100856819D01*
X208423810Y-100856819D02*
X209042857Y-100856819D01*
X216164285Y-56881009D02*
X216307142Y-56928628D01*
X216307142Y-56928628D02*
X216354761Y-56976247D01*
X216354761Y-56976247D02*
X216402380Y-57071485D01*
X216402380Y-57071485D02*
X216402380Y-57214342D01*
X216402380Y-57214342D02*
X216354761Y-57309580D01*
X216354761Y-57309580D02*
X216307142Y-57357200D01*
X216307142Y-57357200D02*
X216211904Y-57404819D01*
X216211904Y-57404819D02*
X215830952Y-57404819D01*
X215830952Y-57404819D02*
X215830952Y-56404819D01*
X215830952Y-56404819D02*
X216164285Y-56404819D01*
X216164285Y-56404819D02*
X216259523Y-56452438D01*
X216259523Y-56452438D02*
X216307142Y-56500057D01*
X216307142Y-56500057D02*
X216354761Y-56595295D01*
X216354761Y-56595295D02*
X216354761Y-56690533D01*
X216354761Y-56690533D02*
X216307142Y-56785771D01*
X216307142Y-56785771D02*
X216259523Y-56833390D01*
X216259523Y-56833390D02*
X216164285Y-56881009D01*
X216164285Y-56881009D02*
X215830952Y-56881009D01*
X216688095Y-56404819D02*
X217259523Y-56404819D01*
X216973809Y-57404819D02*
X216973809Y-56404819D01*
X217545238Y-56500057D02*
X217592857Y-56452438D01*
X217592857Y-56452438D02*
X217688095Y-56404819D01*
X217688095Y-56404819D02*
X217926190Y-56404819D01*
X217926190Y-56404819D02*
X218021428Y-56452438D01*
X218021428Y-56452438D02*
X218069047Y-56500057D01*
X218069047Y-56500057D02*
X218116666Y-56595295D01*
X218116666Y-56595295D02*
X218116666Y-56690533D01*
X218116666Y-56690533D02*
X218069047Y-56833390D01*
X218069047Y-56833390D02*
X217497619Y-57404819D01*
X217497619Y-57404819D02*
X218116666Y-57404819D01*
X183904580Y-62742857D02*
X183952200Y-62790476D01*
X183952200Y-62790476D02*
X183999819Y-62933333D01*
X183999819Y-62933333D02*
X183999819Y-63028571D01*
X183999819Y-63028571D02*
X183952200Y-63171428D01*
X183952200Y-63171428D02*
X183856961Y-63266666D01*
X183856961Y-63266666D02*
X183761723Y-63314285D01*
X183761723Y-63314285D02*
X183571247Y-63361904D01*
X183571247Y-63361904D02*
X183428390Y-63361904D01*
X183428390Y-63361904D02*
X183237914Y-63314285D01*
X183237914Y-63314285D02*
X183142676Y-63266666D01*
X183142676Y-63266666D02*
X183047438Y-63171428D01*
X183047438Y-63171428D02*
X182999819Y-63028571D01*
X182999819Y-63028571D02*
X182999819Y-62933333D01*
X182999819Y-62933333D02*
X183047438Y-62790476D01*
X183047438Y-62790476D02*
X183095057Y-62742857D01*
X183999819Y-61790476D02*
X183999819Y-62361904D01*
X183999819Y-62076190D02*
X182999819Y-62076190D01*
X182999819Y-62076190D02*
X183142676Y-62171428D01*
X183142676Y-62171428D02*
X183237914Y-62266666D01*
X183237914Y-62266666D02*
X183285533Y-62361904D01*
X183095057Y-61409523D02*
X183047438Y-61361904D01*
X183047438Y-61361904D02*
X182999819Y-61266666D01*
X182999819Y-61266666D02*
X182999819Y-61028571D01*
X182999819Y-61028571D02*
X183047438Y-60933333D01*
X183047438Y-60933333D02*
X183095057Y-60885714D01*
X183095057Y-60885714D02*
X183190295Y-60838095D01*
X183190295Y-60838095D02*
X183285533Y-60838095D01*
X183285533Y-60838095D02*
X183428390Y-60885714D01*
X183428390Y-60885714D02*
X183999819Y-61457142D01*
X183999819Y-61457142D02*
X183999819Y-60838095D01*
X173081009Y-59133333D02*
X173081009Y-59466666D01*
X173604819Y-59466666D02*
X172604819Y-59466666D01*
X172604819Y-59466666D02*
X172604819Y-58990476D01*
X173604819Y-58085714D02*
X173604819Y-58657142D01*
X173604819Y-58371428D02*
X172604819Y-58371428D01*
X172604819Y-58371428D02*
X172747676Y-58466666D01*
X172747676Y-58466666D02*
X172842914Y-58561904D01*
X172842914Y-58561904D02*
X172890533Y-58657142D01*
X198953333Y-104504819D02*
X198620000Y-104028628D01*
X198381905Y-104504819D02*
X198381905Y-103504819D01*
X198381905Y-103504819D02*
X198762857Y-103504819D01*
X198762857Y-103504819D02*
X198858095Y-103552438D01*
X198858095Y-103552438D02*
X198905714Y-103600057D01*
X198905714Y-103600057D02*
X198953333Y-103695295D01*
X198953333Y-103695295D02*
X198953333Y-103838152D01*
X198953333Y-103838152D02*
X198905714Y-103933390D01*
X198905714Y-103933390D02*
X198858095Y-103981009D01*
X198858095Y-103981009D02*
X198762857Y-104028628D01*
X198762857Y-104028628D02*
X198381905Y-104028628D01*
X199858095Y-103504819D02*
X199381905Y-103504819D01*
X199381905Y-103504819D02*
X199334286Y-103981009D01*
X199334286Y-103981009D02*
X199381905Y-103933390D01*
X199381905Y-103933390D02*
X199477143Y-103885771D01*
X199477143Y-103885771D02*
X199715238Y-103885771D01*
X199715238Y-103885771D02*
X199810476Y-103933390D01*
X199810476Y-103933390D02*
X199858095Y-103981009D01*
X199858095Y-103981009D02*
X199905714Y-104076247D01*
X199905714Y-104076247D02*
X199905714Y-104314342D01*
X199905714Y-104314342D02*
X199858095Y-104409580D01*
X199858095Y-104409580D02*
X199810476Y-104457200D01*
X199810476Y-104457200D02*
X199715238Y-104504819D01*
X199715238Y-104504819D02*
X199477143Y-104504819D01*
X199477143Y-104504819D02*
X199381905Y-104457200D01*
X199381905Y-104457200D02*
X199334286Y-104409580D01*
X215704761Y-84150057D02*
X215609523Y-84102438D01*
X215609523Y-84102438D02*
X215514285Y-84007200D01*
X215514285Y-84007200D02*
X215371428Y-83864342D01*
X215371428Y-83864342D02*
X215276190Y-83816723D01*
X215276190Y-83816723D02*
X215180952Y-83816723D01*
X215228571Y-84054819D02*
X215133333Y-84007200D01*
X215133333Y-84007200D02*
X215038095Y-83911961D01*
X215038095Y-83911961D02*
X214990476Y-83721485D01*
X214990476Y-83721485D02*
X214990476Y-83388152D01*
X214990476Y-83388152D02*
X215038095Y-83197676D01*
X215038095Y-83197676D02*
X215133333Y-83102438D01*
X215133333Y-83102438D02*
X215228571Y-83054819D01*
X215228571Y-83054819D02*
X215419047Y-83054819D01*
X215419047Y-83054819D02*
X215514285Y-83102438D01*
X215514285Y-83102438D02*
X215609523Y-83197676D01*
X215609523Y-83197676D02*
X215657142Y-83388152D01*
X215657142Y-83388152D02*
X215657142Y-83721485D01*
X215657142Y-83721485D02*
X215609523Y-83911961D01*
X215609523Y-83911961D02*
X215514285Y-84007200D01*
X215514285Y-84007200D02*
X215419047Y-84054819D01*
X215419047Y-84054819D02*
X215228571Y-84054819D01*
X215990476Y-83054819D02*
X216609523Y-83054819D01*
X216609523Y-83054819D02*
X216276190Y-83435771D01*
X216276190Y-83435771D02*
X216419047Y-83435771D01*
X216419047Y-83435771D02*
X216514285Y-83483390D01*
X216514285Y-83483390D02*
X216561904Y-83531009D01*
X216561904Y-83531009D02*
X216609523Y-83626247D01*
X216609523Y-83626247D02*
X216609523Y-83864342D01*
X216609523Y-83864342D02*
X216561904Y-83959580D01*
X216561904Y-83959580D02*
X216514285Y-84007200D01*
X216514285Y-84007200D02*
X216419047Y-84054819D01*
X216419047Y-84054819D02*
X216133333Y-84054819D01*
X216133333Y-84054819D02*
X216038095Y-84007200D01*
X216038095Y-84007200D02*
X215990476Y-83959580D01*
X171357142Y-110759580D02*
X171309523Y-110807200D01*
X171309523Y-110807200D02*
X171166666Y-110854819D01*
X171166666Y-110854819D02*
X171071428Y-110854819D01*
X171071428Y-110854819D02*
X170928571Y-110807200D01*
X170928571Y-110807200D02*
X170833333Y-110711961D01*
X170833333Y-110711961D02*
X170785714Y-110616723D01*
X170785714Y-110616723D02*
X170738095Y-110426247D01*
X170738095Y-110426247D02*
X170738095Y-110283390D01*
X170738095Y-110283390D02*
X170785714Y-110092914D01*
X170785714Y-110092914D02*
X170833333Y-109997676D01*
X170833333Y-109997676D02*
X170928571Y-109902438D01*
X170928571Y-109902438D02*
X171071428Y-109854819D01*
X171071428Y-109854819D02*
X171166666Y-109854819D01*
X171166666Y-109854819D02*
X171309523Y-109902438D01*
X171309523Y-109902438D02*
X171357142Y-109950057D01*
X172309523Y-110854819D02*
X171738095Y-110854819D01*
X172023809Y-110854819D02*
X172023809Y-109854819D01*
X172023809Y-109854819D02*
X171928571Y-109997676D01*
X171928571Y-109997676D02*
X171833333Y-110092914D01*
X171833333Y-110092914D02*
X171738095Y-110140533D01*
X173166666Y-110188152D02*
X173166666Y-110854819D01*
X172928571Y-109807200D02*
X172690476Y-110521485D01*
X172690476Y-110521485D02*
X173309523Y-110521485D01*
X198833333Y-97354819D02*
X198500000Y-96878628D01*
X198261905Y-97354819D02*
X198261905Y-96354819D01*
X198261905Y-96354819D02*
X198642857Y-96354819D01*
X198642857Y-96354819D02*
X198738095Y-96402438D01*
X198738095Y-96402438D02*
X198785714Y-96450057D01*
X198785714Y-96450057D02*
X198833333Y-96545295D01*
X198833333Y-96545295D02*
X198833333Y-96688152D01*
X198833333Y-96688152D02*
X198785714Y-96783390D01*
X198785714Y-96783390D02*
X198738095Y-96831009D01*
X198738095Y-96831009D02*
X198642857Y-96878628D01*
X198642857Y-96878628D02*
X198261905Y-96878628D01*
X199166667Y-96354819D02*
X199833333Y-96354819D01*
X199833333Y-96354819D02*
X199404762Y-97354819D01*
X162054819Y-72414285D02*
X161054819Y-72414285D01*
X161054819Y-72414285D02*
X161054819Y-72176190D01*
X161054819Y-72176190D02*
X161102438Y-72033333D01*
X161102438Y-72033333D02*
X161197676Y-71938095D01*
X161197676Y-71938095D02*
X161292914Y-71890476D01*
X161292914Y-71890476D02*
X161483390Y-71842857D01*
X161483390Y-71842857D02*
X161626247Y-71842857D01*
X161626247Y-71842857D02*
X161816723Y-71890476D01*
X161816723Y-71890476D02*
X161911961Y-71938095D01*
X161911961Y-71938095D02*
X162007200Y-72033333D01*
X162007200Y-72033333D02*
X162054819Y-72176190D01*
X162054819Y-72176190D02*
X162054819Y-72414285D01*
X162054819Y-70890476D02*
X162054819Y-71461904D01*
X162054819Y-71176190D02*
X161054819Y-71176190D01*
X161054819Y-71176190D02*
X161197676Y-71271428D01*
X161197676Y-71271428D02*
X161292914Y-71366666D01*
X161292914Y-71366666D02*
X161340533Y-71461904D01*
X161054819Y-70271428D02*
X161054819Y-70176190D01*
X161054819Y-70176190D02*
X161102438Y-70080952D01*
X161102438Y-70080952D02*
X161150057Y-70033333D01*
X161150057Y-70033333D02*
X161245295Y-69985714D01*
X161245295Y-69985714D02*
X161435771Y-69938095D01*
X161435771Y-69938095D02*
X161673866Y-69938095D01*
X161673866Y-69938095D02*
X161864342Y-69985714D01*
X161864342Y-69985714D02*
X161959580Y-70033333D01*
X161959580Y-70033333D02*
X162007200Y-70080952D01*
X162007200Y-70080952D02*
X162054819Y-70176190D01*
X162054819Y-70176190D02*
X162054819Y-70271428D01*
X162054819Y-70271428D02*
X162007200Y-70366666D01*
X162007200Y-70366666D02*
X161959580Y-70414285D01*
X161959580Y-70414285D02*
X161864342Y-70461904D01*
X161864342Y-70461904D02*
X161673866Y-70509523D01*
X161673866Y-70509523D02*
X161435771Y-70509523D01*
X161435771Y-70509523D02*
X161245295Y-70461904D01*
X161245295Y-70461904D02*
X161150057Y-70414285D01*
X161150057Y-70414285D02*
X161102438Y-70366666D01*
X161102438Y-70366666D02*
X161054819Y-70271428D01*
X210584819Y-107098094D02*
X209584819Y-107098094D01*
X209584819Y-107098094D02*
X209584819Y-106859999D01*
X209584819Y-106859999D02*
X209632438Y-106717142D01*
X209632438Y-106717142D02*
X209727676Y-106621904D01*
X209727676Y-106621904D02*
X209822914Y-106574285D01*
X209822914Y-106574285D02*
X210013390Y-106526666D01*
X210013390Y-106526666D02*
X210156247Y-106526666D01*
X210156247Y-106526666D02*
X210346723Y-106574285D01*
X210346723Y-106574285D02*
X210441961Y-106621904D01*
X210441961Y-106621904D02*
X210537200Y-106717142D01*
X210537200Y-106717142D02*
X210584819Y-106859999D01*
X210584819Y-106859999D02*
X210584819Y-107098094D01*
X210013390Y-105955237D02*
X209965771Y-106050475D01*
X209965771Y-106050475D02*
X209918152Y-106098094D01*
X209918152Y-106098094D02*
X209822914Y-106145713D01*
X209822914Y-106145713D02*
X209775295Y-106145713D01*
X209775295Y-106145713D02*
X209680057Y-106098094D01*
X209680057Y-106098094D02*
X209632438Y-106050475D01*
X209632438Y-106050475D02*
X209584819Y-105955237D01*
X209584819Y-105955237D02*
X209584819Y-105764761D01*
X209584819Y-105764761D02*
X209632438Y-105669523D01*
X209632438Y-105669523D02*
X209680057Y-105621904D01*
X209680057Y-105621904D02*
X209775295Y-105574285D01*
X209775295Y-105574285D02*
X209822914Y-105574285D01*
X209822914Y-105574285D02*
X209918152Y-105621904D01*
X209918152Y-105621904D02*
X209965771Y-105669523D01*
X209965771Y-105669523D02*
X210013390Y-105764761D01*
X210013390Y-105764761D02*
X210013390Y-105955237D01*
X210013390Y-105955237D02*
X210061009Y-106050475D01*
X210061009Y-106050475D02*
X210108628Y-106098094D01*
X210108628Y-106098094D02*
X210203866Y-106145713D01*
X210203866Y-106145713D02*
X210394342Y-106145713D01*
X210394342Y-106145713D02*
X210489580Y-106098094D01*
X210489580Y-106098094D02*
X210537200Y-106050475D01*
X210537200Y-106050475D02*
X210584819Y-105955237D01*
X210584819Y-105955237D02*
X210584819Y-105764761D01*
X210584819Y-105764761D02*
X210537200Y-105669523D01*
X210537200Y-105669523D02*
X210489580Y-105621904D01*
X210489580Y-105621904D02*
X210394342Y-105574285D01*
X210394342Y-105574285D02*
X210203866Y-105574285D01*
X210203866Y-105574285D02*
X210108628Y-105621904D01*
X210108628Y-105621904D02*
X210061009Y-105669523D01*
X210061009Y-105669523D02*
X210013390Y-105764761D01*
X194238095Y-83774819D02*
X194238095Y-84584342D01*
X194238095Y-84584342D02*
X194285714Y-84679580D01*
X194285714Y-84679580D02*
X194333333Y-84727200D01*
X194333333Y-84727200D02*
X194428571Y-84774819D01*
X194428571Y-84774819D02*
X194619047Y-84774819D01*
X194619047Y-84774819D02*
X194714285Y-84727200D01*
X194714285Y-84727200D02*
X194761904Y-84679580D01*
X194761904Y-84679580D02*
X194809523Y-84584342D01*
X194809523Y-84584342D02*
X194809523Y-83774819D01*
X195428571Y-84203390D02*
X195333333Y-84155771D01*
X195333333Y-84155771D02*
X195285714Y-84108152D01*
X195285714Y-84108152D02*
X195238095Y-84012914D01*
X195238095Y-84012914D02*
X195238095Y-83965295D01*
X195238095Y-83965295D02*
X195285714Y-83870057D01*
X195285714Y-83870057D02*
X195333333Y-83822438D01*
X195333333Y-83822438D02*
X195428571Y-83774819D01*
X195428571Y-83774819D02*
X195619047Y-83774819D01*
X195619047Y-83774819D02*
X195714285Y-83822438D01*
X195714285Y-83822438D02*
X195761904Y-83870057D01*
X195761904Y-83870057D02*
X195809523Y-83965295D01*
X195809523Y-83965295D02*
X195809523Y-84012914D01*
X195809523Y-84012914D02*
X195761904Y-84108152D01*
X195761904Y-84108152D02*
X195714285Y-84155771D01*
X195714285Y-84155771D02*
X195619047Y-84203390D01*
X195619047Y-84203390D02*
X195428571Y-84203390D01*
X195428571Y-84203390D02*
X195333333Y-84251009D01*
X195333333Y-84251009D02*
X195285714Y-84298628D01*
X195285714Y-84298628D02*
X195238095Y-84393866D01*
X195238095Y-84393866D02*
X195238095Y-84584342D01*
X195238095Y-84584342D02*
X195285714Y-84679580D01*
X195285714Y-84679580D02*
X195333333Y-84727200D01*
X195333333Y-84727200D02*
X195428571Y-84774819D01*
X195428571Y-84774819D02*
X195619047Y-84774819D01*
X195619047Y-84774819D02*
X195714285Y-84727200D01*
X195714285Y-84727200D02*
X195761904Y-84679580D01*
X195761904Y-84679580D02*
X195809523Y-84584342D01*
X195809523Y-84584342D02*
X195809523Y-84393866D01*
X195809523Y-84393866D02*
X195761904Y-84298628D01*
X195761904Y-84298628D02*
X195714285Y-84251009D01*
X195714285Y-84251009D02*
X195619047Y-84203390D01*
X198953333Y-93954819D02*
X198620000Y-93478628D01*
X198381905Y-93954819D02*
X198381905Y-92954819D01*
X198381905Y-92954819D02*
X198762857Y-92954819D01*
X198762857Y-92954819D02*
X198858095Y-93002438D01*
X198858095Y-93002438D02*
X198905714Y-93050057D01*
X198905714Y-93050057D02*
X198953333Y-93145295D01*
X198953333Y-93145295D02*
X198953333Y-93288152D01*
X198953333Y-93288152D02*
X198905714Y-93383390D01*
X198905714Y-93383390D02*
X198858095Y-93431009D01*
X198858095Y-93431009D02*
X198762857Y-93478628D01*
X198762857Y-93478628D02*
X198381905Y-93478628D01*
X199524762Y-93383390D02*
X199429524Y-93335771D01*
X199429524Y-93335771D02*
X199381905Y-93288152D01*
X199381905Y-93288152D02*
X199334286Y-93192914D01*
X199334286Y-93192914D02*
X199334286Y-93145295D01*
X199334286Y-93145295D02*
X199381905Y-93050057D01*
X199381905Y-93050057D02*
X199429524Y-93002438D01*
X199429524Y-93002438D02*
X199524762Y-92954819D01*
X199524762Y-92954819D02*
X199715238Y-92954819D01*
X199715238Y-92954819D02*
X199810476Y-93002438D01*
X199810476Y-93002438D02*
X199858095Y-93050057D01*
X199858095Y-93050057D02*
X199905714Y-93145295D01*
X199905714Y-93145295D02*
X199905714Y-93192914D01*
X199905714Y-93192914D02*
X199858095Y-93288152D01*
X199858095Y-93288152D02*
X199810476Y-93335771D01*
X199810476Y-93335771D02*
X199715238Y-93383390D01*
X199715238Y-93383390D02*
X199524762Y-93383390D01*
X199524762Y-93383390D02*
X199429524Y-93431009D01*
X199429524Y-93431009D02*
X199381905Y-93478628D01*
X199381905Y-93478628D02*
X199334286Y-93573866D01*
X199334286Y-93573866D02*
X199334286Y-93764342D01*
X199334286Y-93764342D02*
X199381905Y-93859580D01*
X199381905Y-93859580D02*
X199429524Y-93907200D01*
X199429524Y-93907200D02*
X199524762Y-93954819D01*
X199524762Y-93954819D02*
X199715238Y-93954819D01*
X199715238Y-93954819D02*
X199810476Y-93907200D01*
X199810476Y-93907200D02*
X199858095Y-93859580D01*
X199858095Y-93859580D02*
X199905714Y-93764342D01*
X199905714Y-93764342D02*
X199905714Y-93573866D01*
X199905714Y-93573866D02*
X199858095Y-93478628D01*
X199858095Y-93478628D02*
X199810476Y-93431009D01*
X199810476Y-93431009D02*
X199715238Y-93383390D01*
X185402142Y-66959580D02*
X185354523Y-67007200D01*
X185354523Y-67007200D02*
X185211666Y-67054819D01*
X185211666Y-67054819D02*
X185116428Y-67054819D01*
X185116428Y-67054819D02*
X184973571Y-67007200D01*
X184973571Y-67007200D02*
X184878333Y-66911961D01*
X184878333Y-66911961D02*
X184830714Y-66816723D01*
X184830714Y-66816723D02*
X184783095Y-66626247D01*
X184783095Y-66626247D02*
X184783095Y-66483390D01*
X184783095Y-66483390D02*
X184830714Y-66292914D01*
X184830714Y-66292914D02*
X184878333Y-66197676D01*
X184878333Y-66197676D02*
X184973571Y-66102438D01*
X184973571Y-66102438D02*
X185116428Y-66054819D01*
X185116428Y-66054819D02*
X185211666Y-66054819D01*
X185211666Y-66054819D02*
X185354523Y-66102438D01*
X185354523Y-66102438D02*
X185402142Y-66150057D01*
X186354523Y-67054819D02*
X185783095Y-67054819D01*
X186068809Y-67054819D02*
X186068809Y-66054819D01*
X186068809Y-66054819D02*
X185973571Y-66197676D01*
X185973571Y-66197676D02*
X185878333Y-66292914D01*
X185878333Y-66292914D02*
X185783095Y-66340533D01*
X187306904Y-67054819D02*
X186735476Y-67054819D01*
X187021190Y-67054819D02*
X187021190Y-66054819D01*
X187021190Y-66054819D02*
X186925952Y-66197676D01*
X186925952Y-66197676D02*
X186830714Y-66292914D01*
X186830714Y-66292914D02*
X186735476Y-66340533D01*
X186752380Y-93564819D02*
X186419047Y-93088628D01*
X186180952Y-93564819D02*
X186180952Y-92564819D01*
X186180952Y-92564819D02*
X186561904Y-92564819D01*
X186561904Y-92564819D02*
X186657142Y-92612438D01*
X186657142Y-92612438D02*
X186704761Y-92660057D01*
X186704761Y-92660057D02*
X186752380Y-92755295D01*
X186752380Y-92755295D02*
X186752380Y-92898152D01*
X186752380Y-92898152D02*
X186704761Y-92993390D01*
X186704761Y-92993390D02*
X186657142Y-93041009D01*
X186657142Y-93041009D02*
X186561904Y-93088628D01*
X186561904Y-93088628D02*
X186180952Y-93088628D01*
X187180952Y-93041009D02*
X187514285Y-93041009D01*
X187657142Y-93564819D02*
X187180952Y-93564819D01*
X187180952Y-93564819D02*
X187180952Y-92564819D01*
X187180952Y-92564819D02*
X187657142Y-92564819D01*
X188419047Y-93041009D02*
X188085714Y-93041009D01*
X188085714Y-93564819D02*
X188085714Y-92564819D01*
X188085714Y-92564819D02*
X188561904Y-92564819D01*
X189466666Y-93564819D02*
X188895238Y-93564819D01*
X189180952Y-93564819D02*
X189180952Y-92564819D01*
X189180952Y-92564819D02*
X189085714Y-92707676D01*
X189085714Y-92707676D02*
X188990476Y-92802914D01*
X188990476Y-92802914D02*
X188895238Y-92850533D01*
X208854819Y-92661904D02*
X208854819Y-92090476D01*
X209854819Y-92376190D02*
X208854819Y-92376190D01*
X209854819Y-91757142D02*
X208854819Y-91757142D01*
X208854819Y-91757142D02*
X208854819Y-91376190D01*
X208854819Y-91376190D02*
X208902438Y-91280952D01*
X208902438Y-91280952D02*
X208950057Y-91233333D01*
X208950057Y-91233333D02*
X209045295Y-91185714D01*
X209045295Y-91185714D02*
X209188152Y-91185714D01*
X209188152Y-91185714D02*
X209283390Y-91233333D01*
X209283390Y-91233333D02*
X209331009Y-91280952D01*
X209331009Y-91280952D02*
X209378628Y-91376190D01*
X209378628Y-91376190D02*
X209378628Y-91757142D01*
X209283390Y-90614285D02*
X209235771Y-90709523D01*
X209235771Y-90709523D02*
X209188152Y-90757142D01*
X209188152Y-90757142D02*
X209092914Y-90804761D01*
X209092914Y-90804761D02*
X209045295Y-90804761D01*
X209045295Y-90804761D02*
X208950057Y-90757142D01*
X208950057Y-90757142D02*
X208902438Y-90709523D01*
X208902438Y-90709523D02*
X208854819Y-90614285D01*
X208854819Y-90614285D02*
X208854819Y-90423809D01*
X208854819Y-90423809D02*
X208902438Y-90328571D01*
X208902438Y-90328571D02*
X208950057Y-90280952D01*
X208950057Y-90280952D02*
X209045295Y-90233333D01*
X209045295Y-90233333D02*
X209092914Y-90233333D01*
X209092914Y-90233333D02*
X209188152Y-90280952D01*
X209188152Y-90280952D02*
X209235771Y-90328571D01*
X209235771Y-90328571D02*
X209283390Y-90423809D01*
X209283390Y-90423809D02*
X209283390Y-90614285D01*
X209283390Y-90614285D02*
X209331009Y-90709523D01*
X209331009Y-90709523D02*
X209378628Y-90757142D01*
X209378628Y-90757142D02*
X209473866Y-90804761D01*
X209473866Y-90804761D02*
X209664342Y-90804761D01*
X209664342Y-90804761D02*
X209759580Y-90757142D01*
X209759580Y-90757142D02*
X209807200Y-90709523D01*
X209807200Y-90709523D02*
X209854819Y-90614285D01*
X209854819Y-90614285D02*
X209854819Y-90423809D01*
X209854819Y-90423809D02*
X209807200Y-90328571D01*
X209807200Y-90328571D02*
X209759580Y-90280952D01*
X209759580Y-90280952D02*
X209664342Y-90233333D01*
X209664342Y-90233333D02*
X209473866Y-90233333D01*
X209473866Y-90233333D02*
X209378628Y-90280952D01*
X209378628Y-90280952D02*
X209331009Y-90328571D01*
X209331009Y-90328571D02*
X209283390Y-90423809D01*
X207266666Y-104744819D02*
X207266666Y-105459104D01*
X207266666Y-105459104D02*
X207219047Y-105601961D01*
X207219047Y-105601961D02*
X207123809Y-105697200D01*
X207123809Y-105697200D02*
X206980952Y-105744819D01*
X206980952Y-105744819D02*
X206885714Y-105744819D01*
X208171428Y-105078152D02*
X208171428Y-105744819D01*
X207933333Y-104697200D02*
X207695238Y-105411485D01*
X207695238Y-105411485D02*
X208314285Y-105411485D01*
D11*
X205260000Y-64655000D02*
X221135000Y-64655000D01*
X205260000Y-85610000D02*
X205260000Y-64655000D01*
X214150000Y-70370000D02*
X213515000Y-71005000D01*
X214150000Y-70370000D02*
X214785000Y-71005000D01*
X214150000Y-74180000D02*
X214150000Y-70370000D01*
X214150000Y-74180000D02*
X217960000Y-74180000D01*
X217960000Y-74180000D02*
X217325000Y-73545000D01*
X217960000Y-74180000D02*
X217325000Y-74815000D01*
X221135000Y-64655000D02*
X221135000Y-85610000D01*
D12*
X214972936Y-80665000D02*
X215427064Y-80665000D01*
X214972936Y-82135000D02*
X215427064Y-82135000D01*
X213027064Y-84135000D02*
X212572936Y-84135000D01*
X213027064Y-82665000D02*
X212572936Y-82665000D01*
X205490000Y-59036252D02*
X205490000Y-58513748D01*
X206910000Y-59036252D02*
X206910000Y-58513748D01*
X214290000Y-111890000D02*
X221970000Y-111890000D01*
X214290000Y-111890000D02*
X214290000Y-109230000D01*
X221970000Y-111890000D02*
X221970000Y-109230000D01*
X211690000Y-110560000D02*
X211690000Y-109230000D01*
X211690000Y-109230000D02*
X213020000Y-109230000D01*
X214290000Y-109230000D02*
X221970000Y-109230000D01*
X191005000Y-78078748D02*
X191005000Y-78601252D01*
X189535000Y-78078748D02*
X189535000Y-78601252D01*
X199347064Y-99795000D02*
X198892936Y-99795000D01*
X199347064Y-98325000D02*
X198892936Y-98325000D01*
X158920000Y-78040000D02*
X158920000Y-79960000D01*
X158920000Y-79960000D02*
X161780000Y-79960000D01*
X161780000Y-78040000D02*
X158920000Y-78040000D01*
X197227064Y-67235000D02*
X196772936Y-67235000D01*
X197227064Y-65765000D02*
X196772936Y-65765000D01*
X161752500Y-89975000D02*
X161752500Y-87375000D01*
X161752500Y-89975000D02*
X159092500Y-89975000D01*
X161752500Y-87375000D02*
X159092500Y-87375000D01*
X160422500Y-92575000D02*
X159092500Y-92575000D01*
X159092500Y-92575000D02*
X159092500Y-91245000D01*
X159092500Y-89975000D02*
X159092500Y-87375000D01*
X190265000Y-71761252D02*
X190265000Y-71238748D01*
X191735000Y-71761252D02*
X191735000Y-71238748D01*
X199347064Y-106535000D02*
X198892936Y-106535000D01*
X199347064Y-105065000D02*
X198892936Y-105065000D01*
D11*
X212987500Y-96112500D02*
X221337500Y-96112500D01*
X221337500Y-96112500D02*
X221337500Y-89612500D01*
X212987500Y-89612500D02*
X212987500Y-96112500D01*
X221337500Y-89612500D02*
X212987500Y-89612500D01*
D13*
X211587500Y-96862500D02*
G75*
G03*
X211587500Y-96862500I-100000J0D01*
G01*
D12*
X181465000Y-88027064D02*
X181465000Y-87572936D01*
X182935000Y-88027064D02*
X182935000Y-87572936D01*
X175700000Y-83000000D02*
G75*
G03*
X175700000Y-83000000I-1200000J0D01*
G01*
X162020354Y-70625000D02*
X163020354Y-70625000D01*
X162520354Y-70125000D02*
X162520354Y-71125000D01*
X167500000Y-68420000D02*
X167500000Y-78580000D01*
X167540000Y-68420000D02*
X167540000Y-78580000D01*
X167580000Y-68420000D02*
X167580000Y-78580000D01*
X167620000Y-68421000D02*
X167620000Y-78579000D01*
X167660000Y-68422000D02*
X167660000Y-78578000D01*
X167700000Y-68423000D02*
X167700000Y-78577000D01*
X167740000Y-68425000D02*
X167740000Y-78575000D01*
X167780000Y-68427000D02*
X167780000Y-78573000D01*
X167820000Y-68430000D02*
X167820000Y-78570000D01*
X167860000Y-68432000D02*
X167860000Y-78568000D01*
X167900000Y-68435000D02*
X167900000Y-78565000D01*
X167940000Y-68438000D02*
X167940000Y-78562000D01*
X167980000Y-68442000D02*
X167980000Y-78558000D01*
X168020000Y-68446000D02*
X168020000Y-78554000D01*
X168060000Y-68450000D02*
X168060000Y-78550000D01*
X168100000Y-68455000D02*
X168100000Y-78545000D01*
X168140000Y-68460000D02*
X168140000Y-78540000D01*
X168180000Y-68465000D02*
X168180000Y-78535000D01*
X168221000Y-68470000D02*
X168221000Y-78530000D01*
X168261000Y-68476000D02*
X168261000Y-78524000D01*
X168301000Y-68482000D02*
X168301000Y-78518000D01*
X168341000Y-68489000D02*
X168341000Y-78511000D01*
X168381000Y-68496000D02*
X168381000Y-78504000D01*
X168421000Y-68503000D02*
X168421000Y-78497000D01*
X168461000Y-68510000D02*
X168461000Y-78490000D01*
X168501000Y-68518000D02*
X168501000Y-78482000D01*
X168541000Y-68526000D02*
X168541000Y-78474000D01*
X168581000Y-68535000D02*
X168581000Y-78465000D01*
X168621000Y-68544000D02*
X168621000Y-78456000D01*
X168661000Y-68553000D02*
X168661000Y-78447000D01*
X168701000Y-68562000D02*
X168701000Y-78438000D01*
X168741000Y-68572000D02*
X168741000Y-78428000D01*
X168781000Y-68582000D02*
X168781000Y-72259000D01*
X168781000Y-74741000D02*
X168781000Y-78418000D01*
X168821000Y-68593000D02*
X168821000Y-72259000D01*
X168821000Y-74741000D02*
X168821000Y-78407000D01*
X168861000Y-68603000D02*
X168861000Y-72259000D01*
X168861000Y-74741000D02*
X168861000Y-78397000D01*
X168901000Y-68615000D02*
X168901000Y-72259000D01*
X168901000Y-74741000D02*
X168901000Y-78385000D01*
X168941000Y-68626000D02*
X168941000Y-72259000D01*
X168941000Y-74741000D02*
X168941000Y-78374000D01*
X168981000Y-68638000D02*
X168981000Y-72259000D01*
X168981000Y-74741000D02*
X168981000Y-78362000D01*
X169021000Y-68650000D02*
X169021000Y-72259000D01*
X169021000Y-74741000D02*
X169021000Y-78350000D01*
X169061000Y-68663000D02*
X169061000Y-72259000D01*
X169061000Y-74741000D02*
X169061000Y-78337000D01*
X169101000Y-68676000D02*
X169101000Y-72259000D01*
X169101000Y-74741000D02*
X169101000Y-78324000D01*
X169141000Y-68689000D02*
X169141000Y-72259000D01*
X169141000Y-74741000D02*
X169141000Y-78311000D01*
X169181000Y-68703000D02*
X169181000Y-72259000D01*
X169181000Y-74741000D02*
X169181000Y-78297000D01*
X169221000Y-68717000D02*
X169221000Y-72259000D01*
X169221000Y-74741000D02*
X169221000Y-78283000D01*
X169261000Y-68732000D02*
X169261000Y-72259000D01*
X169261000Y-74741000D02*
X169261000Y-78268000D01*
X169301000Y-68746000D02*
X169301000Y-72259000D01*
X169301000Y-74741000D02*
X169301000Y-78254000D01*
X169341000Y-68762000D02*
X169341000Y-72259000D01*
X169341000Y-74741000D02*
X169341000Y-78238000D01*
X169381000Y-68777000D02*
X169381000Y-72259000D01*
X169381000Y-74741000D02*
X169381000Y-78223000D01*
X169421000Y-68793000D02*
X169421000Y-72259000D01*
X169421000Y-74741000D02*
X169421000Y-78207000D01*
X169461000Y-68810000D02*
X169461000Y-72259000D01*
X169461000Y-74741000D02*
X169461000Y-78190000D01*
X169501000Y-68826000D02*
X169501000Y-72259000D01*
X169501000Y-74741000D02*
X169501000Y-78174000D01*
X169541000Y-68843000D02*
X169541000Y-72259000D01*
X169541000Y-74741000D02*
X169541000Y-78157000D01*
X169581000Y-68861000D02*
X169581000Y-72259000D01*
X169581000Y-74741000D02*
X169581000Y-78139000D01*
X169621000Y-68879000D02*
X169621000Y-72259000D01*
X169621000Y-74741000D02*
X169621000Y-78121000D01*
X169661000Y-68897000D02*
X169661000Y-72259000D01*
X169661000Y-74741000D02*
X169661000Y-78103000D01*
X169701000Y-68916000D02*
X169701000Y-72259000D01*
X169701000Y-74741000D02*
X169701000Y-78084000D01*
X169741000Y-68936000D02*
X169741000Y-72259000D01*
X169741000Y-74741000D02*
X169741000Y-78064000D01*
X169781000Y-68955000D02*
X169781000Y-72259000D01*
X169781000Y-74741000D02*
X169781000Y-78045000D01*
X169821000Y-68975000D02*
X169821000Y-72259000D01*
X169821000Y-74741000D02*
X169821000Y-78025000D01*
X169861000Y-68996000D02*
X169861000Y-72259000D01*
X169861000Y-74741000D02*
X169861000Y-78004000D01*
X169901000Y-69017000D02*
X169901000Y-72259000D01*
X169901000Y-74741000D02*
X169901000Y-77983000D01*
X169941000Y-69038000D02*
X169941000Y-72259000D01*
X169941000Y-74741000D02*
X169941000Y-77962000D01*
X169981000Y-69060000D02*
X169981000Y-72259000D01*
X169981000Y-74741000D02*
X169981000Y-77940000D01*
X170021000Y-69083000D02*
X170021000Y-72259000D01*
X170021000Y-74741000D02*
X170021000Y-77917000D01*
X170061000Y-69105000D02*
X170061000Y-72259000D01*
X170061000Y-74741000D02*
X170061000Y-77895000D01*
X170101000Y-69129000D02*
X170101000Y-72259000D01*
X170101000Y-74741000D02*
X170101000Y-77871000D01*
X170141000Y-69153000D02*
X170141000Y-72259000D01*
X170141000Y-74741000D02*
X170141000Y-77847000D01*
X170181000Y-69177000D02*
X170181000Y-72259000D01*
X170181000Y-74741000D02*
X170181000Y-77823000D01*
X170221000Y-69202000D02*
X170221000Y-72259000D01*
X170221000Y-74741000D02*
X170221000Y-77798000D01*
X170261000Y-69227000D02*
X170261000Y-72259000D01*
X170261000Y-74741000D02*
X170261000Y-77773000D01*
X170301000Y-69253000D02*
X170301000Y-72259000D01*
X170301000Y-74741000D02*
X170301000Y-77747000D01*
X170341000Y-69279000D02*
X170341000Y-72259000D01*
X170341000Y-74741000D02*
X170341000Y-77721000D01*
X170381000Y-69306000D02*
X170381000Y-72259000D01*
X170381000Y-74741000D02*
X170381000Y-77694000D01*
X170421000Y-69334000D02*
X170421000Y-72259000D01*
X170421000Y-74741000D02*
X170421000Y-77666000D01*
X170461000Y-69362000D02*
X170461000Y-72259000D01*
X170461000Y-74741000D02*
X170461000Y-77638000D01*
X170501000Y-69390000D02*
X170501000Y-72259000D01*
X170501000Y-74741000D02*
X170501000Y-77610000D01*
X170541000Y-69420000D02*
X170541000Y-72259000D01*
X170541000Y-74741000D02*
X170541000Y-77580000D01*
X170581000Y-69450000D02*
X170581000Y-72259000D01*
X170581000Y-74741000D02*
X170581000Y-77550000D01*
X170621000Y-69480000D02*
X170621000Y-72259000D01*
X170621000Y-74741000D02*
X170621000Y-77520000D01*
X170661000Y-69511000D02*
X170661000Y-72259000D01*
X170661000Y-74741000D02*
X170661000Y-77489000D01*
X170701000Y-69543000D02*
X170701000Y-72259000D01*
X170701000Y-74741000D02*
X170701000Y-77457000D01*
X170741000Y-69575000D02*
X170741000Y-72259000D01*
X170741000Y-74741000D02*
X170741000Y-77425000D01*
X170781000Y-69608000D02*
X170781000Y-72259000D01*
X170781000Y-74741000D02*
X170781000Y-77392000D01*
X170821000Y-69642000D02*
X170821000Y-72259000D01*
X170821000Y-74741000D02*
X170821000Y-77358000D01*
X170861000Y-69676000D02*
X170861000Y-72259000D01*
X170861000Y-74741000D02*
X170861000Y-77324000D01*
X170901000Y-69711000D02*
X170901000Y-72259000D01*
X170901000Y-74741000D02*
X170901000Y-77289000D01*
X170941000Y-69747000D02*
X170941000Y-72259000D01*
X170941000Y-74741000D02*
X170941000Y-77253000D01*
X170981000Y-69784000D02*
X170981000Y-72259000D01*
X170981000Y-74741000D02*
X170981000Y-77216000D01*
X171021000Y-69821000D02*
X171021000Y-72259000D01*
X171021000Y-74741000D02*
X171021000Y-77179000D01*
X171061000Y-69860000D02*
X171061000Y-72259000D01*
X171061000Y-74741000D02*
X171061000Y-77140000D01*
X171101000Y-69899000D02*
X171101000Y-72259000D01*
X171101000Y-74741000D02*
X171101000Y-77101000D01*
X171141000Y-69939000D02*
X171141000Y-72259000D01*
X171141000Y-74741000D02*
X171141000Y-77061000D01*
X171181000Y-69980000D02*
X171181000Y-72259000D01*
X171181000Y-74741000D02*
X171181000Y-77020000D01*
X171221000Y-70022000D02*
X171221000Y-72259000D01*
X171221000Y-74741000D02*
X171221000Y-76978000D01*
X171261000Y-70064000D02*
X171261000Y-76936000D01*
X171301000Y-70108000D02*
X171301000Y-76892000D01*
X171341000Y-70153000D02*
X171341000Y-76847000D01*
X171381000Y-70199000D02*
X171381000Y-76801000D01*
X171421000Y-70246000D02*
X171421000Y-76754000D01*
X171461000Y-70294000D02*
X171461000Y-76706000D01*
X171501000Y-70344000D02*
X171501000Y-76656000D01*
X171541000Y-70394000D02*
X171541000Y-76606000D01*
X171581000Y-70446000D02*
X171581000Y-76554000D01*
X171621000Y-70500000D02*
X171621000Y-76500000D01*
X171661000Y-70555000D02*
X171661000Y-76445000D01*
X171701000Y-70611000D02*
X171701000Y-76389000D01*
X171741000Y-70670000D02*
X171741000Y-76330000D01*
X171781000Y-70730000D02*
X171781000Y-76270000D01*
X171821000Y-70791000D02*
X171821000Y-76209000D01*
X171861000Y-70855000D02*
X171861000Y-76145000D01*
X171901000Y-70921000D02*
X171901000Y-76079000D01*
X171941000Y-70990000D02*
X171941000Y-76010000D01*
X171981000Y-71061000D02*
X171981000Y-75939000D01*
X172021000Y-71135000D02*
X172021000Y-75865000D01*
X172061000Y-71211000D02*
X172061000Y-75789000D01*
X172101000Y-71291000D02*
X172101000Y-75709000D01*
X172141000Y-71375000D02*
X172141000Y-75625000D01*
X172181000Y-71463000D02*
X172181000Y-75537000D01*
X172221000Y-71556000D02*
X172221000Y-75444000D01*
X172261000Y-71654000D02*
X172261000Y-75346000D01*
X172301000Y-71758000D02*
X172301000Y-75242000D01*
X172341000Y-71870000D02*
X172341000Y-75130000D01*
X172381000Y-71990000D02*
X172381000Y-75010000D01*
X172421000Y-72122000D02*
X172421000Y-74878000D01*
X172461000Y-72270000D02*
X172461000Y-74730000D01*
X172501000Y-72438000D02*
X172501000Y-74562000D01*
X172541000Y-72638000D02*
X172541000Y-74362000D01*
X172581000Y-72901000D02*
X172581000Y-74099000D01*
X172620000Y-73500000D02*
G75*
G03*
X172620000Y-73500000I-5120000J0D01*
G01*
X211960000Y-60140000D02*
X210040000Y-60140000D01*
X210040000Y-60140000D02*
X210040000Y-63000000D01*
X211960000Y-63000000D02*
X211960000Y-60140000D01*
X175700000Y-100600000D02*
G75*
G03*
X175700000Y-100600000I-1200000J0D01*
G01*
X175700000Y-74000000D02*
G75*
G03*
X175700000Y-74000000I-1200000J0D01*
G01*
X159270000Y-61670000D02*
X159270000Y-64270000D01*
X159270000Y-61670000D02*
X161930000Y-61670000D01*
X159270000Y-64270000D02*
X161930000Y-64270000D01*
X160600000Y-59070000D02*
X161930000Y-59070000D01*
X161930000Y-59070000D02*
X161930000Y-60400000D01*
X161930000Y-61670000D02*
X161930000Y-64270000D01*
X161615000Y-103300000D02*
X161615000Y-100700000D01*
X161615000Y-103300000D02*
X158955000Y-103300000D01*
X161615000Y-100700000D02*
X158955000Y-100700000D01*
X160285000Y-105900000D02*
X158955000Y-105900000D01*
X158955000Y-105900000D02*
X158955000Y-104570000D01*
X158955000Y-103300000D02*
X158955000Y-100700000D01*
X167142500Y-102740000D02*
X163542500Y-102740000D01*
X167142500Y-102740000D02*
X169342500Y-102740000D01*
X167142500Y-108210000D02*
X164942500Y-108210000D01*
X167142500Y-108210000D02*
X169342500Y-108210000D01*
X195870000Y-71140000D02*
X197670000Y-71140000D01*
X197670000Y-67920000D02*
X195220000Y-67920000D01*
D11*
X212987500Y-103512500D02*
X221337500Y-103512500D01*
X221337500Y-103512500D02*
X221337500Y-97012500D01*
X212987500Y-97012500D02*
X212987500Y-103512500D01*
X221337500Y-97012500D02*
X212987500Y-97012500D01*
D13*
X211587500Y-104262500D02*
G75*
G03*
X211587500Y-104262500I-100000J0D01*
G01*
D12*
X159092500Y-96515000D02*
X159092500Y-99115000D01*
X159092500Y-96515000D02*
X161752500Y-96515000D01*
X159092500Y-99115000D02*
X161752500Y-99115000D01*
X160422500Y-93915000D02*
X161752500Y-93915000D01*
X161752500Y-93915000D02*
X161752500Y-95245000D01*
X161752500Y-96515000D02*
X161752500Y-99115000D01*
X175700000Y-93000000D02*
G75*
G03*
X175700000Y-93000000I-1200000J0D01*
G01*
X158955000Y-109800000D02*
X158955000Y-112400000D01*
X158955000Y-109800000D02*
X161615000Y-109800000D01*
X158955000Y-112400000D02*
X161615000Y-112400000D01*
X160285000Y-107200000D02*
X161615000Y-107200000D01*
X161615000Y-107200000D02*
X161615000Y-108530000D01*
X161615000Y-109800000D02*
X161615000Y-112400000D01*
X160765000Y-73640000D02*
X158845000Y-73640000D01*
X158845000Y-73640000D02*
X158845000Y-76500000D01*
X160765000Y-76500000D02*
X160765000Y-73640000D01*
X185335000Y-87572936D02*
X185335000Y-88027064D01*
X183865000Y-87572936D02*
X183865000Y-88027064D01*
X201335000Y-84572936D02*
X201335000Y-85027064D01*
X199865000Y-84572936D02*
X199865000Y-85027064D01*
X189550000Y-58740000D02*
X187750000Y-58740000D01*
X187750000Y-61960000D02*
X190200000Y-61960000D01*
X201070000Y-60930000D02*
X201070000Y-63530000D01*
X201070000Y-60930000D02*
X203730000Y-60930000D01*
X201070000Y-63530000D02*
X203730000Y-63530000D01*
X202400000Y-58330000D02*
X203730000Y-58330000D01*
X203730000Y-58330000D02*
X203730000Y-59660000D01*
X203730000Y-60930000D02*
X203730000Y-63530000D01*
X175700000Y-88500000D02*
G75*
G03*
X175700000Y-88500000I-1200000J0D01*
G01*
X181335000Y-73372936D02*
X181335000Y-73827064D01*
X179865000Y-73372936D02*
X179865000Y-73827064D01*
X167898752Y-101935000D02*
X167376248Y-101935000D01*
X167898752Y-100465000D02*
X167376248Y-100465000D01*
X166023752Y-99735000D02*
X165501248Y-99735000D01*
X166023752Y-98265000D02*
X165501248Y-98265000D01*
X173223752Y-105335000D02*
X172701248Y-105335000D01*
X173223752Y-103865000D02*
X172701248Y-103865000D01*
X175700000Y-78500000D02*
G75*
G03*
X175700000Y-78500000I-1200000J0D01*
G01*
X175135000Y-107376248D02*
X175135000Y-107898752D01*
X173665000Y-107376248D02*
X173665000Y-107898752D01*
X210990000Y-86195000D02*
X210990000Y-87605000D01*
X213320000Y-87605000D02*
X212650000Y-87605000D01*
X213310000Y-87605000D02*
X213310000Y-84870000D01*
X211650000Y-87605000D02*
X210990000Y-87605000D01*
X170023752Y-99735000D02*
X169501248Y-99735000D01*
X170023752Y-98265000D02*
X169501248Y-98265000D01*
X188738748Y-81765000D02*
X189261252Y-81765000D01*
X188738748Y-83235000D02*
X189261252Y-83235000D01*
X198735000Y-73201248D02*
X198735000Y-73723752D01*
X197265000Y-73201248D02*
X197265000Y-73723752D01*
X218910000Y-87545000D02*
X218910000Y-86135000D01*
X216580000Y-86135000D02*
X217250000Y-86135000D01*
X216590000Y-86135000D02*
X216590000Y-88870000D01*
X218250000Y-86135000D02*
X218910000Y-86135000D01*
X175700000Y-97500000D02*
G75*
G03*
X175700000Y-97500000I-1200000J0D01*
G01*
X161730000Y-83330000D02*
X161730000Y-80730000D01*
X161730000Y-83330000D02*
X159070000Y-83330000D01*
X161730000Y-80730000D02*
X159070000Y-80730000D01*
X160400000Y-85930000D02*
X159070000Y-85930000D01*
X159070000Y-85930000D02*
X159070000Y-84600000D01*
X159070000Y-83330000D02*
X159070000Y-80730000D01*
X183460000Y-76970000D02*
X184640000Y-76970000D01*
X184640000Y-76640000D02*
X184640000Y-76970000D01*
X184640000Y-76640000D02*
X187360000Y-76640000D01*
X184640000Y-81360000D02*
X184640000Y-81030000D01*
X187360000Y-76640000D02*
X187360000Y-76970000D01*
X187360000Y-81030000D02*
X187360000Y-81360000D01*
X187360000Y-81360000D02*
X184640000Y-81360000D01*
X181335000Y-68972936D02*
X181335000Y-69427064D01*
X179865000Y-68972936D02*
X179865000Y-69427064D01*
X162520354Y-59625000D02*
X163520354Y-59625000D01*
X163020354Y-59125000D02*
X163020354Y-60125000D01*
X168000000Y-57420000D02*
X168000000Y-67580000D01*
X168040000Y-57420000D02*
X168040000Y-67580000D01*
X168080000Y-57420000D02*
X168080000Y-67580000D01*
X168120000Y-57421000D02*
X168120000Y-67579000D01*
X168160000Y-57422000D02*
X168160000Y-67578000D01*
X168200000Y-57423000D02*
X168200000Y-67577000D01*
X168240000Y-57425000D02*
X168240000Y-67575000D01*
X168280000Y-57427000D02*
X168280000Y-67573000D01*
X168320000Y-57430000D02*
X168320000Y-67570000D01*
X168360000Y-57432000D02*
X168360000Y-67568000D01*
X168400000Y-57435000D02*
X168400000Y-67565000D01*
X168440000Y-57438000D02*
X168440000Y-67562000D01*
X168480000Y-57442000D02*
X168480000Y-67558000D01*
X168520000Y-57446000D02*
X168520000Y-67554000D01*
X168560000Y-57450000D02*
X168560000Y-67550000D01*
X168600000Y-57455000D02*
X168600000Y-67545000D01*
X168640000Y-57460000D02*
X168640000Y-67540000D01*
X168680000Y-57465000D02*
X168680000Y-67535000D01*
X168721000Y-57470000D02*
X168721000Y-67530000D01*
X168761000Y-57476000D02*
X168761000Y-67524000D01*
X168801000Y-57482000D02*
X168801000Y-67518000D01*
X168841000Y-57489000D02*
X168841000Y-67511000D01*
X168881000Y-57496000D02*
X168881000Y-67504000D01*
X168921000Y-57503000D02*
X168921000Y-67497000D01*
X168961000Y-57510000D02*
X168961000Y-67490000D01*
X169001000Y-57518000D02*
X169001000Y-67482000D01*
X169041000Y-57526000D02*
X169041000Y-67474000D01*
X169081000Y-57535000D02*
X169081000Y-67465000D01*
X169121000Y-57544000D02*
X169121000Y-67456000D01*
X169161000Y-57553000D02*
X169161000Y-67447000D01*
X169201000Y-57562000D02*
X169201000Y-67438000D01*
X169241000Y-57572000D02*
X169241000Y-67428000D01*
X169281000Y-57582000D02*
X169281000Y-61259000D01*
X169281000Y-63741000D02*
X169281000Y-67418000D01*
X169321000Y-57593000D02*
X169321000Y-61259000D01*
X169321000Y-63741000D02*
X169321000Y-67407000D01*
X169361000Y-57603000D02*
X169361000Y-61259000D01*
X169361000Y-63741000D02*
X169361000Y-67397000D01*
X169401000Y-57615000D02*
X169401000Y-61259000D01*
X169401000Y-63741000D02*
X169401000Y-67385000D01*
X169441000Y-57626000D02*
X169441000Y-61259000D01*
X169441000Y-63741000D02*
X169441000Y-67374000D01*
X169481000Y-57638000D02*
X169481000Y-61259000D01*
X169481000Y-63741000D02*
X169481000Y-67362000D01*
X169521000Y-57650000D02*
X169521000Y-61259000D01*
X169521000Y-63741000D02*
X169521000Y-67350000D01*
X169561000Y-57663000D02*
X169561000Y-61259000D01*
X169561000Y-63741000D02*
X169561000Y-67337000D01*
X169601000Y-57676000D02*
X169601000Y-61259000D01*
X169601000Y-63741000D02*
X169601000Y-67324000D01*
X169641000Y-57689000D02*
X169641000Y-61259000D01*
X169641000Y-63741000D02*
X169641000Y-67311000D01*
X169681000Y-57703000D02*
X169681000Y-61259000D01*
X169681000Y-63741000D02*
X169681000Y-67297000D01*
X169721000Y-57717000D02*
X169721000Y-61259000D01*
X169721000Y-63741000D02*
X169721000Y-67283000D01*
X169761000Y-57732000D02*
X169761000Y-61259000D01*
X169761000Y-63741000D02*
X169761000Y-67268000D01*
X169801000Y-57746000D02*
X169801000Y-61259000D01*
X169801000Y-63741000D02*
X169801000Y-67254000D01*
X169841000Y-57762000D02*
X169841000Y-61259000D01*
X169841000Y-63741000D02*
X169841000Y-67238000D01*
X169881000Y-57777000D02*
X169881000Y-61259000D01*
X169881000Y-63741000D02*
X169881000Y-67223000D01*
X169921000Y-57793000D02*
X169921000Y-61259000D01*
X169921000Y-63741000D02*
X169921000Y-67207000D01*
X169961000Y-57810000D02*
X169961000Y-61259000D01*
X169961000Y-63741000D02*
X169961000Y-67190000D01*
X170001000Y-57826000D02*
X170001000Y-61259000D01*
X170001000Y-63741000D02*
X170001000Y-67174000D01*
X170041000Y-57843000D02*
X170041000Y-61259000D01*
X170041000Y-63741000D02*
X170041000Y-67157000D01*
X170081000Y-57861000D02*
X170081000Y-61259000D01*
X170081000Y-63741000D02*
X170081000Y-67139000D01*
X170121000Y-57879000D02*
X170121000Y-61259000D01*
X170121000Y-63741000D02*
X170121000Y-67121000D01*
X170161000Y-57897000D02*
X170161000Y-61259000D01*
X170161000Y-63741000D02*
X170161000Y-67103000D01*
X170201000Y-57916000D02*
X170201000Y-61259000D01*
X170201000Y-63741000D02*
X170201000Y-67084000D01*
X170241000Y-57936000D02*
X170241000Y-61259000D01*
X170241000Y-63741000D02*
X170241000Y-67064000D01*
X170281000Y-57955000D02*
X170281000Y-61259000D01*
X170281000Y-63741000D02*
X170281000Y-67045000D01*
X170321000Y-57975000D02*
X170321000Y-61259000D01*
X170321000Y-63741000D02*
X170321000Y-67025000D01*
X170361000Y-57996000D02*
X170361000Y-61259000D01*
X170361000Y-63741000D02*
X170361000Y-67004000D01*
X170401000Y-58017000D02*
X170401000Y-61259000D01*
X170401000Y-63741000D02*
X170401000Y-66983000D01*
X170441000Y-58038000D02*
X170441000Y-61259000D01*
X170441000Y-63741000D02*
X170441000Y-66962000D01*
X170481000Y-58060000D02*
X170481000Y-61259000D01*
X170481000Y-63741000D02*
X170481000Y-66940000D01*
X170521000Y-58083000D02*
X170521000Y-61259000D01*
X170521000Y-63741000D02*
X170521000Y-66917000D01*
X170561000Y-58105000D02*
X170561000Y-61259000D01*
X170561000Y-63741000D02*
X170561000Y-66895000D01*
X170601000Y-58129000D02*
X170601000Y-61259000D01*
X170601000Y-63741000D02*
X170601000Y-66871000D01*
X170641000Y-58153000D02*
X170641000Y-61259000D01*
X170641000Y-63741000D02*
X170641000Y-66847000D01*
X170681000Y-58177000D02*
X170681000Y-61259000D01*
X170681000Y-63741000D02*
X170681000Y-66823000D01*
X170721000Y-58202000D02*
X170721000Y-61259000D01*
X170721000Y-63741000D02*
X170721000Y-66798000D01*
X170761000Y-58227000D02*
X170761000Y-61259000D01*
X170761000Y-63741000D02*
X170761000Y-66773000D01*
X170801000Y-58253000D02*
X170801000Y-61259000D01*
X170801000Y-63741000D02*
X170801000Y-66747000D01*
X170841000Y-58279000D02*
X170841000Y-61259000D01*
X170841000Y-63741000D02*
X170841000Y-66721000D01*
X170881000Y-58306000D02*
X170881000Y-61259000D01*
X170881000Y-63741000D02*
X170881000Y-66694000D01*
X170921000Y-58334000D02*
X170921000Y-61259000D01*
X170921000Y-63741000D02*
X170921000Y-66666000D01*
X170961000Y-58362000D02*
X170961000Y-61259000D01*
X170961000Y-63741000D02*
X170961000Y-66638000D01*
X171001000Y-58390000D02*
X171001000Y-61259000D01*
X171001000Y-63741000D02*
X171001000Y-66610000D01*
X171041000Y-58420000D02*
X171041000Y-61259000D01*
X171041000Y-63741000D02*
X171041000Y-66580000D01*
X171081000Y-58450000D02*
X171081000Y-61259000D01*
X171081000Y-63741000D02*
X171081000Y-66550000D01*
X171121000Y-58480000D02*
X171121000Y-61259000D01*
X171121000Y-63741000D02*
X171121000Y-66520000D01*
X171161000Y-58511000D02*
X171161000Y-61259000D01*
X171161000Y-63741000D02*
X171161000Y-66489000D01*
X171201000Y-58543000D02*
X171201000Y-61259000D01*
X171201000Y-63741000D02*
X171201000Y-66457000D01*
X171241000Y-58575000D02*
X171241000Y-61259000D01*
X171241000Y-63741000D02*
X171241000Y-66425000D01*
X171281000Y-58608000D02*
X171281000Y-61259000D01*
X171281000Y-63741000D02*
X171281000Y-66392000D01*
X171321000Y-58642000D02*
X171321000Y-61259000D01*
X171321000Y-63741000D02*
X171321000Y-66358000D01*
X171361000Y-58676000D02*
X171361000Y-61259000D01*
X171361000Y-63741000D02*
X171361000Y-66324000D01*
X171401000Y-58711000D02*
X171401000Y-61259000D01*
X171401000Y-63741000D02*
X171401000Y-66289000D01*
X171441000Y-58747000D02*
X171441000Y-61259000D01*
X171441000Y-63741000D02*
X171441000Y-66253000D01*
X171481000Y-58784000D02*
X171481000Y-61259000D01*
X171481000Y-63741000D02*
X171481000Y-66216000D01*
X171521000Y-58821000D02*
X171521000Y-61259000D01*
X171521000Y-63741000D02*
X171521000Y-66179000D01*
X171561000Y-58860000D02*
X171561000Y-61259000D01*
X171561000Y-63741000D02*
X171561000Y-66140000D01*
X171601000Y-58899000D02*
X171601000Y-61259000D01*
X171601000Y-63741000D02*
X171601000Y-66101000D01*
X171641000Y-58939000D02*
X171641000Y-61259000D01*
X171641000Y-63741000D02*
X171641000Y-66061000D01*
X171681000Y-58980000D02*
X171681000Y-61259000D01*
X171681000Y-63741000D02*
X171681000Y-66020000D01*
X171721000Y-59022000D02*
X171721000Y-61259000D01*
X171721000Y-63741000D02*
X171721000Y-65978000D01*
X171761000Y-59064000D02*
X171761000Y-65936000D01*
X171801000Y-59108000D02*
X171801000Y-65892000D01*
X171841000Y-59153000D02*
X171841000Y-65847000D01*
X171881000Y-59199000D02*
X171881000Y-65801000D01*
X171921000Y-59246000D02*
X171921000Y-65754000D01*
X171961000Y-59294000D02*
X171961000Y-65706000D01*
X172001000Y-59344000D02*
X172001000Y-65656000D01*
X172041000Y-59394000D02*
X172041000Y-65606000D01*
X172081000Y-59446000D02*
X172081000Y-65554000D01*
X172121000Y-59500000D02*
X172121000Y-65500000D01*
X172161000Y-59555000D02*
X172161000Y-65445000D01*
X172201000Y-59611000D02*
X172201000Y-65389000D01*
X172241000Y-59670000D02*
X172241000Y-65330000D01*
X172281000Y-59730000D02*
X172281000Y-65270000D01*
X172321000Y-59791000D02*
X172321000Y-65209000D01*
X172361000Y-59855000D02*
X172361000Y-65145000D01*
X172401000Y-59921000D02*
X172401000Y-65079000D01*
X172441000Y-59990000D02*
X172441000Y-65010000D01*
X172481000Y-60061000D02*
X172481000Y-64939000D01*
X172521000Y-60135000D02*
X172521000Y-64865000D01*
X172561000Y-60211000D02*
X172561000Y-64789000D01*
X172601000Y-60291000D02*
X172601000Y-64709000D01*
X172641000Y-60375000D02*
X172641000Y-64625000D01*
X172681000Y-60463000D02*
X172681000Y-64537000D01*
X172721000Y-60556000D02*
X172721000Y-64444000D01*
X172761000Y-60654000D02*
X172761000Y-64346000D01*
X172801000Y-60758000D02*
X172801000Y-64242000D01*
X172841000Y-60870000D02*
X172841000Y-64130000D01*
X172881000Y-60990000D02*
X172881000Y-64010000D01*
X172921000Y-61122000D02*
X172921000Y-63878000D01*
X172961000Y-61270000D02*
X172961000Y-63730000D01*
X173001000Y-61438000D02*
X173001000Y-63562000D01*
X173041000Y-61638000D02*
X173041000Y-63362000D01*
X173081000Y-61901000D02*
X173081000Y-63099000D01*
X173120000Y-62500000D02*
G75*
G03*
X173120000Y-62500000I-5120000J0D01*
G01*
X189772936Y-67765000D02*
X190227064Y-67765000D01*
X189772936Y-69235000D02*
X190227064Y-69235000D01*
X175700000Y-69500000D02*
G75*
G03*
X175700000Y-69500000I-1200000J0D01*
G01*
X158945000Y-66540000D02*
X158945000Y-68460000D01*
X158945000Y-68460000D02*
X161805000Y-68460000D01*
X161805000Y-66540000D02*
X158945000Y-66540000D01*
X167280000Y-91765000D02*
X163680000Y-91765000D01*
X167280000Y-91765000D02*
X169480000Y-91765000D01*
X167280000Y-97235000D02*
X165080000Y-97235000D01*
X167280000Y-97235000D02*
X169480000Y-97235000D01*
X162420354Y-82125000D02*
X163420354Y-82125000D01*
X162920354Y-81625000D02*
X162920354Y-82625000D01*
X167900000Y-79920000D02*
X167900000Y-90080000D01*
X167940000Y-79920000D02*
X167940000Y-90080000D01*
X167980000Y-79920000D02*
X167980000Y-90080000D01*
X168020000Y-79921000D02*
X168020000Y-90079000D01*
X168060000Y-79922000D02*
X168060000Y-90078000D01*
X168100000Y-79923000D02*
X168100000Y-90077000D01*
X168140000Y-79925000D02*
X168140000Y-90075000D01*
X168180000Y-79927000D02*
X168180000Y-90073000D01*
X168220000Y-79930000D02*
X168220000Y-90070000D01*
X168260000Y-79932000D02*
X168260000Y-90068000D01*
X168300000Y-79935000D02*
X168300000Y-90065000D01*
X168340000Y-79938000D02*
X168340000Y-90062000D01*
X168380000Y-79942000D02*
X168380000Y-90058000D01*
X168420000Y-79946000D02*
X168420000Y-90054000D01*
X168460000Y-79950000D02*
X168460000Y-90050000D01*
X168500000Y-79955000D02*
X168500000Y-90045000D01*
X168540000Y-79960000D02*
X168540000Y-90040000D01*
X168580000Y-79965000D02*
X168580000Y-90035000D01*
X168621000Y-79970000D02*
X168621000Y-90030000D01*
X168661000Y-79976000D02*
X168661000Y-90024000D01*
X168701000Y-79982000D02*
X168701000Y-90018000D01*
X168741000Y-79989000D02*
X168741000Y-90011000D01*
X168781000Y-79996000D02*
X168781000Y-90004000D01*
X168821000Y-80003000D02*
X168821000Y-89997000D01*
X168861000Y-80010000D02*
X168861000Y-89990000D01*
X168901000Y-80018000D02*
X168901000Y-89982000D01*
X168941000Y-80026000D02*
X168941000Y-89974000D01*
X168981000Y-80035000D02*
X168981000Y-89965000D01*
X169021000Y-80044000D02*
X169021000Y-89956000D01*
X169061000Y-80053000D02*
X169061000Y-89947000D01*
X169101000Y-80062000D02*
X169101000Y-89938000D01*
X169141000Y-80072000D02*
X169141000Y-89928000D01*
X169181000Y-80082000D02*
X169181000Y-83759000D01*
X169181000Y-86241000D02*
X169181000Y-89918000D01*
X169221000Y-80093000D02*
X169221000Y-83759000D01*
X169221000Y-86241000D02*
X169221000Y-89907000D01*
X169261000Y-80103000D02*
X169261000Y-83759000D01*
X169261000Y-86241000D02*
X169261000Y-89897000D01*
X169301000Y-80115000D02*
X169301000Y-83759000D01*
X169301000Y-86241000D02*
X169301000Y-89885000D01*
X169341000Y-80126000D02*
X169341000Y-83759000D01*
X169341000Y-86241000D02*
X169341000Y-89874000D01*
X169381000Y-80138000D02*
X169381000Y-83759000D01*
X169381000Y-86241000D02*
X169381000Y-89862000D01*
X169421000Y-80150000D02*
X169421000Y-83759000D01*
X169421000Y-86241000D02*
X169421000Y-89850000D01*
X169461000Y-80163000D02*
X169461000Y-83759000D01*
X169461000Y-86241000D02*
X169461000Y-89837000D01*
X169501000Y-80176000D02*
X169501000Y-83759000D01*
X169501000Y-86241000D02*
X169501000Y-89824000D01*
X169541000Y-80189000D02*
X169541000Y-83759000D01*
X169541000Y-86241000D02*
X169541000Y-89811000D01*
X169581000Y-80203000D02*
X169581000Y-83759000D01*
X169581000Y-86241000D02*
X169581000Y-89797000D01*
X169621000Y-80217000D02*
X169621000Y-83759000D01*
X169621000Y-86241000D02*
X169621000Y-89783000D01*
X169661000Y-80232000D02*
X169661000Y-83759000D01*
X169661000Y-86241000D02*
X169661000Y-89768000D01*
X169701000Y-80246000D02*
X169701000Y-83759000D01*
X169701000Y-86241000D02*
X169701000Y-89754000D01*
X169741000Y-80262000D02*
X169741000Y-83759000D01*
X169741000Y-86241000D02*
X169741000Y-89738000D01*
X169781000Y-80277000D02*
X169781000Y-83759000D01*
X169781000Y-86241000D02*
X169781000Y-89723000D01*
X169821000Y-80293000D02*
X169821000Y-83759000D01*
X169821000Y-86241000D02*
X169821000Y-89707000D01*
X169861000Y-80310000D02*
X169861000Y-83759000D01*
X169861000Y-86241000D02*
X169861000Y-89690000D01*
X169901000Y-80326000D02*
X169901000Y-83759000D01*
X169901000Y-86241000D02*
X169901000Y-89674000D01*
X169941000Y-80343000D02*
X169941000Y-83759000D01*
X169941000Y-86241000D02*
X169941000Y-89657000D01*
X169981000Y-80361000D02*
X169981000Y-83759000D01*
X169981000Y-86241000D02*
X169981000Y-89639000D01*
X170021000Y-80379000D02*
X170021000Y-83759000D01*
X170021000Y-86241000D02*
X170021000Y-89621000D01*
X170061000Y-80397000D02*
X170061000Y-83759000D01*
X170061000Y-86241000D02*
X170061000Y-89603000D01*
X170101000Y-80416000D02*
X170101000Y-83759000D01*
X170101000Y-86241000D02*
X170101000Y-89584000D01*
X170141000Y-80436000D02*
X170141000Y-83759000D01*
X170141000Y-86241000D02*
X170141000Y-89564000D01*
X170181000Y-80455000D02*
X170181000Y-83759000D01*
X170181000Y-86241000D02*
X170181000Y-89545000D01*
X170221000Y-80475000D02*
X170221000Y-83759000D01*
X170221000Y-86241000D02*
X170221000Y-89525000D01*
X170261000Y-80496000D02*
X170261000Y-83759000D01*
X170261000Y-86241000D02*
X170261000Y-89504000D01*
X170301000Y-80517000D02*
X170301000Y-83759000D01*
X170301000Y-86241000D02*
X170301000Y-89483000D01*
X170341000Y-80538000D02*
X170341000Y-83759000D01*
X170341000Y-86241000D02*
X170341000Y-89462000D01*
X170381000Y-80560000D02*
X170381000Y-83759000D01*
X170381000Y-86241000D02*
X170381000Y-89440000D01*
X170421000Y-80583000D02*
X170421000Y-83759000D01*
X170421000Y-86241000D02*
X170421000Y-89417000D01*
X170461000Y-80605000D02*
X170461000Y-83759000D01*
X170461000Y-86241000D02*
X170461000Y-89395000D01*
X170501000Y-80629000D02*
X170501000Y-83759000D01*
X170501000Y-86241000D02*
X170501000Y-89371000D01*
X170541000Y-80653000D02*
X170541000Y-83759000D01*
X170541000Y-86241000D02*
X170541000Y-89347000D01*
X170581000Y-80677000D02*
X170581000Y-83759000D01*
X170581000Y-86241000D02*
X170581000Y-89323000D01*
X170621000Y-80702000D02*
X170621000Y-83759000D01*
X170621000Y-86241000D02*
X170621000Y-89298000D01*
X170661000Y-80727000D02*
X170661000Y-83759000D01*
X170661000Y-86241000D02*
X170661000Y-89273000D01*
X170701000Y-80753000D02*
X170701000Y-83759000D01*
X170701000Y-86241000D02*
X170701000Y-89247000D01*
X170741000Y-80779000D02*
X170741000Y-83759000D01*
X170741000Y-86241000D02*
X170741000Y-89221000D01*
X170781000Y-80806000D02*
X170781000Y-83759000D01*
X170781000Y-86241000D02*
X170781000Y-89194000D01*
X170821000Y-80834000D02*
X170821000Y-83759000D01*
X170821000Y-86241000D02*
X170821000Y-89166000D01*
X170861000Y-80862000D02*
X170861000Y-83759000D01*
X170861000Y-86241000D02*
X170861000Y-89138000D01*
X170901000Y-80890000D02*
X170901000Y-83759000D01*
X170901000Y-86241000D02*
X170901000Y-89110000D01*
X170941000Y-80920000D02*
X170941000Y-83759000D01*
X170941000Y-86241000D02*
X170941000Y-89080000D01*
X170981000Y-80950000D02*
X170981000Y-83759000D01*
X170981000Y-86241000D02*
X170981000Y-89050000D01*
X171021000Y-80980000D02*
X171021000Y-83759000D01*
X171021000Y-86241000D02*
X171021000Y-89020000D01*
X171061000Y-81011000D02*
X171061000Y-83759000D01*
X171061000Y-86241000D02*
X171061000Y-88989000D01*
X171101000Y-81043000D02*
X171101000Y-83759000D01*
X171101000Y-86241000D02*
X171101000Y-88957000D01*
X171141000Y-81075000D02*
X171141000Y-83759000D01*
X171141000Y-86241000D02*
X171141000Y-88925000D01*
X171181000Y-81108000D02*
X171181000Y-83759000D01*
X171181000Y-86241000D02*
X171181000Y-88892000D01*
X171221000Y-81142000D02*
X171221000Y-83759000D01*
X171221000Y-86241000D02*
X171221000Y-88858000D01*
X171261000Y-81176000D02*
X171261000Y-83759000D01*
X171261000Y-86241000D02*
X171261000Y-88824000D01*
X171301000Y-81211000D02*
X171301000Y-83759000D01*
X171301000Y-86241000D02*
X171301000Y-88789000D01*
X171341000Y-81247000D02*
X171341000Y-83759000D01*
X171341000Y-86241000D02*
X171341000Y-88753000D01*
X171381000Y-81284000D02*
X171381000Y-83759000D01*
X171381000Y-86241000D02*
X171381000Y-88716000D01*
X171421000Y-81321000D02*
X171421000Y-83759000D01*
X171421000Y-86241000D02*
X171421000Y-88679000D01*
X171461000Y-81360000D02*
X171461000Y-83759000D01*
X171461000Y-86241000D02*
X171461000Y-88640000D01*
X171501000Y-81399000D02*
X171501000Y-83759000D01*
X171501000Y-86241000D02*
X171501000Y-88601000D01*
X171541000Y-81439000D02*
X171541000Y-83759000D01*
X171541000Y-86241000D02*
X171541000Y-88561000D01*
X171581000Y-81480000D02*
X171581000Y-83759000D01*
X171581000Y-86241000D02*
X171581000Y-88520000D01*
X171621000Y-81522000D02*
X171621000Y-83759000D01*
X171621000Y-86241000D02*
X171621000Y-88478000D01*
X171661000Y-81564000D02*
X171661000Y-88436000D01*
X171701000Y-81608000D02*
X171701000Y-88392000D01*
X171741000Y-81653000D02*
X171741000Y-88347000D01*
X171781000Y-81699000D02*
X171781000Y-88301000D01*
X171821000Y-81746000D02*
X171821000Y-88254000D01*
X171861000Y-81794000D02*
X171861000Y-88206000D01*
X171901000Y-81844000D02*
X171901000Y-88156000D01*
X171941000Y-81894000D02*
X171941000Y-88106000D01*
X171981000Y-81946000D02*
X171981000Y-88054000D01*
X172021000Y-82000000D02*
X172021000Y-88000000D01*
X172061000Y-82055000D02*
X172061000Y-87945000D01*
X172101000Y-82111000D02*
X172101000Y-87889000D01*
X172141000Y-82170000D02*
X172141000Y-87830000D01*
X172181000Y-82230000D02*
X172181000Y-87770000D01*
X172221000Y-82291000D02*
X172221000Y-87709000D01*
X172261000Y-82355000D02*
X172261000Y-87645000D01*
X172301000Y-82421000D02*
X172301000Y-87579000D01*
X172341000Y-82490000D02*
X172341000Y-87510000D01*
X172381000Y-82561000D02*
X172381000Y-87439000D01*
X172421000Y-82635000D02*
X172421000Y-87365000D01*
X172461000Y-82711000D02*
X172461000Y-87289000D01*
X172501000Y-82791000D02*
X172501000Y-87209000D01*
X172541000Y-82875000D02*
X172541000Y-87125000D01*
X172581000Y-82963000D02*
X172581000Y-87037000D01*
X172621000Y-83056000D02*
X172621000Y-86944000D01*
X172661000Y-83154000D02*
X172661000Y-86846000D01*
X172701000Y-83258000D02*
X172701000Y-86742000D01*
X172741000Y-83370000D02*
X172741000Y-86630000D01*
X172781000Y-83490000D02*
X172781000Y-86510000D01*
X172821000Y-83622000D02*
X172821000Y-86378000D01*
X172861000Y-83770000D02*
X172861000Y-86230000D01*
X172901000Y-83938000D02*
X172901000Y-86062000D01*
X172941000Y-84138000D02*
X172941000Y-85862000D01*
X172981000Y-84401000D02*
X172981000Y-85599000D01*
X173020000Y-85000000D02*
G75*
G03*
X173020000Y-85000000I-5120000J0D01*
G01*
X206865000Y-94827064D02*
X206865000Y-94372936D01*
X208335000Y-94827064D02*
X208335000Y-94372936D01*
X207600000Y-62800000D02*
G75*
G03*
X207600000Y-62800000I-1200000J0D01*
G01*
X208200000Y-87400000D02*
G75*
G03*
X208200000Y-87400000I-1200000J0D01*
G01*
X199347064Y-89135000D02*
X198892936Y-89135000D01*
X199347064Y-87665000D02*
X198892936Y-87665000D01*
X175760000Y-61715000D02*
X173840000Y-61715000D01*
X173840000Y-61715000D02*
X173840000Y-64575000D01*
X175760000Y-64575000D02*
X175760000Y-61715000D01*
X180130000Y-60730000D02*
X180130000Y-58130000D01*
X180130000Y-60730000D02*
X177470000Y-60730000D01*
X180130000Y-58130000D02*
X177470000Y-58130000D01*
X178800000Y-63330000D02*
X177470000Y-63330000D01*
X177470000Y-63330000D02*
X177470000Y-62000000D01*
X177470000Y-60730000D02*
X177470000Y-58130000D01*
X208600000Y-102400000D02*
G75*
G03*
X208600000Y-102400000I-1200000J0D01*
G01*
X212850000Y-57750000D02*
X212850000Y-59000000D01*
X213140000Y-58040000D02*
X213140000Y-64010000D01*
X213140000Y-64010000D02*
X220760000Y-64010000D01*
X213150000Y-58050000D02*
X213150000Y-58800000D01*
X213150000Y-58800000D02*
X214950000Y-58800000D01*
X213150000Y-60300000D02*
X213900000Y-60300000D01*
X213900000Y-60300000D02*
X213900000Y-63250000D01*
X213900000Y-63250000D02*
X216950000Y-63250000D01*
X214100000Y-57750000D02*
X212850000Y-57750000D01*
X214950000Y-58050000D02*
X213150000Y-58050000D01*
X214950000Y-58800000D02*
X214950000Y-58050000D01*
X216450000Y-58050000D02*
X216450000Y-58800000D01*
X216450000Y-58800000D02*
X217450000Y-58800000D01*
X217450000Y-58050000D02*
X216450000Y-58050000D01*
X217450000Y-58800000D02*
X217450000Y-58050000D01*
X218950000Y-58050000D02*
X218950000Y-58800000D01*
X218950000Y-58800000D02*
X220750000Y-58800000D01*
X220000000Y-60300000D02*
X220000000Y-63250000D01*
X220000000Y-63250000D02*
X216950000Y-63250000D01*
X220750000Y-58050000D02*
X218950000Y-58050000D01*
X220750000Y-58800000D02*
X220750000Y-58050000D01*
X220750000Y-60300000D02*
X220000000Y-60300000D01*
X220760000Y-58040000D02*
X213140000Y-58040000D01*
X220760000Y-64010000D02*
X220760000Y-58040000D01*
X185780000Y-61801248D02*
X185780000Y-62323752D01*
X184310000Y-61801248D02*
X184310000Y-62323752D01*
X174090000Y-59061252D02*
X174090000Y-58538748D01*
X175510000Y-59061252D02*
X175510000Y-58538748D01*
X199347064Y-103135000D02*
X198892936Y-103135000D01*
X199347064Y-101665000D02*
X198892936Y-101665000D01*
X213840000Y-86255000D02*
X213840000Y-87665000D01*
X216170000Y-87665000D02*
X215500000Y-87665000D01*
X216160000Y-87665000D02*
X216160000Y-84930000D01*
X214500000Y-87665000D02*
X213840000Y-87665000D01*
X171465000Y-107898752D02*
X171465000Y-107376248D01*
X172935000Y-107898752D02*
X172935000Y-107376248D01*
X199347064Y-95935000D02*
X198892936Y-95935000D01*
X199347064Y-94465000D02*
X198892936Y-94465000D01*
X158845000Y-72885000D02*
X160765000Y-72885000D01*
X160765000Y-72885000D02*
X160765000Y-70025000D01*
X158845000Y-70025000D02*
X158845000Y-72885000D01*
X214170000Y-107690000D02*
X221850000Y-107690000D01*
X214170000Y-107690000D02*
X214170000Y-105030000D01*
X221850000Y-107690000D02*
X221850000Y-105030000D01*
X211570000Y-106360000D02*
X211570000Y-105030000D01*
X211570000Y-105030000D02*
X212900000Y-105030000D01*
X214170000Y-105030000D02*
X221850000Y-105030000D01*
D11*
X176550000Y-64710000D02*
X176550000Y-112910000D01*
X176550000Y-112910000D02*
X186430000Y-112910000D01*
X181500000Y-58510000D02*
X199500000Y-58510000D01*
X181500000Y-64710000D02*
X176550000Y-64710000D01*
X181500000Y-64710000D02*
X181500000Y-58510000D01*
X186430000Y-112910000D02*
X186430000Y-113810000D01*
X186430000Y-113810000D02*
X194560000Y-113810000D01*
X194560000Y-112910000D02*
X204450000Y-112910000D01*
X194560000Y-113810000D02*
X194560000Y-112910000D01*
X199500000Y-58510000D02*
X199500000Y-64710000D01*
X204450000Y-64710000D02*
X199500000Y-64710000D01*
X204450000Y-112910000D02*
X204450000Y-64710000D01*
D13*
X176030000Y-65840000D02*
G75*
G03*
X176030000Y-65840000I-100000J0D01*
G01*
D12*
X199347064Y-92585000D02*
X198892936Y-92585000D01*
X199347064Y-91115000D02*
X198892936Y-91115000D01*
X185783748Y-64365000D02*
X186306252Y-64365000D01*
X185783748Y-65835000D02*
X186306252Y-65835000D01*
X208200000Y-90600000D02*
G75*
G03*
X208200000Y-90600000I-1200000J0D01*
G01*
X206270000Y-109330000D02*
X206270000Y-111930000D01*
X206270000Y-109330000D02*
X208930000Y-109330000D01*
X206270000Y-111930000D02*
X208930000Y-111930000D01*
X207600000Y-106730000D02*
X208930000Y-106730000D01*
X208930000Y-106730000D02*
X208930000Y-108060000D01*
X208930000Y-109330000D02*
X208930000Y-111930000D01*
%LPC*%
D14*
X207800000Y-81800000D03*
X207800000Y-69100000D03*
X207800000Y-84340000D03*
X207800000Y-71640000D03*
X207800000Y-74180000D03*
X207800000Y-66560000D03*
X207800000Y-79260000D03*
X207800000Y-76720000D03*
D15*
X214200000Y-81400000D03*
X216200000Y-81400000D03*
D16*
X213800000Y-83400000D03*
X211800000Y-83400000D03*
D17*
X206200000Y-59800000D03*
X206200000Y-57750000D03*
D18*
X213020000Y-110560000D03*
D19*
X215560000Y-110560000D03*
X218100000Y-110560000D03*
X220640000Y-110560000D03*
D20*
X190270000Y-77302500D03*
X190270000Y-79377500D03*
D16*
X200120000Y-99060000D03*
X198120000Y-99060000D03*
D21*
X159755000Y-79000000D03*
X161805000Y-79000000D03*
D16*
X198000000Y-66500000D03*
X196000000Y-66500000D03*
D18*
X160422500Y-91245000D03*
D19*
X160422500Y-88705000D03*
D22*
X191000000Y-72537500D03*
X191000000Y-70462500D03*
D16*
X200120000Y-105800000D03*
X198120000Y-105800000D03*
D23*
X211487500Y-95012500D03*
D24*
X211487500Y-92862500D03*
X211487500Y-90712500D03*
D25*
X182200000Y-88800000D03*
X182200000Y-86800000D03*
D26*
X174500000Y-83000000D03*
D27*
X165000000Y-73500000D03*
D26*
X170000000Y-73500000D03*
D28*
X211000000Y-60975000D03*
X211000000Y-63025000D03*
D26*
X174500000Y-100600000D03*
X174500000Y-74000000D03*
D18*
X160600000Y-60400000D03*
D19*
X160600000Y-62940000D03*
D29*
X190400000Y-109800000D03*
D18*
X160285000Y-104570000D03*
D19*
X160285000Y-102030000D03*
D30*
X164280000Y-103200000D03*
X164280000Y-103850000D03*
X164280000Y-104500000D03*
X164280000Y-105150000D03*
X164280000Y-105800000D03*
X164280000Y-106450000D03*
X164280000Y-107100000D03*
X164280000Y-107750000D03*
X170005000Y-107750000D03*
X170005000Y-107100000D03*
X170005000Y-106450000D03*
X170005000Y-105800000D03*
X170005000Y-105150000D03*
X170005000Y-104500000D03*
X170005000Y-103850000D03*
X170005000Y-103200000D03*
D31*
X195420000Y-68580000D03*
X195420000Y-69530000D03*
X195420000Y-70480000D03*
X198120000Y-70480000D03*
X198120000Y-68580000D03*
D23*
X211487500Y-102412500D03*
D24*
X211487500Y-100262500D03*
X211487500Y-98112500D03*
D18*
X160422500Y-95245000D03*
D19*
X160422500Y-97785000D03*
D26*
X174500000Y-93000000D03*
D18*
X160285000Y-108530000D03*
D19*
X160285000Y-111070000D03*
D28*
X159805000Y-74475000D03*
X159805000Y-76525000D03*
D32*
X184600000Y-86800000D03*
X184600000Y-88800000D03*
X200600000Y-83800000D03*
X200600000Y-85800000D03*
D31*
X190000000Y-61300000D03*
X190000000Y-60350000D03*
X190000000Y-59400000D03*
X187300000Y-59400000D03*
X187300000Y-61300000D03*
D18*
X202400000Y-59660000D03*
D19*
X202400000Y-62200000D03*
D26*
X174500000Y-88500000D03*
D29*
X215400000Y-67600000D03*
D32*
X180600000Y-72600000D03*
X180600000Y-74600000D03*
D33*
X168675000Y-101200000D03*
X166600000Y-101200000D03*
X166800000Y-99000000D03*
X164725000Y-99000000D03*
X174000000Y-104600000D03*
X171925000Y-104600000D03*
D26*
X174500000Y-78500000D03*
D20*
X174400000Y-106600000D03*
X174400000Y-108675000D03*
D34*
X212800000Y-85540000D03*
X211500000Y-85540000D03*
X212150000Y-88200000D03*
D33*
X170800000Y-99000000D03*
X168725000Y-99000000D03*
D35*
X187962500Y-82500000D03*
X190037500Y-82500000D03*
D20*
X198000000Y-72425000D03*
X198000000Y-74500000D03*
D29*
X165200000Y-111600000D03*
D34*
X217100000Y-88200000D03*
X218400000Y-88200000D03*
X217750000Y-85540000D03*
D26*
X174500000Y-97500000D03*
D18*
X160400000Y-84600000D03*
D19*
X160400000Y-82060000D03*
D36*
X184150000Y-77500000D03*
D37*
X186000000Y-79000000D03*
D36*
X184150000Y-80500000D03*
X187850000Y-80500000D03*
X187850000Y-77500000D03*
D32*
X180600000Y-68200000D03*
X180600000Y-70200000D03*
D27*
X165500000Y-62500000D03*
D26*
X170500000Y-62500000D03*
D15*
X189000000Y-68500000D03*
X191000000Y-68500000D03*
D26*
X174500000Y-69500000D03*
D21*
X159780000Y-67500000D03*
X161830000Y-67500000D03*
D30*
X164417500Y-92225000D03*
X164417500Y-92875000D03*
X164417500Y-93525000D03*
X164417500Y-94175000D03*
X164417500Y-94825000D03*
X164417500Y-95475000D03*
X164417500Y-96125000D03*
X164417500Y-96775000D03*
X170142500Y-96775000D03*
X170142500Y-96125000D03*
X170142500Y-95475000D03*
X170142500Y-94825000D03*
X170142500Y-94175000D03*
X170142500Y-93525000D03*
X170142500Y-92875000D03*
X170142500Y-92225000D03*
D27*
X165400000Y-85000000D03*
D26*
X170400000Y-85000000D03*
D25*
X207600000Y-95600000D03*
X207600000Y-93600000D03*
D26*
X206400000Y-62800000D03*
X207000000Y-87400000D03*
D16*
X200120000Y-88400000D03*
X198120000Y-88400000D03*
D28*
X174800000Y-62550000D03*
X174800000Y-64600000D03*
D18*
X178800000Y-62000000D03*
D19*
X178800000Y-59460000D03*
D26*
X207400000Y-102400000D03*
D38*
X215700000Y-60500000D03*
D39*
X218200000Y-60500000D03*
D20*
X185045000Y-61025000D03*
X185045000Y-63100000D03*
D17*
X174800000Y-59825000D03*
X174800000Y-57775000D03*
D16*
X200120000Y-102400000D03*
X198120000Y-102400000D03*
D34*
X215650000Y-85600000D03*
X214350000Y-85600000D03*
X215000000Y-88260000D03*
D22*
X172200000Y-108675000D03*
X172200000Y-106600000D03*
D16*
X200120000Y-95200000D03*
X198120000Y-95200000D03*
D17*
X159805000Y-72050000D03*
X159805000Y-70000000D03*
D18*
X212900000Y-106360000D03*
D19*
X215440000Y-106360000D03*
X217980000Y-106360000D03*
X220520000Y-106360000D03*
D40*
X177800000Y-65960000D03*
D41*
X177800000Y-68500000D03*
X177800000Y-71040000D03*
X177800000Y-73580000D03*
X177800000Y-76120000D03*
X177800000Y-78660000D03*
X177800000Y-81200000D03*
X177800000Y-83740000D03*
X177800000Y-86280000D03*
X177800000Y-88820000D03*
X177800000Y-91360000D03*
X177800000Y-93900000D03*
X177800000Y-96440000D03*
X177800000Y-98980000D03*
X177800000Y-101520000D03*
X177800000Y-104060000D03*
X177800000Y-106600000D03*
X177800000Y-109140000D03*
X177800000Y-111680000D03*
X203200000Y-111680000D03*
X203200000Y-109140000D03*
X203200000Y-106600000D03*
X203200000Y-104060000D03*
X203200000Y-101520000D03*
X203200000Y-98980000D03*
X203200000Y-96440000D03*
X203200000Y-93900000D03*
X203200000Y-91360000D03*
X203200000Y-88820000D03*
X203200000Y-86280000D03*
X203200000Y-83740000D03*
X203200000Y-81200000D03*
X203200000Y-78660000D03*
X203200000Y-76120000D03*
X203200000Y-73580000D03*
X203200000Y-71040000D03*
X203200000Y-68500000D03*
X203200000Y-65960000D03*
D16*
X200120000Y-91850000D03*
X198120000Y-91850000D03*
D35*
X185007500Y-65100000D03*
X187082500Y-65100000D03*
D29*
X190500000Y-89400000D03*
D26*
X207000000Y-90600000D03*
D18*
X207600000Y-108060000D03*
D19*
X207600000Y-110600000D03*
%LPD*%
M02*
