G04 #@! TF.GenerationSoftware,KiCad,Pcbnew,7.0.8*
G04 #@! TF.CreationDate,2023-11-03T23:08:19-04:00*
G04 #@! TF.ProjectId,robot,726f626f-742e-46b6-9963-61645f706362,rev?*
G04 #@! TF.SameCoordinates,Original*
G04 #@! TF.FileFunction,Paste,Top*
G04 #@! TF.FilePolarity,Positive*
%FSLAX46Y46*%
G04 Gerber Fmt 4.6, Leading zero omitted, Abs format (unit mm)*
G04 Created by KiCad (PCBNEW 7.0.8) date 2023-11-03 23:08:19*
%MOMM*%
%LPD*%
G01*
G04 APERTURE LIST*
G04 Aperture macros list*
%AMRoundRect*
0 Rectangle with rounded corners*
0 $1 Rounding radius*
0 $2 $3 $4 $5 $6 $7 $8 $9 X,Y pos of 4 corners*
0 Add a 4 corners polygon primitive as box body*
4,1,4,$2,$3,$4,$5,$6,$7,$8,$9,$2,$3,0*
0 Add four circle primitives for the rounded corners*
1,1,$1+$1,$2,$3*
1,1,$1+$1,$4,$5*
1,1,$1+$1,$6,$7*
1,1,$1+$1,$8,$9*
0 Add four rect primitives between the rounded corners*
20,1,$1+$1,$2,$3,$4,$5,0*
20,1,$1+$1,$4,$5,$6,$7,0*
20,1,$1+$1,$6,$7,$8,$9,0*
20,1,$1+$1,$8,$9,$2,$3,0*%
%AMFreePoly0*
4,1,13,0.900000,0.500000,2.600000,0.500000,2.600000,-0.500000,0.900000,-0.500000,0.400000,-1.000000,-0.400000,-1.000000,-0.900000,-0.500000,-2.600000,-0.500000,-2.600000,0.500000,-0.900000,0.500000,-0.400000,1.000000,0.400000,1.000000,0.900000,0.500000,0.900000,0.500000,$1*%
G04 Aperture macros list end*
%ADD10RoundRect,0.250000X-0.350000X-0.450000X0.350000X-0.450000X0.350000X0.450000X-0.350000X0.450000X0*%
%ADD11RoundRect,0.250000X0.350000X0.450000X-0.350000X0.450000X-0.350000X-0.450000X0.350000X-0.450000X0*%
%ADD12RoundRect,0.250000X0.450000X-0.325000X0.450000X0.325000X-0.450000X0.325000X-0.450000X-0.325000X0*%
%ADD13RoundRect,0.250000X-0.475000X0.337500X-0.475000X-0.337500X0.475000X-0.337500X0.475000X0.337500X0*%
%ADD14RoundRect,0.250000X-0.325000X-0.450000X0.325000X-0.450000X0.325000X0.450000X-0.325000X0.450000X0*%
%ADD15RoundRect,0.250000X0.475000X-0.337500X0.475000X0.337500X-0.475000X0.337500X-0.475000X-0.337500X0*%
%ADD16RoundRect,0.250000X0.450000X-0.350000X0.450000X0.350000X-0.450000X0.350000X-0.450000X-0.350000X0*%
%ADD17RoundRect,0.250000X-0.450000X0.325000X-0.450000X-0.325000X0.450000X-0.325000X0.450000X0.325000X0*%
%ADD18RoundRect,0.100000X-0.637500X-0.100000X0.637500X-0.100000X0.637500X0.100000X-0.637500X0.100000X0*%
%ADD19R,1.560000X0.650000*%
%ADD20RoundRect,0.250000X-0.450000X0.350000X-0.450000X-0.350000X0.450000X-0.350000X0.450000X0.350000X0*%
%ADD21RoundRect,0.250000X0.337500X0.475000X-0.337500X0.475000X-0.337500X-0.475000X0.337500X-0.475000X0*%
%ADD22R,0.450000X1.500000*%
%ADD23RoundRect,0.250000X-0.337500X-0.475000X0.337500X-0.475000X0.337500X0.475000X-0.337500X0.475000X0*%
%ADD24R,1.500000X0.700000*%
%ADD25FreePoly0,0.000000*%
G04 APERTURE END LIST*
D10*
X214200000Y-81400000D03*
X216200000Y-81400000D03*
D11*
X213800000Y-83400000D03*
X211800000Y-83400000D03*
D12*
X206200000Y-59800000D03*
X206200000Y-57750000D03*
D13*
X190270000Y-77302500D03*
X190270000Y-79377500D03*
D11*
X200120000Y-99060000D03*
X198120000Y-99060000D03*
D14*
X159755000Y-79000000D03*
X161805000Y-79000000D03*
D11*
X198000000Y-66500000D03*
X196000000Y-66500000D03*
D15*
X191000000Y-72537500D03*
X191000000Y-70462500D03*
D11*
X200120000Y-105800000D03*
X198120000Y-105800000D03*
D16*
X182200000Y-88800000D03*
X182200000Y-86800000D03*
D17*
X211000000Y-60975000D03*
X211000000Y-63025000D03*
D18*
X164280000Y-103200000D03*
X164280000Y-103850000D03*
X164280000Y-104500000D03*
X164280000Y-105150000D03*
X164280000Y-105800000D03*
X164280000Y-106450000D03*
X164280000Y-107100000D03*
X164280000Y-107750000D03*
X170005000Y-107750000D03*
X170005000Y-107100000D03*
X170005000Y-106450000D03*
X170005000Y-105800000D03*
X170005000Y-105150000D03*
X170005000Y-104500000D03*
X170005000Y-103850000D03*
X170005000Y-103200000D03*
D19*
X195420000Y-68580000D03*
X195420000Y-69530000D03*
X195420000Y-70480000D03*
X198120000Y-70480000D03*
X198120000Y-68580000D03*
D17*
X159805000Y-74475000D03*
X159805000Y-76525000D03*
D20*
X184600000Y-86800000D03*
X184600000Y-88800000D03*
X200600000Y-83800000D03*
X200600000Y-85800000D03*
D19*
X190000000Y-61300000D03*
X190000000Y-60350000D03*
X190000000Y-59400000D03*
X187300000Y-59400000D03*
X187300000Y-61300000D03*
D20*
X180600000Y-72600000D03*
X180600000Y-74600000D03*
D21*
X168675000Y-101200000D03*
X166600000Y-101200000D03*
X166800000Y-99000000D03*
X164725000Y-99000000D03*
X174000000Y-104600000D03*
X171925000Y-104600000D03*
D13*
X174400000Y-106600000D03*
X174400000Y-108675000D03*
D22*
X212800000Y-85540000D03*
X211500000Y-85540000D03*
X212150000Y-88200000D03*
D21*
X170800000Y-99000000D03*
X168725000Y-99000000D03*
D23*
X187962500Y-82500000D03*
X190037500Y-82500000D03*
D13*
X198000000Y-72425000D03*
X198000000Y-74500000D03*
D22*
X217100000Y-88200000D03*
X218400000Y-88200000D03*
X217750000Y-85540000D03*
D24*
X184150000Y-77500000D03*
D25*
X186000000Y-79000000D03*
D24*
X184150000Y-80500000D03*
X187850000Y-80500000D03*
X187850000Y-77500000D03*
D20*
X180600000Y-68200000D03*
X180600000Y-70200000D03*
D10*
X189000000Y-68500000D03*
X191000000Y-68500000D03*
D14*
X159780000Y-67500000D03*
X161830000Y-67500000D03*
D18*
X164417500Y-92225000D03*
X164417500Y-92875000D03*
X164417500Y-93525000D03*
X164417500Y-94175000D03*
X164417500Y-94825000D03*
X164417500Y-95475000D03*
X164417500Y-96125000D03*
X164417500Y-96775000D03*
X170142500Y-96775000D03*
X170142500Y-96125000D03*
X170142500Y-95475000D03*
X170142500Y-94825000D03*
X170142500Y-94175000D03*
X170142500Y-93525000D03*
X170142500Y-92875000D03*
X170142500Y-92225000D03*
D16*
X207600000Y-95600000D03*
X207600000Y-93600000D03*
D11*
X200120000Y-88400000D03*
X198120000Y-88400000D03*
D17*
X174800000Y-62550000D03*
X174800000Y-64600000D03*
D13*
X185045000Y-61025000D03*
X185045000Y-63100000D03*
D12*
X174800000Y-59825000D03*
X174800000Y-57775000D03*
D11*
X200120000Y-102400000D03*
X198120000Y-102400000D03*
D22*
X215650000Y-85600000D03*
X214350000Y-85600000D03*
X215000000Y-88260000D03*
D15*
X172200000Y-108675000D03*
X172200000Y-106600000D03*
D11*
X200120000Y-95200000D03*
X198120000Y-95200000D03*
D12*
X159805000Y-72050000D03*
X159805000Y-70000000D03*
D11*
X200120000Y-91850000D03*
X198120000Y-91850000D03*
D23*
X185007500Y-65100000D03*
X187082500Y-65100000D03*
M02*
