G04 #@! TF.GenerationSoftware,KiCad,Pcbnew,7.0.8*
G04 #@! TF.CreationDate,2023-11-03T23:08:19-04:00*
G04 #@! TF.ProjectId,robot,726f626f-742e-46b6-9963-61645f706362,rev?*
G04 #@! TF.SameCoordinates,Original*
G04 #@! TF.FileFunction,Copper,L2,Bot*
G04 #@! TF.FilePolarity,Positive*
%FSLAX46Y46*%
G04 Gerber Fmt 4.6, Leading zero omitted, Abs format (unit mm)*
G04 Created by KiCad (PCBNEW 7.0.8) date 2023-11-03 23:08:19*
%MOMM*%
%LPD*%
G01*
G04 APERTURE LIST*
G04 Aperture macros list*
%AMRoundRect*
0 Rectangle with rounded corners*
0 $1 Rounding radius*
0 $2 $3 $4 $5 $6 $7 $8 $9 X,Y pos of 4 corners*
0 Add a 4 corners polygon primitive as box body*
4,1,4,$2,$3,$4,$5,$6,$7,$8,$9,$2,$3,0*
0 Add four circle primitives for the rounded corners*
1,1,$1+$1,$2,$3*
1,1,$1+$1,$4,$5*
1,1,$1+$1,$6,$7*
1,1,$1+$1,$8,$9*
0 Add four rect primitives between the rounded corners*
20,1,$1+$1,$2,$3,$4,$5,0*
20,1,$1+$1,$4,$5,$6,$7,0*
20,1,$1+$1,$6,$7,$8,$9,0*
20,1,$1+$1,$8,$9,$2,$3,0*%
G04 Aperture macros list end*
G04 #@! TA.AperFunction,ComponentPad*
%ADD10O,3.556000X1.778000*%
G04 #@! TD*
G04 #@! TA.AperFunction,ComponentPad*
%ADD11R,1.700000X1.700000*%
G04 #@! TD*
G04 #@! TA.AperFunction,ComponentPad*
%ADD12O,1.700000X1.700000*%
G04 #@! TD*
G04 #@! TA.AperFunction,ComponentPad*
%ADD13R,1.650000X1.650000*%
G04 #@! TD*
G04 #@! TA.AperFunction,ComponentPad*
%ADD14C,1.650000*%
G04 #@! TD*
G04 #@! TA.AperFunction,ComponentPad*
%ADD15R,2.000000X2.000000*%
G04 #@! TD*
G04 #@! TA.AperFunction,ComponentPad*
%ADD16C,2.000000*%
G04 #@! TD*
G04 #@! TA.AperFunction,ComponentPad*
%ADD17C,3.800000*%
G04 #@! TD*
G04 #@! TA.AperFunction,ComponentPad*
%ADD18RoundRect,0.250000X-0.600000X-0.750000X0.600000X-0.750000X0.600000X0.750000X-0.600000X0.750000X0*%
G04 #@! TD*
G04 #@! TA.AperFunction,ComponentPad*
%ADD19O,1.700000X2.000000*%
G04 #@! TD*
G04 #@! TA.AperFunction,ComponentPad*
%ADD20R,1.530000X1.530000*%
G04 #@! TD*
G04 #@! TA.AperFunction,ComponentPad*
%ADD21C,1.530000*%
G04 #@! TD*
G04 #@! TA.AperFunction,ViaPad*
%ADD22C,0.800000*%
G04 #@! TD*
G04 #@! TA.AperFunction,ViaPad*
%ADD23C,0.600000*%
G04 #@! TD*
G04 #@! TA.AperFunction,Conductor*
%ADD24C,0.500000*%
G04 #@! TD*
G04 #@! TA.AperFunction,Conductor*
%ADD25C,0.200000*%
G04 #@! TD*
G04 #@! TA.AperFunction,Conductor*
%ADD26C,0.400000*%
G04 #@! TD*
G04 APERTURE END LIST*
D10*
X207800000Y-81800000D03*
X207800000Y-69100000D03*
X207800000Y-84340000D03*
X207800000Y-71640000D03*
X207800000Y-74180000D03*
X207800000Y-66560000D03*
X207800000Y-79260000D03*
X207800000Y-76720000D03*
D11*
X213020000Y-110560000D03*
D12*
X215560000Y-110560000D03*
X218100000Y-110560000D03*
X220640000Y-110560000D03*
D11*
X160422500Y-91245000D03*
D12*
X160422500Y-88705000D03*
D13*
X211487500Y-95012500D03*
D14*
X211487500Y-92862500D03*
X211487500Y-90712500D03*
D15*
X165000000Y-73500000D03*
D16*
X170000000Y-73500000D03*
D11*
X160600000Y-60400000D03*
D12*
X160600000Y-62940000D03*
D17*
X190400000Y-109800000D03*
D11*
X160285000Y-104570000D03*
D12*
X160285000Y-102030000D03*
D13*
X211487500Y-102412500D03*
D14*
X211487500Y-100262500D03*
X211487500Y-98112500D03*
D11*
X160422500Y-95245000D03*
D12*
X160422500Y-97785000D03*
D11*
X160285000Y-108530000D03*
D12*
X160285000Y-111070000D03*
D11*
X202400000Y-59660000D03*
D12*
X202400000Y-62200000D03*
D17*
X215400000Y-67600000D03*
X165200000Y-111600000D03*
D11*
X160400000Y-84600000D03*
D12*
X160400000Y-82060000D03*
D15*
X165500000Y-62500000D03*
D16*
X170500000Y-62500000D03*
D15*
X165400000Y-85000000D03*
D16*
X170400000Y-85000000D03*
D11*
X178800000Y-62000000D03*
D12*
X178800000Y-59460000D03*
D18*
X215700000Y-60500000D03*
D19*
X218200000Y-60500000D03*
D11*
X212900000Y-106360000D03*
D12*
X215440000Y-106360000D03*
X217980000Y-106360000D03*
X220520000Y-106360000D03*
D20*
X177800000Y-65960000D03*
D21*
X177800000Y-68500000D03*
X177800000Y-71040000D03*
X177800000Y-73580000D03*
X177800000Y-76120000D03*
X177800000Y-78660000D03*
X177800000Y-81200000D03*
X177800000Y-83740000D03*
X177800000Y-86280000D03*
X177800000Y-88820000D03*
X177800000Y-91360000D03*
X177800000Y-93900000D03*
X177800000Y-96440000D03*
X177800000Y-98980000D03*
X177800000Y-101520000D03*
X177800000Y-104060000D03*
X177800000Y-106600000D03*
X177800000Y-109140000D03*
X177800000Y-111680000D03*
X203200000Y-111680000D03*
X203200000Y-109140000D03*
X203200000Y-106600000D03*
X203200000Y-104060000D03*
X203200000Y-101520000D03*
X203200000Y-98980000D03*
X203200000Y-96440000D03*
X203200000Y-93900000D03*
X203200000Y-91360000D03*
X203200000Y-88820000D03*
X203200000Y-86280000D03*
X203200000Y-83740000D03*
X203200000Y-81200000D03*
X203200000Y-78660000D03*
X203200000Y-76120000D03*
X203200000Y-73580000D03*
X203200000Y-71040000D03*
X203200000Y-68500000D03*
X203200000Y-65960000D03*
D17*
X190500000Y-89400000D03*
D11*
X207600000Y-108060000D03*
D12*
X207600000Y-110600000D03*
D22*
X217374312Y-95574312D03*
X185094287Y-70905713D03*
X217400000Y-99400000D03*
X189747907Y-70084031D03*
D23*
X198000000Y-100800000D03*
X195600000Y-100800000D03*
X209200000Y-86800000D03*
X211324500Y-86800000D03*
X173600000Y-90000000D03*
X175400000Y-90000000D03*
X167800000Y-85700500D03*
X167800000Y-89200000D03*
X171800000Y-89199500D03*
X171800000Y-88000000D03*
X167200000Y-90399500D03*
X168399500Y-85000000D03*
X200200000Y-112651000D03*
X173718533Y-112651000D03*
X205255227Y-63995273D03*
X195000000Y-101800000D03*
X201264511Y-113250500D03*
X172594622Y-112405378D03*
X170626161Y-108978339D03*
X179813911Y-84986089D03*
X171426411Y-102799500D03*
X179183137Y-85800000D03*
D22*
X171800000Y-94675500D03*
X220450000Y-83200000D03*
X172400000Y-99600000D03*
X218750500Y-83200000D03*
X211500000Y-84400000D03*
X162600000Y-104350500D03*
D23*
X199200000Y-104000000D03*
D22*
X176055000Y-105400000D03*
D23*
X181800000Y-83400000D03*
X179600000Y-64000000D03*
D22*
X218750500Y-85600000D03*
D23*
X199200000Y-100400000D03*
D22*
X162800000Y-93200000D03*
D23*
X185346767Y-81073383D03*
D22*
X162600000Y-106800000D03*
X185800000Y-59600000D03*
X184600000Y-90400000D03*
D23*
X181400000Y-65800000D03*
X181800000Y-85000000D03*
D22*
X200600000Y-87000000D03*
D23*
X189400000Y-72200000D03*
X168800000Y-88000000D03*
X166200000Y-88000000D03*
X213400000Y-96800000D03*
X187000000Y-69400000D03*
D22*
X168400000Y-103800000D03*
X172000000Y-91400000D03*
X162800000Y-95800000D03*
X183600000Y-63800000D03*
D23*
X219000000Y-98400000D03*
X182750487Y-78709467D03*
X184600000Y-85000000D03*
X213800000Y-99200000D03*
X181200000Y-81600000D03*
X218600000Y-96200000D03*
D22*
X209200000Y-63000000D03*
X201985000Y-65000000D03*
X215099647Y-98699647D03*
X182600000Y-62800000D03*
X214672469Y-95310469D03*
X181749562Y-78949562D03*
X185000497Y-82500000D03*
D23*
X183400000Y-86000000D03*
X190400000Y-86000000D03*
D24*
X185094287Y-70905713D02*
X185200000Y-70800000D01*
X217400000Y-95600000D02*
X217374312Y-95574312D01*
X189031938Y-70800000D02*
X189747907Y-70084031D01*
X185200000Y-70800000D02*
X189031938Y-70800000D01*
X217400000Y-99400000D02*
X217400000Y-95600000D01*
D25*
X195600000Y-100800000D02*
X198000000Y-100800000D01*
X211324500Y-86800000D02*
X209200000Y-86800000D01*
X173600000Y-90000000D02*
X175400000Y-90000000D01*
X167800000Y-85700500D02*
X167800000Y-89200000D01*
X171800000Y-89199500D02*
X171800000Y-88000000D01*
X167551471Y-85100500D02*
X167200000Y-85451971D01*
X168399500Y-85000000D02*
X168299000Y-85100500D01*
X168299000Y-85100500D02*
X167551471Y-85100500D01*
X167200000Y-85451971D02*
X167200000Y-90399500D01*
X173718533Y-112651000D02*
X173812533Y-112745000D01*
X173812533Y-112745000D02*
X200106000Y-112745000D01*
X200106000Y-112745000D02*
X200200000Y-112651000D01*
X205255227Y-63995273D02*
X205255227Y-66444773D01*
X205255227Y-66444773D02*
X203200000Y-68500000D01*
X173439744Y-113250500D02*
X201264511Y-113250500D01*
X172594622Y-112405378D02*
X173439744Y-113250500D01*
X195000000Y-101800000D02*
X195280000Y-101520000D01*
X195280000Y-101520000D02*
X203200000Y-101520000D01*
X171426411Y-105600000D02*
X171426411Y-108178089D01*
X179813911Y-83213911D02*
X177800000Y-81200000D01*
X171426411Y-108178089D02*
X170626161Y-108978339D01*
X171426411Y-105600000D02*
X171426411Y-102799500D01*
X179813911Y-84986089D02*
X179813911Y-83213911D01*
X179183137Y-85123137D02*
X177800000Y-83740000D01*
X179183137Y-85800000D02*
X179183137Y-85123137D01*
D26*
X172400000Y-99600000D02*
X173000000Y-99000000D01*
X173000000Y-95875500D02*
X171800000Y-94675500D01*
D24*
X218750500Y-83200000D02*
X220450000Y-83200000D01*
D26*
X173000000Y-99000000D02*
X173000000Y-95875500D01*
D24*
X201510000Y-105400000D02*
X201635000Y-105275000D01*
X201510000Y-69800000D02*
X205000000Y-69800000D01*
X183400000Y-63800000D02*
X181400000Y-65800000D01*
X176055000Y-97600000D02*
X177248532Y-97600000D01*
X175855000Y-72255000D02*
X179345000Y-72255000D01*
X178351468Y-97600000D02*
X179545000Y-97600000D01*
X185800000Y-59600000D02*
X185000000Y-59600000D01*
X176055000Y-105400000D02*
X176180000Y-105275000D01*
X176180000Y-79875000D02*
X179420000Y-79875000D01*
X176055000Y-69800000D02*
X179545000Y-69800000D01*
D26*
X172000000Y-91400000D02*
X172000000Y-92400000D01*
D24*
X177248532Y-97600000D02*
X177303532Y-97655000D01*
X204875000Y-79875000D02*
X205000000Y-80000000D01*
X176055000Y-80000000D02*
X176180000Y-79875000D01*
X201510000Y-74800000D02*
X205000000Y-74800000D01*
D26*
X162800000Y-93200000D02*
X162800000Y-95800000D01*
D24*
X176055000Y-92600000D02*
X179545000Y-92600000D01*
X176180000Y-105275000D02*
X179420000Y-105275000D01*
X176055000Y-67200000D02*
X179545000Y-67200000D01*
X176055000Y-74800000D02*
X179545000Y-74800000D01*
X201510000Y-95200000D02*
X205000000Y-95200000D01*
X201510000Y-90000000D02*
X202668532Y-90000000D01*
X183600000Y-63800000D02*
X183400000Y-63800000D01*
X203731468Y-90000000D02*
X205000000Y-90000000D01*
X176055000Y-87600000D02*
X179545000Y-87600000D01*
X178296468Y-97655000D02*
X178351468Y-97600000D01*
X203696468Y-90035000D02*
X203731468Y-90000000D01*
D26*
X168400000Y-103800000D02*
X167400000Y-104800000D01*
D24*
X201635000Y-105275000D02*
X204875000Y-105275000D01*
X200600000Y-87000000D02*
X201510000Y-86090000D01*
X218750500Y-85600000D02*
X219600000Y-85600000D01*
X219600000Y-85600000D02*
X219800000Y-85800000D01*
X179420000Y-79875000D02*
X179545000Y-80000000D01*
D26*
X162600000Y-106800000D02*
X162600000Y-104350500D01*
D24*
X202668532Y-90000000D02*
X202703532Y-90035000D01*
X177303532Y-97655000D02*
X178296468Y-97655000D01*
X201310000Y-100200000D02*
X204800000Y-100200000D01*
X204875000Y-105275000D02*
X205000000Y-105400000D01*
X201510000Y-85000000D02*
X205000000Y-85000000D01*
X184600000Y-90400000D02*
X185800000Y-90400000D01*
X201510000Y-110400000D02*
X205000000Y-110400000D01*
X202703532Y-90035000D02*
X203696468Y-90035000D01*
X201635000Y-79875000D02*
X204875000Y-79875000D01*
X201510000Y-80000000D02*
X201635000Y-79875000D01*
X176055000Y-102800000D02*
X179545000Y-102800000D01*
X179420000Y-105275000D02*
X179545000Y-105400000D01*
X201510000Y-86090000D02*
X201510000Y-85000000D01*
X201985000Y-64815000D02*
X203800000Y-63000000D01*
X201985000Y-65000000D02*
X201985000Y-64815000D01*
X203800000Y-63000000D02*
X209200000Y-63000000D01*
X182600000Y-62800000D02*
X179440000Y-65960000D01*
X215099647Y-98699647D02*
X214672469Y-98272469D01*
X179440000Y-65960000D02*
X177800000Y-65960000D01*
X214672469Y-98272469D02*
X214672469Y-95310469D01*
X183950000Y-81610661D02*
X183950000Y-81150000D01*
X183950000Y-81150000D02*
X181800000Y-79000000D01*
X185000497Y-82500000D02*
X184839339Y-82500000D01*
X184839339Y-82500000D02*
X183950000Y-81610661D01*
D25*
X183400000Y-86000000D02*
X183400000Y-81720000D01*
X183400000Y-81720000D02*
X177800000Y-76120000D01*
X182800000Y-81685686D02*
X179774314Y-78660000D01*
X183151471Y-86600000D02*
X182800000Y-86248529D01*
X184248529Y-86000000D02*
X183648529Y-86600000D01*
X179774314Y-78660000D02*
X177800000Y-78660000D01*
X183648529Y-86600000D02*
X183151471Y-86600000D01*
X182800000Y-86248529D02*
X182800000Y-81685686D01*
X190400000Y-86000000D02*
X184248529Y-86000000D01*
G04 #@! TA.AperFunction,Conductor*
G36*
X204405524Y-63770185D02*
G01*
X204451279Y-63822989D01*
X204461705Y-63888383D01*
X204449662Y-63995269D01*
X204449662Y-63995276D01*
X204469857Y-64174522D01*
X204469858Y-64174527D01*
X204529438Y-64344796D01*
X204625412Y-64497536D01*
X204627672Y-64500370D01*
X204628561Y-64502548D01*
X204629116Y-64503431D01*
X204628961Y-64503528D01*
X204654082Y-64565056D01*
X204654727Y-64577685D01*
X204654727Y-65559656D01*
X204635042Y-65626695D01*
X204582238Y-65672450D01*
X204513080Y-65682394D01*
X204449524Y-65653369D01*
X204411750Y-65594591D01*
X204410952Y-65591749D01*
X204393254Y-65525699D01*
X204393250Y-65525690D01*
X204299707Y-65325085D01*
X204299706Y-65325083D01*
X204253894Y-65259657D01*
X204253894Y-65259656D01*
X203691132Y-65822418D01*
X203668682Y-65745960D01*
X203589395Y-65622587D01*
X203478562Y-65526549D01*
X203345161Y-65465627D01*
X203341364Y-65465081D01*
X203900342Y-64906104D01*
X203900341Y-64906103D01*
X203834919Y-64860295D01*
X203634309Y-64766749D01*
X203634300Y-64766745D01*
X203416123Y-64708286D01*
X203356462Y-64671921D01*
X203325933Y-64609074D01*
X203334228Y-64539699D01*
X203360530Y-64500836D01*
X204074548Y-63786819D01*
X204135871Y-63753334D01*
X204162229Y-63750500D01*
X204338485Y-63750500D01*
X204405524Y-63770185D01*
G37*
G04 #@! TD.AperFunction*
G04 #@! TA.AperFunction,Conductor*
G36*
X223642539Y-56120185D02*
G01*
X223688294Y-56172989D01*
X223699500Y-56224500D01*
X223699500Y-115175500D01*
X223679815Y-115242539D01*
X223627011Y-115288294D01*
X223575500Y-115299500D01*
X156824500Y-115299500D01*
X156757461Y-115279815D01*
X156711706Y-115227011D01*
X156700500Y-115175500D01*
X156700500Y-111070000D01*
X158929341Y-111070000D01*
X158949936Y-111305403D01*
X158949938Y-111305413D01*
X159011094Y-111533655D01*
X159011096Y-111533659D01*
X159011097Y-111533663D01*
X159079144Y-111679589D01*
X159110965Y-111747830D01*
X159110967Y-111747834D01*
X159217930Y-111900592D01*
X159246505Y-111941401D01*
X159413599Y-112108495D01*
X159471072Y-112148738D01*
X159607165Y-112244032D01*
X159607167Y-112244033D01*
X159607170Y-112244035D01*
X159821337Y-112343903D01*
X160049592Y-112405063D01*
X160237918Y-112421539D01*
X160284999Y-112425659D01*
X160285000Y-112425659D01*
X160285001Y-112425659D01*
X160324234Y-112422226D01*
X160520408Y-112405063D01*
X160748663Y-112343903D01*
X160962830Y-112244035D01*
X161156401Y-112108495D01*
X161323495Y-111941401D01*
X161459035Y-111747830D01*
X161527967Y-111600005D01*
X162794754Y-111600005D01*
X162813718Y-111901446D01*
X162813719Y-111901453D01*
X162870320Y-112198164D01*
X162963659Y-112485431D01*
X162963661Y-112485436D01*
X163092265Y-112758732D01*
X163092268Y-112758738D01*
X163254111Y-113013763D01*
X163254114Y-113013767D01*
X163254115Y-113013768D01*
X163446651Y-113246504D01*
X163641786Y-113429749D01*
X163666836Y-113453272D01*
X163666846Y-113453280D01*
X163911193Y-113630808D01*
X163911198Y-113630810D01*
X163911205Y-113630816D01*
X164175896Y-113776332D01*
X164175901Y-113776334D01*
X164175903Y-113776335D01*
X164175904Y-113776336D01*
X164456734Y-113887524D01*
X164456737Y-113887525D01*
X164554259Y-113912564D01*
X164749302Y-113962642D01*
X164896039Y-113981179D01*
X165048963Y-114000499D01*
X165048969Y-114000499D01*
X165048973Y-114000500D01*
X165048975Y-114000500D01*
X165351025Y-114000500D01*
X165351027Y-114000500D01*
X165351032Y-114000499D01*
X165351036Y-114000499D01*
X165430591Y-113990448D01*
X165650698Y-113962642D01*
X165943262Y-113887525D01*
X165961470Y-113880316D01*
X166224095Y-113776336D01*
X166224096Y-113776335D01*
X166224094Y-113776335D01*
X166224104Y-113776332D01*
X166488795Y-113630816D01*
X166733162Y-113453274D01*
X166953349Y-113246504D01*
X167145885Y-113013768D01*
X167307733Y-112758736D01*
X167436341Y-112485430D01*
X167462351Y-112405381D01*
X171789057Y-112405381D01*
X171809252Y-112584627D01*
X171809253Y-112584632D01*
X171868833Y-112754901D01*
X171943495Y-112873724D01*
X171964806Y-112907640D01*
X172092360Y-113035194D01*
X172245100Y-113131167D01*
X172415367Y-113190746D01*
X172502291Y-113200539D01*
X172566702Y-113227604D01*
X172576087Y-113236078D01*
X172984413Y-113644404D01*
X172989764Y-113650505D01*
X173011462Y-113678782D01*
X173107875Y-113752762D01*
X173136903Y-113775036D01*
X173136906Y-113775037D01*
X173136907Y-113775038D01*
X173140041Y-113776336D01*
X173282982Y-113835544D01*
X173361363Y-113845863D01*
X173439743Y-113856182D01*
X173439744Y-113856182D01*
X173475073Y-113851530D01*
X173483172Y-113851000D01*
X200682099Y-113851000D01*
X200749138Y-113870685D01*
X200759414Y-113878055D01*
X200762247Y-113880314D01*
X200762249Y-113880316D01*
X200914989Y-113976289D01*
X201085256Y-114035868D01*
X201085261Y-114035869D01*
X201264507Y-114056065D01*
X201264511Y-114056065D01*
X201264515Y-114056065D01*
X201443760Y-114035869D01*
X201443763Y-114035868D01*
X201443766Y-114035868D01*
X201614033Y-113976289D01*
X201766773Y-113880316D01*
X201894327Y-113752762D01*
X201990300Y-113600022D01*
X202049879Y-113429755D01*
X202070076Y-113250500D01*
X202067496Y-113227604D01*
X202049880Y-113071250D01*
X202049879Y-113071245D01*
X201990299Y-112900976D01*
X201914374Y-112780143D01*
X201894327Y-112748238D01*
X201766773Y-112620684D01*
X201614034Y-112524711D01*
X201443765Y-112465131D01*
X201443760Y-112465130D01*
X201264515Y-112444935D01*
X201264507Y-112444935D01*
X201085195Y-112465138D01*
X201016373Y-112453083D01*
X200964994Y-112405734D01*
X200954270Y-112382872D01*
X200925789Y-112301478D01*
X200889695Y-112244035D01*
X200829816Y-112148738D01*
X200702262Y-112021184D01*
X200549523Y-111925211D01*
X200379254Y-111865631D01*
X200379249Y-111865630D01*
X200200004Y-111845435D01*
X200199996Y-111845435D01*
X200020750Y-111865630D01*
X200020745Y-111865631D01*
X199850476Y-111925211D01*
X199697737Y-112021184D01*
X199610741Y-112108181D01*
X199549418Y-112141666D01*
X199523060Y-112144500D01*
X191601155Y-112144500D01*
X191534116Y-112124815D01*
X191488361Y-112072011D01*
X191478417Y-112002853D01*
X191507442Y-111939297D01*
X191541417Y-111911838D01*
X191543853Y-111910499D01*
X191688795Y-111830816D01*
X191933162Y-111653274D01*
X192153349Y-111446504D01*
X192345885Y-111213768D01*
X192507733Y-110958736D01*
X192636341Y-110685430D01*
X192729681Y-110398160D01*
X192786280Y-110101457D01*
X192786602Y-110096337D01*
X192805246Y-109800005D01*
X192805246Y-109799994D01*
X192786281Y-109498553D01*
X192786280Y-109498546D01*
X192786280Y-109498543D01*
X192729681Y-109201840D01*
X192636341Y-108914570D01*
X192507733Y-108641264D01*
X192421152Y-108504834D01*
X192345888Y-108386236D01*
X192293942Y-108323444D01*
X192153349Y-108153496D01*
X192141918Y-108142762D01*
X191933163Y-107946727D01*
X191933153Y-107946719D01*
X191688806Y-107769191D01*
X191688799Y-107769186D01*
X191688795Y-107769184D01*
X191424104Y-107623668D01*
X191424101Y-107623666D01*
X191424096Y-107623664D01*
X191424095Y-107623663D01*
X191143265Y-107512475D01*
X191143262Y-107512474D01*
X190850695Y-107437357D01*
X190551036Y-107399500D01*
X190551027Y-107399500D01*
X190248973Y-107399500D01*
X190248963Y-107399500D01*
X189949304Y-107437357D01*
X189656737Y-107512474D01*
X189656734Y-107512475D01*
X189375904Y-107623663D01*
X189375903Y-107623664D01*
X189111205Y-107769184D01*
X189111193Y-107769191D01*
X188866846Y-107946719D01*
X188866836Y-107946727D01*
X188646652Y-108153494D01*
X188454111Y-108386236D01*
X188292268Y-108641261D01*
X188292265Y-108641267D01*
X188163661Y-108914563D01*
X188163659Y-108914568D01*
X188070320Y-109201835D01*
X188013719Y-109498546D01*
X188013718Y-109498553D01*
X187994754Y-109799994D01*
X187994754Y-109800005D01*
X188013718Y-110101446D01*
X188013719Y-110101453D01*
X188020406Y-110136507D01*
X188059947Y-110343790D01*
X188070320Y-110398164D01*
X188163659Y-110685431D01*
X188163661Y-110685436D01*
X188292265Y-110958732D01*
X188292268Y-110958738D01*
X188454111Y-111213763D01*
X188454114Y-111213767D01*
X188454115Y-111213768D01*
X188529930Y-111305413D01*
X188646652Y-111446505D01*
X188658757Y-111457872D01*
X188831414Y-111620009D01*
X188866836Y-111653272D01*
X188866846Y-111653280D01*
X189111193Y-111830808D01*
X189111198Y-111830810D01*
X189111205Y-111830816D01*
X189256147Y-111910499D01*
X189258583Y-111911838D01*
X189307847Y-111961384D01*
X189322503Y-112029700D01*
X189297899Y-112095094D01*
X189241846Y-112136805D01*
X189198845Y-112144500D01*
X179147280Y-112144500D01*
X179080241Y-112124815D01*
X179034486Y-112072011D01*
X179024542Y-112002853D01*
X179027505Y-111988407D01*
X179037395Y-111951492D01*
X179051035Y-111900591D01*
X179070334Y-111680000D01*
X179051035Y-111459409D01*
X178993723Y-111245520D01*
X178984875Y-111226546D01*
X178956443Y-111165572D01*
X178900142Y-111044833D01*
X178773132Y-110863445D01*
X178616555Y-110706868D01*
X178435167Y-110579858D01*
X178311907Y-110522381D01*
X178259468Y-110476210D01*
X178240316Y-110409017D01*
X178260531Y-110342136D01*
X178311908Y-110297618D01*
X178435167Y-110240142D01*
X178616555Y-110113132D01*
X178773132Y-109956555D01*
X178900142Y-109775167D01*
X178993723Y-109574480D01*
X179051035Y-109360591D01*
X179069255Y-109152331D01*
X179070334Y-109140001D01*
X179070334Y-109139998D01*
X179056191Y-108978342D01*
X179051035Y-108919409D01*
X178993723Y-108705520D01*
X178900142Y-108504833D01*
X178773132Y-108323445D01*
X178616555Y-108166868D01*
X178435167Y-108039858D01*
X178311907Y-107982381D01*
X178259468Y-107936210D01*
X178240316Y-107869017D01*
X178260531Y-107802136D01*
X178311908Y-107757618D01*
X178435167Y-107700142D01*
X178616555Y-107573132D01*
X178773132Y-107416555D01*
X178900142Y-107235167D01*
X178993723Y-107034480D01*
X179051035Y-106820591D01*
X179070334Y-106600000D01*
X179051035Y-106379409D01*
X178993723Y-106165520D01*
X178900142Y-105964833D01*
X178773132Y-105783445D01*
X178616555Y-105626868D01*
X178435167Y-105499858D01*
X178411017Y-105488597D01*
X178354228Y-105462116D01*
X178311907Y-105442381D01*
X178259468Y-105396210D01*
X178240316Y-105329017D01*
X178260531Y-105262136D01*
X178311908Y-105217618D01*
X178435167Y-105160142D01*
X178616555Y-105033132D01*
X178773132Y-104876555D01*
X178900142Y-104695167D01*
X178993723Y-104494480D01*
X179051035Y-104280591D01*
X179070334Y-104060000D01*
X179051035Y-103839409D01*
X178993723Y-103625520D01*
X178979513Y-103595047D01*
X178956443Y-103545572D01*
X178900142Y-103424833D01*
X178773132Y-103243445D01*
X178616555Y-103086868D01*
X178435167Y-102959858D01*
X178311907Y-102902381D01*
X178259468Y-102856210D01*
X178240316Y-102789017D01*
X178260531Y-102722136D01*
X178311908Y-102677618D01*
X178435167Y-102620142D01*
X178616555Y-102493132D01*
X178773132Y-102336555D01*
X178900142Y-102155167D01*
X178993723Y-101954480D01*
X179035115Y-101800003D01*
X194194435Y-101800003D01*
X194214630Y-101979249D01*
X194214631Y-101979254D01*
X194274211Y-102149523D01*
X194347024Y-102265403D01*
X194370184Y-102302262D01*
X194497738Y-102429816D01*
X194650478Y-102525789D01*
X194820745Y-102585368D01*
X194820750Y-102585369D01*
X194999996Y-102605565D01*
X195000000Y-102605565D01*
X195000004Y-102605565D01*
X195179249Y-102585369D01*
X195179252Y-102585368D01*
X195179255Y-102585368D01*
X195349522Y-102525789D01*
X195502262Y-102429816D01*
X195629816Y-102302262D01*
X195707563Y-102178527D01*
X195759898Y-102132237D01*
X195812557Y-102120500D01*
X202011034Y-102120500D01*
X202078073Y-102140185D01*
X202112606Y-102173373D01*
X202226868Y-102336555D01*
X202383445Y-102493132D01*
X202564833Y-102620142D01*
X202565065Y-102620250D01*
X202688091Y-102677618D01*
X202740531Y-102723790D01*
X202759683Y-102790983D01*
X202739467Y-102857865D01*
X202688091Y-102902382D01*
X202564836Y-102959856D01*
X202564834Y-102959857D01*
X202383444Y-103086868D01*
X202226868Y-103243444D01*
X202099857Y-103424834D01*
X202099856Y-103424836D01*
X202006279Y-103625513D01*
X202006275Y-103625524D01*
X201948965Y-103839407D01*
X201948964Y-103839414D01*
X201929666Y-104059998D01*
X201929666Y-104060001D01*
X201948964Y-104280585D01*
X201948965Y-104280592D01*
X202006275Y-104494475D01*
X202006279Y-104494486D01*
X202099856Y-104695163D01*
X202099858Y-104695167D01*
X202226868Y-104876555D01*
X202383445Y-105033132D01*
X202564833Y-105160142D01*
X202626828Y-105189050D01*
X202688091Y-105217618D01*
X202740531Y-105263790D01*
X202759683Y-105330983D01*
X202739467Y-105397865D01*
X202688091Y-105442382D01*
X202564836Y-105499856D01*
X202564834Y-105499857D01*
X202383444Y-105626868D01*
X202226868Y-105783444D01*
X202099857Y-105964834D01*
X202099856Y-105964836D01*
X202006279Y-106165513D01*
X202006275Y-106165524D01*
X201948965Y-106379407D01*
X201948964Y-106379414D01*
X201929666Y-106599998D01*
X201929666Y-106600001D01*
X201948964Y-106820585D01*
X201948965Y-106820592D01*
X202006275Y-107034475D01*
X202006279Y-107034486D01*
X202098102Y-107231401D01*
X202099858Y-107235167D01*
X202226868Y-107416555D01*
X202383445Y-107573132D01*
X202564833Y-107700142D01*
X202598110Y-107715659D01*
X202688091Y-107757618D01*
X202740531Y-107803790D01*
X202759683Y-107870983D01*
X202739467Y-107937865D01*
X202688091Y-107982382D01*
X202564836Y-108039856D01*
X202564834Y-108039857D01*
X202383444Y-108166868D01*
X202226868Y-108323444D01*
X202099857Y-108504834D01*
X202099856Y-108504836D01*
X202006279Y-108705513D01*
X202006275Y-108705524D01*
X201948965Y-108919407D01*
X201948964Y-108919414D01*
X201929666Y-109139998D01*
X201929666Y-109140001D01*
X201948964Y-109360585D01*
X201948965Y-109360592D01*
X202006275Y-109574475D01*
X202006279Y-109574486D01*
X202099856Y-109775163D01*
X202099858Y-109775167D01*
X202226868Y-109956555D01*
X202383445Y-110113132D01*
X202564833Y-110240142D01*
X202626828Y-110269050D01*
X202688091Y-110297618D01*
X202740531Y-110343790D01*
X202759683Y-110410983D01*
X202739467Y-110477865D01*
X202688091Y-110522382D01*
X202564836Y-110579856D01*
X202564834Y-110579857D01*
X202383444Y-110706868D01*
X202226868Y-110863444D01*
X202099857Y-111044834D01*
X202099856Y-111044836D01*
X202006279Y-111245513D01*
X202006275Y-111245524D01*
X201948965Y-111459407D01*
X201948964Y-111459414D01*
X201929666Y-111679998D01*
X201929666Y-111680001D01*
X201948964Y-111900585D01*
X201948965Y-111900592D01*
X202006275Y-112114475D01*
X202006279Y-112114486D01*
X202066688Y-112244034D01*
X202099858Y-112315167D01*
X202226868Y-112496555D01*
X202383445Y-112653132D01*
X202564833Y-112780142D01*
X202685572Y-112836443D01*
X202765513Y-112873720D01*
X202765515Y-112873720D01*
X202765520Y-112873723D01*
X202979409Y-112931035D01*
X203136974Y-112944820D01*
X203199998Y-112950334D01*
X203200000Y-112950334D01*
X203200002Y-112950334D01*
X203255147Y-112945509D01*
X203420591Y-112931035D01*
X203634480Y-112873723D01*
X203835167Y-112780142D01*
X204016555Y-112653132D01*
X204173132Y-112496555D01*
X204300142Y-112315167D01*
X204393723Y-112114480D01*
X204451035Y-111900591D01*
X204470334Y-111680000D01*
X204451035Y-111459409D01*
X204393723Y-111245520D01*
X204384875Y-111226546D01*
X204356443Y-111165572D01*
X204300142Y-111044833D01*
X204173132Y-110863445D01*
X204016555Y-110706868D01*
X203835167Y-110579858D01*
X203711907Y-110522381D01*
X203659468Y-110476210D01*
X203640316Y-110409017D01*
X203660531Y-110342136D01*
X203711908Y-110297618D01*
X203835167Y-110240142D01*
X204016555Y-110113132D01*
X204173132Y-109956555D01*
X204300142Y-109775167D01*
X204393723Y-109574480D01*
X204451035Y-109360591D01*
X204469255Y-109152331D01*
X204470334Y-109140001D01*
X204470334Y-109139998D01*
X204456191Y-108978342D01*
X204454400Y-108957870D01*
X206249500Y-108957870D01*
X206249501Y-108957876D01*
X206255908Y-109017483D01*
X206306202Y-109152328D01*
X206306206Y-109152335D01*
X206392452Y-109267544D01*
X206392455Y-109267547D01*
X206507664Y-109353793D01*
X206507671Y-109353797D01*
X206507674Y-109353798D01*
X206639598Y-109403002D01*
X206695531Y-109444873D01*
X206719949Y-109510337D01*
X206705098Y-109578610D01*
X206683947Y-109606865D01*
X206561886Y-109728926D01*
X206426400Y-109922420D01*
X206426399Y-109922422D01*
X206326570Y-110136507D01*
X206326567Y-110136513D01*
X206269364Y-110349999D01*
X206269364Y-110350000D01*
X207166314Y-110350000D01*
X207140507Y-110390156D01*
X207100000Y-110528111D01*
X207100000Y-110671889D01*
X207140507Y-110809844D01*
X207166314Y-110850000D01*
X206269364Y-110850000D01*
X206326567Y-111063486D01*
X206326570Y-111063492D01*
X206426399Y-111277578D01*
X206561894Y-111471082D01*
X206728917Y-111638105D01*
X206922421Y-111773600D01*
X207136507Y-111873429D01*
X207136516Y-111873433D01*
X207350000Y-111930634D01*
X207350000Y-111035501D01*
X207457685Y-111084680D01*
X207564237Y-111100000D01*
X207635763Y-111100000D01*
X207742315Y-111084680D01*
X207850000Y-111035501D01*
X207850000Y-111930633D01*
X208063483Y-111873433D01*
X208063492Y-111873429D01*
X208277578Y-111773600D01*
X208471082Y-111638105D01*
X208638105Y-111471082D01*
X208647356Y-111457870D01*
X211669500Y-111457870D01*
X211669501Y-111457876D01*
X211675908Y-111517483D01*
X211726202Y-111652328D01*
X211726206Y-111652335D01*
X211812452Y-111767544D01*
X211812455Y-111767547D01*
X211927664Y-111853793D01*
X211927671Y-111853797D01*
X212062517Y-111904091D01*
X212062516Y-111904091D01*
X212069444Y-111904835D01*
X212122127Y-111910500D01*
X213917872Y-111910499D01*
X213977483Y-111904091D01*
X214112331Y-111853796D01*
X214227546Y-111767546D01*
X214313796Y-111652331D01*
X214362810Y-111520916D01*
X214404681Y-111464984D01*
X214470145Y-111440566D01*
X214538418Y-111455417D01*
X214566673Y-111476569D01*
X214688599Y-111598495D01*
X214766840Y-111653280D01*
X214882165Y-111734032D01*
X214882167Y-111734033D01*
X214882170Y-111734035D01*
X215096337Y-111833903D01*
X215096343Y-111833904D01*
X215096344Y-111833905D01*
X215151285Y-111848626D01*
X215324592Y-111895063D01*
X215501034Y-111910500D01*
X215559999Y-111915659D01*
X215560000Y-111915659D01*
X215560001Y-111915659D01*
X215618966Y-111910500D01*
X215795408Y-111895063D01*
X216023663Y-111833903D01*
X216237830Y-111734035D01*
X216431401Y-111598495D01*
X216598495Y-111431401D01*
X216728425Y-111245842D01*
X216783002Y-111202217D01*
X216852500Y-111195023D01*
X216914855Y-111226546D01*
X216931575Y-111245842D01*
X217061500Y-111431395D01*
X217061505Y-111431401D01*
X217228599Y-111598495D01*
X217306840Y-111653280D01*
X217422165Y-111734032D01*
X217422167Y-111734033D01*
X217422170Y-111734035D01*
X217636337Y-111833903D01*
X217636343Y-111833904D01*
X217636344Y-111833905D01*
X217691285Y-111848626D01*
X217864592Y-111895063D01*
X218041034Y-111910500D01*
X218099999Y-111915659D01*
X218100000Y-111915659D01*
X218100001Y-111915659D01*
X218158966Y-111910500D01*
X218335408Y-111895063D01*
X218563663Y-111833903D01*
X218777830Y-111734035D01*
X218971401Y-111598495D01*
X219138495Y-111431401D01*
X219268425Y-111245842D01*
X219323002Y-111202217D01*
X219392500Y-111195023D01*
X219454855Y-111226546D01*
X219471575Y-111245842D01*
X219601500Y-111431395D01*
X219601505Y-111431401D01*
X219768599Y-111598495D01*
X219846840Y-111653280D01*
X219962165Y-111734032D01*
X219962167Y-111734033D01*
X219962170Y-111734035D01*
X220176337Y-111833903D01*
X220176343Y-111833904D01*
X220176344Y-111833905D01*
X220231285Y-111848626D01*
X220404592Y-111895063D01*
X220581034Y-111910500D01*
X220639999Y-111915659D01*
X220640000Y-111915659D01*
X220640001Y-111915659D01*
X220698966Y-111910500D01*
X220875408Y-111895063D01*
X221103663Y-111833903D01*
X221317830Y-111734035D01*
X221511401Y-111598495D01*
X221678495Y-111431401D01*
X221814035Y-111237830D01*
X221913903Y-111023663D01*
X221975063Y-110795408D01*
X221995659Y-110560000D01*
X221975063Y-110324592D01*
X221915272Y-110101446D01*
X221913905Y-110096344D01*
X221913904Y-110096343D01*
X221913903Y-110096337D01*
X221814035Y-109882171D01*
X221812865Y-109880499D01*
X221678494Y-109688597D01*
X221511402Y-109521506D01*
X221511395Y-109521501D01*
X221317834Y-109385967D01*
X221317830Y-109385965D01*
X221317828Y-109385964D01*
X221103663Y-109286097D01*
X221103659Y-109286096D01*
X221103655Y-109286094D01*
X220875413Y-109224938D01*
X220875403Y-109224936D01*
X220640001Y-109204341D01*
X220639999Y-109204341D01*
X220404596Y-109224936D01*
X220404586Y-109224938D01*
X220176344Y-109286094D01*
X220176335Y-109286098D01*
X219962171Y-109385964D01*
X219962169Y-109385965D01*
X219768597Y-109521505D01*
X219601505Y-109688597D01*
X219471575Y-109874158D01*
X219416998Y-109917783D01*
X219347500Y-109924977D01*
X219285145Y-109893454D01*
X219268425Y-109874158D01*
X219138494Y-109688597D01*
X218971402Y-109521506D01*
X218971395Y-109521501D01*
X218777834Y-109385967D01*
X218777830Y-109385965D01*
X218777828Y-109385964D01*
X218563663Y-109286097D01*
X218563659Y-109286096D01*
X218563655Y-109286094D01*
X218335413Y-109224938D01*
X218335403Y-109224936D01*
X218100001Y-109204341D01*
X218099999Y-109204341D01*
X217864596Y-109224936D01*
X217864586Y-109224938D01*
X217636344Y-109286094D01*
X217636335Y-109286098D01*
X217422171Y-109385964D01*
X217422169Y-109385965D01*
X217228597Y-109521505D01*
X217061505Y-109688597D01*
X216931575Y-109874158D01*
X216876998Y-109917783D01*
X216807500Y-109924977D01*
X216745145Y-109893454D01*
X216728425Y-109874158D01*
X216598494Y-109688597D01*
X216431402Y-109521506D01*
X216431395Y-109521501D01*
X216237834Y-109385967D01*
X216237830Y-109385965D01*
X216237828Y-109385964D01*
X216023663Y-109286097D01*
X216023659Y-109286096D01*
X216023655Y-109286094D01*
X215795413Y-109224938D01*
X215795403Y-109224936D01*
X215560001Y-109204341D01*
X215559999Y-109204341D01*
X215324596Y-109224936D01*
X215324586Y-109224938D01*
X215096344Y-109286094D01*
X215096335Y-109286098D01*
X214882171Y-109385964D01*
X214882169Y-109385965D01*
X214688600Y-109521503D01*
X214566673Y-109643430D01*
X214505350Y-109676914D01*
X214435658Y-109671930D01*
X214379725Y-109630058D01*
X214362810Y-109599081D01*
X214313797Y-109467671D01*
X214313793Y-109467664D01*
X214227547Y-109352455D01*
X214227544Y-109352452D01*
X214112335Y-109266206D01*
X214112328Y-109266202D01*
X213977482Y-109215908D01*
X213977483Y-109215908D01*
X213917883Y-109209501D01*
X213917881Y-109209500D01*
X213917873Y-109209500D01*
X213917864Y-109209500D01*
X212122129Y-109209500D01*
X212122123Y-109209501D01*
X212062516Y-109215908D01*
X211927671Y-109266202D01*
X211927664Y-109266206D01*
X211812455Y-109352452D01*
X211812452Y-109352455D01*
X211726206Y-109467664D01*
X211726202Y-109467671D01*
X211675908Y-109602517D01*
X211669501Y-109662116D01*
X211669500Y-109662135D01*
X211669500Y-111457870D01*
X208647356Y-111457870D01*
X208773600Y-111277578D01*
X208873429Y-111063492D01*
X208873432Y-111063486D01*
X208930636Y-110850000D01*
X208033686Y-110850000D01*
X208059493Y-110809844D01*
X208100000Y-110671889D01*
X208100000Y-110528111D01*
X208059493Y-110390156D01*
X208033686Y-110350000D01*
X208930636Y-110350000D01*
X208930635Y-110349999D01*
X208873432Y-110136513D01*
X208873429Y-110136507D01*
X208773600Y-109922422D01*
X208773599Y-109922420D01*
X208638113Y-109728926D01*
X208638108Y-109728920D01*
X208516053Y-109606865D01*
X208482568Y-109545542D01*
X208487552Y-109475850D01*
X208529424Y-109419917D01*
X208560400Y-109403002D01*
X208692331Y-109353796D01*
X208807546Y-109267546D01*
X208893796Y-109152331D01*
X208944091Y-109017483D01*
X208950500Y-108957873D01*
X208950499Y-107257870D01*
X211549500Y-107257870D01*
X211549501Y-107257876D01*
X211555908Y-107317483D01*
X211606202Y-107452328D01*
X211606206Y-107452335D01*
X211692452Y-107567544D01*
X211692455Y-107567547D01*
X211807664Y-107653793D01*
X211807671Y-107653797D01*
X211942517Y-107704091D01*
X211942516Y-107704091D01*
X211949444Y-107704835D01*
X212002127Y-107710500D01*
X213797872Y-107710499D01*
X213857483Y-107704091D01*
X213992331Y-107653796D01*
X214107546Y-107567546D01*
X214193796Y-107452331D01*
X214242810Y-107320916D01*
X214284681Y-107264984D01*
X214350145Y-107240566D01*
X214418418Y-107255417D01*
X214446673Y-107276569D01*
X214568599Y-107398495D01*
X214665384Y-107466265D01*
X214762165Y-107534032D01*
X214762167Y-107534033D01*
X214762170Y-107534035D01*
X214976337Y-107633903D01*
X215204592Y-107695063D01*
X215381034Y-107710500D01*
X215439999Y-107715659D01*
X215440000Y-107715659D01*
X215440001Y-107715659D01*
X215498966Y-107710500D01*
X215675408Y-107695063D01*
X215903663Y-107633903D01*
X216117830Y-107534035D01*
X216311401Y-107398495D01*
X216478495Y-107231401D01*
X216608425Y-107045842D01*
X216663002Y-107002217D01*
X216732500Y-106995023D01*
X216794855Y-107026546D01*
X216811575Y-107045842D01*
X216941500Y-107231395D01*
X216941505Y-107231401D01*
X217108599Y-107398495D01*
X217205384Y-107466265D01*
X217302165Y-107534032D01*
X217302167Y-107534033D01*
X217302170Y-107534035D01*
X217516337Y-107633903D01*
X217744592Y-107695063D01*
X217921034Y-107710500D01*
X217979999Y-107715659D01*
X217980000Y-107715659D01*
X217980001Y-107715659D01*
X218038966Y-107710500D01*
X218215408Y-107695063D01*
X218443663Y-107633903D01*
X218657830Y-107534035D01*
X218851401Y-107398495D01*
X219018495Y-107231401D01*
X219148425Y-107045842D01*
X219203002Y-107002217D01*
X219272500Y-106995023D01*
X219334855Y-107026546D01*
X219351575Y-107045842D01*
X219481500Y-107231395D01*
X219481505Y-107231401D01*
X219648599Y-107398495D01*
X219745384Y-107466265D01*
X219842165Y-107534032D01*
X219842167Y-107534033D01*
X219842170Y-107534035D01*
X220056337Y-107633903D01*
X220284592Y-107695063D01*
X220461034Y-107710500D01*
X220519999Y-107715659D01*
X220520000Y-107715659D01*
X220520001Y-107715659D01*
X220578966Y-107710500D01*
X220755408Y-107695063D01*
X220983663Y-107633903D01*
X221197830Y-107534035D01*
X221391401Y-107398495D01*
X221558495Y-107231401D01*
X221694035Y-107037830D01*
X221793903Y-106823663D01*
X221855063Y-106595408D01*
X221875659Y-106360000D01*
X221855063Y-106124592D01*
X221793903Y-105896337D01*
X221694035Y-105682171D01*
X221688425Y-105674158D01*
X221558494Y-105488597D01*
X221391402Y-105321506D01*
X221391395Y-105321501D01*
X221197834Y-105185967D01*
X221197830Y-105185965D01*
X221197828Y-105185964D01*
X220983663Y-105086097D01*
X220983659Y-105086096D01*
X220983655Y-105086094D01*
X220755413Y-105024938D01*
X220755403Y-105024936D01*
X220520001Y-105004341D01*
X220519999Y-105004341D01*
X220284596Y-105024936D01*
X220284586Y-105024938D01*
X220056344Y-105086094D01*
X220056335Y-105086098D01*
X219842171Y-105185964D01*
X219842169Y-105185965D01*
X219648597Y-105321505D01*
X219481505Y-105488597D01*
X219351575Y-105674158D01*
X219296998Y-105717783D01*
X219227500Y-105724977D01*
X219165145Y-105693454D01*
X219148425Y-105674158D01*
X219018494Y-105488597D01*
X218851402Y-105321506D01*
X218851395Y-105321501D01*
X218657834Y-105185967D01*
X218657830Y-105185965D01*
X218657828Y-105185964D01*
X218443663Y-105086097D01*
X218443659Y-105086096D01*
X218443655Y-105086094D01*
X218215413Y-105024938D01*
X218215403Y-105024936D01*
X217980001Y-105004341D01*
X217979999Y-105004341D01*
X217744596Y-105024936D01*
X217744586Y-105024938D01*
X217516344Y-105086094D01*
X217516335Y-105086098D01*
X217302171Y-105185964D01*
X217302169Y-105185965D01*
X217108597Y-105321505D01*
X216941505Y-105488597D01*
X216811575Y-105674158D01*
X216756998Y-105717783D01*
X216687500Y-105724977D01*
X216625145Y-105693454D01*
X216608425Y-105674158D01*
X216478494Y-105488597D01*
X216311402Y-105321506D01*
X216311395Y-105321501D01*
X216117834Y-105185967D01*
X216117830Y-105185965D01*
X216117828Y-105185964D01*
X215903663Y-105086097D01*
X215903659Y-105086096D01*
X215903655Y-105086094D01*
X215675413Y-105024938D01*
X215675403Y-105024936D01*
X215440001Y-105004341D01*
X215439999Y-105004341D01*
X215204596Y-105024936D01*
X215204586Y-105024938D01*
X214976344Y-105086094D01*
X214976335Y-105086098D01*
X214762171Y-105185964D01*
X214762169Y-105185965D01*
X214568600Y-105321503D01*
X214446673Y-105443430D01*
X214385350Y-105476914D01*
X214315658Y-105471930D01*
X214259725Y-105430058D01*
X214242810Y-105399081D01*
X214193797Y-105267671D01*
X214193793Y-105267664D01*
X214107547Y-105152455D01*
X214107544Y-105152452D01*
X213992335Y-105066206D01*
X213992328Y-105066202D01*
X213857482Y-105015908D01*
X213857483Y-105015908D01*
X213797883Y-105009501D01*
X213797881Y-105009500D01*
X213797873Y-105009500D01*
X213797864Y-105009500D01*
X212002129Y-105009500D01*
X212002123Y-105009501D01*
X211942516Y-105015908D01*
X211807671Y-105066202D01*
X211807664Y-105066206D01*
X211692455Y-105152452D01*
X211692452Y-105152455D01*
X211606206Y-105267664D01*
X211606202Y-105267671D01*
X211555908Y-105402517D01*
X211549501Y-105462116D01*
X211549500Y-105462135D01*
X211549500Y-107257870D01*
X208950499Y-107257870D01*
X208950499Y-107162128D01*
X208944091Y-107102517D01*
X208919964Y-107037830D01*
X208893797Y-106967671D01*
X208893793Y-106967664D01*
X208807547Y-106852455D01*
X208807544Y-106852452D01*
X208692335Y-106766206D01*
X208692328Y-106766202D01*
X208557482Y-106715908D01*
X208557483Y-106715908D01*
X208497883Y-106709501D01*
X208497881Y-106709500D01*
X208497873Y-106709500D01*
X208497864Y-106709500D01*
X206702129Y-106709500D01*
X206702123Y-106709501D01*
X206642516Y-106715908D01*
X206507671Y-106766202D01*
X206507664Y-106766206D01*
X206392455Y-106852452D01*
X206392452Y-106852455D01*
X206306206Y-106967664D01*
X206306202Y-106967671D01*
X206255908Y-107102517D01*
X206249501Y-107162116D01*
X206249501Y-107162123D01*
X206249500Y-107162135D01*
X206249500Y-108957870D01*
X204454400Y-108957870D01*
X204451035Y-108919409D01*
X204393723Y-108705520D01*
X204300142Y-108504833D01*
X204173132Y-108323445D01*
X204016555Y-108166868D01*
X203835167Y-108039858D01*
X203711907Y-107982381D01*
X203659468Y-107936210D01*
X203640316Y-107869017D01*
X203660531Y-107802136D01*
X203711908Y-107757618D01*
X203835167Y-107700142D01*
X204016555Y-107573132D01*
X204173132Y-107416555D01*
X204300142Y-107235167D01*
X204393723Y-107034480D01*
X204451035Y-106820591D01*
X204470334Y-106600000D01*
X204451035Y-106379409D01*
X204393723Y-106165520D01*
X204300142Y-105964833D01*
X204173132Y-105783445D01*
X204016555Y-105626868D01*
X203835167Y-105499858D01*
X203811017Y-105488597D01*
X203754228Y-105462116D01*
X203711907Y-105442381D01*
X203659468Y-105396210D01*
X203640316Y-105329017D01*
X203660531Y-105262136D01*
X203711908Y-105217618D01*
X203835167Y-105160142D01*
X204016555Y-105033132D01*
X204173132Y-104876555D01*
X204300142Y-104695167D01*
X204393723Y-104494480D01*
X204451035Y-104280591D01*
X204470334Y-104060000D01*
X204451035Y-103839409D01*
X204393723Y-103625520D01*
X204379513Y-103595047D01*
X204356443Y-103545572D01*
X204300142Y-103424833D01*
X204173132Y-103243445D01*
X204016555Y-103086868D01*
X203835167Y-102959858D01*
X203711907Y-102902381D01*
X203659468Y-102856210D01*
X203640316Y-102789017D01*
X203660531Y-102722136D01*
X203711908Y-102677618D01*
X203835167Y-102620142D01*
X204016555Y-102493132D01*
X204173132Y-102336555D01*
X204300142Y-102155167D01*
X204393723Y-101954480D01*
X204451035Y-101740591D01*
X204470334Y-101520000D01*
X204451035Y-101299409D01*
X204393723Y-101085520D01*
X204371230Y-101037284D01*
X204349884Y-100991506D01*
X204300142Y-100884833D01*
X204173132Y-100703445D01*
X204016555Y-100546868D01*
X203835167Y-100419858D01*
X203711907Y-100362381D01*
X203659468Y-100316210D01*
X203644159Y-100262501D01*
X210156937Y-100262501D01*
X210177150Y-100493544D01*
X210177151Y-100493551D01*
X210237178Y-100717574D01*
X210237179Y-100717576D01*
X210237180Y-100717579D01*
X210278752Y-100806731D01*
X210335199Y-100927782D01*
X210335203Y-100927788D01*
X210394714Y-101012778D01*
X210417042Y-101078984D01*
X210400032Y-101146751D01*
X210367451Y-101183168D01*
X210304955Y-101229952D01*
X210304952Y-101229955D01*
X210218706Y-101345164D01*
X210218702Y-101345171D01*
X210168408Y-101480017D01*
X210164110Y-101519998D01*
X210162001Y-101539623D01*
X210162000Y-101539635D01*
X210162000Y-103285370D01*
X210162001Y-103285376D01*
X210168408Y-103344983D01*
X210218702Y-103479828D01*
X210218706Y-103479835D01*
X210304952Y-103595044D01*
X210304955Y-103595047D01*
X210420164Y-103681293D01*
X210420171Y-103681297D01*
X210555017Y-103731591D01*
X210555016Y-103731591D01*
X210561944Y-103732335D01*
X210614627Y-103738000D01*
X212360372Y-103737999D01*
X212419983Y-103731591D01*
X212554831Y-103681296D01*
X212670046Y-103595046D01*
X212756296Y-103479831D01*
X212806591Y-103344983D01*
X212813000Y-103285373D01*
X212812999Y-101539628D01*
X212806591Y-101480017D01*
X212756296Y-101345169D01*
X212756295Y-101345168D01*
X212756293Y-101345164D01*
X212670047Y-101229955D01*
X212670044Y-101229952D01*
X212607549Y-101183168D01*
X212565678Y-101127234D01*
X212560694Y-101057543D01*
X212580286Y-101012778D01*
X212595184Y-100991501D01*
X212639801Y-100927782D01*
X212737820Y-100717579D01*
X212797849Y-100493550D01*
X212818063Y-100262500D01*
X212817944Y-100261144D01*
X212806665Y-100132216D01*
X212797849Y-100031450D01*
X212737820Y-99807421D01*
X212639801Y-99597219D01*
X212639799Y-99597216D01*
X212639798Y-99597214D01*
X212506773Y-99407235D01*
X212506768Y-99407229D01*
X212374720Y-99275181D01*
X212341235Y-99213858D01*
X212346219Y-99144166D01*
X212374720Y-99099819D01*
X212431936Y-99042603D01*
X212506770Y-98967769D01*
X212639801Y-98777782D01*
X212737820Y-98567579D01*
X212797849Y-98343550D01*
X212818063Y-98112500D01*
X212797849Y-97881450D01*
X212737820Y-97657421D01*
X212639801Y-97447219D01*
X212639799Y-97447216D01*
X212639798Y-97447214D01*
X212506773Y-97257235D01*
X212506768Y-97257229D01*
X212342769Y-97093230D01*
X212316967Y-97075163D01*
X212152782Y-96960199D01*
X211942579Y-96862180D01*
X211942576Y-96862179D01*
X211942574Y-96862178D01*
X211718551Y-96802151D01*
X211718544Y-96802150D01*
X211487502Y-96781937D01*
X211487498Y-96781937D01*
X211256455Y-96802150D01*
X211256448Y-96802151D01*
X211032417Y-96862181D01*
X210822218Y-96960199D01*
X210822214Y-96960201D01*
X210632235Y-97093226D01*
X210632229Y-97093231D01*
X210468231Y-97257229D01*
X210468226Y-97257235D01*
X210335201Y-97447214D01*
X210335199Y-97447218D01*
X210237181Y-97657417D01*
X210177151Y-97881448D01*
X210177150Y-97881455D01*
X210156937Y-98112498D01*
X210156937Y-98112501D01*
X210177150Y-98343544D01*
X210177151Y-98343551D01*
X210237178Y-98567574D01*
X210237179Y-98567576D01*
X210237180Y-98567579D01*
X210335199Y-98777782D01*
X210439761Y-98927111D01*
X210468230Y-98967769D01*
X210600280Y-99099819D01*
X210633765Y-99161142D01*
X210628781Y-99230834D01*
X210600280Y-99275181D01*
X210468231Y-99407229D01*
X210468226Y-99407235D01*
X210335201Y-99597214D01*
X210335199Y-99597218D01*
X210237181Y-99807417D01*
X210177151Y-100031448D01*
X210177150Y-100031455D01*
X210156937Y-100262498D01*
X210156937Y-100262501D01*
X203644159Y-100262501D01*
X203640316Y-100249017D01*
X203660531Y-100182136D01*
X203711908Y-100137618D01*
X203723497Y-100132214D01*
X203835167Y-100080142D01*
X204016555Y-99953132D01*
X204173132Y-99796555D01*
X204300142Y-99615167D01*
X204393723Y-99414480D01*
X204451035Y-99200591D01*
X204470334Y-98980000D01*
X204451035Y-98759409D01*
X204393723Y-98545520D01*
X204300142Y-98344833D01*
X204173132Y-98163445D01*
X204016555Y-98006868D01*
X203835167Y-97879858D01*
X203788032Y-97857879D01*
X203711908Y-97822382D01*
X203659468Y-97776210D01*
X203640316Y-97709017D01*
X203660531Y-97642136D01*
X203711908Y-97597618D01*
X203835167Y-97540142D01*
X204016555Y-97413132D01*
X204173132Y-97256555D01*
X204300142Y-97075167D01*
X204393723Y-96874480D01*
X204451035Y-96660591D01*
X204470334Y-96440000D01*
X204451035Y-96219409D01*
X204393723Y-96005520D01*
X204300142Y-95804833D01*
X204173132Y-95623445D01*
X204016555Y-95466868D01*
X203835167Y-95339858D01*
X203772141Y-95310469D01*
X203711908Y-95282382D01*
X203659468Y-95236210D01*
X203640316Y-95169017D01*
X203660531Y-95102136D01*
X203711908Y-95057618D01*
X203835167Y-95000142D01*
X204016555Y-94873132D01*
X204173132Y-94716555D01*
X204300142Y-94535167D01*
X204393723Y-94334480D01*
X204451035Y-94120591D01*
X204467577Y-93931513D01*
X204470334Y-93900001D01*
X204470334Y-93899998D01*
X204462841Y-93814355D01*
X204451035Y-93679409D01*
X204393723Y-93465520D01*
X204300142Y-93264833D01*
X204173132Y-93083445D01*
X204016555Y-92926868D01*
X203924630Y-92862501D01*
X210156937Y-92862501D01*
X210177150Y-93093544D01*
X210177151Y-93093551D01*
X210237178Y-93317574D01*
X210237179Y-93317576D01*
X210237180Y-93317579D01*
X210306163Y-93465513D01*
X210335199Y-93527782D01*
X210335203Y-93527788D01*
X210394714Y-93612778D01*
X210417042Y-93678984D01*
X210400032Y-93746751D01*
X210367451Y-93783168D01*
X210304955Y-93829952D01*
X210304952Y-93829955D01*
X210218706Y-93945164D01*
X210218702Y-93945171D01*
X210168408Y-94080017D01*
X210162001Y-94139616D01*
X210162001Y-94139623D01*
X210162000Y-94139635D01*
X210162000Y-95885370D01*
X210162001Y-95885376D01*
X210168408Y-95944983D01*
X210218702Y-96079828D01*
X210218706Y-96079835D01*
X210304952Y-96195044D01*
X210304955Y-96195047D01*
X210420164Y-96281293D01*
X210420171Y-96281297D01*
X210555017Y-96331591D01*
X210555016Y-96331591D01*
X210561944Y-96332335D01*
X210614627Y-96338000D01*
X212360372Y-96337999D01*
X212419983Y-96331591D01*
X212554831Y-96281296D01*
X212670046Y-96195046D01*
X212756296Y-96079831D01*
X212806591Y-95944983D01*
X212813000Y-95885373D01*
X212813000Y-95310469D01*
X213767009Y-95310469D01*
X213786795Y-95498725D01*
X213786796Y-95498728D01*
X213845287Y-95678746D01*
X213845290Y-95678753D01*
X213899064Y-95771893D01*
X213905356Y-95782790D01*
X213921969Y-95844790D01*
X213921969Y-98208763D01*
X213920660Y-98226732D01*
X213917179Y-98250494D01*
X213921733Y-98302533D01*
X213921969Y-98307939D01*
X213921969Y-98316178D01*
X213925775Y-98348743D01*
X213932469Y-98425260D01*
X213933930Y-98432336D01*
X213933872Y-98432347D01*
X213935503Y-98439706D01*
X213935561Y-98439693D01*
X213937226Y-98446719D01*
X213963494Y-98518893D01*
X213987654Y-98591800D01*
X213990705Y-98598343D01*
X213990651Y-98598367D01*
X213993939Y-98605157D01*
X213993990Y-98605132D01*
X213997230Y-98611582D01*
X213997231Y-98611583D01*
X213997232Y-98611586D01*
X214039434Y-98675752D01*
X214079756Y-98741124D01*
X214084235Y-98746788D01*
X214084188Y-98746825D01*
X214088951Y-98752671D01*
X214088997Y-98752633D01*
X214093642Y-98758169D01*
X214149486Y-98810854D01*
X214186875Y-98848244D01*
X214217125Y-98897606D01*
X214272466Y-99067927D01*
X214272468Y-99067931D01*
X214367114Y-99231863D01*
X214461112Y-99336258D01*
X214493776Y-99372535D01*
X214646912Y-99483795D01*
X214646917Y-99483798D01*
X214819839Y-99560789D01*
X214819844Y-99560791D01*
X215005001Y-99600147D01*
X215005002Y-99600147D01*
X215194291Y-99600147D01*
X215194293Y-99600147D01*
X215379450Y-99560791D01*
X215552377Y-99483798D01*
X215705518Y-99372535D01*
X215832180Y-99231863D01*
X215926826Y-99067931D01*
X215985321Y-98887903D01*
X216005107Y-98699647D01*
X215985321Y-98511391D01*
X215926826Y-98331363D01*
X215832180Y-98167431D01*
X215705518Y-98026759D01*
X215705517Y-98026758D01*
X215552381Y-97915498D01*
X215552379Y-97915497D01*
X215496532Y-97890632D01*
X215443296Y-97845381D01*
X215422975Y-97778532D01*
X215422969Y-97777353D01*
X215422969Y-95844790D01*
X215439582Y-95782790D01*
X215499648Y-95678753D01*
X215533583Y-95574312D01*
X216468852Y-95574312D01*
X216488638Y-95762568D01*
X216488639Y-95762571D01*
X216547130Y-95942589D01*
X216547133Y-95942596D01*
X216617306Y-96064140D01*
X216632887Y-96091126D01*
X216649500Y-96153126D01*
X216649500Y-98865677D01*
X216632887Y-98927677D01*
X216572821Y-99031714D01*
X216514327Y-99211740D01*
X216514326Y-99211744D01*
X216494540Y-99400000D01*
X216514326Y-99588256D01*
X216514327Y-99588259D01*
X216572818Y-99768277D01*
X216572821Y-99768284D01*
X216667467Y-99932216D01*
X216794129Y-100072888D01*
X216947265Y-100184148D01*
X216947270Y-100184151D01*
X217120192Y-100261142D01*
X217120197Y-100261144D01*
X217305354Y-100300500D01*
X217305355Y-100300500D01*
X217494644Y-100300500D01*
X217494646Y-100300500D01*
X217679803Y-100261144D01*
X217852730Y-100184151D01*
X218005871Y-100072888D01*
X218132533Y-99932216D01*
X218227179Y-99768284D01*
X218285674Y-99588256D01*
X218305460Y-99400000D01*
X218285674Y-99211744D01*
X218227179Y-99031716D01*
X218195568Y-98976963D01*
X218167113Y-98927677D01*
X218150500Y-98865677D01*
X218150500Y-96064140D01*
X218167113Y-96002140D01*
X218201491Y-95942596D01*
X218259986Y-95762568D01*
X218279772Y-95574312D01*
X218259986Y-95386056D01*
X218205424Y-95218135D01*
X218201493Y-95206034D01*
X218201492Y-95206033D01*
X218201491Y-95206028D01*
X218106845Y-95042096D01*
X217980183Y-94901424D01*
X217980182Y-94901423D01*
X217827046Y-94790163D01*
X217827041Y-94790160D01*
X217654119Y-94713169D01*
X217654114Y-94713167D01*
X217476899Y-94675500D01*
X217468958Y-94673812D01*
X217279666Y-94673812D01*
X217271725Y-94675500D01*
X217094509Y-94713167D01*
X217094504Y-94713169D01*
X216921582Y-94790160D01*
X216921577Y-94790163D01*
X216768441Y-94901423D01*
X216641778Y-95042097D01*
X216547133Y-95206027D01*
X216547130Y-95206034D01*
X216500877Y-95348388D01*
X216488638Y-95386056D01*
X216468852Y-95574312D01*
X215533583Y-95574312D01*
X215558143Y-95498725D01*
X215577929Y-95310469D01*
X215558143Y-95122213D01*
X215499648Y-94942185D01*
X215405002Y-94778253D01*
X215278340Y-94637581D01*
X215278339Y-94637580D01*
X215125203Y-94526320D01*
X215125198Y-94526317D01*
X214952276Y-94449326D01*
X214952271Y-94449324D01*
X214806470Y-94418334D01*
X214767115Y-94409969D01*
X214577823Y-94409969D01*
X214545366Y-94416867D01*
X214392666Y-94449324D01*
X214392661Y-94449326D01*
X214219739Y-94526317D01*
X214219734Y-94526320D01*
X214066598Y-94637580D01*
X213939935Y-94778254D01*
X213845290Y-94942184D01*
X213845287Y-94942191D01*
X213812278Y-95043784D01*
X213786795Y-95122213D01*
X213767009Y-95310469D01*
X212813000Y-95310469D01*
X212812999Y-94139628D01*
X212806591Y-94080017D01*
X212790716Y-94037455D01*
X212756297Y-93945171D01*
X212756293Y-93945164D01*
X212670047Y-93829955D01*
X212670044Y-93829952D01*
X212607549Y-93783168D01*
X212565678Y-93727234D01*
X212560694Y-93657543D01*
X212580286Y-93612778D01*
X212589153Y-93600113D01*
X212639801Y-93527782D01*
X212737820Y-93317579D01*
X212797849Y-93093550D01*
X212818063Y-92862500D01*
X212797849Y-92631450D01*
X212737820Y-92407421D01*
X212639801Y-92197219D01*
X212639799Y-92197216D01*
X212639798Y-92197214D01*
X212506773Y-92007235D01*
X212506768Y-92007229D01*
X212374720Y-91875181D01*
X212341235Y-91813858D01*
X212346219Y-91744166D01*
X212374720Y-91699819D01*
X212387015Y-91687524D01*
X212506770Y-91567769D01*
X212639801Y-91377782D01*
X212737820Y-91167579D01*
X212797849Y-90943550D01*
X212816900Y-90725789D01*
X212818063Y-90712501D01*
X212818063Y-90712498D01*
X212810631Y-90627555D01*
X212797849Y-90481450D01*
X212737820Y-90257421D01*
X212639801Y-90047219D01*
X212639799Y-90047216D01*
X212639798Y-90047214D01*
X212506773Y-89857235D01*
X212506768Y-89857229D01*
X212342769Y-89693230D01*
X212261829Y-89636555D01*
X212152782Y-89560199D01*
X211942579Y-89462180D01*
X211942576Y-89462179D01*
X211942574Y-89462178D01*
X211718551Y-89402151D01*
X211718544Y-89402150D01*
X211487502Y-89381937D01*
X211487498Y-89381937D01*
X211256455Y-89402150D01*
X211256448Y-89402151D01*
X211032417Y-89462181D01*
X210822218Y-89560199D01*
X210822214Y-89560201D01*
X210632235Y-89693226D01*
X210632229Y-89693231D01*
X210468231Y-89857229D01*
X210468226Y-89857235D01*
X210335201Y-90047214D01*
X210335199Y-90047218D01*
X210237181Y-90257417D01*
X210177151Y-90481448D01*
X210177150Y-90481455D01*
X210156937Y-90712498D01*
X210156937Y-90712501D01*
X210177150Y-90943544D01*
X210177151Y-90943551D01*
X210237178Y-91167574D01*
X210237179Y-91167576D01*
X210237180Y-91167579D01*
X210335199Y-91377782D01*
X210372334Y-91430816D01*
X210468230Y-91567769D01*
X210600280Y-91699819D01*
X210633765Y-91761142D01*
X210628781Y-91830834D01*
X210600280Y-91875181D01*
X210468231Y-92007229D01*
X210468226Y-92007235D01*
X210335201Y-92197214D01*
X210335199Y-92197218D01*
X210237181Y-92407417D01*
X210177151Y-92631448D01*
X210177150Y-92631455D01*
X210156937Y-92862498D01*
X210156937Y-92862501D01*
X203924630Y-92862501D01*
X203835167Y-92799858D01*
X203711907Y-92742381D01*
X203659468Y-92696210D01*
X203640316Y-92629017D01*
X203660531Y-92562136D01*
X203711908Y-92517618D01*
X203835167Y-92460142D01*
X204016555Y-92333132D01*
X204173132Y-92176555D01*
X204300142Y-91995167D01*
X204393723Y-91794480D01*
X204451035Y-91580591D01*
X204470334Y-91360000D01*
X204451035Y-91139409D01*
X204393723Y-90925520D01*
X204300142Y-90724833D01*
X204173132Y-90543445D01*
X204016555Y-90386868D01*
X203835167Y-90259858D01*
X203711907Y-90202381D01*
X203659468Y-90156210D01*
X203640316Y-90089017D01*
X203660531Y-90022136D01*
X203711908Y-89977618D01*
X203835167Y-89920142D01*
X204016555Y-89793132D01*
X204173132Y-89636555D01*
X204300142Y-89455167D01*
X204393723Y-89254480D01*
X204451035Y-89040591D01*
X204470334Y-88820000D01*
X204451035Y-88599409D01*
X204393723Y-88385520D01*
X204376937Y-88349523D01*
X204326456Y-88241264D01*
X204300142Y-88184833D01*
X204173132Y-88003445D01*
X204016555Y-87846868D01*
X203835167Y-87719858D01*
X203711907Y-87662381D01*
X203659468Y-87616210D01*
X203640316Y-87549017D01*
X203660531Y-87482136D01*
X203711908Y-87437618D01*
X203725890Y-87431098D01*
X203835167Y-87380142D01*
X204016555Y-87253132D01*
X204173132Y-87096555D01*
X204300142Y-86915167D01*
X204353843Y-86800003D01*
X208394435Y-86800003D01*
X208414630Y-86979249D01*
X208414631Y-86979254D01*
X208474211Y-87149523D01*
X208552558Y-87274211D01*
X208570184Y-87302262D01*
X208697738Y-87429816D01*
X208710155Y-87437618D01*
X208805833Y-87497737D01*
X208850478Y-87525789D01*
X208973868Y-87568965D01*
X209020745Y-87585368D01*
X209020750Y-87585369D01*
X209199996Y-87605565D01*
X209200000Y-87605565D01*
X209200004Y-87605565D01*
X209379249Y-87585369D01*
X209379252Y-87585368D01*
X209379255Y-87585368D01*
X209549522Y-87525789D01*
X209702262Y-87429816D01*
X209702267Y-87429810D01*
X209705097Y-87427555D01*
X209707275Y-87426665D01*
X209708158Y-87426111D01*
X209708255Y-87426265D01*
X209769783Y-87401145D01*
X209782412Y-87400500D01*
X210742088Y-87400500D01*
X210809127Y-87420185D01*
X210819403Y-87427555D01*
X210822236Y-87429814D01*
X210822238Y-87429816D01*
X210974978Y-87525789D01*
X211098368Y-87568965D01*
X211145245Y-87585368D01*
X211145250Y-87585369D01*
X211324496Y-87605565D01*
X211324500Y-87605565D01*
X211324504Y-87605565D01*
X211503749Y-87585369D01*
X211503752Y-87585368D01*
X211503755Y-87585368D01*
X211674022Y-87525789D01*
X211826762Y-87429816D01*
X211954316Y-87302262D01*
X212050289Y-87149522D01*
X212109868Y-86979255D01*
X212117089Y-86915165D01*
X212130065Y-86800003D01*
X212130065Y-86799996D01*
X212109869Y-86620750D01*
X212109868Y-86620745D01*
X212097489Y-86585368D01*
X212050289Y-86450478D01*
X212046090Y-86443796D01*
X212011082Y-86388080D01*
X211954316Y-86297738D01*
X211826762Y-86170184D01*
X211793879Y-86149522D01*
X211674023Y-86074211D01*
X211503754Y-86014631D01*
X211503749Y-86014630D01*
X211324504Y-85994435D01*
X211324496Y-85994435D01*
X211145250Y-86014630D01*
X211145245Y-86014631D01*
X210974976Y-86074211D01*
X210822236Y-86170185D01*
X210819403Y-86172445D01*
X210817224Y-86173334D01*
X210816342Y-86173889D01*
X210816244Y-86173734D01*
X210754717Y-86198855D01*
X210742088Y-86199500D01*
X209782412Y-86199500D01*
X209715373Y-86179815D01*
X209705097Y-86172445D01*
X209702263Y-86170185D01*
X209702262Y-86170184D01*
X209602474Y-86107483D01*
X209549523Y-86074211D01*
X209379254Y-86014631D01*
X209379249Y-86014630D01*
X209200004Y-85994435D01*
X209199996Y-85994435D01*
X209020750Y-86014630D01*
X209020745Y-86014631D01*
X208850476Y-86074211D01*
X208697737Y-86170184D01*
X208570184Y-86297737D01*
X208474211Y-86450476D01*
X208414631Y-86620745D01*
X208414630Y-86620750D01*
X208394435Y-86799996D01*
X208394435Y-86800003D01*
X204353843Y-86800003D01*
X204393723Y-86714480D01*
X204451035Y-86500591D01*
X204470334Y-86280000D01*
X204451035Y-86059409D01*
X204393723Y-85845520D01*
X204382170Y-85820745D01*
X204337892Y-85725789D01*
X204300142Y-85644833D01*
X204173132Y-85463445D01*
X204016555Y-85306868D01*
X203835167Y-85179858D01*
X203804041Y-85165344D01*
X203711908Y-85122382D01*
X203659468Y-85076210D01*
X203640316Y-85009017D01*
X203660531Y-84942136D01*
X203711908Y-84897618D01*
X203835167Y-84840142D01*
X204016555Y-84713132D01*
X204173132Y-84556555D01*
X204300142Y-84375167D01*
X204393723Y-84174480D01*
X204451035Y-83960591D01*
X204470334Y-83740000D01*
X204470292Y-83739524D01*
X204451035Y-83519414D01*
X204451035Y-83519409D01*
X204393723Y-83305520D01*
X204300142Y-83104833D01*
X204173132Y-82923445D01*
X204016555Y-82766868D01*
X203835167Y-82639858D01*
X203711907Y-82582381D01*
X203659468Y-82536210D01*
X203640316Y-82469017D01*
X203660531Y-82402136D01*
X203711908Y-82357618D01*
X203835167Y-82300142D01*
X204016555Y-82173132D01*
X204173132Y-82016555D01*
X204300142Y-81835167D01*
X204393723Y-81634480D01*
X204451035Y-81420591D01*
X204470334Y-81200000D01*
X204469336Y-81188597D01*
X204454718Y-81021505D01*
X204451035Y-80979409D01*
X204393723Y-80765520D01*
X204374799Y-80724938D01*
X204349088Y-80669799D01*
X204300142Y-80564833D01*
X204173132Y-80383445D01*
X204016555Y-80226868D01*
X203835167Y-80099858D01*
X203711907Y-80042381D01*
X203659468Y-79996210D01*
X203640316Y-79929017D01*
X203660531Y-79862136D01*
X203711908Y-79817618D01*
X203835167Y-79760142D01*
X204016555Y-79633132D01*
X204173132Y-79476555D01*
X204300142Y-79295167D01*
X204393723Y-79094480D01*
X204451035Y-78880591D01*
X204470334Y-78660000D01*
X204451035Y-78439409D01*
X204393723Y-78225520D01*
X204300142Y-78024833D01*
X204173132Y-77843445D01*
X204016555Y-77686868D01*
X203835167Y-77559858D01*
X203711907Y-77502381D01*
X203659468Y-77456210D01*
X203640316Y-77389017D01*
X203660531Y-77322136D01*
X203711908Y-77277618D01*
X203835167Y-77220142D01*
X204016555Y-77093132D01*
X204173132Y-76936555D01*
X204300142Y-76755167D01*
X204393723Y-76554480D01*
X204451035Y-76340591D01*
X204470334Y-76120000D01*
X204451035Y-75899409D01*
X204393723Y-75685520D01*
X204300142Y-75484833D01*
X204173132Y-75303445D01*
X204016555Y-75146868D01*
X203835167Y-75019858D01*
X203711907Y-74962381D01*
X203659468Y-74916210D01*
X203640316Y-74849017D01*
X203660531Y-74782136D01*
X203711908Y-74737618D01*
X203835167Y-74680142D01*
X204016555Y-74553132D01*
X204173132Y-74396555D01*
X204300142Y-74215167D01*
X204393723Y-74014480D01*
X204451035Y-73800591D01*
X204470334Y-73580000D01*
X204451035Y-73359409D01*
X204393723Y-73145520D01*
X204300142Y-72944833D01*
X204173132Y-72763445D01*
X204016555Y-72606868D01*
X203835167Y-72479858D01*
X203711907Y-72422381D01*
X203659468Y-72376210D01*
X203640316Y-72309017D01*
X203660531Y-72242136D01*
X203711908Y-72197618D01*
X203835167Y-72140142D01*
X204016555Y-72013132D01*
X204173132Y-71856555D01*
X204300142Y-71675167D01*
X204393723Y-71474480D01*
X204451035Y-71260591D01*
X204470334Y-71040000D01*
X204451035Y-70819409D01*
X204393723Y-70605520D01*
X204361971Y-70537428D01*
X204337347Y-70484620D01*
X204300142Y-70404833D01*
X204173132Y-70223445D01*
X204016555Y-70066868D01*
X203835167Y-69939858D01*
X203711907Y-69882381D01*
X203659468Y-69836210D01*
X203640316Y-69769017D01*
X203660531Y-69702136D01*
X203711908Y-69657618D01*
X203835167Y-69600142D01*
X204016555Y-69473132D01*
X204173132Y-69316555D01*
X204300142Y-69135167D01*
X204393723Y-68934480D01*
X204451035Y-68720591D01*
X204470334Y-68500000D01*
X204451035Y-68279409D01*
X204451033Y-68279401D01*
X204431270Y-68205646D01*
X204432932Y-68135796D01*
X204463361Y-68085872D01*
X205445801Y-67103432D01*
X205507122Y-67069949D01*
X205576814Y-67074933D01*
X205632747Y-67116805D01*
X205648538Y-67144880D01*
X205658149Y-67168797D01*
X205665793Y-67187820D01*
X205703442Y-67248965D01*
X205789806Y-67389229D01*
X205946075Y-67566785D01*
X205946079Y-67566789D01*
X206130103Y-67715378D01*
X206130105Y-67715379D01*
X206145383Y-67723914D01*
X206194310Y-67773793D01*
X206208503Y-67842206D01*
X206183456Y-67907432D01*
X206154347Y-67934903D01*
X206035258Y-68015393D01*
X206035248Y-68015401D01*
X205864545Y-68179006D01*
X205723952Y-68369101D01*
X205617501Y-68580231D01*
X205548265Y-68806309D01*
X205542671Y-68850000D01*
X207484314Y-68850000D01*
X207472359Y-68861955D01*
X207414835Y-68974852D01*
X207395014Y-69100000D01*
X207414835Y-69225148D01*
X207472359Y-69338045D01*
X207484314Y-69350000D01*
X205543988Y-69350000D01*
X205578083Y-69508201D01*
X205578083Y-69508202D01*
X205666241Y-69727592D01*
X205790211Y-69928933D01*
X205946418Y-70106418D01*
X205946420Y-70106420D01*
X206130382Y-70254960D01*
X206130387Y-70254963D01*
X206145358Y-70263327D01*
X206194285Y-70313206D01*
X206208478Y-70381619D01*
X206183431Y-70446845D01*
X206154322Y-70474316D01*
X206034941Y-70555002D01*
X206034932Y-70555010D01*
X205864168Y-70718674D01*
X205723524Y-70908838D01*
X205723521Y-70908842D01*
X205617039Y-71120037D01*
X205617036Y-71120043D01*
X205547775Y-71346206D01*
X205517733Y-71580815D01*
X205527770Y-71817125D01*
X205527770Y-71817126D01*
X205577603Y-72048348D01*
X205661714Y-72257671D01*
X205665793Y-72267820D01*
X205692370Y-72310983D01*
X205789806Y-72469229D01*
X205946075Y-72646785D01*
X205946079Y-72646789D01*
X206090554Y-72763444D01*
X206130102Y-72795377D01*
X206144892Y-72803639D01*
X206193819Y-72853516D01*
X206208014Y-72921928D01*
X206182970Y-72987155D01*
X206153858Y-73014629D01*
X206034942Y-73095002D01*
X206034932Y-73095010D01*
X205864168Y-73258674D01*
X205723524Y-73448838D01*
X205723521Y-73448842D01*
X205617039Y-73660037D01*
X205617036Y-73660043D01*
X205547775Y-73886206D01*
X205517733Y-74120815D01*
X205527770Y-74357125D01*
X205527770Y-74357126D01*
X205577603Y-74588348D01*
X205639477Y-74742331D01*
X205665793Y-74807820D01*
X205703442Y-74868965D01*
X205789806Y-75009229D01*
X205946075Y-75186785D01*
X205946079Y-75186789D01*
X206090554Y-75303444D01*
X206130102Y-75335377D01*
X206144892Y-75343639D01*
X206193819Y-75393516D01*
X206208014Y-75461928D01*
X206182970Y-75527155D01*
X206153858Y-75554629D01*
X206034942Y-75635002D01*
X206034932Y-75635010D01*
X205864168Y-75798674D01*
X205723524Y-75988838D01*
X205723521Y-75988842D01*
X205617039Y-76200037D01*
X205617036Y-76200043D01*
X205547775Y-76426206D01*
X205517733Y-76660815D01*
X205527770Y-76897125D01*
X205527770Y-76897126D01*
X205577603Y-77128348D01*
X205622452Y-77239962D01*
X205665793Y-77347820D01*
X205692370Y-77390983D01*
X205789806Y-77549229D01*
X205946075Y-77726785D01*
X205946079Y-77726789D01*
X206090554Y-77843444D01*
X206130102Y-77875377D01*
X206144892Y-77883639D01*
X206193819Y-77933516D01*
X206208014Y-78001928D01*
X206182970Y-78067155D01*
X206153858Y-78094629D01*
X206034942Y-78175002D01*
X206034932Y-78175010D01*
X205864168Y-78338674D01*
X205723524Y-78528838D01*
X205723521Y-78528842D01*
X205617039Y-78740037D01*
X205617036Y-78740043D01*
X205547775Y-78966206D01*
X205517733Y-79200815D01*
X205527770Y-79437125D01*
X205527770Y-79437126D01*
X205577603Y-79668348D01*
X205622452Y-79779962D01*
X205665793Y-79887820D01*
X205692370Y-79930983D01*
X205789806Y-80089229D01*
X205946075Y-80266785D01*
X205946079Y-80266789D01*
X206090554Y-80383444D01*
X206130102Y-80415377D01*
X206144892Y-80423639D01*
X206193819Y-80473516D01*
X206208014Y-80541928D01*
X206182970Y-80607155D01*
X206153858Y-80634629D01*
X206034942Y-80715002D01*
X206034932Y-80715010D01*
X205864168Y-80878674D01*
X205723524Y-81068838D01*
X205723521Y-81068842D01*
X205617039Y-81280037D01*
X205617036Y-81280043D01*
X205547775Y-81506206D01*
X205517733Y-81740815D01*
X205527770Y-81977125D01*
X205527770Y-81977126D01*
X205577603Y-82208348D01*
X205664988Y-82425818D01*
X205665793Y-82427820D01*
X205692370Y-82470983D01*
X205789806Y-82629229D01*
X205946075Y-82806785D01*
X205946079Y-82806789D01*
X206101538Y-82932313D01*
X206130102Y-82955377D01*
X206144892Y-82963639D01*
X206193819Y-83013516D01*
X206208014Y-83081928D01*
X206182970Y-83147155D01*
X206153858Y-83174629D01*
X206034942Y-83255002D01*
X206034932Y-83255010D01*
X205864168Y-83418674D01*
X205723524Y-83608838D01*
X205723521Y-83608842D01*
X205617039Y-83820037D01*
X205617036Y-83820043D01*
X205547775Y-84046206D01*
X205517733Y-84280815D01*
X205527770Y-84517125D01*
X205527770Y-84517126D01*
X205577603Y-84748348D01*
X205639439Y-84902236D01*
X205665793Y-84967820D01*
X205692370Y-85010983D01*
X205789806Y-85169229D01*
X205946075Y-85346785D01*
X205946079Y-85346789D01*
X206077322Y-85452760D01*
X206130102Y-85495377D01*
X206336594Y-85610730D01*
X206559611Y-85689527D01*
X206559617Y-85689528D01*
X206792726Y-85729499D01*
X206792734Y-85729499D01*
X206792736Y-85729500D01*
X206792737Y-85729500D01*
X208748033Y-85729500D01*
X208924671Y-85714466D01*
X208924674Y-85714465D01*
X208924676Y-85714465D01*
X209153571Y-85654865D01*
X209369102Y-85557439D01*
X209565068Y-85424990D01*
X209735831Y-85261327D01*
X209876478Y-85071159D01*
X209982964Y-84859957D01*
X210052224Y-84633797D01*
X210082267Y-84399185D01*
X210081437Y-84379655D01*
X210072229Y-84162874D01*
X210072229Y-84162873D01*
X210072229Y-84162871D01*
X210022397Y-83931652D01*
X209934207Y-83712180D01*
X209810193Y-83510770D01*
X209653925Y-83333215D01*
X209653924Y-83333214D01*
X209653920Y-83333210D01*
X209488942Y-83200000D01*
X217845040Y-83200000D01*
X217864826Y-83388256D01*
X217864827Y-83388259D01*
X217923318Y-83568277D01*
X217923321Y-83568284D01*
X218017967Y-83732216D01*
X218097042Y-83820037D01*
X218144629Y-83872888D01*
X218297765Y-83984148D01*
X218297770Y-83984151D01*
X218470692Y-84061142D01*
X218470697Y-84061144D01*
X218655854Y-84100500D01*
X218655855Y-84100500D01*
X218845144Y-84100500D01*
X218845146Y-84100500D01*
X219030303Y-84061144D01*
X219203230Y-83984151D01*
X219205276Y-83982664D01*
X219216952Y-83974182D01*
X219282758Y-83950702D01*
X219289837Y-83950500D01*
X219910663Y-83950500D01*
X219977702Y-83970185D01*
X219983548Y-83974182D01*
X219997265Y-83984148D01*
X219997270Y-83984151D01*
X220170192Y-84061142D01*
X220170197Y-84061144D01*
X220355354Y-84100500D01*
X220355355Y-84100500D01*
X220544644Y-84100500D01*
X220544646Y-84100500D01*
X220729803Y-84061144D01*
X220902730Y-83984151D01*
X221055871Y-83872888D01*
X221182533Y-83732216D01*
X221277179Y-83568284D01*
X221335674Y-83388256D01*
X221355460Y-83200000D01*
X221335674Y-83011744D01*
X221277179Y-82831716D01*
X221182533Y-82667784D01*
X221055871Y-82527112D01*
X221055870Y-82527111D01*
X220902734Y-82415851D01*
X220902729Y-82415848D01*
X220729807Y-82338857D01*
X220729802Y-82338855D01*
X220584001Y-82307865D01*
X220544646Y-82299500D01*
X220355354Y-82299500D01*
X220322897Y-82306398D01*
X220170197Y-82338855D01*
X220170192Y-82338857D01*
X219997270Y-82415848D01*
X219997265Y-82415851D01*
X219983548Y-82425818D01*
X219917742Y-82449298D01*
X219910663Y-82449500D01*
X219289837Y-82449500D01*
X219222798Y-82429815D01*
X219216952Y-82425818D01*
X219203234Y-82415851D01*
X219203229Y-82415848D01*
X219030307Y-82338857D01*
X219030302Y-82338855D01*
X218884501Y-82307865D01*
X218845146Y-82299500D01*
X218655854Y-82299500D01*
X218623397Y-82306398D01*
X218470697Y-82338855D01*
X218470692Y-82338857D01*
X218297770Y-82415848D01*
X218297765Y-82415851D01*
X218144629Y-82527111D01*
X218017966Y-82667785D01*
X217923321Y-82831715D01*
X217923318Y-82831722D01*
X217870969Y-82992838D01*
X217864826Y-83011744D01*
X217845040Y-83200000D01*
X209488942Y-83200000D01*
X209469897Y-83184622D01*
X209455102Y-83176357D01*
X209406177Y-83126476D01*
X209391985Y-83058063D01*
X209417034Y-82992838D01*
X209446136Y-82965372D01*
X209565068Y-82884990D01*
X209735831Y-82721327D01*
X209876478Y-82531159D01*
X209982964Y-82319957D01*
X210052224Y-82093797D01*
X210082267Y-81859185D01*
X210072229Y-81622871D01*
X210022397Y-81391652D01*
X209934207Y-81172180D01*
X209810193Y-80970770D01*
X209653925Y-80793215D01*
X209653924Y-80793214D01*
X209653920Y-80793210D01*
X209469897Y-80644622D01*
X209455102Y-80636357D01*
X209406177Y-80586476D01*
X209391985Y-80518063D01*
X209417034Y-80452838D01*
X209446136Y-80425372D01*
X209565068Y-80344990D01*
X209735831Y-80181327D01*
X209876478Y-79991159D01*
X209982964Y-79779957D01*
X210052224Y-79553797D01*
X210082267Y-79319185D01*
X210080610Y-79280185D01*
X210072229Y-79082874D01*
X210072229Y-79082873D01*
X210072229Y-79082871D01*
X210022397Y-78851652D01*
X209934207Y-78632180D01*
X209810193Y-78430770D01*
X209653925Y-78253215D01*
X209653924Y-78253214D01*
X209653920Y-78253210D01*
X209469897Y-78104622D01*
X209455102Y-78096357D01*
X209406177Y-78046476D01*
X209391985Y-77978063D01*
X209417034Y-77912838D01*
X209446136Y-77885372D01*
X209565068Y-77804990D01*
X209735831Y-77641327D01*
X209876478Y-77451159D01*
X209982964Y-77239957D01*
X210052224Y-77013797D01*
X210082267Y-76779185D01*
X210072229Y-76542871D01*
X210022397Y-76311652D01*
X209934207Y-76092180D01*
X209810193Y-75890770D01*
X209653925Y-75713215D01*
X209653924Y-75713214D01*
X209653920Y-75713210D01*
X209469897Y-75564622D01*
X209455102Y-75556357D01*
X209406177Y-75506476D01*
X209391985Y-75438063D01*
X209417034Y-75372838D01*
X209446136Y-75345372D01*
X209565068Y-75264990D01*
X209735831Y-75101327D01*
X209876478Y-74911159D01*
X209982964Y-74699957D01*
X210052224Y-74473797D01*
X210082267Y-74239185D01*
X210072229Y-74002871D01*
X210022397Y-73771652D01*
X209934207Y-73552180D01*
X209810193Y-73350770D01*
X209653925Y-73173215D01*
X209653924Y-73173214D01*
X209653920Y-73173210D01*
X209469897Y-73024622D01*
X209455102Y-73016357D01*
X209406177Y-72966476D01*
X209391985Y-72898063D01*
X209417034Y-72832838D01*
X209446136Y-72805372D01*
X209565068Y-72724990D01*
X209735831Y-72561327D01*
X209876478Y-72371159D01*
X209982964Y-72159957D01*
X210052224Y-71933797D01*
X210082267Y-71699185D01*
X210072229Y-71462871D01*
X210022397Y-71231652D01*
X209934207Y-71012180D01*
X209810193Y-70810770D01*
X209653925Y-70633215D01*
X209653924Y-70633214D01*
X209653920Y-70633210D01*
X209469896Y-70484621D01*
X209469894Y-70484620D01*
X209454614Y-70476084D01*
X209405688Y-70426204D01*
X209391496Y-70357791D01*
X209416544Y-70292565D01*
X209445653Y-70265095D01*
X209564744Y-70184604D01*
X209564751Y-70184598D01*
X209735454Y-70020993D01*
X209876047Y-69830898D01*
X209982498Y-69619768D01*
X210051734Y-69393690D01*
X210057329Y-69350000D01*
X208115686Y-69350000D01*
X208127641Y-69338045D01*
X208185165Y-69225148D01*
X208204986Y-69100000D01*
X208185165Y-68974852D01*
X208127641Y-68861955D01*
X208115686Y-68850000D01*
X210056012Y-68850000D01*
X210021916Y-68691798D01*
X210021916Y-68691797D01*
X209933758Y-68472407D01*
X209809788Y-68271066D01*
X209653581Y-68093581D01*
X209653579Y-68093579D01*
X209469617Y-67945039D01*
X209469613Y-67945036D01*
X209454639Y-67936671D01*
X209405713Y-67886791D01*
X209391521Y-67818378D01*
X209416569Y-67753153D01*
X209445674Y-67725685D01*
X209565068Y-67644990D01*
X209612005Y-67600005D01*
X212994754Y-67600005D01*
X213013718Y-67901446D01*
X213013719Y-67901453D01*
X213020100Y-67934903D01*
X213058422Y-68135796D01*
X213070320Y-68198164D01*
X213163659Y-68485431D01*
X213163661Y-68485436D01*
X213292265Y-68758732D01*
X213292268Y-68758738D01*
X213454111Y-69013763D01*
X213454114Y-69013767D01*
X213454115Y-69013768D01*
X213627112Y-69222886D01*
X213646652Y-69246505D01*
X213866836Y-69453272D01*
X213866846Y-69453280D01*
X214111193Y-69630808D01*
X214111198Y-69630810D01*
X214111205Y-69630816D01*
X214375896Y-69776332D01*
X214375901Y-69776334D01*
X214375903Y-69776335D01*
X214375904Y-69776336D01*
X214656734Y-69887524D01*
X214656737Y-69887525D01*
X214743541Y-69909812D01*
X214949302Y-69962642D01*
X215096039Y-69981179D01*
X215248963Y-70000499D01*
X215248969Y-70000499D01*
X215248973Y-70000500D01*
X215248975Y-70000500D01*
X215551025Y-70000500D01*
X215551027Y-70000500D01*
X215551032Y-70000499D01*
X215551036Y-70000499D01*
X215630591Y-69990448D01*
X215850698Y-69962642D01*
X216143262Y-69887525D01*
X216143265Y-69887524D01*
X216424095Y-69776336D01*
X216424096Y-69776335D01*
X216424094Y-69776335D01*
X216424104Y-69776332D01*
X216688795Y-69630816D01*
X216933162Y-69453274D01*
X217153349Y-69246504D01*
X217345885Y-69013768D01*
X217507733Y-68758736D01*
X217636341Y-68485430D01*
X217729681Y-68198160D01*
X217786280Y-67901457D01*
X217794312Y-67773793D01*
X217805246Y-67600005D01*
X217805246Y-67599994D01*
X217786281Y-67298553D01*
X217786280Y-67298546D01*
X217786280Y-67298543D01*
X217729681Y-67001840D01*
X217636341Y-66714570D01*
X217634425Y-66710499D01*
X217580038Y-66594919D01*
X217507733Y-66441264D01*
X217416443Y-66297413D01*
X217345888Y-66186236D01*
X217345885Y-66186232D01*
X217153349Y-65953496D01*
X217119926Y-65922110D01*
X216933163Y-65746727D01*
X216933153Y-65746719D01*
X216688806Y-65569191D01*
X216688799Y-65569186D01*
X216688795Y-65569184D01*
X216424104Y-65423668D01*
X216424101Y-65423666D01*
X216424096Y-65423664D01*
X216424095Y-65423663D01*
X216143265Y-65312475D01*
X216143262Y-65312474D01*
X215850695Y-65237357D01*
X215551036Y-65199500D01*
X215551027Y-65199500D01*
X215248973Y-65199500D01*
X215248963Y-65199500D01*
X214949304Y-65237357D01*
X214656737Y-65312474D01*
X214656734Y-65312475D01*
X214375904Y-65423663D01*
X214375903Y-65423664D01*
X214111205Y-65569184D01*
X214111193Y-65569191D01*
X213866846Y-65746719D01*
X213866836Y-65746727D01*
X213646652Y-65953494D01*
X213454111Y-66186236D01*
X213292268Y-66441261D01*
X213292265Y-66441267D01*
X213163661Y-66714563D01*
X213163659Y-66714568D01*
X213070320Y-67001835D01*
X213013719Y-67298546D01*
X213013718Y-67298553D01*
X212994754Y-67599994D01*
X212994754Y-67600005D01*
X209612005Y-67600005D01*
X209735831Y-67481327D01*
X209876478Y-67291159D01*
X209982964Y-67079957D01*
X210052224Y-66853797D01*
X210082267Y-66619185D01*
X210079443Y-66552713D01*
X210075266Y-66454373D01*
X210072229Y-66382871D01*
X210022397Y-66151652D01*
X209934207Y-65932180D01*
X209810193Y-65730770D01*
X209653925Y-65553215D01*
X209653924Y-65553214D01*
X209653920Y-65553210D01*
X209469897Y-65404622D01*
X209263409Y-65289271D01*
X209040392Y-65210474D01*
X209040382Y-65210471D01*
X208807273Y-65170500D01*
X208807264Y-65170500D01*
X206851972Y-65170500D01*
X206851967Y-65170500D01*
X206675328Y-65185533D01*
X206446429Y-65245134D01*
X206230904Y-65342557D01*
X206230898Y-65342560D01*
X206049163Y-65465391D01*
X205982597Y-65486622D01*
X205915120Y-65468494D01*
X205868155Y-65416764D01*
X205855727Y-65362655D01*
X205855727Y-64577685D01*
X205875412Y-64510646D01*
X205882782Y-64500370D01*
X205885037Y-64497540D01*
X205885043Y-64497535D01*
X205981016Y-64344795D01*
X206040595Y-64174528D01*
X206047411Y-64114034D01*
X206060792Y-63995276D01*
X206060792Y-63995269D01*
X206048749Y-63888383D01*
X206060804Y-63819562D01*
X206108153Y-63768182D01*
X206171969Y-63750500D01*
X208660663Y-63750500D01*
X208727702Y-63770185D01*
X208733548Y-63774182D01*
X208747265Y-63784148D01*
X208747270Y-63784151D01*
X208920192Y-63861142D01*
X208920197Y-63861144D01*
X209105354Y-63900500D01*
X209105355Y-63900500D01*
X209294644Y-63900500D01*
X209294646Y-63900500D01*
X209479803Y-63861144D01*
X209652730Y-63784151D01*
X209805871Y-63672888D01*
X209932533Y-63532216D01*
X210027179Y-63368284D01*
X210085674Y-63188256D01*
X210105460Y-63000000D01*
X210085674Y-62811744D01*
X210027179Y-62631716D01*
X209932533Y-62467784D01*
X209805871Y-62327112D01*
X209805870Y-62327111D01*
X209652734Y-62215851D01*
X209652729Y-62215848D01*
X209479807Y-62138857D01*
X209479802Y-62138855D01*
X209334001Y-62107865D01*
X209294646Y-62099500D01*
X209105354Y-62099500D01*
X209072897Y-62106398D01*
X208920197Y-62138855D01*
X208920192Y-62138857D01*
X208747270Y-62215848D01*
X208747265Y-62215851D01*
X208733548Y-62225818D01*
X208667742Y-62249298D01*
X208660663Y-62249500D01*
X203873615Y-62249500D01*
X203806576Y-62229815D01*
X203760821Y-62177011D01*
X203750087Y-62136308D01*
X203739548Y-62015851D01*
X203735063Y-61964592D01*
X203675981Y-61744091D01*
X203673905Y-61736344D01*
X203673904Y-61736343D01*
X203673903Y-61736337D01*
X203574035Y-61522171D01*
X203524995Y-61452135D01*
X203438496Y-61328600D01*
X203409897Y-61300001D01*
X214349500Y-61300001D01*
X214349501Y-61300018D01*
X214360000Y-61402796D01*
X214360001Y-61402799D01*
X214415185Y-61569331D01*
X214415187Y-61569336D01*
X214438754Y-61607544D01*
X214507288Y-61718656D01*
X214631344Y-61842712D01*
X214780666Y-61934814D01*
X214947203Y-61989999D01*
X215049991Y-62000500D01*
X216350008Y-62000499D01*
X216452797Y-61989999D01*
X216619334Y-61934814D01*
X216768656Y-61842712D01*
X216892712Y-61718656D01*
X216984814Y-61569334D01*
X216984814Y-61569331D01*
X216988178Y-61563879D01*
X217040126Y-61517154D01*
X217109088Y-61505931D01*
X217173170Y-61533774D01*
X217181398Y-61541294D01*
X217328599Y-61688495D01*
X217406169Y-61742810D01*
X217522165Y-61824032D01*
X217522167Y-61824033D01*
X217522170Y-61824035D01*
X217736337Y-61923903D01*
X217964592Y-61985063D01*
X218141034Y-62000500D01*
X218199999Y-62005659D01*
X218200000Y-62005659D01*
X218200001Y-62005659D01*
X218258966Y-62000500D01*
X218435408Y-61985063D01*
X218663663Y-61923903D01*
X218877829Y-61824035D01*
X219071401Y-61688495D01*
X219238495Y-61521401D01*
X219374035Y-61327829D01*
X219473903Y-61113663D01*
X219535063Y-60885408D01*
X219550500Y-60708966D01*
X219550500Y-60291034D01*
X219535063Y-60114592D01*
X219473903Y-59886337D01*
X219374035Y-59672171D01*
X219355105Y-59645135D01*
X219238494Y-59478597D01*
X219071402Y-59311506D01*
X219071395Y-59311501D01*
X219065922Y-59307669D01*
X219028324Y-59281342D01*
X218877834Y-59175967D01*
X218877830Y-59175965D01*
X218837777Y-59157288D01*
X218663663Y-59076097D01*
X218663659Y-59076096D01*
X218663655Y-59076094D01*
X218435413Y-59014938D01*
X218435403Y-59014936D01*
X218200001Y-58994341D01*
X218199999Y-58994341D01*
X217964596Y-59014936D01*
X217964586Y-59014938D01*
X217736344Y-59076094D01*
X217736335Y-59076098D01*
X217522171Y-59175964D01*
X217522169Y-59175965D01*
X217328597Y-59311505D01*
X217181398Y-59458705D01*
X217120075Y-59492190D01*
X217050383Y-59487206D01*
X216994450Y-59445334D01*
X216988178Y-59436120D01*
X216892712Y-59281344D01*
X216768657Y-59157289D01*
X216768656Y-59157288D01*
X216675888Y-59100069D01*
X216619336Y-59065187D01*
X216619331Y-59065185D01*
X216591335Y-59055908D01*
X216452797Y-59010001D01*
X216452795Y-59010000D01*
X216350010Y-58999500D01*
X215049998Y-58999500D01*
X215049981Y-58999501D01*
X214947203Y-59010000D01*
X214947200Y-59010001D01*
X214780668Y-59065185D01*
X214780663Y-59065187D01*
X214631342Y-59157289D01*
X214507289Y-59281342D01*
X214415187Y-59430663D01*
X214415185Y-59430668D01*
X214396450Y-59487206D01*
X214360001Y-59597203D01*
X214360001Y-59597204D01*
X214360000Y-59597204D01*
X214349500Y-59699983D01*
X214349500Y-61300001D01*
X203409897Y-61300001D01*
X203407760Y-61297864D01*
X203316567Y-61206671D01*
X203283084Y-61145351D01*
X203288068Y-61075659D01*
X203329939Y-61019725D01*
X203360915Y-61002810D01*
X203492331Y-60953796D01*
X203607546Y-60867546D01*
X203693796Y-60752331D01*
X203744091Y-60617483D01*
X203750500Y-60557873D01*
X203750499Y-58762128D01*
X203744091Y-58702517D01*
X203701602Y-58588599D01*
X203693797Y-58567671D01*
X203693793Y-58567664D01*
X203607547Y-58452455D01*
X203607544Y-58452452D01*
X203492335Y-58366206D01*
X203492328Y-58366202D01*
X203357482Y-58315908D01*
X203357483Y-58315908D01*
X203297883Y-58309501D01*
X203297881Y-58309500D01*
X203297873Y-58309500D01*
X203297864Y-58309500D01*
X201502129Y-58309500D01*
X201502123Y-58309501D01*
X201442516Y-58315908D01*
X201307671Y-58366202D01*
X201307664Y-58366206D01*
X201192455Y-58452452D01*
X201192452Y-58452455D01*
X201106206Y-58567664D01*
X201106202Y-58567671D01*
X201055908Y-58702517D01*
X201049501Y-58762116D01*
X201049501Y-58762123D01*
X201049500Y-58762135D01*
X201049500Y-60557870D01*
X201049501Y-60557876D01*
X201055908Y-60617483D01*
X201106202Y-60752328D01*
X201106206Y-60752335D01*
X201192452Y-60867544D01*
X201192455Y-60867547D01*
X201307664Y-60953793D01*
X201307671Y-60953797D01*
X201439081Y-61002810D01*
X201495015Y-61044681D01*
X201519432Y-61110145D01*
X201504580Y-61178418D01*
X201483430Y-61206673D01*
X201361503Y-61328600D01*
X201225965Y-61522169D01*
X201225964Y-61522171D01*
X201126098Y-61736335D01*
X201126094Y-61736344D01*
X201064938Y-61964586D01*
X201064936Y-61964596D01*
X201044341Y-62199999D01*
X201044341Y-62200000D01*
X201064936Y-62435403D01*
X201064938Y-62435413D01*
X201126094Y-62663655D01*
X201126096Y-62663659D01*
X201126097Y-62663663D01*
X201165341Y-62747821D01*
X201225965Y-62877830D01*
X201225967Y-62877834D01*
X201303286Y-62988256D01*
X201361505Y-63071401D01*
X201528599Y-63238495D01*
X201607573Y-63293793D01*
X201722165Y-63374032D01*
X201722167Y-63374033D01*
X201722170Y-63374035D01*
X201936337Y-63473903D01*
X201936342Y-63473904D01*
X201936346Y-63473906D01*
X201987873Y-63487712D01*
X202047534Y-63524076D01*
X202078064Y-63586923D01*
X202069770Y-63656298D01*
X202043462Y-63695168D01*
X201504480Y-64234150D01*
X201489685Y-64246786D01*
X201379132Y-64327109D01*
X201379123Y-64327116D01*
X201252466Y-64467785D01*
X201157821Y-64631715D01*
X201157818Y-64631722D01*
X201099327Y-64811740D01*
X201099326Y-64811744D01*
X201079540Y-65000000D01*
X201099326Y-65188256D01*
X201099327Y-65188259D01*
X201157818Y-65368277D01*
X201157821Y-65368284D01*
X201252467Y-65532216D01*
X201285760Y-65569191D01*
X201379129Y-65672888D01*
X201532265Y-65784148D01*
X201532270Y-65784151D01*
X201705191Y-65861142D01*
X201705193Y-65861142D01*
X201705197Y-65861144D01*
X201835871Y-65888919D01*
X201897349Y-65922110D01*
X201931126Y-65983272D01*
X201933615Y-65999400D01*
X201949459Y-66180499D01*
X201949461Y-66180509D01*
X202006745Y-66394300D01*
X202006749Y-66394309D01*
X202100295Y-66594919D01*
X202146103Y-66660341D01*
X202146104Y-66660342D01*
X202708866Y-66097579D01*
X202731318Y-66174040D01*
X202810605Y-66297413D01*
X202921438Y-66393451D01*
X203054839Y-66454373D01*
X203058633Y-66454918D01*
X202499656Y-67013894D01*
X202565083Y-67059706D01*
X202565085Y-67059707D01*
X202688683Y-67117342D01*
X202741122Y-67163514D01*
X202760274Y-67230708D01*
X202740058Y-67297589D01*
X202688683Y-67342106D01*
X202564833Y-67399857D01*
X202383444Y-67526868D01*
X202226868Y-67683444D01*
X202099857Y-67864834D01*
X202099856Y-67864836D01*
X202006279Y-68065513D01*
X202006275Y-68065524D01*
X201948965Y-68279407D01*
X201948964Y-68279414D01*
X201929666Y-68499998D01*
X201929666Y-68500001D01*
X201948964Y-68720585D01*
X201948965Y-68720592D01*
X202006275Y-68934475D01*
X202006279Y-68934486D01*
X202099856Y-69135163D01*
X202099858Y-69135167D01*
X202226868Y-69316555D01*
X202383445Y-69473132D01*
X202564833Y-69600142D01*
X202626828Y-69629050D01*
X202688091Y-69657618D01*
X202740531Y-69703790D01*
X202759683Y-69770983D01*
X202739467Y-69837865D01*
X202688091Y-69882382D01*
X202564836Y-69939856D01*
X202564834Y-69939857D01*
X202383444Y-70066868D01*
X202226868Y-70223444D01*
X202099857Y-70404834D01*
X202099856Y-70404836D01*
X202006279Y-70605513D01*
X202006275Y-70605524D01*
X201948965Y-70819407D01*
X201948964Y-70819414D01*
X201929666Y-71039998D01*
X201929666Y-71040001D01*
X201948964Y-71260585D01*
X201948965Y-71260592D01*
X202006275Y-71474475D01*
X202006279Y-71474486D01*
X202054829Y-71578601D01*
X202099858Y-71675167D01*
X202226868Y-71856555D01*
X202383445Y-72013132D01*
X202564833Y-72140142D01*
X202607325Y-72159956D01*
X202688091Y-72197618D01*
X202740531Y-72243790D01*
X202759683Y-72310983D01*
X202739467Y-72377865D01*
X202688091Y-72422382D01*
X202564836Y-72479856D01*
X202564834Y-72479857D01*
X202383444Y-72606868D01*
X202226868Y-72763444D01*
X202099857Y-72944834D01*
X202099856Y-72944836D01*
X202006279Y-73145513D01*
X202006275Y-73145524D01*
X201948965Y-73359407D01*
X201948964Y-73359414D01*
X201929666Y-73579998D01*
X201929666Y-73580001D01*
X201948964Y-73800585D01*
X201948965Y-73800592D01*
X202006275Y-74014475D01*
X202006279Y-74014486D01*
X202055861Y-74120815D01*
X202099858Y-74215167D01*
X202226868Y-74396555D01*
X202383445Y-74553132D01*
X202564833Y-74680142D01*
X202607325Y-74699956D01*
X202688091Y-74737618D01*
X202740531Y-74783790D01*
X202759683Y-74850983D01*
X202739467Y-74917865D01*
X202688091Y-74962382D01*
X202564836Y-75019856D01*
X202564834Y-75019857D01*
X202383444Y-75146868D01*
X202226868Y-75303444D01*
X202099857Y-75484834D01*
X202099856Y-75484836D01*
X202006279Y-75685513D01*
X202006275Y-75685524D01*
X201948965Y-75899407D01*
X201948964Y-75899414D01*
X201929666Y-76119998D01*
X201929666Y-76120001D01*
X201948964Y-76340585D01*
X201948965Y-76340592D01*
X202006275Y-76554475D01*
X202006279Y-76554486D01*
X202055861Y-76660815D01*
X202099858Y-76755167D01*
X202226868Y-76936555D01*
X202383445Y-77093132D01*
X202564833Y-77220142D01*
X202607325Y-77239956D01*
X202688091Y-77277618D01*
X202740531Y-77323790D01*
X202759683Y-77390983D01*
X202739467Y-77457865D01*
X202688091Y-77502382D01*
X202564836Y-77559856D01*
X202564834Y-77559857D01*
X202383444Y-77686868D01*
X202226868Y-77843444D01*
X202099857Y-78024834D01*
X202099856Y-78024836D01*
X202006279Y-78225513D01*
X202006275Y-78225524D01*
X201948965Y-78439407D01*
X201948964Y-78439414D01*
X201929666Y-78659998D01*
X201929666Y-78660001D01*
X201948964Y-78880585D01*
X201948965Y-78880592D01*
X202006275Y-79094475D01*
X202006279Y-79094486D01*
X202088007Y-79269752D01*
X202099858Y-79295167D01*
X202226868Y-79476555D01*
X202383445Y-79633132D01*
X202564833Y-79760142D01*
X202607325Y-79779956D01*
X202688091Y-79817618D01*
X202740531Y-79863790D01*
X202759683Y-79930983D01*
X202739467Y-79997865D01*
X202688091Y-80042382D01*
X202564836Y-80099856D01*
X202564834Y-80099857D01*
X202383444Y-80226868D01*
X202226868Y-80383444D01*
X202099857Y-80564834D01*
X202099856Y-80564836D01*
X202006279Y-80765513D01*
X202006275Y-80765524D01*
X201948965Y-80979407D01*
X201948964Y-80979414D01*
X201929666Y-81199998D01*
X201929666Y-81200001D01*
X201948964Y-81420585D01*
X201948965Y-81420592D01*
X202006275Y-81634475D01*
X202006279Y-81634486D01*
X202055861Y-81740815D01*
X202099858Y-81835167D01*
X202226868Y-82016555D01*
X202383445Y-82173132D01*
X202564833Y-82300142D01*
X202589714Y-82311744D01*
X202688091Y-82357618D01*
X202740531Y-82403790D01*
X202759683Y-82470983D01*
X202739467Y-82537865D01*
X202688091Y-82582382D01*
X202564836Y-82639856D01*
X202564834Y-82639857D01*
X202383444Y-82766868D01*
X202226868Y-82923444D01*
X202099857Y-83104834D01*
X202099856Y-83104836D01*
X202006279Y-83305513D01*
X202006275Y-83305524D01*
X201948965Y-83519407D01*
X201948964Y-83519414D01*
X201929666Y-83739998D01*
X201929666Y-83740001D01*
X201948964Y-83960585D01*
X201948965Y-83960592D01*
X202006275Y-84174475D01*
X202006279Y-84174486D01*
X202092304Y-84358967D01*
X202099858Y-84375167D01*
X202226868Y-84556555D01*
X202383445Y-84713132D01*
X202564833Y-84840142D01*
X202607325Y-84859956D01*
X202688091Y-84897618D01*
X202740531Y-84943790D01*
X202759683Y-85010983D01*
X202739467Y-85077865D01*
X202688091Y-85122382D01*
X202564836Y-85179856D01*
X202564834Y-85179857D01*
X202383444Y-85306868D01*
X202226868Y-85463444D01*
X202099857Y-85644834D01*
X202099856Y-85644836D01*
X202006279Y-85845513D01*
X202006275Y-85845524D01*
X201948965Y-86059407D01*
X201948964Y-86059414D01*
X201929666Y-86279998D01*
X201929666Y-86280001D01*
X201948964Y-86500585D01*
X201948965Y-86500592D01*
X202006275Y-86714475D01*
X202006279Y-86714486D01*
X202048750Y-86805565D01*
X202099858Y-86915167D01*
X202226868Y-87096555D01*
X202383445Y-87253132D01*
X202564833Y-87380142D01*
X202609875Y-87401145D01*
X202688091Y-87437618D01*
X202740531Y-87483790D01*
X202759683Y-87550983D01*
X202739467Y-87617865D01*
X202688091Y-87662382D01*
X202564836Y-87719856D01*
X202564834Y-87719857D01*
X202383444Y-87846868D01*
X202226868Y-88003444D01*
X202099857Y-88184834D01*
X202099856Y-88184836D01*
X202006279Y-88385513D01*
X202006275Y-88385524D01*
X201948965Y-88599407D01*
X201948964Y-88599414D01*
X201929666Y-88819998D01*
X201929666Y-88820001D01*
X201948964Y-89040585D01*
X201948965Y-89040592D01*
X202006275Y-89254475D01*
X202006279Y-89254486D01*
X202075136Y-89402150D01*
X202099858Y-89455167D01*
X202226868Y-89636555D01*
X202383445Y-89793132D01*
X202564833Y-89920142D01*
X202626828Y-89949050D01*
X202688091Y-89977618D01*
X202740531Y-90023790D01*
X202759683Y-90090983D01*
X202739467Y-90157865D01*
X202688091Y-90202382D01*
X202564836Y-90259856D01*
X202564834Y-90259857D01*
X202383444Y-90386868D01*
X202226868Y-90543444D01*
X202099857Y-90724834D01*
X202099856Y-90724836D01*
X202006279Y-90925513D01*
X202006275Y-90925524D01*
X201948965Y-91139407D01*
X201948964Y-91139414D01*
X201929666Y-91359998D01*
X201929666Y-91360001D01*
X201948964Y-91580585D01*
X201948965Y-91580592D01*
X202006275Y-91794475D01*
X202006279Y-91794486D01*
X202029009Y-91843230D01*
X202099858Y-91995167D01*
X202226868Y-92176555D01*
X202383445Y-92333132D01*
X202564833Y-92460142D01*
X202626828Y-92489050D01*
X202688091Y-92517618D01*
X202740531Y-92563790D01*
X202759683Y-92630983D01*
X202739467Y-92697865D01*
X202688091Y-92742382D01*
X202564836Y-92799856D01*
X202564834Y-92799857D01*
X202383444Y-92926868D01*
X202226868Y-93083444D01*
X202099857Y-93264834D01*
X202099856Y-93264836D01*
X202006279Y-93465513D01*
X202006275Y-93465524D01*
X201948965Y-93679407D01*
X201948964Y-93679414D01*
X201929666Y-93899998D01*
X201929666Y-93900001D01*
X201948964Y-94120585D01*
X201948965Y-94120592D01*
X202006275Y-94334475D01*
X202006279Y-94334486D01*
X202099856Y-94535163D01*
X202099858Y-94535167D01*
X202226868Y-94716555D01*
X202383445Y-94873132D01*
X202564833Y-95000142D01*
X202626828Y-95029050D01*
X202688091Y-95057618D01*
X202740531Y-95103790D01*
X202759683Y-95170983D01*
X202739467Y-95237865D01*
X202688091Y-95282382D01*
X202564836Y-95339856D01*
X202564834Y-95339857D01*
X202383444Y-95466868D01*
X202226868Y-95623444D01*
X202099857Y-95804834D01*
X202099856Y-95804836D01*
X202006279Y-96005513D01*
X202006275Y-96005524D01*
X201948965Y-96219407D01*
X201948964Y-96219414D01*
X201929666Y-96439998D01*
X201929666Y-96440001D01*
X201948964Y-96660585D01*
X201948965Y-96660592D01*
X202006275Y-96874475D01*
X202006279Y-96874486D01*
X202099856Y-97075163D01*
X202099858Y-97075167D01*
X202226868Y-97256555D01*
X202383445Y-97413132D01*
X202564833Y-97540142D01*
X202626828Y-97569050D01*
X202688091Y-97597618D01*
X202740531Y-97643790D01*
X202759683Y-97710983D01*
X202739467Y-97777865D01*
X202688091Y-97822382D01*
X202564836Y-97879856D01*
X202564834Y-97879857D01*
X202383444Y-98006868D01*
X202226868Y-98163444D01*
X202099857Y-98344834D01*
X202099856Y-98344836D01*
X202006279Y-98545513D01*
X202006275Y-98545524D01*
X201948965Y-98759407D01*
X201948964Y-98759414D01*
X201929666Y-98979998D01*
X201929666Y-98980001D01*
X201948964Y-99200585D01*
X201948965Y-99200592D01*
X202006275Y-99414475D01*
X202006279Y-99414486D01*
X202092854Y-99600147D01*
X202099858Y-99615167D01*
X202226868Y-99796555D01*
X202383445Y-99953132D01*
X202564833Y-100080142D01*
X202626828Y-100109050D01*
X202688091Y-100137618D01*
X202740531Y-100183790D01*
X202759683Y-100250983D01*
X202739467Y-100317865D01*
X202688091Y-100362382D01*
X202564836Y-100419856D01*
X202564834Y-100419857D01*
X202383444Y-100546868D01*
X202226868Y-100703444D01*
X202190000Y-100756097D01*
X202112607Y-100866625D01*
X202058032Y-100910248D01*
X202011034Y-100919500D01*
X198929565Y-100919500D01*
X198862526Y-100899815D01*
X198816771Y-100847011D01*
X198808008Y-100806731D01*
X198806345Y-100806919D01*
X198785369Y-100620750D01*
X198785368Y-100620745D01*
X198740861Y-100493551D01*
X198725789Y-100450478D01*
X198629816Y-100297738D01*
X198502262Y-100170184D01*
X198450434Y-100137618D01*
X198349523Y-100074211D01*
X198179254Y-100014631D01*
X198179249Y-100014630D01*
X198000004Y-99994435D01*
X197999996Y-99994435D01*
X197820750Y-100014630D01*
X197820745Y-100014631D01*
X197650476Y-100074211D01*
X197497736Y-100170185D01*
X197494903Y-100172445D01*
X197492724Y-100173334D01*
X197491842Y-100173889D01*
X197491744Y-100173734D01*
X197430217Y-100198855D01*
X197417588Y-100199500D01*
X196182412Y-100199500D01*
X196115373Y-100179815D01*
X196105097Y-100172445D01*
X196102263Y-100170185D01*
X196102262Y-100170184D01*
X196041833Y-100132214D01*
X195949523Y-100074211D01*
X195779254Y-100014631D01*
X195779249Y-100014630D01*
X195600004Y-99994435D01*
X195599996Y-99994435D01*
X195420750Y-100014630D01*
X195420745Y-100014631D01*
X195250476Y-100074211D01*
X195097737Y-100170184D01*
X194970184Y-100297737D01*
X194874211Y-100450476D01*
X194814631Y-100620745D01*
X194814630Y-100620750D01*
X194794435Y-100799996D01*
X194794435Y-100800004D01*
X194807626Y-100917083D01*
X194795571Y-100985905D01*
X194748222Y-101037284D01*
X194725361Y-101048007D01*
X194650480Y-101074209D01*
X194497737Y-101170184D01*
X194370184Y-101297737D01*
X194274211Y-101450476D01*
X194214631Y-101620745D01*
X194214630Y-101620750D01*
X194194435Y-101799996D01*
X194194435Y-101800003D01*
X179035115Y-101800003D01*
X179051035Y-101740591D01*
X179070334Y-101520000D01*
X179051035Y-101299409D01*
X178993723Y-101085520D01*
X178971230Y-101037284D01*
X178949884Y-100991506D01*
X178900142Y-100884833D01*
X178773132Y-100703445D01*
X178616555Y-100546868D01*
X178435167Y-100419858D01*
X178311907Y-100362381D01*
X178259468Y-100316210D01*
X178240316Y-100249017D01*
X178260531Y-100182136D01*
X178311908Y-100137618D01*
X178323497Y-100132214D01*
X178435167Y-100080142D01*
X178616555Y-99953132D01*
X178773132Y-99796555D01*
X178900142Y-99615167D01*
X178993723Y-99414480D01*
X179051035Y-99200591D01*
X179070334Y-98980000D01*
X179051035Y-98759409D01*
X178993723Y-98545520D01*
X178900142Y-98344833D01*
X178773132Y-98163445D01*
X178616555Y-98006868D01*
X178435167Y-97879858D01*
X178388032Y-97857879D01*
X178311908Y-97822382D01*
X178259468Y-97776210D01*
X178240316Y-97709017D01*
X178260531Y-97642136D01*
X178311908Y-97597618D01*
X178435167Y-97540142D01*
X178616555Y-97413132D01*
X178773132Y-97256555D01*
X178900142Y-97075167D01*
X178993723Y-96874480D01*
X179051035Y-96660591D01*
X179070334Y-96440000D01*
X179051035Y-96219409D01*
X178993723Y-96005520D01*
X178900142Y-95804833D01*
X178773132Y-95623445D01*
X178616555Y-95466868D01*
X178435167Y-95339858D01*
X178372141Y-95310469D01*
X178311908Y-95282382D01*
X178259468Y-95236210D01*
X178240316Y-95169017D01*
X178260531Y-95102136D01*
X178311908Y-95057618D01*
X178435167Y-95000142D01*
X178616555Y-94873132D01*
X178773132Y-94716555D01*
X178900142Y-94535167D01*
X178993723Y-94334480D01*
X179051035Y-94120591D01*
X179067577Y-93931513D01*
X179070334Y-93900001D01*
X179070334Y-93899998D01*
X179062841Y-93814355D01*
X179051035Y-93679409D01*
X178993723Y-93465520D01*
X178900142Y-93264833D01*
X178773132Y-93083445D01*
X178616555Y-92926868D01*
X178435167Y-92799858D01*
X178311907Y-92742381D01*
X178259468Y-92696210D01*
X178240316Y-92629017D01*
X178260531Y-92562136D01*
X178311908Y-92517618D01*
X178435167Y-92460142D01*
X178616555Y-92333132D01*
X178773132Y-92176555D01*
X178900142Y-91995167D01*
X178993723Y-91794480D01*
X179051035Y-91580591D01*
X179070334Y-91360000D01*
X179051035Y-91139409D01*
X178993723Y-90925520D01*
X178900142Y-90724833D01*
X178773132Y-90543445D01*
X178616555Y-90386868D01*
X178435167Y-90259858D01*
X178311907Y-90202381D01*
X178259468Y-90156210D01*
X178240316Y-90089017D01*
X178260531Y-90022136D01*
X178311908Y-89977618D01*
X178435167Y-89920142D01*
X178616555Y-89793132D01*
X178773132Y-89636555D01*
X178900142Y-89455167D01*
X178993723Y-89254480D01*
X179051035Y-89040591D01*
X179070334Y-88820000D01*
X179051035Y-88599409D01*
X178993723Y-88385520D01*
X178976937Y-88349523D01*
X178926456Y-88241264D01*
X178900142Y-88184833D01*
X178773132Y-88003445D01*
X178616555Y-87846868D01*
X178435167Y-87719858D01*
X178311907Y-87662381D01*
X178259468Y-87616210D01*
X178240316Y-87549017D01*
X178260531Y-87482136D01*
X178311908Y-87437618D01*
X178325890Y-87431098D01*
X178435167Y-87380142D01*
X178616555Y-87253132D01*
X178773132Y-87096555D01*
X178900142Y-86915167D01*
X178993723Y-86714480D01*
X178999983Y-86691115D01*
X179036345Y-86631457D01*
X179099191Y-86600926D01*
X179133641Y-86599988D01*
X179163337Y-86603334D01*
X179183136Y-86605565D01*
X179183137Y-86605565D01*
X179183141Y-86605565D01*
X179362386Y-86585369D01*
X179362389Y-86585368D01*
X179362392Y-86585368D01*
X179532659Y-86525789D01*
X179685399Y-86429816D01*
X179812953Y-86302262D01*
X179908926Y-86149522D01*
X179968505Y-85979255D01*
X179983143Y-85849335D01*
X180010209Y-85784922D01*
X180065407Y-85746178D01*
X180134900Y-85721861D01*
X180163431Y-85711879D01*
X180191061Y-85694518D01*
X180316173Y-85615905D01*
X180443727Y-85488351D01*
X180539700Y-85335611D01*
X180599279Y-85165344D01*
X180608188Y-85086277D01*
X180619476Y-84986092D01*
X180619476Y-84986085D01*
X180599280Y-84806839D01*
X180599279Y-84806834D01*
X180554187Y-84677969D01*
X180539700Y-84636567D01*
X180537959Y-84633797D01*
X180464650Y-84517126D01*
X180443727Y-84483827D01*
X180443725Y-84483825D01*
X180443724Y-84483823D01*
X180441461Y-84480985D01*
X180440570Y-84478804D01*
X180440022Y-84477931D01*
X180440175Y-84477834D01*
X180415055Y-84416298D01*
X180414411Y-84403676D01*
X180414411Y-83257339D01*
X180414942Y-83249237D01*
X180416944Y-83234035D01*
X180419593Y-83213911D01*
X180414421Y-83174629D01*
X180400551Y-83069270D01*
X180398955Y-83057149D01*
X180360657Y-82964689D01*
X180338449Y-82911074D01*
X180338448Y-82911073D01*
X180338447Y-82911070D01*
X180305616Y-82868284D01*
X180242193Y-82785629D01*
X180213916Y-82763931D01*
X180207815Y-82758580D01*
X179063363Y-81614128D01*
X179029878Y-81552805D01*
X179031270Y-81494351D01*
X179051034Y-81420595D01*
X179051034Y-81420594D01*
X179051035Y-81420591D01*
X179070334Y-81200000D01*
X179069336Y-81188597D01*
X179054718Y-81021505D01*
X179051035Y-80979409D01*
X178993723Y-80765520D01*
X178974799Y-80724938D01*
X178949088Y-80669799D01*
X178900142Y-80564833D01*
X178773132Y-80383445D01*
X178616555Y-80226868D01*
X178435167Y-80099858D01*
X178311907Y-80042381D01*
X178259468Y-79996210D01*
X178240316Y-79929017D01*
X178260531Y-79862136D01*
X178311908Y-79817618D01*
X178435167Y-79760142D01*
X178616555Y-79633132D01*
X178773132Y-79476555D01*
X178887392Y-79313374D01*
X178941968Y-79269752D01*
X178988966Y-79260500D01*
X179474217Y-79260500D01*
X179541256Y-79280185D01*
X179561898Y-79296819D01*
X182163181Y-81898102D01*
X182196666Y-81959425D01*
X182199500Y-81985783D01*
X182199500Y-86205100D01*
X182198969Y-86213202D01*
X182194318Y-86248528D01*
X182194318Y-86248530D01*
X182210536Y-86371717D01*
X182214956Y-86405290D01*
X182214956Y-86405291D01*
X182264867Y-86525788D01*
X182275464Y-86551370D01*
X182371718Y-86676811D01*
X182399995Y-86698509D01*
X182406085Y-86703849D01*
X182588486Y-86886250D01*
X182696140Y-86993904D01*
X182701491Y-87000005D01*
X182723189Y-87028282D01*
X182795201Y-87083538D01*
X182832911Y-87112475D01*
X182844972Y-87121729D01*
X182848630Y-87124536D01*
X182848632Y-87124536D01*
X182848634Y-87124538D01*
X182908951Y-87149522D01*
X182994709Y-87185044D01*
X183066041Y-87194435D01*
X183151470Y-87205682D01*
X183151471Y-87205682D01*
X183186800Y-87201030D01*
X183194899Y-87200500D01*
X183605101Y-87200500D01*
X183613199Y-87201030D01*
X183648529Y-87205682D01*
X183648530Y-87205682D01*
X183700783Y-87198802D01*
X183805291Y-87185044D01*
X183951370Y-87124536D01*
X183960264Y-87117711D01*
X183967089Y-87112475D01*
X184076808Y-87028284D01*
X184076807Y-87028284D01*
X184076811Y-87028282D01*
X184098513Y-86999998D01*
X184103847Y-86993915D01*
X184460945Y-86636819D01*
X184522268Y-86603334D01*
X184548626Y-86600500D01*
X189817588Y-86600500D01*
X189884627Y-86620185D01*
X189894903Y-86627555D01*
X189897736Y-86629814D01*
X189897738Y-86629816D01*
X190050478Y-86725789D01*
X190207047Y-86780575D01*
X190263824Y-86821297D01*
X190289571Y-86886250D01*
X190276115Y-86954811D01*
X190227728Y-87005214D01*
X190181635Y-87020639D01*
X190049305Y-87037357D01*
X189756737Y-87112474D01*
X189756734Y-87112475D01*
X189475904Y-87223663D01*
X189475903Y-87223664D01*
X189211205Y-87369184D01*
X189211193Y-87369191D01*
X188966846Y-87546719D01*
X188966836Y-87546727D01*
X188746652Y-87753494D01*
X188554111Y-87986236D01*
X188392268Y-88241261D01*
X188392265Y-88241267D01*
X188263661Y-88514563D01*
X188263659Y-88514568D01*
X188170320Y-88801835D01*
X188113719Y-89098546D01*
X188113718Y-89098553D01*
X188094754Y-89399994D01*
X188094754Y-89400005D01*
X188113718Y-89701446D01*
X188113719Y-89701453D01*
X188118512Y-89726580D01*
X188169853Y-89995719D01*
X188170320Y-89998164D01*
X188263659Y-90285431D01*
X188263661Y-90285436D01*
X188392265Y-90558732D01*
X188392268Y-90558738D01*
X188554111Y-90813763D01*
X188746652Y-91046505D01*
X188966836Y-91253272D01*
X188966846Y-91253280D01*
X189211193Y-91430808D01*
X189211198Y-91430810D01*
X189211205Y-91430816D01*
X189475896Y-91576332D01*
X189475901Y-91576334D01*
X189475903Y-91576335D01*
X189475904Y-91576336D01*
X189756734Y-91687524D01*
X189756737Y-91687525D01*
X189804620Y-91699819D01*
X190049302Y-91762642D01*
X190196039Y-91781179D01*
X190348963Y-91800499D01*
X190348969Y-91800499D01*
X190348973Y-91800500D01*
X190348975Y-91800500D01*
X190651025Y-91800500D01*
X190651027Y-91800500D01*
X190651032Y-91800499D01*
X190651036Y-91800499D01*
X190730591Y-91790448D01*
X190950698Y-91762642D01*
X191243262Y-91687525D01*
X191243265Y-91687524D01*
X191524095Y-91576336D01*
X191524096Y-91576335D01*
X191524094Y-91576335D01*
X191524104Y-91576332D01*
X191788795Y-91430816D01*
X192033162Y-91253274D01*
X192253349Y-91046504D01*
X192445885Y-90813768D01*
X192607733Y-90558736D01*
X192736341Y-90285430D01*
X192829681Y-89998160D01*
X192886280Y-89701457D01*
X192886798Y-89693226D01*
X192905246Y-89400005D01*
X192905246Y-89399994D01*
X192886281Y-89098553D01*
X192886280Y-89098546D01*
X192886280Y-89098543D01*
X192829681Y-88801840D01*
X192736341Y-88514570D01*
X192733369Y-88508255D01*
X192658675Y-88349522D01*
X192607733Y-88241264D01*
X192571923Y-88184836D01*
X192445888Y-87986236D01*
X192253347Y-87753494D01*
X192033163Y-87546727D01*
X192033153Y-87546719D01*
X191788806Y-87369191D01*
X191788799Y-87369186D01*
X191788795Y-87369184D01*
X191524104Y-87223668D01*
X191524101Y-87223666D01*
X191524096Y-87223664D01*
X191524095Y-87223663D01*
X191243265Y-87112475D01*
X191243262Y-87112474D01*
X190950694Y-87037357D01*
X190671417Y-87002075D01*
X190607374Y-86974143D01*
X190568598Y-86916021D01*
X190567401Y-86846161D01*
X190604163Y-86786745D01*
X190646005Y-86762011D01*
X190749522Y-86725789D01*
X190902262Y-86629816D01*
X191029816Y-86502262D01*
X191125789Y-86349522D01*
X191185368Y-86179255D01*
X191186035Y-86173334D01*
X191205565Y-86000003D01*
X191205565Y-85999996D01*
X191185369Y-85820750D01*
X191185368Y-85820745D01*
X191172833Y-85784922D01*
X191125789Y-85650478D01*
X191029816Y-85497738D01*
X190902262Y-85370184D01*
X190847241Y-85335612D01*
X190749523Y-85274211D01*
X190579254Y-85214631D01*
X190579249Y-85214630D01*
X190400004Y-85194435D01*
X190399996Y-85194435D01*
X190220750Y-85214630D01*
X190220745Y-85214631D01*
X190050476Y-85274211D01*
X189897736Y-85370185D01*
X189894903Y-85372445D01*
X189892724Y-85373334D01*
X189891842Y-85373889D01*
X189891744Y-85373734D01*
X189830217Y-85398855D01*
X189817588Y-85399500D01*
X184291957Y-85399500D01*
X184283858Y-85398969D01*
X184248529Y-85394318D01*
X184209168Y-85399500D01*
X184140684Y-85408515D01*
X184071648Y-85397749D01*
X184019393Y-85351368D01*
X184000500Y-85285576D01*
X184000500Y-83031728D01*
X184020185Y-82964689D01*
X184072989Y-82918934D01*
X184142147Y-82908990D01*
X184205703Y-82938015D01*
X184231885Y-82969725D01*
X184267682Y-83031728D01*
X184267964Y-83032216D01*
X184394626Y-83172888D01*
X184547762Y-83284148D01*
X184547767Y-83284151D01*
X184720689Y-83361142D01*
X184720694Y-83361144D01*
X184905851Y-83400500D01*
X184905852Y-83400500D01*
X185095141Y-83400500D01*
X185095143Y-83400500D01*
X185280300Y-83361144D01*
X185453227Y-83284151D01*
X185606368Y-83172888D01*
X185733030Y-83032216D01*
X185827676Y-82868284D01*
X185886171Y-82688256D01*
X185905957Y-82500000D01*
X185886171Y-82311744D01*
X185827676Y-82131716D01*
X185733030Y-81967784D01*
X185606368Y-81827112D01*
X185602900Y-81824592D01*
X185453231Y-81715851D01*
X185453226Y-81715848D01*
X185280304Y-81638857D01*
X185280299Y-81638855D01*
X185134498Y-81607865D01*
X185095143Y-81599500D01*
X185095142Y-81599500D01*
X185051569Y-81599500D01*
X184984530Y-81579815D01*
X184963888Y-81563181D01*
X184736819Y-81336112D01*
X184703334Y-81274789D01*
X184700500Y-81248431D01*
X184700500Y-81213705D01*
X184701809Y-81195735D01*
X184702854Y-81188599D01*
X184705289Y-81171977D01*
X184700735Y-81119933D01*
X184700500Y-81114532D01*
X184700500Y-81106296D01*
X184700500Y-81106291D01*
X184696691Y-81073705D01*
X184689998Y-80997203D01*
X184689995Y-80997194D01*
X184688538Y-80990135D01*
X184688598Y-80990122D01*
X184686966Y-80982764D01*
X184686908Y-80982778D01*
X184685241Y-80975747D01*
X184685241Y-80975745D01*
X184658969Y-80903563D01*
X184634815Y-80830668D01*
X184631762Y-80824121D01*
X184631815Y-80824095D01*
X184628531Y-80817311D01*
X184628479Y-80817338D01*
X184625236Y-80810882D01*
X184613616Y-80793215D01*
X184583034Y-80746716D01*
X184569600Y-80724936D01*
X184542714Y-80681347D01*
X184538234Y-80675681D01*
X184538280Y-80675643D01*
X184533519Y-80669799D01*
X184533474Y-80669838D01*
X184528834Y-80664308D01*
X184472982Y-80611613D01*
X182662332Y-78800964D01*
X182632083Y-78751603D01*
X182576741Y-78581278D01*
X182482095Y-78417346D01*
X182355433Y-78276674D01*
X182355432Y-78276673D01*
X182202296Y-78165413D01*
X182202291Y-78165410D01*
X182029369Y-78088419D01*
X182029364Y-78088417D01*
X181883563Y-78057427D01*
X181844208Y-78049062D01*
X181654916Y-78049062D01*
X181622459Y-78055960D01*
X181469759Y-78088417D01*
X181469754Y-78088419D01*
X181296832Y-78165410D01*
X181296827Y-78165413D01*
X181143691Y-78276673D01*
X181143690Y-78276674D01*
X181071084Y-78357311D01*
X181011597Y-78393959D01*
X180941740Y-78392628D01*
X180891254Y-78362019D01*
X179063363Y-76534128D01*
X179029878Y-76472805D01*
X179031270Y-76414351D01*
X179051034Y-76340595D01*
X179051034Y-76340594D01*
X179051035Y-76340591D01*
X179070334Y-76120000D01*
X179051035Y-75899409D01*
X178993723Y-75685520D01*
X178900142Y-75484833D01*
X178773132Y-75303445D01*
X178616555Y-75146868D01*
X178435167Y-75019858D01*
X178311907Y-74962381D01*
X178259468Y-74916210D01*
X178240316Y-74849017D01*
X178260531Y-74782136D01*
X178311908Y-74737618D01*
X178435167Y-74680142D01*
X178616555Y-74553132D01*
X178773132Y-74396555D01*
X178900142Y-74215167D01*
X178993723Y-74014480D01*
X179051035Y-73800591D01*
X179070334Y-73580000D01*
X179051035Y-73359409D01*
X178993723Y-73145520D01*
X178900142Y-72944833D01*
X178773132Y-72763445D01*
X178616555Y-72606868D01*
X178435167Y-72479858D01*
X178311907Y-72422381D01*
X178259468Y-72376210D01*
X178240316Y-72309017D01*
X178260531Y-72242136D01*
X178311908Y-72197618D01*
X178435167Y-72140142D01*
X178616555Y-72013132D01*
X178773132Y-71856555D01*
X178900142Y-71675167D01*
X178993723Y-71474480D01*
X179051035Y-71260591D01*
X179070334Y-71040000D01*
X179058586Y-70905713D01*
X184188827Y-70905713D01*
X184208613Y-71093969D01*
X184208614Y-71093972D01*
X184267105Y-71273990D01*
X184267108Y-71273997D01*
X184361754Y-71437929D01*
X184450529Y-71536523D01*
X184488416Y-71578601D01*
X184641552Y-71689861D01*
X184641557Y-71689864D01*
X184814479Y-71766855D01*
X184814484Y-71766857D01*
X184999641Y-71806213D01*
X184999642Y-71806213D01*
X185188931Y-71806213D01*
X185188933Y-71806213D01*
X185374090Y-71766857D01*
X185547017Y-71689864D01*
X185700158Y-71578601D01*
X185700157Y-71578601D01*
X185705416Y-71574781D01*
X185707060Y-71577044D01*
X185758962Y-71552124D01*
X185778966Y-71550500D01*
X188968233Y-71550500D01*
X188986203Y-71551809D01*
X189009961Y-71555289D01*
X189062006Y-71550735D01*
X189067408Y-71550500D01*
X189075642Y-71550500D01*
X189075647Y-71550500D01*
X189087265Y-71549141D01*
X189108214Y-71546693D01*
X189120966Y-71545577D01*
X189184735Y-71539999D01*
X189184743Y-71539996D01*
X189191804Y-71538539D01*
X189191816Y-71538598D01*
X189199181Y-71536965D01*
X189199167Y-71536906D01*
X189206184Y-71535241D01*
X189206193Y-71535241D01*
X189278361Y-71508974D01*
X189351272Y-71484814D01*
X189351281Y-71484807D01*
X189357820Y-71481760D01*
X189357846Y-71481816D01*
X189364628Y-71478532D01*
X189364601Y-71478478D01*
X189371044Y-71475240D01*
X189371055Y-71475237D01*
X189435221Y-71433034D01*
X189500594Y-71392712D01*
X189500600Y-71392705D01*
X189506263Y-71388229D01*
X189506301Y-71388277D01*
X189512138Y-71383522D01*
X189512099Y-71383475D01*
X189517634Y-71378830D01*
X189570323Y-71322983D01*
X189680440Y-71212864D01*
X189900679Y-70992625D01*
X189961999Y-70959143D01*
X189962355Y-70959065D01*
X190027710Y-70945175D01*
X190200637Y-70868182D01*
X190353778Y-70756919D01*
X190480440Y-70616247D01*
X190575086Y-70452315D01*
X190633581Y-70272287D01*
X190653367Y-70084031D01*
X190633581Y-69895775D01*
X190575086Y-69715747D01*
X190480440Y-69551815D01*
X190353778Y-69411143D01*
X190269622Y-69350000D01*
X190200641Y-69299882D01*
X190200636Y-69299879D01*
X190027714Y-69222888D01*
X190027709Y-69222886D01*
X189881908Y-69191896D01*
X189842553Y-69183531D01*
X189653261Y-69183531D01*
X189620804Y-69190429D01*
X189468104Y-69222886D01*
X189468099Y-69222888D01*
X189295177Y-69299879D01*
X189295172Y-69299882D01*
X189142036Y-69411142D01*
X189015373Y-69551816D01*
X188920728Y-69715746D01*
X188920726Y-69715750D01*
X188865386Y-69886069D01*
X188835137Y-69935430D01*
X188757389Y-70013180D01*
X188696067Y-70046666D01*
X188669707Y-70049500D01*
X185408906Y-70049500D01*
X185380637Y-70045023D01*
X185380447Y-70045920D01*
X185285142Y-70025662D01*
X185188933Y-70005213D01*
X184999641Y-70005213D01*
X184967184Y-70012111D01*
X184814484Y-70044568D01*
X184814479Y-70044570D01*
X184641557Y-70121561D01*
X184641552Y-70121564D01*
X184488416Y-70232824D01*
X184361753Y-70373498D01*
X184267108Y-70537428D01*
X184267105Y-70537435D01*
X184208614Y-70717453D01*
X184208613Y-70717457D01*
X184188827Y-70905713D01*
X179058586Y-70905713D01*
X179051035Y-70819409D01*
X178993723Y-70605520D01*
X178961971Y-70537428D01*
X178937347Y-70484620D01*
X178900142Y-70404833D01*
X178773132Y-70223445D01*
X178616555Y-70066868D01*
X178435167Y-69939858D01*
X178311907Y-69882381D01*
X178259468Y-69836210D01*
X178240316Y-69769017D01*
X178260531Y-69702136D01*
X178311908Y-69657618D01*
X178435167Y-69600142D01*
X178616555Y-69473132D01*
X178773132Y-69316555D01*
X178900142Y-69135167D01*
X178993723Y-68934480D01*
X179051035Y-68720591D01*
X179070334Y-68500000D01*
X179069059Y-68485431D01*
X179051035Y-68279414D01*
X179051035Y-68279409D01*
X178993723Y-68065520D01*
X178900142Y-67864833D01*
X178773132Y-67683445D01*
X178616555Y-67526868D01*
X178616552Y-67526866D01*
X178616550Y-67526864D01*
X178551513Y-67481325D01*
X178508309Y-67451073D01*
X178464685Y-67396497D01*
X178457491Y-67326999D01*
X178489014Y-67264644D01*
X178549244Y-67229230D01*
X178579432Y-67225499D01*
X178612872Y-67225499D01*
X178672483Y-67219091D01*
X178807331Y-67168796D01*
X178922546Y-67082546D01*
X179008796Y-66967331D01*
X179059091Y-66832483D01*
X179060299Y-66821244D01*
X179087035Y-66756696D01*
X179144426Y-66716846D01*
X179183588Y-66710500D01*
X179376295Y-66710500D01*
X179394265Y-66711809D01*
X179418023Y-66715289D01*
X179470068Y-66710735D01*
X179475470Y-66710500D01*
X179483704Y-66710500D01*
X179483709Y-66710500D01*
X179495327Y-66709141D01*
X179516276Y-66706693D01*
X179529028Y-66705577D01*
X179592797Y-66699999D01*
X179592805Y-66699996D01*
X179599866Y-66698539D01*
X179599878Y-66698598D01*
X179607243Y-66696965D01*
X179607229Y-66696906D01*
X179614246Y-66695241D01*
X179614255Y-66695241D01*
X179686423Y-66668974D01*
X179759334Y-66644814D01*
X179759343Y-66644807D01*
X179765882Y-66641760D01*
X179765908Y-66641816D01*
X179772690Y-66638532D01*
X179772663Y-66638478D01*
X179779106Y-66635240D01*
X179779117Y-66635237D01*
X179843283Y-66593034D01*
X179908656Y-66552712D01*
X179908662Y-66552705D01*
X179914325Y-66548229D01*
X179914363Y-66548277D01*
X179920200Y-66543522D01*
X179920161Y-66543475D01*
X179925696Y-66538830D01*
X179978385Y-66482983D01*
X181993583Y-64467784D01*
X182752771Y-63708595D01*
X182814092Y-63675112D01*
X182814448Y-63675034D01*
X182879803Y-63661144D01*
X183052730Y-63584151D01*
X183205871Y-63472888D01*
X183332533Y-63332216D01*
X183427179Y-63168284D01*
X183485674Y-62988256D01*
X183505460Y-62800000D01*
X183485674Y-62611744D01*
X183427179Y-62431716D01*
X183332533Y-62267784D01*
X183205871Y-62127112D01*
X183205870Y-62127111D01*
X183052734Y-62015851D01*
X183052729Y-62015848D01*
X182879807Y-61938857D01*
X182879802Y-61938855D01*
X182734001Y-61907865D01*
X182694646Y-61899500D01*
X182505354Y-61899500D01*
X182472897Y-61906398D01*
X182320197Y-61938855D01*
X182320192Y-61938857D01*
X182147270Y-62015848D01*
X182147265Y-62015851D01*
X181994129Y-62127111D01*
X181867466Y-62267785D01*
X181772821Y-62431715D01*
X181772819Y-62431719D01*
X181717478Y-62602041D01*
X181687228Y-62651403D01*
X179247690Y-65090941D01*
X179186367Y-65124426D01*
X179116675Y-65119442D01*
X179060742Y-65077570D01*
X179043827Y-65046592D01*
X179008798Y-64952673D01*
X179008793Y-64952664D01*
X178922547Y-64837455D01*
X178922544Y-64837452D01*
X178807335Y-64751206D01*
X178807328Y-64751202D01*
X178672482Y-64700908D01*
X178672483Y-64700908D01*
X178612883Y-64694501D01*
X178612881Y-64694500D01*
X178612873Y-64694500D01*
X178612864Y-64694500D01*
X176987129Y-64694500D01*
X176987123Y-64694501D01*
X176927516Y-64700908D01*
X176792671Y-64751202D01*
X176792664Y-64751206D01*
X176677455Y-64837452D01*
X176677452Y-64837455D01*
X176591206Y-64952664D01*
X176591202Y-64952671D01*
X176540908Y-65087517D01*
X176534501Y-65147116D01*
X176534500Y-65147135D01*
X176534500Y-66772870D01*
X176534501Y-66772876D01*
X176540908Y-66832483D01*
X176591202Y-66967328D01*
X176591206Y-66967335D01*
X176677452Y-67082544D01*
X176677455Y-67082547D01*
X176792664Y-67168793D01*
X176792671Y-67168797D01*
X176927517Y-67219091D01*
X176927516Y-67219091D01*
X176934444Y-67219835D01*
X176987127Y-67225500D01*
X177020564Y-67225499D01*
X177087601Y-67245182D01*
X177133357Y-67297984D01*
X177143302Y-67367143D01*
X177114279Y-67430699D01*
X177091689Y-67451073D01*
X176983447Y-67526866D01*
X176983441Y-67526871D01*
X176826868Y-67683444D01*
X176699857Y-67864834D01*
X176699856Y-67864836D01*
X176606279Y-68065513D01*
X176606275Y-68065524D01*
X176548965Y-68279407D01*
X176548964Y-68279414D01*
X176529666Y-68499998D01*
X176529666Y-68500001D01*
X176548964Y-68720585D01*
X176548965Y-68720592D01*
X176606275Y-68934475D01*
X176606279Y-68934486D01*
X176699856Y-69135163D01*
X176699858Y-69135167D01*
X176826868Y-69316555D01*
X176983445Y-69473132D01*
X177164833Y-69600142D01*
X177226828Y-69629050D01*
X177288091Y-69657618D01*
X177340531Y-69703790D01*
X177359683Y-69770983D01*
X177339467Y-69837865D01*
X177288091Y-69882382D01*
X177164836Y-69939856D01*
X177164834Y-69939857D01*
X176983444Y-70066868D01*
X176826868Y-70223444D01*
X176699857Y-70404834D01*
X176699856Y-70404836D01*
X176606279Y-70605513D01*
X176606275Y-70605524D01*
X176548965Y-70819407D01*
X176548964Y-70819414D01*
X176529666Y-71039998D01*
X176529666Y-71040001D01*
X176548964Y-71260585D01*
X176548965Y-71260592D01*
X176606275Y-71474475D01*
X176606279Y-71474486D01*
X176654829Y-71578601D01*
X176699858Y-71675167D01*
X176826868Y-71856555D01*
X176983445Y-72013132D01*
X177164833Y-72140142D01*
X177207325Y-72159956D01*
X177288091Y-72197618D01*
X177340531Y-72243790D01*
X177359683Y-72310983D01*
X177339467Y-72377865D01*
X177288091Y-72422382D01*
X177164836Y-72479856D01*
X177164834Y-72479857D01*
X176983444Y-72606868D01*
X176826868Y-72763444D01*
X176699857Y-72944834D01*
X176699856Y-72944836D01*
X176606279Y-73145513D01*
X176606275Y-73145524D01*
X176548965Y-73359407D01*
X176548964Y-73359414D01*
X176529666Y-73579998D01*
X176529666Y-73580001D01*
X176548964Y-73800585D01*
X176548965Y-73800592D01*
X176606275Y-74014475D01*
X176606279Y-74014486D01*
X176655861Y-74120815D01*
X176699858Y-74215167D01*
X176826868Y-74396555D01*
X176983445Y-74553132D01*
X177164833Y-74680142D01*
X177207325Y-74699956D01*
X177288091Y-74737618D01*
X177340531Y-74783790D01*
X177359683Y-74850983D01*
X177339467Y-74917865D01*
X177288091Y-74962382D01*
X177164836Y-75019856D01*
X177164834Y-75019857D01*
X176983444Y-75146868D01*
X176826868Y-75303444D01*
X176699857Y-75484834D01*
X176699856Y-75484836D01*
X176606279Y-75685513D01*
X176606275Y-75685524D01*
X176548965Y-75899407D01*
X176548964Y-75899414D01*
X176529666Y-76119998D01*
X176529666Y-76120001D01*
X176548964Y-76340585D01*
X176548965Y-76340592D01*
X176606275Y-76554475D01*
X176606279Y-76554486D01*
X176655861Y-76660815D01*
X176699858Y-76755167D01*
X176826868Y-76936555D01*
X176983445Y-77093132D01*
X177164833Y-77220142D01*
X177207325Y-77239956D01*
X177288091Y-77277618D01*
X177340531Y-77323790D01*
X177359683Y-77390983D01*
X177339467Y-77457865D01*
X177288091Y-77502382D01*
X177164836Y-77559856D01*
X177164834Y-77559857D01*
X176983444Y-77686868D01*
X176826868Y-77843444D01*
X176699857Y-78024834D01*
X176699856Y-78024836D01*
X176606279Y-78225513D01*
X176606275Y-78225524D01*
X176548965Y-78439407D01*
X176548964Y-78439414D01*
X176529666Y-78659998D01*
X176529666Y-78660001D01*
X176548964Y-78880585D01*
X176548965Y-78880592D01*
X176606275Y-79094475D01*
X176606279Y-79094486D01*
X176688007Y-79269752D01*
X176699858Y-79295167D01*
X176826868Y-79476555D01*
X176983445Y-79633132D01*
X177164833Y-79760142D01*
X177207325Y-79779956D01*
X177288091Y-79817618D01*
X177340531Y-79863790D01*
X177359683Y-79930983D01*
X177339467Y-79997865D01*
X177288091Y-80042382D01*
X177164836Y-80099856D01*
X177164834Y-80099857D01*
X176983444Y-80226868D01*
X176826868Y-80383444D01*
X176699857Y-80564834D01*
X176699856Y-80564836D01*
X176606279Y-80765513D01*
X176606275Y-80765524D01*
X176548965Y-80979407D01*
X176548964Y-80979414D01*
X176529666Y-81199998D01*
X176529666Y-81200001D01*
X176548964Y-81420585D01*
X176548965Y-81420592D01*
X176606275Y-81634475D01*
X176606279Y-81634486D01*
X176655861Y-81740815D01*
X176699858Y-81835167D01*
X176826868Y-82016555D01*
X176983445Y-82173132D01*
X177164833Y-82300142D01*
X177189714Y-82311744D01*
X177288091Y-82357618D01*
X177340531Y-82403790D01*
X177359683Y-82470983D01*
X177339467Y-82537865D01*
X177288091Y-82582382D01*
X177164836Y-82639856D01*
X177164834Y-82639857D01*
X176983444Y-82766868D01*
X176826868Y-82923444D01*
X176699857Y-83104834D01*
X176699856Y-83104836D01*
X176606279Y-83305513D01*
X176606275Y-83305524D01*
X176548965Y-83519407D01*
X176548964Y-83519414D01*
X176529666Y-83739998D01*
X176529666Y-83740001D01*
X176548964Y-83960585D01*
X176548965Y-83960592D01*
X176606275Y-84174475D01*
X176606279Y-84174486D01*
X176692304Y-84358967D01*
X176699858Y-84375167D01*
X176826868Y-84556555D01*
X176983445Y-84713132D01*
X177164833Y-84840142D01*
X177207325Y-84859956D01*
X177288091Y-84897618D01*
X177340531Y-84943790D01*
X177359683Y-85010983D01*
X177339467Y-85077865D01*
X177288091Y-85122382D01*
X177164836Y-85179856D01*
X177164834Y-85179857D01*
X176983444Y-85306868D01*
X176826868Y-85463444D01*
X176699857Y-85644834D01*
X176699856Y-85644836D01*
X176606279Y-85845513D01*
X176606275Y-85845524D01*
X176548965Y-86059407D01*
X176548964Y-86059414D01*
X176529666Y-86279998D01*
X176529666Y-86280001D01*
X176548964Y-86500585D01*
X176548965Y-86500592D01*
X176606275Y-86714475D01*
X176606279Y-86714486D01*
X176648750Y-86805565D01*
X176699858Y-86915167D01*
X176826868Y-87096555D01*
X176983445Y-87253132D01*
X177164833Y-87380142D01*
X177209875Y-87401145D01*
X177288091Y-87437618D01*
X177340531Y-87483790D01*
X177359683Y-87550983D01*
X177339467Y-87617865D01*
X177288091Y-87662382D01*
X177164836Y-87719856D01*
X177164834Y-87719857D01*
X176983444Y-87846868D01*
X176826868Y-88003444D01*
X176699857Y-88184834D01*
X176699856Y-88184836D01*
X176606279Y-88385513D01*
X176606275Y-88385524D01*
X176548965Y-88599407D01*
X176548964Y-88599414D01*
X176529666Y-88819998D01*
X176529666Y-88820001D01*
X176548964Y-89040585D01*
X176548965Y-89040592D01*
X176606275Y-89254475D01*
X176606279Y-89254486D01*
X176675136Y-89402150D01*
X176699858Y-89455167D01*
X176826868Y-89636555D01*
X176983445Y-89793132D01*
X177164833Y-89920142D01*
X177226828Y-89949050D01*
X177288091Y-89977618D01*
X177340531Y-90023790D01*
X177359683Y-90090983D01*
X177339467Y-90157865D01*
X177288091Y-90202382D01*
X177164836Y-90259856D01*
X177164834Y-90259857D01*
X176983444Y-90386868D01*
X176826868Y-90543444D01*
X176699857Y-90724834D01*
X176699856Y-90724836D01*
X176606279Y-90925513D01*
X176606275Y-90925524D01*
X176548965Y-91139407D01*
X176548964Y-91139414D01*
X176529666Y-91359998D01*
X176529666Y-91360001D01*
X176548964Y-91580585D01*
X176548965Y-91580592D01*
X176606275Y-91794475D01*
X176606279Y-91794486D01*
X176629009Y-91843230D01*
X176699858Y-91995167D01*
X176826868Y-92176555D01*
X176983445Y-92333132D01*
X177164833Y-92460142D01*
X177226828Y-92489050D01*
X177288091Y-92517618D01*
X177340531Y-92563790D01*
X177359683Y-92630983D01*
X177339467Y-92697865D01*
X177288091Y-92742382D01*
X177164836Y-92799856D01*
X177164834Y-92799857D01*
X176983444Y-92926868D01*
X176826868Y-93083444D01*
X176699857Y-93264834D01*
X176699856Y-93264836D01*
X176606279Y-93465513D01*
X176606275Y-93465524D01*
X176548965Y-93679407D01*
X176548964Y-93679414D01*
X176529666Y-93899998D01*
X176529666Y-93900001D01*
X176548964Y-94120585D01*
X176548965Y-94120592D01*
X176606275Y-94334475D01*
X176606279Y-94334486D01*
X176699856Y-94535163D01*
X176699858Y-94535167D01*
X176826868Y-94716555D01*
X176983445Y-94873132D01*
X177164833Y-95000142D01*
X177226828Y-95029050D01*
X177288091Y-95057618D01*
X177340531Y-95103790D01*
X177359683Y-95170983D01*
X177339467Y-95237865D01*
X177288091Y-95282382D01*
X177164836Y-95339856D01*
X177164834Y-95339857D01*
X176983444Y-95466868D01*
X176826868Y-95623444D01*
X176699857Y-95804834D01*
X176699856Y-95804836D01*
X176606279Y-96005513D01*
X176606275Y-96005524D01*
X176548965Y-96219407D01*
X176548964Y-96219414D01*
X176529666Y-96439998D01*
X176529666Y-96440001D01*
X176548964Y-96660585D01*
X176548965Y-96660592D01*
X176606275Y-96874475D01*
X176606279Y-96874486D01*
X176699856Y-97075163D01*
X176699858Y-97075167D01*
X176826868Y-97256555D01*
X176983445Y-97413132D01*
X177164833Y-97540142D01*
X177226828Y-97569050D01*
X177288091Y-97597618D01*
X177340531Y-97643790D01*
X177359683Y-97710983D01*
X177339467Y-97777865D01*
X177288091Y-97822382D01*
X177164836Y-97879856D01*
X177164834Y-97879857D01*
X176983444Y-98006868D01*
X176826868Y-98163444D01*
X176699857Y-98344834D01*
X176699856Y-98344836D01*
X176606279Y-98545513D01*
X176606275Y-98545524D01*
X176548965Y-98759407D01*
X176548964Y-98759414D01*
X176529666Y-98979998D01*
X176529666Y-98980001D01*
X176548964Y-99200585D01*
X176548965Y-99200592D01*
X176606275Y-99414475D01*
X176606279Y-99414486D01*
X176692854Y-99600147D01*
X176699858Y-99615167D01*
X176826868Y-99796555D01*
X176983445Y-99953132D01*
X177164833Y-100080142D01*
X177226828Y-100109050D01*
X177288091Y-100137618D01*
X177340531Y-100183790D01*
X177359683Y-100250983D01*
X177339467Y-100317865D01*
X177288091Y-100362382D01*
X177164836Y-100419856D01*
X177164834Y-100419857D01*
X176983444Y-100546868D01*
X176826868Y-100703444D01*
X176699857Y-100884834D01*
X176699856Y-100884836D01*
X176606279Y-101085513D01*
X176606275Y-101085524D01*
X176548965Y-101299407D01*
X176548964Y-101299414D01*
X176529666Y-101519998D01*
X176529666Y-101520001D01*
X176548964Y-101740585D01*
X176548965Y-101740592D01*
X176606275Y-101954475D01*
X176606279Y-101954486D01*
X176692872Y-102140185D01*
X176699858Y-102155167D01*
X176826868Y-102336555D01*
X176983445Y-102493132D01*
X177164833Y-102620142D01*
X177165065Y-102620250D01*
X177288091Y-102677618D01*
X177340531Y-102723790D01*
X177359683Y-102790983D01*
X177339467Y-102857865D01*
X177288091Y-102902382D01*
X177164836Y-102959856D01*
X177164834Y-102959857D01*
X176983444Y-103086868D01*
X176826868Y-103243444D01*
X176699857Y-103424834D01*
X176699856Y-103424836D01*
X176606279Y-103625513D01*
X176606275Y-103625524D01*
X176548965Y-103839407D01*
X176548964Y-103839414D01*
X176529666Y-104059998D01*
X176529666Y-104060001D01*
X176548964Y-104280585D01*
X176548965Y-104280592D01*
X176606275Y-104494475D01*
X176606279Y-104494486D01*
X176699856Y-104695163D01*
X176699858Y-104695167D01*
X176826868Y-104876555D01*
X176983445Y-105033132D01*
X177164833Y-105160142D01*
X177226828Y-105189050D01*
X177288091Y-105217618D01*
X177340531Y-105263790D01*
X177359683Y-105330983D01*
X177339467Y-105397865D01*
X177288091Y-105442382D01*
X177164836Y-105499856D01*
X177164834Y-105499857D01*
X176983444Y-105626868D01*
X176826868Y-105783444D01*
X176699857Y-105964834D01*
X176699856Y-105964836D01*
X176606279Y-106165513D01*
X176606275Y-106165524D01*
X176548965Y-106379407D01*
X176548964Y-106379414D01*
X176529666Y-106599998D01*
X176529666Y-106600001D01*
X176548964Y-106820585D01*
X176548965Y-106820592D01*
X176606275Y-107034475D01*
X176606279Y-107034486D01*
X176698102Y-107231401D01*
X176699858Y-107235167D01*
X176826868Y-107416555D01*
X176983445Y-107573132D01*
X177164833Y-107700142D01*
X177198110Y-107715659D01*
X177288091Y-107757618D01*
X177340531Y-107803790D01*
X177359683Y-107870983D01*
X177339467Y-107937865D01*
X177288091Y-107982382D01*
X177164836Y-108039856D01*
X177164834Y-108039857D01*
X176983444Y-108166868D01*
X176826868Y-108323444D01*
X176699857Y-108504834D01*
X176699856Y-108504836D01*
X176606279Y-108705513D01*
X176606275Y-108705524D01*
X176548965Y-108919407D01*
X176548964Y-108919414D01*
X176529666Y-109139998D01*
X176529666Y-109140001D01*
X176548964Y-109360585D01*
X176548965Y-109360592D01*
X176606275Y-109574475D01*
X176606279Y-109574486D01*
X176699856Y-109775163D01*
X176699858Y-109775167D01*
X176826868Y-109956555D01*
X176983445Y-110113132D01*
X177164833Y-110240142D01*
X177226828Y-110269050D01*
X177288091Y-110297618D01*
X177340531Y-110343790D01*
X177359683Y-110410983D01*
X177339467Y-110477865D01*
X177288091Y-110522382D01*
X177164836Y-110579856D01*
X177164834Y-110579857D01*
X176983444Y-110706868D01*
X176826868Y-110863444D01*
X176699857Y-111044834D01*
X176699856Y-111044836D01*
X176606279Y-111245513D01*
X176606275Y-111245524D01*
X176548965Y-111459407D01*
X176548964Y-111459414D01*
X176529666Y-111679998D01*
X176529666Y-111680001D01*
X176548964Y-111900585D01*
X176548966Y-111900596D01*
X176572495Y-111988407D01*
X176570832Y-112058257D01*
X176531669Y-112116119D01*
X176467441Y-112143623D01*
X176452720Y-112144500D01*
X174395473Y-112144500D01*
X174328434Y-112124815D01*
X174307792Y-112108181D01*
X174220795Y-112021184D01*
X174068056Y-111925211D01*
X173897787Y-111865631D01*
X173897782Y-111865630D01*
X173718537Y-111845435D01*
X173718529Y-111845435D01*
X173539283Y-111865630D01*
X173539270Y-111865633D01*
X173369010Y-111925210D01*
X173365610Y-111926848D01*
X173363194Y-111927245D01*
X173362439Y-111927510D01*
X173362392Y-111927377D01*
X173296669Y-111938199D01*
X173232535Y-111910475D01*
X173224130Y-111902808D01*
X173096884Y-111775562D01*
X172944145Y-111679589D01*
X172773876Y-111620009D01*
X172773871Y-111620008D01*
X172594626Y-111599813D01*
X172594618Y-111599813D01*
X172415372Y-111620008D01*
X172415367Y-111620009D01*
X172245098Y-111679589D01*
X172092359Y-111775562D01*
X171964806Y-111903115D01*
X171868833Y-112055854D01*
X171809253Y-112226123D01*
X171809252Y-112226128D01*
X171789057Y-112405374D01*
X171789057Y-112405381D01*
X167462351Y-112405381D01*
X167529681Y-112198160D01*
X167586280Y-111901457D01*
X167586334Y-111900596D01*
X167605246Y-111600005D01*
X167605246Y-111599994D01*
X167586281Y-111298553D01*
X167586280Y-111298546D01*
X167586280Y-111298543D01*
X167529681Y-111001840D01*
X167436341Y-110714570D01*
X167385409Y-110606335D01*
X167345904Y-110522382D01*
X167307733Y-110441264D01*
X167216573Y-110297618D01*
X167145888Y-110186236D01*
X167145885Y-110186232D01*
X166953349Y-109953496D01*
X166945003Y-109945659D01*
X166733163Y-109746727D01*
X166733153Y-109746719D01*
X166488806Y-109569191D01*
X166488799Y-109569186D01*
X166488795Y-109569184D01*
X166224104Y-109423668D01*
X166224101Y-109423666D01*
X166224096Y-109423664D01*
X166224095Y-109423663D01*
X165943265Y-109312475D01*
X165943262Y-109312474D01*
X165650695Y-109237357D01*
X165351036Y-109199500D01*
X165351027Y-109199500D01*
X165048973Y-109199500D01*
X165048963Y-109199500D01*
X164749304Y-109237357D01*
X164456737Y-109312474D01*
X164456734Y-109312475D01*
X164175904Y-109423663D01*
X164175903Y-109423664D01*
X163911205Y-109569184D01*
X163911193Y-109569191D01*
X163666846Y-109746719D01*
X163666836Y-109746727D01*
X163446652Y-109953494D01*
X163254111Y-110186236D01*
X163092268Y-110441261D01*
X163092265Y-110441267D01*
X162963661Y-110714563D01*
X162963659Y-110714568D01*
X162870320Y-111001835D01*
X162813719Y-111298546D01*
X162813718Y-111298553D01*
X162794754Y-111599994D01*
X162794754Y-111600005D01*
X161527967Y-111600005D01*
X161558903Y-111533663D01*
X161620063Y-111305408D01*
X161640659Y-111070000D01*
X161620063Y-110834592D01*
X161558903Y-110606337D01*
X161459035Y-110392171D01*
X161425158Y-110343790D01*
X161323496Y-110198600D01*
X161299944Y-110175048D01*
X161201567Y-110076671D01*
X161168084Y-110015351D01*
X161173068Y-109945659D01*
X161214939Y-109889725D01*
X161245915Y-109872810D01*
X161377331Y-109823796D01*
X161492546Y-109737546D01*
X161578796Y-109622331D01*
X161629091Y-109487483D01*
X161635500Y-109427873D01*
X161635500Y-108978342D01*
X169820596Y-108978342D01*
X169840791Y-109157588D01*
X169840792Y-109157593D01*
X169900372Y-109327862D01*
X169993360Y-109475850D01*
X169996345Y-109480601D01*
X170123899Y-109608155D01*
X170180039Y-109643430D01*
X170251921Y-109688597D01*
X170276639Y-109704128D01*
X170372145Y-109737547D01*
X170446906Y-109763707D01*
X170446911Y-109763708D01*
X170626157Y-109783904D01*
X170626161Y-109783904D01*
X170626165Y-109783904D01*
X170805410Y-109763708D01*
X170805413Y-109763707D01*
X170805416Y-109763707D01*
X170975683Y-109704128D01*
X171128423Y-109608155D01*
X171255977Y-109480601D01*
X171351950Y-109327861D01*
X171411529Y-109157594D01*
X171421322Y-109070668D01*
X171448387Y-109006257D01*
X171456851Y-108996882D01*
X171820333Y-108633400D01*
X171826410Y-108628072D01*
X171854693Y-108606371D01*
X171950947Y-108480930D01*
X172011455Y-108334851D01*
X172026911Y-108217450D01*
X172032093Y-108178089D01*
X172027441Y-108142758D01*
X172026911Y-108134660D01*
X172026911Y-103381912D01*
X172046596Y-103314873D01*
X172053966Y-103304597D01*
X172056221Y-103301767D01*
X172056227Y-103301762D01*
X172152200Y-103149022D01*
X172211779Y-102978755D01*
X172213908Y-102959858D01*
X172231976Y-102799503D01*
X172231976Y-102799496D01*
X172211780Y-102620250D01*
X172211779Y-102620245D01*
X172152199Y-102449976D01*
X172112993Y-102387580D01*
X172056227Y-102297238D01*
X171928673Y-102169684D01*
X171775934Y-102073711D01*
X171605665Y-102014131D01*
X171605660Y-102014130D01*
X171426415Y-101993935D01*
X171426407Y-101993935D01*
X171247161Y-102014130D01*
X171247156Y-102014131D01*
X171076887Y-102073711D01*
X170924148Y-102169684D01*
X170796595Y-102297237D01*
X170700622Y-102449976D01*
X170641042Y-102620245D01*
X170641041Y-102620250D01*
X170620846Y-102799496D01*
X170620846Y-102799503D01*
X170641041Y-102978749D01*
X170641042Y-102978754D01*
X170700622Y-103149023D01*
X170703964Y-103154341D01*
X170786303Y-103285383D01*
X170796596Y-103301763D01*
X170798856Y-103304597D01*
X170799745Y-103306775D01*
X170800300Y-103307658D01*
X170800145Y-103307755D01*
X170825266Y-103369283D01*
X170825911Y-103381912D01*
X170825911Y-107877991D01*
X170806226Y-107945030D01*
X170789592Y-107965672D01*
X170607626Y-108147637D01*
X170546303Y-108181122D01*
X170533829Y-108183176D01*
X170446911Y-108192969D01*
X170276639Y-108252549D01*
X170123898Y-108348523D01*
X169996345Y-108476076D01*
X169900372Y-108628815D01*
X169840792Y-108799084D01*
X169840791Y-108799089D01*
X169820596Y-108978335D01*
X169820596Y-108978342D01*
X161635500Y-108978342D01*
X161635499Y-107632128D01*
X161629091Y-107572517D01*
X161627237Y-107567547D01*
X161578797Y-107437671D01*
X161578793Y-107437664D01*
X161492547Y-107322455D01*
X161492544Y-107322452D01*
X161377335Y-107236206D01*
X161377328Y-107236202D01*
X161242482Y-107185908D01*
X161242483Y-107185908D01*
X161182883Y-107179501D01*
X161182881Y-107179500D01*
X161182873Y-107179500D01*
X161182864Y-107179500D01*
X159387129Y-107179500D01*
X159387123Y-107179501D01*
X159327516Y-107185908D01*
X159192671Y-107236202D01*
X159192664Y-107236206D01*
X159077455Y-107322452D01*
X159077452Y-107322455D01*
X158991206Y-107437664D01*
X158991202Y-107437671D01*
X158940908Y-107572517D01*
X158935410Y-107623663D01*
X158934501Y-107632123D01*
X158934500Y-107632135D01*
X158934500Y-109427870D01*
X158934501Y-109427876D01*
X158940908Y-109487483D01*
X158991202Y-109622328D01*
X158991206Y-109622335D01*
X159077452Y-109737544D01*
X159077455Y-109737547D01*
X159192664Y-109823793D01*
X159192671Y-109823797D01*
X159324081Y-109872810D01*
X159380015Y-109914681D01*
X159404432Y-109980145D01*
X159389580Y-110048418D01*
X159368430Y-110076673D01*
X159246503Y-110198600D01*
X159110965Y-110392169D01*
X159110964Y-110392171D01*
X159011098Y-110606335D01*
X159011094Y-110606344D01*
X158949938Y-110834586D01*
X158949936Y-110834596D01*
X158929341Y-111069999D01*
X158929341Y-111070000D01*
X156700500Y-111070000D01*
X156700500Y-102030000D01*
X158929341Y-102030000D01*
X158949936Y-102265403D01*
X158949938Y-102265413D01*
X159011094Y-102493655D01*
X159011096Y-102493659D01*
X159011097Y-102493663D01*
X159070126Y-102620250D01*
X159110965Y-102707830D01*
X159110967Y-102707834D01*
X159214862Y-102856210D01*
X159246501Y-102901396D01*
X159246506Y-102901402D01*
X159368430Y-103023326D01*
X159401915Y-103084649D01*
X159396931Y-103154341D01*
X159355059Y-103210274D01*
X159324083Y-103227189D01*
X159192669Y-103276203D01*
X159192664Y-103276206D01*
X159077455Y-103362452D01*
X159077452Y-103362455D01*
X158991206Y-103477664D01*
X158991202Y-103477671D01*
X158940908Y-103612517D01*
X158934501Y-103672116D01*
X158934501Y-103672123D01*
X158934500Y-103672135D01*
X158934500Y-105467870D01*
X158934501Y-105467876D01*
X158940908Y-105527483D01*
X158991202Y-105662328D01*
X158991206Y-105662335D01*
X159077452Y-105777544D01*
X159077455Y-105777547D01*
X159192664Y-105863793D01*
X159192671Y-105863797D01*
X159327517Y-105914091D01*
X159327516Y-105914091D01*
X159334444Y-105914835D01*
X159387127Y-105920500D01*
X161182872Y-105920499D01*
X161242483Y-105914091D01*
X161377331Y-105863796D01*
X161492546Y-105777546D01*
X161578796Y-105662331D01*
X161629091Y-105527483D01*
X161635500Y-105467873D01*
X161635499Y-103672128D01*
X161629091Y-103612517D01*
X161579602Y-103479831D01*
X161578797Y-103477671D01*
X161578793Y-103477664D01*
X161492547Y-103362455D01*
X161492544Y-103362452D01*
X161377335Y-103276206D01*
X161377328Y-103276202D01*
X161245917Y-103227189D01*
X161189983Y-103185318D01*
X161165566Y-103119853D01*
X161180418Y-103051580D01*
X161201563Y-103023332D01*
X161323495Y-102901401D01*
X161459035Y-102707830D01*
X161558903Y-102493663D01*
X161620063Y-102265408D01*
X161640659Y-102030000D01*
X161620063Y-101794592D01*
X161558903Y-101566337D01*
X161459035Y-101352171D01*
X161454133Y-101345169D01*
X161323494Y-101158597D01*
X161156402Y-100991506D01*
X161156395Y-100991501D01*
X160962834Y-100855967D01*
X160962830Y-100855965D01*
X160943628Y-100847011D01*
X160748663Y-100756097D01*
X160748659Y-100756096D01*
X160748655Y-100756094D01*
X160520413Y-100694938D01*
X160520403Y-100694936D01*
X160285001Y-100674341D01*
X160284999Y-100674341D01*
X160049596Y-100694936D01*
X160049586Y-100694938D01*
X159821344Y-100756094D01*
X159821335Y-100756098D01*
X159607171Y-100855964D01*
X159607169Y-100855965D01*
X159413597Y-100991505D01*
X159246505Y-101158597D01*
X159110965Y-101352169D01*
X159110964Y-101352171D01*
X159011098Y-101566335D01*
X159011094Y-101566344D01*
X158949938Y-101794586D01*
X158949936Y-101794596D01*
X158929341Y-102029999D01*
X158929341Y-102030000D01*
X156700500Y-102030000D01*
X156700500Y-97785000D01*
X159066841Y-97785000D01*
X159087436Y-98020403D01*
X159087438Y-98020413D01*
X159148594Y-98248655D01*
X159148596Y-98248659D01*
X159148597Y-98248663D01*
X159195265Y-98348743D01*
X159248465Y-98462830D01*
X159248467Y-98462834D01*
X159352622Y-98611582D01*
X159384005Y-98656401D01*
X159551099Y-98823495D01*
X159611341Y-98865677D01*
X159744665Y-98959032D01*
X159744667Y-98959033D01*
X159744670Y-98959035D01*
X159958837Y-99058903D01*
X160187092Y-99120063D01*
X160375418Y-99136539D01*
X160422499Y-99140659D01*
X160422500Y-99140659D01*
X160422501Y-99140659D01*
X160461734Y-99137226D01*
X160657908Y-99120063D01*
X160886163Y-99058903D01*
X161100330Y-98959035D01*
X161293901Y-98823495D01*
X161460995Y-98656401D01*
X161596535Y-98462830D01*
X161696403Y-98248663D01*
X161757563Y-98020408D01*
X161778159Y-97785000D01*
X161757563Y-97549592D01*
X161696403Y-97321337D01*
X161596535Y-97107171D01*
X161586774Y-97093231D01*
X161460996Y-96913600D01*
X161409574Y-96862178D01*
X161339067Y-96791671D01*
X161305584Y-96730351D01*
X161310568Y-96660659D01*
X161352439Y-96604725D01*
X161383415Y-96587810D01*
X161514831Y-96538796D01*
X161630046Y-96452546D01*
X161716296Y-96337331D01*
X161766591Y-96202483D01*
X161773000Y-96142873D01*
X161772999Y-94675500D01*
X170894540Y-94675500D01*
X170914326Y-94863756D01*
X170914327Y-94863759D01*
X170972818Y-95043777D01*
X170972821Y-95043784D01*
X171067467Y-95207716D01*
X171186447Y-95339856D01*
X171194129Y-95348388D01*
X171347265Y-95459648D01*
X171347270Y-95459651D01*
X171520191Y-95536642D01*
X171520193Y-95536642D01*
X171520197Y-95536644D01*
X171675130Y-95569575D01*
X171736607Y-95602766D01*
X171737026Y-95603183D01*
X172263181Y-96129338D01*
X172296666Y-96190661D01*
X172299500Y-96217019D01*
X172299500Y-98600330D01*
X172279815Y-98667369D01*
X172227011Y-98713124D01*
X172201282Y-98721620D01*
X172120196Y-98738856D01*
X172120192Y-98738857D01*
X171947270Y-98815848D01*
X171947265Y-98815851D01*
X171794129Y-98927111D01*
X171667466Y-99067785D01*
X171572821Y-99231715D01*
X171572818Y-99231722D01*
X171518142Y-99400000D01*
X171514326Y-99411744D01*
X171494540Y-99600000D01*
X171514326Y-99788256D01*
X171514327Y-99788259D01*
X171572818Y-99968277D01*
X171572821Y-99968284D01*
X171667467Y-100132216D01*
X171790597Y-100268965D01*
X171794129Y-100272888D01*
X171947265Y-100384148D01*
X171947270Y-100384151D01*
X172120192Y-100461142D01*
X172120197Y-100461144D01*
X172305354Y-100500500D01*
X172305355Y-100500500D01*
X172494644Y-100500500D01*
X172494646Y-100500500D01*
X172679803Y-100461144D01*
X172852730Y-100384151D01*
X173005871Y-100272888D01*
X173132533Y-100132216D01*
X173227179Y-99968284D01*
X173285674Y-99788256D01*
X173290864Y-99738869D01*
X173317447Y-99674258D01*
X173326494Y-99664161D01*
X173479056Y-99511599D01*
X173481748Y-99509065D01*
X173528183Y-99467929D01*
X173563436Y-99416855D01*
X173565613Y-99413896D01*
X173603878Y-99365057D01*
X173608037Y-99355815D01*
X173619062Y-99336268D01*
X173624818Y-99327930D01*
X173646820Y-99269912D01*
X173648235Y-99266495D01*
X173673694Y-99209932D01*
X173675520Y-99199965D01*
X173681548Y-99178340D01*
X173685140Y-99168872D01*
X173691066Y-99120063D01*
X173692615Y-99107309D01*
X173693179Y-99103605D01*
X173699716Y-99067931D01*
X173704357Y-99042606D01*
X173700613Y-98980707D01*
X173700500Y-98976963D01*
X173700500Y-95898535D01*
X173700613Y-95894790D01*
X173704357Y-95832894D01*
X173693177Y-95771886D01*
X173692615Y-95768189D01*
X173685140Y-95706629D01*
X173685139Y-95706625D01*
X173681546Y-95697151D01*
X173675519Y-95675529D01*
X173673694Y-95665570D01*
X173673694Y-95665568D01*
X173648239Y-95609012D01*
X173646809Y-95605557D01*
X173645909Y-95603183D01*
X173624818Y-95547570D01*
X173619059Y-95539227D01*
X173608030Y-95519672D01*
X173603877Y-95510443D01*
X173603874Y-95510438D01*
X173565633Y-95461627D01*
X173563413Y-95458610D01*
X173549829Y-95438931D01*
X173528183Y-95407571D01*
X173481750Y-95366435D01*
X173479056Y-95363899D01*
X172726503Y-94611346D01*
X172693018Y-94550023D01*
X172690865Y-94536643D01*
X172685674Y-94487244D01*
X172673353Y-94449325D01*
X172627181Y-94307222D01*
X172627180Y-94307221D01*
X172627179Y-94307216D01*
X172532533Y-94143284D01*
X172405871Y-94002612D01*
X172405870Y-94002611D01*
X172252734Y-93891351D01*
X172252729Y-93891348D01*
X172079807Y-93814357D01*
X172079802Y-93814355D01*
X171933074Y-93783168D01*
X171894646Y-93775000D01*
X171705354Y-93775000D01*
X171672897Y-93781898D01*
X171520197Y-93814355D01*
X171520192Y-93814357D01*
X171347270Y-93891348D01*
X171347265Y-93891351D01*
X171194129Y-94002611D01*
X171067466Y-94143285D01*
X170972821Y-94307215D01*
X170972818Y-94307222D01*
X170926646Y-94449326D01*
X170914326Y-94487244D01*
X170894540Y-94675500D01*
X161772999Y-94675500D01*
X161772999Y-94347128D01*
X161766591Y-94287517D01*
X161716296Y-94152669D01*
X161716295Y-94152668D01*
X161716293Y-94152664D01*
X161630047Y-94037455D01*
X161630044Y-94037452D01*
X161514835Y-93951206D01*
X161514828Y-93951202D01*
X161379982Y-93900908D01*
X161379983Y-93900908D01*
X161320383Y-93894501D01*
X161320381Y-93894500D01*
X161320373Y-93894500D01*
X161320364Y-93894500D01*
X159524629Y-93894500D01*
X159524623Y-93894501D01*
X159465016Y-93900908D01*
X159330171Y-93951202D01*
X159330164Y-93951206D01*
X159214955Y-94037452D01*
X159214952Y-94037455D01*
X159128706Y-94152664D01*
X159128702Y-94152671D01*
X159078408Y-94287517D01*
X159073359Y-94334486D01*
X159072001Y-94347123D01*
X159072000Y-94347135D01*
X159072000Y-96142870D01*
X159072001Y-96142876D01*
X159078408Y-96202483D01*
X159128702Y-96337328D01*
X159128706Y-96337335D01*
X159214952Y-96452544D01*
X159214955Y-96452547D01*
X159330164Y-96538793D01*
X159330171Y-96538797D01*
X159461581Y-96587810D01*
X159517515Y-96629681D01*
X159541932Y-96695145D01*
X159527080Y-96763418D01*
X159505930Y-96791673D01*
X159384003Y-96913600D01*
X159248465Y-97107169D01*
X159248464Y-97107171D01*
X159148598Y-97321335D01*
X159148594Y-97321344D01*
X159087438Y-97549586D01*
X159087436Y-97549596D01*
X159066841Y-97784999D01*
X159066841Y-97785000D01*
X156700500Y-97785000D01*
X156700500Y-88705000D01*
X159066841Y-88705000D01*
X159087436Y-88940403D01*
X159087438Y-88940413D01*
X159148594Y-89168655D01*
X159148596Y-89168659D01*
X159148597Y-89168663D01*
X159188617Y-89254486D01*
X159248465Y-89382830D01*
X159248467Y-89382834D01*
X159356781Y-89537521D01*
X159384001Y-89576396D01*
X159384006Y-89576402D01*
X159505930Y-89698326D01*
X159539415Y-89759649D01*
X159534431Y-89829341D01*
X159492559Y-89885274D01*
X159461583Y-89902189D01*
X159330169Y-89951203D01*
X159330164Y-89951206D01*
X159214955Y-90037452D01*
X159214952Y-90037455D01*
X159128706Y-90152664D01*
X159128702Y-90152671D01*
X159078408Y-90287517D01*
X159072001Y-90347116D01*
X159072001Y-90347123D01*
X159072000Y-90347135D01*
X159072000Y-92142870D01*
X159072001Y-92142876D01*
X159078408Y-92202483D01*
X159128702Y-92337328D01*
X159128706Y-92337335D01*
X159214952Y-92452544D01*
X159214955Y-92452547D01*
X159330164Y-92538793D01*
X159330171Y-92538797D01*
X159465017Y-92589091D01*
X159465016Y-92589091D01*
X159471944Y-92589835D01*
X159524627Y-92595500D01*
X161320372Y-92595499D01*
X161379983Y-92589091D01*
X161514831Y-92538796D01*
X161630046Y-92452546D01*
X161716296Y-92337331D01*
X161766591Y-92202483D01*
X161773000Y-92142873D01*
X161772999Y-90347128D01*
X161766591Y-90287517D01*
X161756274Y-90259857D01*
X161716297Y-90152671D01*
X161716293Y-90152664D01*
X161630047Y-90037455D01*
X161630044Y-90037452D01*
X161514835Y-89951206D01*
X161514828Y-89951202D01*
X161383417Y-89902189D01*
X161327483Y-89860318D01*
X161303066Y-89794853D01*
X161317918Y-89726580D01*
X161339063Y-89698332D01*
X161460995Y-89576401D01*
X161596535Y-89382830D01*
X161696403Y-89168663D01*
X161757563Y-88940408D01*
X161778159Y-88705000D01*
X161757563Y-88469592D01*
X161696403Y-88241337D01*
X161596535Y-88027171D01*
X161579922Y-88003444D01*
X161460994Y-87833597D01*
X161293902Y-87666506D01*
X161293895Y-87666501D01*
X161100334Y-87530967D01*
X161100330Y-87530965D01*
X161089228Y-87525788D01*
X160886163Y-87431097D01*
X160886159Y-87431096D01*
X160886155Y-87431094D01*
X160657913Y-87369938D01*
X160657903Y-87369936D01*
X160422501Y-87349341D01*
X160422499Y-87349341D01*
X160187096Y-87369936D01*
X160187086Y-87369938D01*
X159958844Y-87431094D01*
X159958835Y-87431098D01*
X159744671Y-87530964D01*
X159744669Y-87530965D01*
X159551097Y-87666505D01*
X159384005Y-87833597D01*
X159248465Y-88027169D01*
X159248464Y-88027171D01*
X159174945Y-88184833D01*
X159148633Y-88241261D01*
X159148598Y-88241335D01*
X159148594Y-88241344D01*
X159087438Y-88469586D01*
X159087436Y-88469596D01*
X159066841Y-88704999D01*
X159066841Y-88705000D01*
X156700500Y-88705000D01*
X156700500Y-86047870D01*
X163899500Y-86047870D01*
X163899501Y-86047876D01*
X163905908Y-86107483D01*
X163956202Y-86242328D01*
X163956206Y-86242335D01*
X164042452Y-86357544D01*
X164042455Y-86357547D01*
X164157664Y-86443793D01*
X164157671Y-86443797D01*
X164292517Y-86494091D01*
X164292516Y-86494091D01*
X164299444Y-86494835D01*
X164352127Y-86500500D01*
X166447872Y-86500499D01*
X166462242Y-86498954D01*
X166531001Y-86511357D01*
X166582140Y-86558966D01*
X166599500Y-86622243D01*
X166599500Y-89817087D01*
X166579815Y-89884126D01*
X166572450Y-89894396D01*
X166570186Y-89897234D01*
X166474211Y-90049976D01*
X166414631Y-90220245D01*
X166414630Y-90220250D01*
X166394435Y-90399496D01*
X166394435Y-90399503D01*
X166414630Y-90578749D01*
X166414631Y-90578754D01*
X166474211Y-90749023D01*
X166570184Y-90901762D01*
X166697738Y-91029316D01*
X166850478Y-91125289D01*
X166971322Y-91167574D01*
X167020745Y-91184868D01*
X167020750Y-91184869D01*
X167199996Y-91205065D01*
X167200000Y-91205065D01*
X167200004Y-91205065D01*
X167379249Y-91184869D01*
X167379252Y-91184868D01*
X167379255Y-91184868D01*
X167549522Y-91125289D01*
X167702262Y-91029316D01*
X167829816Y-90901762D01*
X167925789Y-90749022D01*
X167985368Y-90578755D01*
X167985369Y-90578749D01*
X168005565Y-90399503D01*
X168005565Y-90399496D01*
X167985369Y-90220250D01*
X167985367Y-90220240D01*
X167952434Y-90126126D01*
X167948871Y-90056347D01*
X167983600Y-89995719D01*
X168028519Y-89968129D01*
X168114302Y-89938112D01*
X168149520Y-89925790D01*
X168149522Y-89925789D01*
X168302262Y-89829816D01*
X168429816Y-89702262D01*
X168525789Y-89549522D01*
X168585368Y-89379255D01*
X168585369Y-89379249D01*
X168605565Y-89200003D01*
X168605565Y-89199996D01*
X168605509Y-89199503D01*
X170994435Y-89199503D01*
X171014630Y-89378749D01*
X171014631Y-89378754D01*
X171074211Y-89549023D01*
X171137959Y-89650476D01*
X171170184Y-89701762D01*
X171297738Y-89829316D01*
X171359179Y-89867922D01*
X171442286Y-89920142D01*
X171450478Y-89925289D01*
X171524536Y-89951203D01*
X171620745Y-89984868D01*
X171620750Y-89984869D01*
X171799996Y-90005065D01*
X171800000Y-90005065D01*
X171800004Y-90005065D01*
X171844931Y-90000003D01*
X172794435Y-90000003D01*
X172814630Y-90179249D01*
X172814631Y-90179254D01*
X172874211Y-90349523D01*
X172905614Y-90399500D01*
X172970184Y-90502262D01*
X173097738Y-90629816D01*
X173188080Y-90686582D01*
X173248956Y-90724833D01*
X173250478Y-90725789D01*
X173316877Y-90749023D01*
X173420745Y-90785368D01*
X173420750Y-90785369D01*
X173599996Y-90805565D01*
X173600000Y-90805565D01*
X173600004Y-90805565D01*
X173779249Y-90785369D01*
X173779252Y-90785368D01*
X173779255Y-90785368D01*
X173949522Y-90725789D01*
X174102262Y-90629816D01*
X174102267Y-90629810D01*
X174105097Y-90627555D01*
X174107275Y-90626665D01*
X174108158Y-90626111D01*
X174108255Y-90626265D01*
X174169783Y-90601145D01*
X174182412Y-90600500D01*
X174817588Y-90600500D01*
X174884627Y-90620185D01*
X174894903Y-90627555D01*
X174897736Y-90629814D01*
X174897738Y-90629816D01*
X175011270Y-90701152D01*
X175048956Y-90724833D01*
X175050478Y-90725789D01*
X175116877Y-90749023D01*
X175220745Y-90785368D01*
X175220750Y-90785369D01*
X175399996Y-90805565D01*
X175400000Y-90805565D01*
X175400004Y-90805565D01*
X175579249Y-90785369D01*
X175579252Y-90785368D01*
X175579255Y-90785368D01*
X175749522Y-90725789D01*
X175902262Y-90629816D01*
X176029816Y-90502262D01*
X176125789Y-90349522D01*
X176185368Y-90179255D01*
X176185369Y-90179249D01*
X176205565Y-90000003D01*
X176205565Y-89999996D01*
X176185369Y-89820750D01*
X176185368Y-89820745D01*
X176175705Y-89793131D01*
X176125789Y-89650478D01*
X176029816Y-89497738D01*
X175902262Y-89370184D01*
X175749523Y-89274211D01*
X175579254Y-89214631D01*
X175579249Y-89214630D01*
X175400004Y-89194435D01*
X175399996Y-89194435D01*
X175220750Y-89214630D01*
X175220745Y-89214631D01*
X175050476Y-89274211D01*
X174897736Y-89370185D01*
X174894903Y-89372445D01*
X174892724Y-89373334D01*
X174891842Y-89373889D01*
X174891744Y-89373734D01*
X174830217Y-89398855D01*
X174817588Y-89399500D01*
X174182412Y-89399500D01*
X174115373Y-89379815D01*
X174105097Y-89372445D01*
X174102263Y-89370185D01*
X174102262Y-89370184D01*
X174045496Y-89334515D01*
X173949523Y-89274211D01*
X173779254Y-89214631D01*
X173779249Y-89214630D01*
X173600004Y-89194435D01*
X173599996Y-89194435D01*
X173420750Y-89214630D01*
X173420745Y-89214631D01*
X173250476Y-89274211D01*
X173097737Y-89370184D01*
X172970184Y-89497737D01*
X172874211Y-89650476D01*
X172814631Y-89820745D01*
X172814630Y-89820750D01*
X172794435Y-89999996D01*
X172794435Y-90000003D01*
X171844931Y-90000003D01*
X171979249Y-89984869D01*
X171979252Y-89984868D01*
X171979255Y-89984868D01*
X172149522Y-89925289D01*
X172302262Y-89829316D01*
X172429816Y-89701762D01*
X172525789Y-89549022D01*
X172585368Y-89378755D01*
X172585369Y-89378749D01*
X172605565Y-89199503D01*
X172605565Y-89199496D01*
X172585369Y-89020250D01*
X172585368Y-89020245D01*
X172525789Y-88849978D01*
X172429816Y-88697238D01*
X172429814Y-88697236D01*
X172429813Y-88697234D01*
X172427550Y-88694396D01*
X172426659Y-88692215D01*
X172426111Y-88691342D01*
X172426264Y-88691245D01*
X172401144Y-88629709D01*
X172400500Y-88617087D01*
X172400500Y-88582412D01*
X172420185Y-88515373D01*
X172427555Y-88505097D01*
X172429810Y-88502267D01*
X172429816Y-88502262D01*
X172525789Y-88349522D01*
X172585368Y-88179255D01*
X172605565Y-88000000D01*
X172604014Y-87986236D01*
X172585369Y-87820750D01*
X172585368Y-87820745D01*
X172525789Y-87650478D01*
X172510582Y-87626277D01*
X172450693Y-87530964D01*
X172429816Y-87497738D01*
X172302262Y-87370184D01*
X172269091Y-87349341D01*
X172149523Y-87274211D01*
X171979254Y-87214631D01*
X171979249Y-87214630D01*
X171800004Y-87194435D01*
X171799996Y-87194435D01*
X171620750Y-87214630D01*
X171620745Y-87214631D01*
X171450476Y-87274211D01*
X171297737Y-87370184D01*
X171170184Y-87497737D01*
X171074211Y-87650476D01*
X171014631Y-87820745D01*
X171014630Y-87820750D01*
X170994435Y-87999996D01*
X170994435Y-88000003D01*
X171014630Y-88179249D01*
X171014631Y-88179254D01*
X171074211Y-88349523D01*
X171170185Y-88502263D01*
X171172445Y-88505097D01*
X171173334Y-88507275D01*
X171173889Y-88508158D01*
X171173734Y-88508255D01*
X171198855Y-88569783D01*
X171199500Y-88582412D01*
X171199500Y-88617087D01*
X171179815Y-88684126D01*
X171172450Y-88694396D01*
X171170186Y-88697234D01*
X171074211Y-88849976D01*
X171014631Y-89020245D01*
X171014630Y-89020250D01*
X170994435Y-89199496D01*
X170994435Y-89199503D01*
X168605509Y-89199503D01*
X168585369Y-89020750D01*
X168585368Y-89020745D01*
X168585193Y-89020245D01*
X168525789Y-88850478D01*
X168429816Y-88697738D01*
X168429814Y-88697736D01*
X168429813Y-88697734D01*
X168427550Y-88694896D01*
X168426659Y-88692715D01*
X168426111Y-88691842D01*
X168426264Y-88691745D01*
X168401144Y-88630209D01*
X168400500Y-88617587D01*
X168400500Y-86282912D01*
X168420185Y-86215873D01*
X168427555Y-86205597D01*
X168429810Y-86202767D01*
X168429816Y-86202762D01*
X168525789Y-86050022D01*
X168585368Y-85879755D01*
X168587986Y-85856511D01*
X168615052Y-85792098D01*
X168670252Y-85753351D01*
X168749022Y-85725789D01*
X168886609Y-85639336D01*
X168953846Y-85620336D01*
X169020681Y-85640703D01*
X169065896Y-85693971D01*
X169066137Y-85694518D01*
X169073753Y-85711879D01*
X169075827Y-85716607D01*
X169095146Y-85746177D01*
X169211833Y-85924782D01*
X169211836Y-85924785D01*
X169380256Y-86107738D01*
X169576491Y-86260474D01*
X169795190Y-86378828D01*
X170030386Y-86459571D01*
X170275665Y-86500500D01*
X170524335Y-86500500D01*
X170769614Y-86459571D01*
X171004810Y-86378828D01*
X171223509Y-86260474D01*
X171419744Y-86107738D01*
X171588164Y-85924785D01*
X171724173Y-85716607D01*
X171824063Y-85488881D01*
X171885108Y-85247821D01*
X171887858Y-85214631D01*
X171905643Y-85000005D01*
X171905643Y-84999994D01*
X171885109Y-84752187D01*
X171885107Y-84752175D01*
X171824063Y-84511118D01*
X171724173Y-84283393D01*
X171588166Y-84075217D01*
X171561457Y-84046203D01*
X171419744Y-83892262D01*
X171223509Y-83739526D01*
X171223507Y-83739525D01*
X171223506Y-83739524D01*
X171004811Y-83621172D01*
X171004802Y-83621169D01*
X170769616Y-83540429D01*
X170524335Y-83499500D01*
X170275665Y-83499500D01*
X170030383Y-83540429D01*
X169795197Y-83621169D01*
X169795188Y-83621172D01*
X169576493Y-83739524D01*
X169380257Y-83892261D01*
X169211833Y-84075217D01*
X169075827Y-84283392D01*
X169066137Y-84305482D01*
X169021179Y-84358967D01*
X168954442Y-84379655D01*
X168887115Y-84360979D01*
X168886610Y-84360663D01*
X168749023Y-84274211D01*
X168578754Y-84214631D01*
X168578749Y-84214630D01*
X168399504Y-84194435D01*
X168399496Y-84194435D01*
X168220250Y-84214630D01*
X168220245Y-84214631D01*
X168049976Y-84274211D01*
X167897237Y-84370184D01*
X167803741Y-84463681D01*
X167742418Y-84497166D01*
X167716060Y-84500000D01*
X167594899Y-84500000D01*
X167586800Y-84499469D01*
X167551471Y-84494818D01*
X167512110Y-84500000D01*
X167394710Y-84515455D01*
X167394708Y-84515456D01*
X167248631Y-84575963D01*
X167248630Y-84575964D01*
X167123189Y-84672218D01*
X167123188Y-84672218D01*
X167123183Y-84672223D01*
X167122873Y-84672628D01*
X167122522Y-84672883D01*
X167117437Y-84677969D01*
X167116644Y-84677176D01*
X167066445Y-84713830D01*
X166996699Y-84717983D01*
X166935779Y-84683770D01*
X166903027Y-84622052D01*
X166900499Y-84597140D01*
X166900499Y-83952129D01*
X166900498Y-83952123D01*
X166900497Y-83952116D01*
X166894091Y-83892517D01*
X166843796Y-83757669D01*
X166843795Y-83757668D01*
X166843793Y-83757664D01*
X166757547Y-83642455D01*
X166757544Y-83642452D01*
X166642335Y-83556206D01*
X166642328Y-83556202D01*
X166507482Y-83505908D01*
X166507483Y-83505908D01*
X166447883Y-83499501D01*
X166447881Y-83499500D01*
X166447873Y-83499500D01*
X166447864Y-83499500D01*
X164352129Y-83499500D01*
X164352123Y-83499501D01*
X164292516Y-83505908D01*
X164157671Y-83556202D01*
X164157664Y-83556206D01*
X164042455Y-83642452D01*
X164042452Y-83642455D01*
X163956206Y-83757664D01*
X163956202Y-83757671D01*
X163905908Y-83892517D01*
X163901701Y-83931651D01*
X163899501Y-83952123D01*
X163899500Y-83952135D01*
X163899500Y-86047870D01*
X156700500Y-86047870D01*
X156700500Y-82060000D01*
X159044341Y-82060000D01*
X159064936Y-82295403D01*
X159064938Y-82295413D01*
X159126094Y-82523655D01*
X159126096Y-82523659D01*
X159126097Y-82523663D01*
X159202848Y-82688256D01*
X159225965Y-82737830D01*
X159225967Y-82737834D01*
X159291709Y-82831722D01*
X159361501Y-82931396D01*
X159361506Y-82931402D01*
X159483430Y-83053326D01*
X159516915Y-83114649D01*
X159511931Y-83184341D01*
X159470059Y-83240274D01*
X159439083Y-83257189D01*
X159307669Y-83306203D01*
X159307664Y-83306206D01*
X159192455Y-83392452D01*
X159192452Y-83392455D01*
X159106206Y-83507664D01*
X159106202Y-83507671D01*
X159055908Y-83642517D01*
X159049501Y-83702116D01*
X159049501Y-83702123D01*
X159049500Y-83702135D01*
X159049500Y-85497870D01*
X159049501Y-85497876D01*
X159055908Y-85557483D01*
X159106202Y-85692328D01*
X159106206Y-85692335D01*
X159192452Y-85807544D01*
X159192455Y-85807547D01*
X159307664Y-85893793D01*
X159307671Y-85893797D01*
X159442517Y-85944091D01*
X159442516Y-85944091D01*
X159449444Y-85944835D01*
X159502127Y-85950500D01*
X161297872Y-85950499D01*
X161357483Y-85944091D01*
X161492331Y-85893796D01*
X161607546Y-85807546D01*
X161693796Y-85692331D01*
X161744091Y-85557483D01*
X161750500Y-85497873D01*
X161750499Y-83702128D01*
X161744091Y-83642517D01*
X161716401Y-83568277D01*
X161693797Y-83507671D01*
X161693793Y-83507664D01*
X161607547Y-83392455D01*
X161607544Y-83392452D01*
X161492335Y-83306206D01*
X161492328Y-83306202D01*
X161360917Y-83257189D01*
X161304983Y-83215318D01*
X161280566Y-83149853D01*
X161295418Y-83081580D01*
X161316563Y-83053332D01*
X161438495Y-82931401D01*
X161574035Y-82737830D01*
X161673903Y-82523663D01*
X161735063Y-82295408D01*
X161755659Y-82060000D01*
X161735063Y-81824592D01*
X161684122Y-81634475D01*
X161673905Y-81596344D01*
X161673904Y-81596343D01*
X161673903Y-81596337D01*
X161574035Y-81382171D01*
X161541785Y-81336112D01*
X161438494Y-81188597D01*
X161271402Y-81021506D01*
X161271395Y-81021501D01*
X161077834Y-80885967D01*
X161077830Y-80885965D01*
X161062192Y-80878673D01*
X160863663Y-80786097D01*
X160863659Y-80786096D01*
X160863655Y-80786094D01*
X160635413Y-80724938D01*
X160635403Y-80724936D01*
X160400001Y-80704341D01*
X160399999Y-80704341D01*
X160164596Y-80724936D01*
X160164586Y-80724938D01*
X159936344Y-80786094D01*
X159936335Y-80786098D01*
X159722171Y-80885964D01*
X159722169Y-80885965D01*
X159528597Y-81021505D01*
X159361505Y-81188597D01*
X159225965Y-81382169D01*
X159225964Y-81382171D01*
X159126098Y-81596335D01*
X159126094Y-81596344D01*
X159064938Y-81824586D01*
X159064936Y-81824596D01*
X159044341Y-82059999D01*
X159044341Y-82060000D01*
X156700500Y-82060000D01*
X156700500Y-74547870D01*
X163499500Y-74547870D01*
X163499501Y-74547876D01*
X163505908Y-74607483D01*
X163556202Y-74742328D01*
X163556206Y-74742335D01*
X163642452Y-74857544D01*
X163642455Y-74857547D01*
X163757664Y-74943793D01*
X163757671Y-74943797D01*
X163892517Y-74994091D01*
X163892516Y-74994091D01*
X163899444Y-74994835D01*
X163952127Y-75000500D01*
X166047872Y-75000499D01*
X166107483Y-74994091D01*
X166242331Y-74943796D01*
X166357546Y-74857546D01*
X166443796Y-74742331D01*
X166494091Y-74607483D01*
X166500500Y-74547873D01*
X166500500Y-73500005D01*
X168494357Y-73500005D01*
X168514890Y-73747812D01*
X168514892Y-73747824D01*
X168575936Y-73988881D01*
X168675826Y-74216606D01*
X168811833Y-74424782D01*
X168811836Y-74424785D01*
X168980256Y-74607738D01*
X169176491Y-74760474D01*
X169176493Y-74760475D01*
X169341920Y-74850000D01*
X169395190Y-74878828D01*
X169630386Y-74959571D01*
X169875665Y-75000500D01*
X170124335Y-75000500D01*
X170369614Y-74959571D01*
X170604810Y-74878828D01*
X170823509Y-74760474D01*
X171019744Y-74607738D01*
X171188164Y-74424785D01*
X171324173Y-74216607D01*
X171424063Y-73988881D01*
X171485108Y-73747821D01*
X171485109Y-73747812D01*
X171505643Y-73500005D01*
X171505643Y-73499994D01*
X171485109Y-73252187D01*
X171485107Y-73252175D01*
X171424063Y-73011118D01*
X171324173Y-72783393D01*
X171188166Y-72575217D01*
X171166557Y-72551744D01*
X171019744Y-72392262D01*
X170823509Y-72239526D01*
X170823507Y-72239525D01*
X170823506Y-72239524D01*
X170604811Y-72121172D01*
X170604802Y-72121169D01*
X170369616Y-72040429D01*
X170124335Y-71999500D01*
X169875665Y-71999500D01*
X169630383Y-72040429D01*
X169395197Y-72121169D01*
X169395188Y-72121172D01*
X169176493Y-72239524D01*
X168980257Y-72392261D01*
X168811833Y-72575217D01*
X168675826Y-72783393D01*
X168575936Y-73011118D01*
X168514892Y-73252175D01*
X168514890Y-73252187D01*
X168494357Y-73499994D01*
X168494357Y-73500005D01*
X166500500Y-73500005D01*
X166500499Y-72452128D01*
X166494091Y-72392517D01*
X166488626Y-72377865D01*
X166443797Y-72257671D01*
X166443793Y-72257664D01*
X166357547Y-72142455D01*
X166357544Y-72142452D01*
X166242335Y-72056206D01*
X166242328Y-72056202D01*
X166107482Y-72005908D01*
X166107483Y-72005908D01*
X166047883Y-71999501D01*
X166047881Y-71999500D01*
X166047873Y-71999500D01*
X166047864Y-71999500D01*
X163952129Y-71999500D01*
X163952123Y-71999501D01*
X163892516Y-72005908D01*
X163757671Y-72056202D01*
X163757664Y-72056206D01*
X163642455Y-72142452D01*
X163642452Y-72142455D01*
X163556206Y-72257664D01*
X163556202Y-72257671D01*
X163505908Y-72392517D01*
X163499501Y-72452116D01*
X163499501Y-72452123D01*
X163499500Y-72452135D01*
X163499500Y-74547870D01*
X156700500Y-74547870D01*
X156700500Y-62940000D01*
X159244341Y-62940000D01*
X159264936Y-63175403D01*
X159264938Y-63175413D01*
X159326094Y-63403655D01*
X159326096Y-63403659D01*
X159326097Y-63403663D01*
X159393345Y-63547876D01*
X159425965Y-63617830D01*
X159425967Y-63617834D01*
X159513144Y-63742335D01*
X159561505Y-63811401D01*
X159728599Y-63978495D01*
X159825384Y-64046265D01*
X159922165Y-64114032D01*
X159922167Y-64114033D01*
X159922170Y-64114035D01*
X160136337Y-64213903D01*
X160364592Y-64275063D01*
X160552918Y-64291539D01*
X160599999Y-64295659D01*
X160600000Y-64295659D01*
X160600001Y-64295659D01*
X160639234Y-64292226D01*
X160835408Y-64275063D01*
X161063663Y-64213903D01*
X161277830Y-64114035D01*
X161471401Y-63978495D01*
X161638495Y-63811401D01*
X161774035Y-63617830D01*
X161806658Y-63547870D01*
X163999500Y-63547870D01*
X163999501Y-63547876D01*
X164005908Y-63607483D01*
X164056202Y-63742328D01*
X164056206Y-63742335D01*
X164142452Y-63857544D01*
X164142455Y-63857547D01*
X164257664Y-63943793D01*
X164257671Y-63943797D01*
X164392517Y-63994091D01*
X164392516Y-63994091D01*
X164399444Y-63994835D01*
X164452127Y-64000500D01*
X166547872Y-64000499D01*
X166607483Y-63994091D01*
X166742331Y-63943796D01*
X166857546Y-63857546D01*
X166943796Y-63742331D01*
X166994091Y-63607483D01*
X167000500Y-63547873D01*
X167000500Y-62500005D01*
X168994357Y-62500005D01*
X169014890Y-62747812D01*
X169014892Y-62747824D01*
X169075936Y-62988881D01*
X169175826Y-63216606D01*
X169311833Y-63424782D01*
X169311836Y-63424785D01*
X169480256Y-63607738D01*
X169676491Y-63760474D01*
X169895190Y-63878828D01*
X170130386Y-63959571D01*
X170375665Y-64000500D01*
X170624335Y-64000500D01*
X170869614Y-63959571D01*
X171104810Y-63878828D01*
X171323509Y-63760474D01*
X171519744Y-63607738D01*
X171688164Y-63424785D01*
X171824173Y-63216607D01*
X171924063Y-62988881D01*
X171985108Y-62747821D01*
X171988691Y-62704586D01*
X172005643Y-62500005D01*
X172005643Y-62499994D01*
X171985109Y-62252187D01*
X171985107Y-62252175D01*
X171924063Y-62011118D01*
X171824173Y-61783393D01*
X171688166Y-61575217D01*
X171666557Y-61551744D01*
X171519744Y-61392262D01*
X171323509Y-61239526D01*
X171323507Y-61239525D01*
X171323506Y-61239524D01*
X171104811Y-61121172D01*
X171104802Y-61121169D01*
X170869616Y-61040429D01*
X170624335Y-60999500D01*
X170375665Y-60999500D01*
X170130383Y-61040429D01*
X169895197Y-61121169D01*
X169895188Y-61121172D01*
X169676493Y-61239524D01*
X169480257Y-61392261D01*
X169311833Y-61575217D01*
X169175826Y-61783393D01*
X169075936Y-62011118D01*
X169014892Y-62252175D01*
X169014890Y-62252187D01*
X168994357Y-62499994D01*
X168994357Y-62500005D01*
X167000500Y-62500005D01*
X167000499Y-61452128D01*
X166994091Y-61392517D01*
X166981024Y-61357483D01*
X166943797Y-61257671D01*
X166943793Y-61257664D01*
X166857547Y-61142455D01*
X166857544Y-61142452D01*
X166742335Y-61056206D01*
X166742328Y-61056202D01*
X166607482Y-61005908D01*
X166607483Y-61005908D01*
X166547883Y-60999501D01*
X166547881Y-60999500D01*
X166547873Y-60999500D01*
X166547864Y-60999500D01*
X164452129Y-60999500D01*
X164452123Y-60999501D01*
X164392516Y-61005908D01*
X164257671Y-61056202D01*
X164257664Y-61056206D01*
X164142455Y-61142452D01*
X164142452Y-61142455D01*
X164056206Y-61257664D01*
X164056202Y-61257671D01*
X164005908Y-61392517D01*
X163999501Y-61452116D01*
X163999501Y-61452123D01*
X163999500Y-61452135D01*
X163999500Y-63547870D01*
X161806658Y-63547870D01*
X161873903Y-63403663D01*
X161935063Y-63175408D01*
X161955659Y-62940000D01*
X161951972Y-62897864D01*
X161935063Y-62704596D01*
X161935063Y-62704592D01*
X161873903Y-62476337D01*
X161774035Y-62262171D01*
X161767044Y-62252187D01*
X161638496Y-62068600D01*
X161581014Y-62011118D01*
X161516567Y-61946671D01*
X161483084Y-61885351D01*
X161488068Y-61815659D01*
X161529939Y-61759725D01*
X161560915Y-61742810D01*
X161692331Y-61693796D01*
X161807546Y-61607546D01*
X161893796Y-61492331D01*
X161944091Y-61357483D01*
X161950500Y-61297873D01*
X161950499Y-59502128D01*
X161945970Y-59460000D01*
X177444341Y-59460000D01*
X177464936Y-59695403D01*
X177464938Y-59695413D01*
X177526094Y-59923655D01*
X177526096Y-59923659D01*
X177526097Y-59923663D01*
X177615126Y-60114586D01*
X177625965Y-60137830D01*
X177625967Y-60137834D01*
X177733240Y-60291034D01*
X177761501Y-60331396D01*
X177761506Y-60331402D01*
X177883430Y-60453326D01*
X177916915Y-60514649D01*
X177911931Y-60584341D01*
X177870059Y-60640274D01*
X177839083Y-60657189D01*
X177707669Y-60706203D01*
X177707664Y-60706206D01*
X177592455Y-60792452D01*
X177592452Y-60792455D01*
X177506206Y-60907664D01*
X177506202Y-60907671D01*
X177455908Y-61042517D01*
X177449501Y-61102116D01*
X177449501Y-61102123D01*
X177449500Y-61102135D01*
X177449500Y-62897870D01*
X177449501Y-62897876D01*
X177455908Y-62957483D01*
X177506202Y-63092328D01*
X177506206Y-63092335D01*
X177592452Y-63207544D01*
X177592455Y-63207547D01*
X177707664Y-63293793D01*
X177707671Y-63293797D01*
X177842517Y-63344091D01*
X177842516Y-63344091D01*
X177849444Y-63344835D01*
X177902127Y-63350500D01*
X179697872Y-63350499D01*
X179757483Y-63344091D01*
X179892331Y-63293796D01*
X180007546Y-63207546D01*
X180093796Y-63092331D01*
X180144091Y-62957483D01*
X180150500Y-62897873D01*
X180150499Y-61102128D01*
X180144091Y-61042517D01*
X180143312Y-61040429D01*
X180093797Y-60907671D01*
X180093793Y-60907664D01*
X180007547Y-60792455D01*
X180007544Y-60792452D01*
X179892335Y-60706206D01*
X179892328Y-60706202D01*
X179760917Y-60657189D01*
X179704983Y-60615318D01*
X179680566Y-60549853D01*
X179695418Y-60481580D01*
X179716563Y-60453332D01*
X179838495Y-60331401D01*
X179974035Y-60137830D01*
X180073903Y-59923663D01*
X180135063Y-59695408D01*
X180155659Y-59460000D01*
X180135063Y-59224592D01*
X180073903Y-58996337D01*
X179974035Y-58782171D01*
X179960002Y-58762129D01*
X179838494Y-58588597D01*
X179671402Y-58421506D01*
X179671395Y-58421501D01*
X179477834Y-58285967D01*
X179477830Y-58285965D01*
X179477828Y-58285964D01*
X179263663Y-58186097D01*
X179263659Y-58186096D01*
X179263655Y-58186094D01*
X179035413Y-58124938D01*
X179035403Y-58124936D01*
X178800001Y-58104341D01*
X178799999Y-58104341D01*
X178564596Y-58124936D01*
X178564586Y-58124938D01*
X178336344Y-58186094D01*
X178336335Y-58186098D01*
X178122171Y-58285964D01*
X178122169Y-58285965D01*
X177928597Y-58421505D01*
X177761505Y-58588597D01*
X177625965Y-58782169D01*
X177625964Y-58782171D01*
X177526098Y-58996335D01*
X177526094Y-58996344D01*
X177464938Y-59224586D01*
X177464936Y-59224596D01*
X177444341Y-59459999D01*
X177444341Y-59460000D01*
X161945970Y-59460000D01*
X161944091Y-59442517D01*
X161893796Y-59307669D01*
X161893795Y-59307668D01*
X161893793Y-59307664D01*
X161807547Y-59192455D01*
X161807544Y-59192452D01*
X161692335Y-59106206D01*
X161692328Y-59106202D01*
X161557482Y-59055908D01*
X161557483Y-59055908D01*
X161497883Y-59049501D01*
X161497881Y-59049500D01*
X161497873Y-59049500D01*
X161497864Y-59049500D01*
X159702129Y-59049500D01*
X159702123Y-59049501D01*
X159642516Y-59055908D01*
X159507671Y-59106202D01*
X159507664Y-59106206D01*
X159392455Y-59192452D01*
X159392452Y-59192455D01*
X159306206Y-59307664D01*
X159306202Y-59307671D01*
X159255908Y-59442517D01*
X159251104Y-59487206D01*
X159249501Y-59502123D01*
X159249500Y-59502135D01*
X159249500Y-61297870D01*
X159249501Y-61297876D01*
X159255908Y-61357483D01*
X159306202Y-61492328D01*
X159306206Y-61492335D01*
X159392452Y-61607544D01*
X159392455Y-61607547D01*
X159507664Y-61693793D01*
X159507671Y-61693797D01*
X159639081Y-61742810D01*
X159695015Y-61784681D01*
X159719432Y-61850145D01*
X159704580Y-61918418D01*
X159683430Y-61946673D01*
X159561503Y-62068600D01*
X159425965Y-62262169D01*
X159425964Y-62262171D01*
X159326098Y-62476335D01*
X159326094Y-62476344D01*
X159264938Y-62704586D01*
X159264936Y-62704596D01*
X159244341Y-62939999D01*
X159244341Y-62940000D01*
X156700500Y-62940000D01*
X156700500Y-56224500D01*
X156720185Y-56157461D01*
X156772989Y-56111706D01*
X156824500Y-56100500D01*
X223575500Y-56100500D01*
X223642539Y-56120185D01*
G37*
G04 #@! TD.AperFunction*
M02*
