G04 #@! TF.GenerationSoftware,KiCad,Pcbnew,7.0.8*
G04 #@! TF.CreationDate,2023-11-03T23:08:19-04:00*
G04 #@! TF.ProjectId,robot,726f626f-742e-46b6-9963-61645f706362,rev?*
G04 #@! TF.SameCoordinates,Original*
G04 #@! TF.FileFunction,Soldermask,Bot*
G04 #@! TF.FilePolarity,Negative*
%FSLAX46Y46*%
G04 Gerber Fmt 4.6, Leading zero omitted, Abs format (unit mm)*
G04 Created by KiCad (PCBNEW 7.0.8) date 2023-11-03 23:08:19*
%MOMM*%
%LPD*%
G01*
G04 APERTURE LIST*
G04 Aperture macros list*
%AMRoundRect*
0 Rectangle with rounded corners*
0 $1 Rounding radius*
0 $2 $3 $4 $5 $6 $7 $8 $9 X,Y pos of 4 corners*
0 Add a 4 corners polygon primitive as box body*
4,1,4,$2,$3,$4,$5,$6,$7,$8,$9,$2,$3,0*
0 Add four circle primitives for the rounded corners*
1,1,$1+$1,$2,$3*
1,1,$1+$1,$4,$5*
1,1,$1+$1,$6,$7*
1,1,$1+$1,$8,$9*
0 Add four rect primitives between the rounded corners*
20,1,$1+$1,$2,$3,$4,$5,0*
20,1,$1+$1,$4,$5,$6,$7,0*
20,1,$1+$1,$6,$7,$8,$9,0*
20,1,$1+$1,$8,$9,$2,$3,0*%
G04 Aperture macros list end*
%ADD10O,3.760000X1.982000*%
%ADD11R,1.700000X1.700000*%
%ADD12O,1.700000X1.700000*%
%ADD13RoundRect,0.102000X0.825000X-0.825000X0.825000X0.825000X-0.825000X0.825000X-0.825000X-0.825000X0*%
%ADD14C,1.854000*%
%ADD15R,2.000000X2.000000*%
%ADD16C,2.000000*%
%ADD17C,3.800000*%
%ADD18RoundRect,0.250000X-0.600000X-0.750000X0.600000X-0.750000X0.600000X0.750000X-0.600000X0.750000X0*%
%ADD19O,1.700000X2.000000*%
%ADD20RoundRect,0.102000X-0.765000X-0.765000X0.765000X-0.765000X0.765000X0.765000X-0.765000X0.765000X0*%
%ADD21C,1.734000*%
G04 APERTURE END LIST*
D10*
X207800000Y-81800000D03*
X207800000Y-69100000D03*
X207800000Y-84340000D03*
X207800000Y-71640000D03*
X207800000Y-74180000D03*
X207800000Y-66560000D03*
X207800000Y-79260000D03*
X207800000Y-76720000D03*
D11*
X213020000Y-110560000D03*
D12*
X215560000Y-110560000D03*
X218100000Y-110560000D03*
X220640000Y-110560000D03*
D11*
X160422500Y-91245000D03*
D12*
X160422500Y-88705000D03*
D13*
X211487500Y-95012500D03*
D14*
X211487500Y-92862500D03*
X211487500Y-90712500D03*
D15*
X165000000Y-73500000D03*
D16*
X170000000Y-73500000D03*
D11*
X160600000Y-60400000D03*
D12*
X160600000Y-62940000D03*
D17*
X190400000Y-109800000D03*
D11*
X160285000Y-104570000D03*
D12*
X160285000Y-102030000D03*
D13*
X211487500Y-102412500D03*
D14*
X211487500Y-100262500D03*
X211487500Y-98112500D03*
D11*
X160422500Y-95245000D03*
D12*
X160422500Y-97785000D03*
D11*
X160285000Y-108530000D03*
D12*
X160285000Y-111070000D03*
D11*
X202400000Y-59660000D03*
D12*
X202400000Y-62200000D03*
D17*
X215400000Y-67600000D03*
X165200000Y-111600000D03*
D11*
X160400000Y-84600000D03*
D12*
X160400000Y-82060000D03*
D15*
X165500000Y-62500000D03*
D16*
X170500000Y-62500000D03*
D15*
X165400000Y-85000000D03*
D16*
X170400000Y-85000000D03*
D11*
X178800000Y-62000000D03*
D12*
X178800000Y-59460000D03*
D18*
X215700000Y-60500000D03*
D19*
X218200000Y-60500000D03*
D11*
X212900000Y-106360000D03*
D12*
X215440000Y-106360000D03*
X217980000Y-106360000D03*
X220520000Y-106360000D03*
D20*
X177800000Y-65960000D03*
D21*
X177800000Y-68500000D03*
X177800000Y-71040000D03*
X177800000Y-73580000D03*
X177800000Y-76120000D03*
X177800000Y-78660000D03*
X177800000Y-81200000D03*
X177800000Y-83740000D03*
X177800000Y-86280000D03*
X177800000Y-88820000D03*
X177800000Y-91360000D03*
X177800000Y-93900000D03*
X177800000Y-96440000D03*
X177800000Y-98980000D03*
X177800000Y-101520000D03*
X177800000Y-104060000D03*
X177800000Y-106600000D03*
X177800000Y-109140000D03*
X177800000Y-111680000D03*
X203200000Y-111680000D03*
X203200000Y-109140000D03*
X203200000Y-106600000D03*
X203200000Y-104060000D03*
X203200000Y-101520000D03*
X203200000Y-98980000D03*
X203200000Y-96440000D03*
X203200000Y-93900000D03*
X203200000Y-91360000D03*
X203200000Y-88820000D03*
X203200000Y-86280000D03*
X203200000Y-83740000D03*
X203200000Y-81200000D03*
X203200000Y-78660000D03*
X203200000Y-76120000D03*
X203200000Y-73580000D03*
X203200000Y-71040000D03*
X203200000Y-68500000D03*
X203200000Y-65960000D03*
D17*
X190500000Y-89400000D03*
D11*
X207600000Y-108060000D03*
D12*
X207600000Y-110600000D03*
M02*
